<?xml version="1.0" standalone="no"?>
<!DOCTYPE svg PUBLIC "-//W3C//DTD SVG 1.1//EN" "http://www.w3.org/Graphics/SVG/1.1/DTD/svg11.dtd" >
<svg xmlns="http://www.w3.org/2000/svg" xmlns:xlink="http://www.w3.org/1999/xlink" version="1.1">
<metadata>
Created by FontForge 20170910 at Sun Sep  3 10:46:07 2017
 By Jimmy Wärting
Copyright (c) 2016 by Brittney Murphy. All rights reserved.
</metadata>
<defs>
<font id="MarketFreshInlineBoldAllCaps" horiz-adv-x="809" >
  <font-face 
    font-family="Market Fresh Inline Bold All Caps"
    font-weight="400"
    font-variant="small-caps"
    font-stretch="normal"
    units-per-em="1000"
    panose-1="2 11 5 3 2 2 0 0 0 0"
    ascent="832"
    descent="-168"
    x-height="710"
    cap-height="710"
    bbox="-38.2353 -376.133 1133 1108"
    underline-thickness="50"
    underline-position="-100"
    unicode-range="U+000D-2265"
  />
<missing-glyph horiz-adv-x="298" 
 />
    <glyph glyph-name=".notdef" horiz-adv-x="298" 
 />
    <glyph glyph-name="NULL" horiz-adv-x="0" 
 />
    <glyph glyph-name="NULL" horiz-adv-x="0" 
 />
    <glyph glyph-name="nonmarkingreturn" unicode="&#xd;" horiz-adv-x="298" 
 />
    <glyph glyph-name="space" unicode=" " horiz-adv-x="225" 
 />
    <glyph glyph-name="D" unicode="D" horiz-adv-x="683" 
d="M85 0q-11 0 -18 7.5t-7 17.5v659q0 12 7 19t18 7h203q76 0 141 -27t112.5 -75t74.5 -113t27 -141t-27 -140.5t-74.5 -112t-112.5 -74.5t-141 -27h-203zM123 649v-589h163q80 0 136 26.5t91 68.5t51 94.5t16 104.5q0 48 -16 100.5t-51 95.5t-91 71t-136 28h-163zM286 629
q73 0 125 -25t85 -64.5t48.5 -88.5t15.5 -97t-15.5 -97t-48.5 -88.5t-85 -64t-125 -24.5h-143v549h143zM288 145q48 0 87 16t66 44t41.5 66t14.5 83t-14.5 83t-41.5 66.5t-66 44.5t-87 16h-62q-9 0 -15 -7t-6 -18v-368q0 -12 7 -19t18 -7h58z" />
    <glyph glyph-name="O" unicode="O" 
d="M40 354q0 76 28.5 142.5t78 116t116 78t141.5 28.5q76 0 142.5 -28.5t116 -78t78 -116t28.5 -142.5t-28.5 -142t-78 -115.5t-116 -78t-142.5 -28.5q-75 0 -141.5 28.5t-116 78t-78 115.5t-28.5 142zM104 354q0 -63 23.5 -117.5t64.5 -95.5t95.5 -64.5t117.5 -23.5
t117.5 23.5t95.5 64.5t64.5 95.5t23.5 117.5t-23.5 118t-64.5 96t-95.5 64.5t-117.5 23.5t-117.5 -23.5t-95.5 -64.5t-64.5 -96t-23.5 -118zM124 354q0 58 22 109.5t60 90t89 60.5t110 22q58 0 109.5 -22t89.5 -60.5t60 -90t22 -109.5q0 -59 -22 -110t-60 -89t-89.5 -60
t-109.5 -22q-59 0 -110 22t-89 60t-60 89t-22 110zM186 354q0 -47 16.5 -87t46 -69t69 -46t86.5 -17t87 17t69.5 46t46.5 69t17 87q0 46 -17 86.5t-46.5 70t-69.5 46.5t-87 17t-86.5 -17t-69 -46.5t-46 -70t-16.5 -86.5z" />
    <glyph glyph-name="H" unicode="H" horiz-adv-x="672" 
d="M180 710q11 0 18 -7t7 -19v-244q0 -11 6 -18.5t16 -7.5h218q9 0 15.5 7.5t6.5 18.5v244q0 12 7 19t18 7h95q11 0 18 -7t7 -19v-659q0 -10 -7 -17.5t-18 -7.5h-95q-11 0 -18 7.5t-7 17.5v219q0 11 -6 18t-16 7h-215q-11 0 -18 -7t-7 -18v-219q0 -10 -7 -17.5t-18 -7.5h-95
q-11 0 -18 7.5t-7 17.5v659q0 12 7 19t18 7h95zM550 50v610h-20v-309h-388v309h-20v-610h20v281h388v-281h20z" />
    <glyph glyph-name="L" unicode="L" horiz-adv-x="532" 
d="M180 710q11 0 18 -7t7 -19v-513q0 -15 5.5 -20.5t14.5 -5.5h262q10 0 17.5 -7t7.5 -18v-95q0 -11 -7.5 -18t-17.5 -7h-402q-13 0 -19 7.5t-6 17.5v659q0 12 7 19t18 7h95zM462 62v20h-320v578h-20v-598h340z" />
    <glyph glyph-name="E" unicode="E" horiz-adv-x="572" 
d="M487 710q10 0 17.5 -7.5t7.5 -18.5v-94q0 -11 -7.5 -18.5t-17.5 -7.5h-262q-9 0 -14.5 -8t-5.5 -17v-99q0 -11 5.5 -18.5t14.5 -7.5h262q10 0 17.5 -7t7.5 -18v-95q0 -11 -7.5 -18t-17.5 -7h-262q-8 0 -14 -6.5t-6 -15.5v-80q0 -10 6.5 -16t14.5 -6h261q10 0 17.5 -7
t7.5 -18v-95q0 -11 -7.5 -18t-17.5 -7h-402q-11 0 -18 7.5t-7 17.5v659q0 12 7 19t18 7h402zM462 65v20h-320v249h320v20h-320v275h320v20h-340v-584h340z" />
    <glyph glyph-name="F" unicode="F" horiz-adv-x="552" 
d="M487 710q10 0 17.5 -7.5t7.5 -18.5v-94q0 -11 -7.5 -18.5t-17.5 -7.5h-262q-8 0 -14 -7t-6 -15v-106q0 -9 6 -15.5t14 -6.5h262q10 0 17.5 -7t7.5 -18v-95q0 -11 -7.5 -18t-17.5 -7h-262q-8 0 -14 -6.5t-6 -15.5v-222q0 -10 -7 -17.5t-18 -7.5h-95q-11 0 -18 7.5t-7 17.5
v659q0 12 7 19t18 7h402zM142 65v269h320v20h-320v275h320v20h-340v-584h20z" />
    <glyph glyph-name="J" unicode="J" horiz-adv-x="551" 
d="M21 160q-2 9 2 19t15 13l92 13q10 2 20 -3t12 -13q7 -22 31.5 -39t58.5 -15q19 1 37 5.5t31.5 22.5t21.5 53.5t8 97.5v370q0 12 7.5 19t18.5 7h94q11 0 18.5 -7t7.5 -19v-420q0 -74 -20.5 -126t-54.5 -85t-78 -48t-91 -15q-38 0 -74.5 9.5t-67.5 30.5t-54.5 53t-34.5 77z
M90 149q21 -47 60 -71.5t102 -24.5q55 0 90 19t55.5 54t28 85t7.5 113v336h-20v-336q0 -59 -6 -105.5t-23.5 -78.5t-49 -49.5t-82.5 -17.5q-57 0 -91 20.5t-52 58.5z" />
    <glyph glyph-name="N" unicode="N" horiz-adv-x="650" 
d="M565 710q11 0 18 -7t7 -19v-659q0 -10 -7 -17.5t-18 -7.5h-90q-19 0 -27 12l-218 364q-2 3 -6 4.5t-8.5 0t-7.5 -7t-3 -17.5v-331q0 -10 -7 -17.5t-18 -7.5h-95q-11 0 -18 7.5t-7 17.5v659q0 12 7 19t18 7h95q13 0 24 -15l217 -362q3 -4 7 -6.5t7.5 -1t6.5 7t3 18.5v333
q0 12 7 19t18 7h95zM123 660v-610h20v587l354 -587h30v610h-20v-587l-355 587h-29z" />
    <glyph glyph-name="M" unicode="M" horiz-adv-x="845" 
d="M200 25q0 -10 -7 -17.5t-18 -7.5h-95q-11 0 -18 7.5t-7 17.5l50 659q0 12 7 19t18 7h105q17 0 24 -18l146 -406q8 -18 19 -14.5t14 10.5l147 410q3 8 10 13t15 5h104q11 0 18.5 -7t7.5 -19l50 -659q0 -10 -7 -17.5t-18 -7.5h-95q-11 0 -18 7.5t-7 17.5l-22 250
q-1 18 -12 18t-19 -17l-98 -261q-3 -8 -11.5 -11.5t-18.5 -3.5h-84q-10 0 -18 3.5t-11 11.5l-102 267q-6 15 -16.5 10.5t-12.5 -25.5zM415 70l-216 590h-33l-46 -610h20l45 588l216 -588h42l218 592l44 -592h20l-46 610h-33l-217 -590h-14z" />
    <glyph glyph-name="T" unicode="T" horiz-adv-x="543" 
d="M20 684q0 11 7 18.5t18 7.5h453q10 0 17.5 -7.5t7.5 -18.5v-94q0 -11 -7.5 -18.5t-17.5 -7.5h-133q-9 0 -15 -7t-6 -15v-517q0 -10 -7 -17.5t-18 -7.5h-95q-11 0 -18 7.5t-7 17.5v514q0 9 -6 17t-14 8h-134q-11 0 -18 7.5t-7 18.5v94zM281 50v577h192v20h-403v-20h191
v-577h20z" />
    <glyph glyph-name="V" unicode="V" horiz-adv-x="619" 
d="M450 693q5 14 17.5 15.5t22.5 1.5h91q13 0 16 -10.5t-1 -20.5l-233 -664q-2 -6 -9.5 -10.5t-15.5 -4.5h-57q-8 0 -16 5t-10 11l-233 663q-4 11 0.5 21t14.5 10h91q10 0 22.5 -1.5t17.5 -15.5l127 -354q3 -9 13.5 -11t14.5 9zM115 660h-21l204 -581h22l205 581h-21
l-195 -552z" />
    <glyph glyph-name="A" unicode="A" horiz-adv-x="619" 
d="M490 0q-10 0 -22.5 1.5t-17.5 15.5l-36 102q-4 11 -10.5 17.5t-17.5 6.5h-158q-9 0 -15.5 -7t-8.5 -13l-36 -106q-5 -14 -17.5 -15.5t-22.5 -1.5h-91q-10 0 -14.5 10t-0.5 21l233 663q2 6 10 11t16 5h57q8 0 15.5 -4.5t9.5 -10.5l233 -664q4 -10 1 -20.5t-16 -10.5h-91z
M273 308q-2 -7 1 -13t20 -6h37q14 0 15.5 5.5t-0.5 11.5l-23 67q-4 11 -14.5 9t-13.5 -11zM319 633h-22l-204 -581h21l57 163h274l58 -163h21zM308 604l130 -369h-260z" />
    <glyph glyph-name="Y" unicode="Y" horiz-adv-x="554" 
d="M230 0q-11 0 -18 7.5t-7 17.5v248q0 12 -4.5 22t-9.5 22l-167 361q-5 11 -1.5 21.5t14.5 10.5h90q16 0 26 -2t15 -13l95 -201q6 -13 14 -13t11 6l98 208q5 11 15 13t26 2h90q11 0 14.5 -10.5t-1.5 -21.5l-166 -359q-5 -10 -9.5 -22.5t-4.5 -23.5v-248q0 -10 -7 -17.5
t-18 -7.5h-95zM267 50h20v247l168 363h-22l-156 -338l-156 338h-22l168 -363v-247z" />
    <glyph glyph-name="Q" unicode="Q" 
d="M40 354q0 76 28.5 142.5t78 116t116 78t141.5 28.5q76 0 142.5 -28.5t116 -78t78 -116t28.5 -142.5q0 -48 -12.5 -92t-32.5 -84q-5 -12 8 -25l44 -44q7 -7 7.5 -17t-7.5 -18l-66 -67q-8 -8 -19 -7.5t-18 7.5l-39 39q-8 8 -16 7.5t-16 -5.5q-44 -26 -93.5 -42t-104.5 -16
q-75 0 -141.5 28.5t-116 78t-78 115.5t-28.5 142zM186 354q0 -47 16.5 -87t46 -69t69 -46t86.5 -17q42 0 77 13q37 14 20 31l-113 113q-8 8 -8 18.5t8 18.5l67 66q17 17 35 0l101 -101q8 -8 15.5 -7t11.5 14q6 25 6 53q0 46 -17 86.5t-46.5 70t-69.5 46.5t-87 17t-86.5 -17
t-69 -46.5t-46 -70t-16.5 -86.5zM104 354q0 -63 23.5 -117.5t64.5 -95.5t95.5 -64.5t117.5 -23.5q65 0 120.5 24.5t97.5 67.5l82 -82l14 14l-83 83q33 39 51.5 88.5t18.5 105.5q0 63 -23.5 118t-64.5 96t-95.5 64.5t-117.5 23.5t-117.5 -23.5t-95.5 -64.5t-64.5 -96
t-23.5 -118zM444 324l165 -165q-38 -40 -90.5 -63t-113.5 -23q-59 0 -110 22t-89 60t-60 89t-22 110q0 58 22 109.5t60 90t89 60.5t110 22q58 0 109.5 -22t89.5 -60.5t60 -90t22 -109.5q0 -52 -17 -97.5t-47 -82.5l-164 164z" />
    <glyph glyph-name="C" unicode="C" horiz-adv-x="706" 
d="M40 354q0 76 28.5 142.5t78 116t116 78t141.5 28.5q76 0 140 -26t114 -76q7 -8 7.5 -18t-7.5 -18l-65 -65q-8 -8 -18.5 -8t-18.5 8q-32 26 -69.5 42t-82.5 16q-47 0 -86.5 -17t-69 -46.5t-46 -70t-16.5 -86.5q0 -47 16.5 -87t46 -69.5t69 -46.5t86.5 -17q45 0 82.5 16
t69.5 42q8 8 18.5 8t18.5 -8l65 -65q8 -8 7.5 -18t-7.5 -18q-50 -50 -114 -76t-140 -26q-75 0 -141.5 28.5t-116 78t-78 116t-28.5 142.5zM587 139q-37 -32 -83 -49t-99 -17q-59 0 -110 22t-89 60t-60 89t-22 110q0 58 22 109.5t60 90t89 60.5t110 22q53 0 99 -17.5
t83 -49.5l14 14q-40 34 -89.5 53.5t-106.5 19.5q-63 0 -117.5 -23.5t-95.5 -64.5t-64.5 -96t-23.5 -118t23.5 -117.5t64.5 -95.5t95.5 -64.5t117.5 -23.5q57 0 106.5 19t89.5 53z" />
    <glyph glyph-name="U" unicode="U" horiz-adv-x="635" 
d="M175 710q11 0 18 -7t7 -19v-350q0 -52 4.5 -89.5t17.5 -62t36 -36t59 -11.5q37 0 60 11.5t36 36t17.5 62t4.5 89.5v350q0 12 7 19t18 7h95q11 0 18 -7t7 -19v-400q0 -145 -63 -219.5t-200 -74.5q-136 0 -199 75t-63 219v400q0 12 7 19t18 7h95zM137 324v336h-20v-336
q0 -63 9 -113t32 -85t61.5 -54t97.5 -19t97.5 19t61.5 54t32.5 85t9.5 113v336h-20v-336q0 -59 -8 -105.5t-28 -78.5t-55 -49.5t-90 -17.5t-90 17.5t-55 49.5t-27.5 78.5t-7.5 105.5z" />
    <glyph glyph-name="P" unicode="P" horiz-adv-x="596" 
d="M225 174q-8 0 -14 -7t-6 -16v-126q0 -10 -7 -17.5t-18 -7.5h-95q-11 0 -18 7.5t-7 17.5v659q0 12 7 19t18 7h166q152 0 233.5 -65t81.5 -191q0 -62 -21 -113.5t-61 -88.5t-99 -57.5t-134 -20.5h-26zM227 564q-9 0 -15.5 -6.5t-6.5 -15.5v-198q0 -11 5.5 -18t15.5 -7h25
q169 0 169 123q0 63 -41.5 92.5t-127.5 29.5h-24zM251 647h-129v-597h20v187h109q45 0 89.5 9.5t80.5 33t58.5 63t22.5 99.5q0 63 -22.5 103t-58.5 62.5t-80.5 31t-89.5 8.5zM142 627h109q45 0 86.5 -8t73.5 -28.5t51.5 -56.5t19.5 -92q0 -52 -19.5 -87.5t-51.5 -57
t-73.5 -31t-86.5 -9.5h-109v370z" />
    <glyph glyph-name="R" unicode="R" horiz-adv-x="606" 
d="M225 179q-20 -7 -20 -23v-131q0 -10 -7 -17.5t-18 -7.5h-95q-11 0 -18 7.5t-7 17.5v659q0 12 7 19t18 7h166q75 0 134 -13t99 -43t61 -79t21 -121q0 -55 -29 -106.5t-74 -89.5q-16 -13 -20 -23.5t4 -30.5l84 -173q5 -12 3 -21.5t-19 -9.5h-106q-13 0 -19 5t-9 10l-85 163
q-2 5 -11 7t-20 1q-10 -1 -19 -2t-21 -5zM453 50l-106 212q31 11 59 28.5t49.5 41t34 53.5t12.5 67q0 63 -22.5 101.5t-58.5 59.5t-80.5 27.5t-89.5 6.5h-129v-597h20v190q69 0 113.5 4t71.5 12l103 -206h23zM251 627q45 0 86.5 -6.5t73.5 -25t51.5 -53t19.5 -90.5
q0 -33 -11.5 -60t-31 -48.5t-45.5 -37.5t-56 -26q-39 -12 -84 -16t-112 -4v367h109zM227 564q-9 0 -15.5 -6.5t-6.5 -15.5v-198q0 -11 5.5 -18t15.5 -7h25q37 0 68 9.5t53.5 26.5t35 39t12.5 48q0 37 -12.5 61t-35 37.5t-53.5 18.5t-68 5h-24z" />
    <glyph glyph-name="B" unicode="B" horiz-adv-x="585" 
d="M85 0q-11 0 -18 7t-7 18v659q0 11 7 18.5t18 7.5h146q77 0 131 -13.5t88 -39.5t49.5 -63t15.5 -85q0 -40 -12.5 -71.5t-32.5 -58.5q-6 -8 -4 -14.5t10 -12.5q69 -56 69 -151q0 -48 -15.5 -85t-49.5 -63t-88 -39.5t-131 -13.5h-176zM226 282q-9 0 -15 -6.5t-6 -15.5v-89
q0 -11 5.5 -18.5t14.5 -7.5h36q75 0 107 18t32 50q0 31 -32 50t-107 19h-35zM226 564q-10 0 -15.5 -7.5t-5.5 -17.5v-90q0 -9 6 -15t15 -6q79 0 111.5 18.5t32.5 49.5q0 32 -32 50t-107 18h-5zM271 63q41 0 79 6.5t67.5 23t47 45.5t17.5 75q0 31 -10.5 56t-29 43.5
t-43.5 30.5t-54 17q48 14 77.5 46t29.5 90q0 46 -17.5 75t-46 46t-66.5 23.5t-78 6.5h-122v-584h149zM261 346q34 0 69.5 -5t64.5 -19.5t48 -40.5t19 -68q0 -46 -19 -72t-48 -39t-64.5 -16t-69.5 -3h-119v263h119zM142 366v261h82q37 -1 74 -4.5t67 -16t48.5 -38.5t18.5 -72
q0 -42 -18 -67.5t-47.5 -39.5t-66.5 -18.5t-75 -4.5h-83z" />
    <glyph glyph-name="S" unicode="S" horiz-adv-x="583" 
d="M377 513q-2 18 -10 30.5t-19.5 20.5t-25.5 11.5t-29 3.5q-88 0 -88 -67q0 -24 25 -38.5t62.5 -27.5t81.5 -28t81.5 -40t62.5 -63t25 -97q0 -56 -21.5 -98.5t-57 -71.5t-81 -43.5t-93.5 -14.5q-50 0 -95.5 15.5t-80 44.5t-54.5 71t-20 96q0 10 7 17.5t18 7.5h95
q11 0 17 -7.5t8 -17.5q8 -43 34.5 -62.5t71.5 -19.5q52 0 79 21.5t27 61.5q0 36 -25 55.5t-62.5 32t-81 24t-81 32t-62.5 55.5t-25 95q0 56 22.5 95.5t57 64.5t75.5 36.5t77 11.5q39 0 79.5 -12t74 -37.5t55 -64.5t21.5 -93q0 -10 -7 -17.5t-18 -7.5h-95q-11 0 -17.5 7.5
t-7.5 17.5zM104 192q5 -29 21 -54.5t41 -44.5t57 -30t69 -11q41 0 75.5 13.5t59.5 36t39 52.5t14 64q0 52 -25 83.5t-62.5 50.5t-81.5 31.5t-81.5 28t-62.5 38t-25 62.5q0 30 12 53.5t33 40t48 25.5t57 9q54 0 94.5 -27t50.5 -75h21q-5 25 -19 47.5t-35.5 39t-50 26
t-61.5 9.5q-38 0 -69 -12t-53.5 -32t-35 -47t-12.5 -57q0 -45 25 -71t62.5 -43t81.5 -29.5t81.5 -30t62.5 -45.5t25 -75q0 -34 -13.5 -61t-36.5 -46t-53.5 -29t-64.5 -10q-30 0 -58.5 8t-51 23.5t-38 38t-20.5 50.5h-20z" />
    <glyph glyph-name="K" unicode="K" horiz-adv-x="675" 
d="M524 0q-11 0 -17 7t-14 18l-187 249q-2 4 -12.5 4t-20.5 -13l-60 -80q-8 -11 -8 -28v-132q0 -10 -7 -17.5t-18 -7.5h-95q-11 0 -18 7.5t-7 17.5v659q0 12 7 19t18 7h95q11 0 18 -7t7 -19v-234q0 -18 10 -21t17 7l195 260q6 8 11.5 11t11.5 3h122q11 0 17 -8t-2 -18
l-201 -268q-4 -7 -2 -15t16 -26l262 -350q7 -10 1 -17.5t-17 -7.5h-122zM548 50h20l-265 353l192 257h-20l-332 -444v444h-20v-610h20v138l150 202z" />
    <glyph glyph-name="W" unicode="W" horiz-adv-x="902" 
d="M22 678q-3 11 2 21.5t16 10.5h102q13 0 18 -5t7 -10l99 -362q5 -20 15.5 -21t15.5 15l99 364q2 10 10 14.5t18 4.5h53q11 0 19 -5t10 -13l97 -361q3 -10 7.5 -14t9 -4t8.5 4t6 10l101 368q2 7 9 11t16 4h102q11 0 16 -10.5t2 -21.5l-180 -660q-2 -9 -11 -13.5t-18 -4.5
h-105q-9 0 -16 4t-10 15l-79 290q-2 8 -9.5 8.5t-10.5 -10.5l-79 -289q-2 -8 -10 -13t-18 -5h-104q-9 0 -17 5t-10 13zM810 660h-20l-163 -590h-15l-150 547l-22 -1l-150 -546h-15l-164 590h-20l169 -610h45l146 530l145 -530h45z" />
    <glyph glyph-name="X" unicode="X" horiz-adv-x="668" 
d="M321 505q5 -8 11.5 -10.5t11.5 5.5l120 190q9 15 17.5 17.5t19.5 2.5h108q11 0 16.5 -7.5t-1.5 -18.5l-196 -310q-12 -20 -3 -35l199 -314q6 -10 1 -17.5t-16 -7.5h-108q-11 0 -19 2.5t-18 17.5l-119 187q-11 17 -26 -6l-115 -181q-10 -15 -18 -17.5t-19 -2.5h-107
q-11 0 -16.5 7.5t0.5 17.5l197 312q5 9 5.5 17.5t-6.5 19.5l-196 310q-7 11 -1 18.5t17 7.5h107q11 0 19.5 -2.5t17.5 -17.5zM152 50l182 289l183 -289h23l-193 305l193 305h-23l-183 -289l-182 289h-23l192 -305l-192 -305h23z" />
    <glyph glyph-name="Z" unicode="Z" horiz-adv-x="552" 
d="M241 193q-14 -20 -14 -34t25 -14h235q10 0 17.5 -7t7.5 -18v-95q0 -11 -7.5 -18t-17.5 -7h-418q-11 0 -18 7t-7 18v105q0 10 4.5 20t11.5 20l250 347q13 19 13.5 33t-19.5 14h-239q-10 0 -17.5 7.5t-7.5 18.5v94q0 11 7.5 18.5t17.5 7.5h418q11 0 18 -7.5t7 -18.5v-104
q0 -10 -5 -20.5t-11 -19.5zM126 120l319 464v63h-355v-20h335v-37l-319 -463v-64h356v20h-336v37z" />
    <glyph glyph-name="G" unicode="G" horiz-adv-x="681" 
d="M612 55q-45 -31 -97.5 -48t-110.5 -17q-75 0 -141.5 28.5t-116 78t-78 115.5t-28.5 142t28.5 142.5t78 116t116 78t141.5 28.5q47 0 91 -12t83 -33q8 -5 11 -15t-2 -19l-46 -81q-6 -8 -16 -10.5t-21 2.5q-22 11 -47.5 17t-52.5 6q-47 0 -86.5 -17t-69 -46.5t-46 -70
t-16.5 -86.5q0 -47 16.5 -87t46 -69t69 -46t86.5 -17q13 0 25 1t23 4h1q14 6 18.5 15t4.5 28v36q0 11 -6 18t-16 7h-68q-11 0 -18 7t-7 18v95q0 11 7 18t18 7h210q10 0 17.5 -7t7.5 -18v-290q0 -13 -9 -19zM411 327v-20h127v-202q-59 -32 -133 -32q-59 0 -110 22t-89 60
t-60 89t-22 110q0 58 22 109.5t60 90t89 60.5t110 22q64 0 119 -26l9 17q-29 14 -61 21.5t-67 7.5q-63 0 -117.5 -23.5t-95.5 -64.5t-64.5 -96t-23.5 -118t23.5 -117.5t64.5 -95.5t95.5 -64.5t117.5 -23.5q36 0 73 8.5t80 32.5v233h-147z" />
    <glyph glyph-name="I" unicode="I" horiz-adv-x="275" 
d="M185 710q11 0 18 -7t7 -19v-659q0 -10 -7 -17.5t-18 -7.5h-95q-11 0 -18 7.5t-7 17.5v659q0 12 7 19t18 7h95zM147 50v610h-20v-610h20z" />
    <glyph glyph-name="one" unicode="1" horiz-adv-x="345" 
d="M138 697q4 5 9 9t13 4h95q11 0 18 -7t7 -19v-659q0 -10 -7 -17.5t-18 -7.5h-95q-11 0 -18 7.5t-7 17.5v464q0 8 -11 11.5t-24 -12.5q-8 -10 -16.5 -12.5t-17.5 5.5l-34 28q-20 16 -6 36zM170 660l-102 -125l15 -13l98 118h16v-590h20v610h-47z" />
    <glyph glyph-name="two" unicode="2" horiz-adv-x="543" 
d="M40 513q0 54 21.5 93t55 64.5t74.5 37.5t80 12q36 0 77 -11.5t75.5 -36.5t57 -64.5t22.5 -95.5q0 -46 -19.5 -82.5t-50 -66t-67 -54t-70 -47.5t-59 -46t-34.5 -50q-4 -11 1 -16t15 -5h256q11 0 18.5 -7t7.5 -18v-95q0 -11 -7.5 -18t-18.5 -7h-407q-11 0 -18.5 7t-7.5 18
v98q0 51 23.5 91t58.5 73t75.5 60.5t75.5 54t58.5 53t23.5 57.5q0 21 -12.5 35t-31.5 21t-41.5 6.5t-41.5 -7.5t-31.5 -20.5t-12.5 -33.5q0 -10 -7.5 -17.5t-18.5 -7.5h-94q-11 0 -18.5 7.5t-7.5 17.5zM125 538q8 48 47 73.5t99 25.5q68 0 108.5 -32.5t40.5 -92.5
q0 -35 -23 -65.5t-57 -59.5t-74.5 -57t-74.5 -58.5t-57 -64.5t-23 -74v-71h340v20h-320v51q0 37 23 69.5t57 62t74.5 58t74.5 58t57 61.5t23 70q0 30 -11 56.5t-32.5 46t-53 31t-72.5 11.5q-74 0 -116 -34t-50 -85h20z" />
    <glyph glyph-name="four" unicode="4" horiz-adv-x="577" 
d="M20 263q0 8 7 19l287 418q4 5 11 7.5t15 2.5h80q11 0 18.5 -7t7.5 -19v-370q0 -9 4.5 -16.5t12.5 -8.5h59q10 0 17.5 -7.5t7.5 -18.5v-94q0 -11 -7.5 -18.5t-17.5 -7.5h-57q-8 0 -13.5 -7t-5.5 -15v-96q0 -10 -7.5 -17.5t-18.5 -7.5h-84q-11 0 -18.5 7.5t-7.5 17.5v96
q0 8 -5.5 15t-13.5 7h-245q-12 0 -19 7.5t-7 18.5v94zM291 289q8 1 13.5 8t5.5 17v96q0 21 -8 24t-14 -5l-83 -120q-5 -8 -2 -14t28 -6h60zM388 50v156h109v20h-109v434h-34l-284 -415v-39h298v-156h20zM90 240l275 400h3v-414h-278v14z" />
    <glyph glyph-name="three" unicode="3" horiz-adv-x="543" 
d="M40 513q0 54 21.5 93t55 64.5t74.5 37.5t80 12q36 0 77 -11.5t75.5 -36t57 -64t22.5 -95.5q0 -46 -18 -80.5t-46 -64.5q-13 -15 1 -28q29 -28 46 -63t17 -80q0 -56 -22.5 -95.5t-57 -64t-75.5 -36t-77 -11.5q-39 0 -80 12t-74.5 37.5t-55 64.5t-21.5 93q0 10 7.5 17.5
t18.5 7.5h94q11 0 18.5 -7.5t7.5 -17.5q0 -22 13 -36.5t32 -21t41 -6t41 8t31.5 21.5t12.5 34q0 18 -6 33.5t-20 27t-38 18t-60 6.5h-34q-12 0 -19 7.5t-7 18.5v94q0 11 7 18.5t19 7.5h31q66 0 96.5 24.5t30.5 60.5q0 21 -12.5 35t-31.5 20.5t-41.5 6.5t-41.5 -7.5
t-31.5 -21t-12.5 -33.5q0 -10 -7.5 -17.5t-18.5 -7.5h-94q-11 0 -18.5 7.5t-7.5 17.5zM223 345q22 -1 42.5 -3t34.5 -6q57 -16 88.5 -53.5t31.5 -85.5q0 -30 -12 -53.5t-32.5 -39t-47.5 -24t-57 -8.5q-54 0 -94.5 25.5t-50.5 74.5h-20q4 -26 18 -47.5t35.5 -38t50 -25.5
t61.5 -9q37 0 68.5 11.5t53.5 31t34.5 46t12.5 56.5q0 24 -8.5 48t-25 45.5t-42 38.5t-58.5 26q33 9 58.5 26t42 38.5t25 45.5t8.5 48q0 30 -12.5 56.5t-34.5 46t-53.5 31t-68.5 11.5q-67 0 -111 -34.5t-54 -85.5h20q10 48 50.5 74t94.5 26q30 0 57 -8.5t47.5 -24t32.5 -39
t12 -53.5q0 -48 -31.5 -85.5t-88.5 -53.5q-14 -4 -34.5 -6t-42.5 -3v-20z" />
    <glyph glyph-name="five" unicode="5" horiz-adv-x="558" 
d="M86 684q0 11 7 18.5t18 7.5h351q10 0 17.5 -7.5t7.5 -18.5v-94q0 -11 -7.5 -18.5t-17.5 -7.5h-209q-10 0 -16 -7t-6 -18v-46q0 -10 5 -17t14 -8h48q52 0 92.5 -18t69 -51t43.5 -79.5t15 -102.5q-1 -63 -23.5 -106.5t-57 -70.5t-75 -38.5t-76.5 -11.5q-39 0 -80 12
t-74.5 37.5t-55 64.5t-21.5 93q0 10 7.5 17.5t18.5 7.5h94q11 0 18.5 -7.5t7.5 -17.5q1 -33 27.5 -48.5t58.5 -13t58.5 22.5t26.5 59q0 14 -3.5 32.5t-16 35t-38 27.5t-70.5 11h-133q-11 0 -18 7t-7 18v336zM148 385h138q70 0 109.5 -46.5t39.5 -121.5q0 -34 -12 -60.5
t-32.5 -45t-47.5 -28.5t-57 -10q-53 0 -94 28t-52 71h-20q6 -28 22.5 -50t39.5 -37.5t50 -23.5t54 -8q30 0 60 10t54.5 30.5t39.5 51.5t15 72q0 91 -47 139.5t-122 48.5h-118v222h269v20h-289v-262z" />
    <glyph glyph-name="six" unicode="6" horiz-adv-x="578" 
d="M291 444q40 0 81.5 -11.5t74.5 -38.5t54 -70.5t21 -106.5t-22.5 -106.5t-56.5 -70.5t-74.5 -38.5t-77.5 -11.5q-77 0 -126 32t-76.5 83.5t-38 117t-10.5 131.5q0 85 16 152.5t48 115t79 73t109 25.5q38 0 74.5 -9.5t67.5 -30.5t54 -53t34 -77q2 -10 -2 -19.5t-15 -12.5
l-91 -30q-11 -3 -21 2.5t-12 13.5q-9 42 -31.5 56.5t-57.5 14.5q-41 0 -67 -28.5t-35 -91.5q-2 -15 4 -22.5t17 -3.5l15 5t20.5 5.5t23 4t21.5 0.5zM291 135q37 0 61.5 21t24.5 61t-24.5 61t-61.5 21q-36 0 -61 -21t-25 -61t25 -61t61 -21zM458 543q-6 19 -17.5 39t-31 37
t-48.5 28t-69 11q-34 0 -67.5 -16.5t-60.5 -53t-43.5 -94.5t-16.5 -140q0 -83 13.5 -140.5t38.5 -93.5t59.5 -52t75.5 -16q37 0 68.5 13t53.5 35.5t34.5 52.5t12.5 64t-12.5 64t-34.5 52.5t-53.5 35.5t-68.5 13q-59 0 -102 -31.5t-61 -79.5q-2 19 -3 39.5t-1 43.5
q0 82 16.5 137t41.5 87.5t54.5 46t55.5 13.5q35 0 61 -9t43.5 -24t28 -33t15.5 -36zM291 72q-25 0 -48.5 7t-43.5 23.5t-35.5 44t-25.5 68.5q0 33 12.5 60t34 46.5t49 30t57.5 10.5t57 -10t47.5 -29t32.5 -45.5t12 -60.5t-12 -61t-32.5 -45.5t-47.5 -28.5t-57 -10z" />
    <glyph glyph-name="nine" unicode="9" horiz-adv-x="578" 
d="M287 266q-41 0 -82 11.5t-74 38.5t-54 70.5t-21 106.5t22.5 106.5t56.5 70.5t74.5 38.5t77.5 11.5q77 0 126 -32t76.5 -83.5t38 -117t10.5 -131.5q0 -85 -16 -152.5t-48 -115t-79 -73t-109 -25.5q-38 0 -74.5 9.5t-67.5 30.5t-54.5 53t-33.5 77q-2 10 2 19.5t15 12.5
l91 30q11 3 21 -2.5t12 -13.5q9 -42 31.5 -56.5t57.5 -14.5q41 0 70.5 28.5t31.5 91.5q0 15 -5 22.5t-16 3.5l-15 -5t-20.5 -5.5t-23 -4t-21.5 -0.5zM287 575q-37 0 -61.5 -21t-24.5 -61t24.5 -61t61.5 -21q36 0 61 21t25 61t-25 61t-61 21zM120 167q6 -19 17.5 -39t31 -37
t48 -28t69.5 -11q34 0 67.5 16.5t60.5 53t43.5 94t16.5 140.5q0 82 -14 139.5t-38.5 93.5t-59 52.5t-75.5 16.5q-38 0 -69 -13t-53 -35.5t-34.5 -52.5t-12.5 -64t12.5 -64t34.5 -52.5t53 -35.5t69 -13q59 0 102 31.5t61 79.5q2 -19 3 -39.5t1 -43.5q0 -83 -16.5 -137.5
t-41.5 -87t-54.5 -46t-55.5 -13.5q-35 0 -61 9t-43.5 24t-28 33t-15.5 36zM287 638q25 0 48.5 -7t43.5 -23.5t35.5 -44t25.5 -68.5q0 -33 -12.5 -60t-34 -46.5t-49 -30t-57.5 -10.5t-57 10t-47.5 28.5t-32.5 45.5t-12 61t12 60.5t32.5 45.5t47.5 29t57 10z" />
    <glyph glyph-name="seven" unicode="7" horiz-adv-x="466" 
d="M262 542q4 10 -2 16t-17 6h-197q-12 0 -19 7.5t-7 18.5v94q0 11 7 18.5t19 7.5h375q10 0 17.5 -7.5t7.5 -18.5v-48q0 -5 -2 -10.5t-4 -10.5l-211 -598q-5 -13 -15 -15t-25 -2h-91q-11 0 -15 7.5t1 23.5zM70 627h287l-201 -577h21l208 597h-315v-20z" />
    <glyph glyph-name="eight" unicode="8" horiz-adv-x="564" 
d="M283 -10q-41 0 -84 11.5t-78 36t-58 64t-23 95.5q0 51 19.5 88t49.5 63q11 10 10 17t-6 12q-22 24 -37 57.5t-15 80.5q0 56 21 95t53.5 63.5t71.5 35.5t76 11q36 0 75 -11t71.5 -35.5t53 -63.5t20.5 -95q0 -46 -15 -80t-38 -58q-6 -6 -5.5 -14t6.5 -13q31 -26 51.5 -63.5
t20.5 -89.5q0 -56 -22 -95.5t-57.5 -64t-78 -36t-82.5 -11.5zM283 285q-27 0 -45.5 -7t-30 -18.5t-16.5 -25t-5 -26.5t5 -26.5t16.5 -24t30 -17t45.5 -6.5t45.5 6.5t29.5 17t16 24t5 26.5t-5 26.5t-16 25t-29.5 18.5t-45.5 7zM283 432q39 0 56.5 22.5t17.5 48.5
q0 13 -4.5 26t-13.5 23t-23 16.5t-33 6.5q-41 0 -59 -23t-18 -49t18 -48.5t59 -22.5zM283 658q-34 0 -63 -11.5t-50.5 -32t-33.5 -49t-12 -62.5q0 -51 29 -87t71 -52q-25 -8 -47 -22.5t-38.5 -34.5t-26 -45t-9.5 -54q0 -38 15.5 -67t41 -48.5t57.5 -30t66 -10.5t66 10.5
t57 30t40 48.5t15 67q0 29 -9.5 54t-25.5 45t-37.5 34.5t-46.5 22.5q42 16 70 52t28 87q0 34 -12 62.5t-33 49t-49.5 32t-62.5 11.5zM283 354q34 0 63 -11.5t50 -31.5t33 -46.5t12 -56.5t-12 -55t-33 -43t-50 -28t-63 -10t-63 10t-50.5 28t-34 43t-12.5 55t12.5 56.5
t34 46.5t50.5 31.5t63 11.5zM283 638q34 0 59.5 -11.5t42.5 -30t26 -43t9 -50.5t-10 -49.5t-28.5 -41t-43.5 -28t-55 -10.5t-55.5 10.5t-44 28t-29 41t-10.5 49.5t9 50.5t26.5 43t43.5 30t60 11.5z" />
    <glyph glyph-name="fraction" unicode="&#x2044;" horiz-adv-x="424" 
d="M37 0q-11 0 -15 10t0 21l233 661q4 11 14 14.5t27 3.5h91q11 0 15 -10.5t0 -21.5l-234 -661q-4 -11 -13 -14t-27 -3h-91zM115 50l215 610h-22l-215 -610h22z" />
    <glyph glyph-name="backslash" unicode="\" horiz-adv-x="424" 
d="M386.977 0q10.999 0 14.999 10t0 21l-232.986 661q-3.99902 11 -13.999 14.5q-9.99902 3.5 -26.998 3.5h-90.9941q-11 0 -14.999 -10.5q-4 -10.5 0 -21.5l233.985 -661q4 -11 12.999 -14q9 -3 26.999 -3h90.9941zM308.981 50l-214.987 610h21.999l214.986 -610h-21.998z
" />
    <glyph glyph-name="period" unicode="." horiz-adv-x="225" 
d="M40 63q0 30 21 51t53 21q31 0 51 -21t20 -51q0 -32 -20 -52.5t-51 -20.5q-32 0 -53 20.5t-21 52.5zM101 63q0 -5 3.5 -8.5t8.5 -3.5t8.5 3.5t3.5 8.5t-3.5 8.5t-8.5 3.5t-8.5 -3.5t-3.5 -8.5z" />
    <glyph glyph-name="colon" unicode=":" horiz-adv-x="225" 
d="M40 342q0 30 21 51t53 21q31 0 51 -21t20 -51q0 -32 -20 -52.5t-51 -20.5q-32 0 -53 20.5t-21 52.5zM40 139q0 30 21 51t53 21q31 0 51 -21t20 -51q0 -32 -20 -52.5t-51 -20.5q-32 0 -53 20.5t-21 52.5zM101 342q0 -5 3.5 -8.5t8.5 -3.5t8.5 3.5t3.5 8.5t-3.5 8.5
t-8.5 3.5t-8.5 -3.5t-3.5 -8.5zM101 139q0 -5 3.5 -8.5t8.5 -3.5t8.5 3.5t3.5 8.5t-3.5 8.5t-8.5 3.5t-8.5 -3.5t-3.5 -8.5z" />
    <glyph glyph-name="semicolon" unicode=";" horiz-adv-x="226" 
d="M40 342q0 30 21 51t53 21q31 0 51 -21t20 -51q0 -32 -20 -52.5t-51 -20.5q-32 0 -53 20.5t-21 52.5zM101 342q0 -5 3.5 -8.5t8.5 -3.5t8.5 3.5t3.5 8.5t-3.5 8.5t-8.5 3.5t-8.5 -3.5t-3.5 -8.5zM175 193q9 -3 14 -12.5t0 -18.5l-92 -193q-5 -10 -14 -14t-18 -1l-34 12
q-11 4 -14 12.5t-1 18.5l53 207q3 11 13 15t21 0zM114 172l-61 -169l18 -7l61 169z" />
    <glyph glyph-name="comma" unicode="," horiz-adv-x="226" 
d="M185 115q9 -3 14 -12.5t0 -18.5l-92 -193q-5 -10 -14 -14t-18 -1l-34 12q-11 4 -14 12.5t-1 18.5l53 207q3 11 13 15t21 0zM124 94l-61 -169l18 -7l61 169z" />
    <glyph glyph-name="bracketleft" unicode="[" horiz-adv-x="313" 
d="M142 83v544h81v20h-101v-584h101v20h-81zM247 710q10 0 18 -7.5t8 -18.5v-94q0 -11 -7.5 -18t-17.5 -7q-19 -2 -31 -13.5t-12 -28.5v-331q0 -20 11 -32.5t30 -14.5h2q10 0 17.5 -7t7.5 -18v-95q0 -11 -8 -18t-18 -7h-162q-11 0 -18 7.5t-7 17.5v659q0 12 7 19t18 7h162z
" />
    <glyph glyph-name="bracketright" unicode="]" horiz-adv-x="313" 
d="M90 83v-20h101v584h-101v-20h81v-544h-81zM228 710q11 0 18 -7t7 -19v-659q0 -10 -7 -17.5t-18 -7.5h-162q-10 0 -18 7t-8 18v95q0 11 7.5 18t17.5 7h2q19 2 30 14.5t11 32.5v331q0 17 -12 28.5t-31 13.5q-10 0 -17.5 7t-7.5 18v94q0 11 8 18.5t18 7.5h162z" />
    <glyph glyph-name="braceleft" unicode="{" horiz-adv-x="409" 
d="M344 0q-52 0 -91.5 10t-64 33.5t-34 61t-1.5 92.5q7 50 -13 67.5t-63 17.5h-31q-12 0 -19 7.5t-7 18.5v94q0 11 7 18.5t19 7.5h34q40 0 60 17.5t13 67.5q-8 55 1.5 92.5t34 61t64 33.5t91.5 10q10 0 17.5 -7.5t7.5 -18.5v-94q0 -11 -7.5 -18.5t-17.5 -7.5
q-29 0 -39 -13.5t-7 -37.5q6 -48 1 -87.5t-30 -64.5q-5 -5 -4.5 -6.5t4.5 -5.5q25 -25 34 -64t-5 -88q-14 -52 46 -52q10 0 17.5 -7t7.5 -18v-95q0 -11 -7.5 -18t-17.5 -7zM70 365v-20h52q42 -2 62.5 -17.5t28.5 -33.5q9 -21 7 -47l-7 -97q-2 -29 7 -46t25 -26t35.5 -12
t38.5 -3v20q-17 0 -33 2.5t-28.5 10.5t-19.5 23t-5 41l7 97q-1 21 -7 39q-5 16 -17.5 32t-36.5 27q23 10 36 26.5t18 32.5q6 18 7 39l-7 97q-2 26 5 41t19.5 23t28.5 10.5t33 2.5v20q-19 0 -38.5 -3t-35.5 -12t-25 -26t-7 -46l7 -97q2 -28 -8 -49q-9 -19 -31 -34t-68 -15
h-43z" />
    <glyph glyph-name="braceright" unicode="}" horiz-adv-x="409" 
d="M65 0q-10 0 -17.5 7t-7.5 18v95q0 11 7.5 18t17.5 7q60 0 46 52q-14 49 -5 88t34 64q4 4 4.5 5.5t-4.5 6.5q-25 25 -30 64.5t1 87.5q3 24 -7 37.5t-39 13.5q-10 0 -17.5 7.5t-7.5 18.5v94q0 11 7.5 18.5t17.5 7.5q52 0 91.5 -10t64 -33.5t34 -61t1.5 -92.5
q-8 -50 12 -67.5t61 -17.5h34q12 0 19 -7.5t7 -18.5v-94q0 -11 -7 -18.5t-19 -7.5h-31q-43 0 -63.5 -17.5t-12.5 -67.5q8 -55 -1.5 -92.5t-34 -61t-64 -33.5t-91.5 -10zM296 365q-46 0 -68.5 15t-30.5 34q-11 21 -8 49l7 97q2 29 -7 46t-25 26t-35.5 12t-38.5 3v-20
q17 0 33 -2.5t28.5 -10.5t19.5 -23t5 -41l-7 -97q1 -21 7 -39q5 -16 17.5 -32.5t36.5 -26.5q-24 -11 -37 -27t-18 -32q-6 -18 -6 -39l7 -97q2 -26 -5 -41t-19.5 -23t-28.5 -10.5t-33 -2.5v-20q19 0 38.5 3t35.5 12t25 26t7 46l-7 97q-3 26 7 47q8 18 28.5 33.5t62.5 17.5h52
v20h-43z" />
    <glyph glyph-name="parenleft" unicode="(" horiz-adv-x="337" 
d="M233 0q-46 19 -82 56t-60.5 84.5t-37.5 102.5t-13 111t13 110.5t38 102t61 84.5t81 57q9 4 18.5 0.5t14.5 -13.5l29 -69q4 -10 -1 -18t-13 -15q-18 -14 -35 -35.5t-30.5 -51.5t-21.5 -68t-8 -84t8 -83.5t21.5 -67t30.5 -51t35 -35.5q8 -6 13 -14.5t1 -18.5l-29 -71
q-5 -10 -14.5 -13.5t-18.5 0.5zM240 651q-63 -48 -100 -124t-37 -173t36.5 -173t99.5 -124l9 18q-63 47 -94 119.5t-31 159.5t31 159t94 119z" />
    <glyph glyph-name="parenright" unicode=")" horiz-adv-x="337" 
d="M104 0q-9 -4 -18.5 -0.5t-14.5 13.5l-29 71q-4 10 1 18.5t13 14.5q18 14 35 35.5t30.5 51t21.5 67t8 83.5t-8 84t-21.5 68t-30.5 51.5t-35 35.5q-8 7 -13 15t-1 18l29 69q5 10 14.5 13.5t18.5 -0.5q45 -20 81 -57t61 -84.5t38 -102t13 -110.5t-13 -111t-38 -102.5
t-60.5 -84.5t-81.5 -56zM89 632q63 -47 94 -119t31 -159t-31 -159.5t-94 -119.5l9 -18q63 48 99.5 124t36.5 173t-37 173t-100 124z" />
    <glyph glyph-name="asciicircum" unicode="^" horiz-adv-x="466" 
d="M285 710q15 0 22 -17l136 -369q5 -11 0.5 -20.5t-15.5 -9.5h-100q-11 0 -18.5 2t-12.5 13l-42 130q-11 33 -22.5 32t-22.5 -35l-41 -127q-5 -11 -12.5 -13t-18.5 -2h-100q-11 0 -15.5 9.5t0.5 20.5l136 369q7 17 20 17h106zM372 344l-115 316h-46l-117 -316h21l109 296
h19l108 -296h21z" />
    <glyph glyph-name="less" unicode="&#x3c;" horiz-adv-x="455" 
d="M49.9971 237q-9.99902 -6 -12.499 -13.5t-2.5 -18.5v-103q0 -11 10.499 -16t20.499 1l335.979 190q7.99902 5 12.999 10.5t5 12.5v107q0 16 -16.999 26l-336.979 192q-10 5 -20.499 0.5t-10.499 -15.5v-104q0 -11 2.5 -18t12.499 -13l185.988 -99q14.999 -9 13.999 -22.5
t-13.999 -21.5zM84.9951 547l284.982 -162v-59l-284.982 -162v23l264.983 150v36l-264.983 151v23z" />
    <glyph glyph-name="greater" unicode="&#x3e;" horiz-adv-x="455" 
d="M405 237q10 -6 12.5 -13.5t2.5 -18.5v-103q0 -11 -10.5 -16t-20.5 1l-336 190q-8 5 -13 10.5t-5 12.5v107q0 16 17 26l337 192q10 5 20.5 0.5t10.5 -15.5v-104q0 -11 -2.5 -18t-12.5 -13l-186 -99q-15 -9 -14 -22.5t14 -21.5zM370 547l-285 -162v-59l285 -162v23
l-265 150v36l265 151v23z" />
    <glyph glyph-name="question" unicode="?" horiz-adv-x="523" 
d="M210 186q0 49 10 82.5t25.5 58.5t33 44.5t33 39.5t25.5 43.5t10 57.5q0 32 -24.5 47.5t-60.5 15.5q-30 0 -53.5 -13.5t-31.5 -48.5q-2 -10 -8.5 -17.5t-17.5 -7.5h-95q-11 0 -18.5 7.5t-7.5 17.5q0 54 21.5 93t55 64.5t74.5 37.5t80 12q36 0 77 -11.5t75.5 -36.5
t57 -64.5t22.5 -95.5q0 -45 -10 -75.5t-25.5 -54t-33.5 -42.5t-33.5 -40.5t-25.5 -48t-10 -65.5q0 -10 -7 -17.5t-18 -7.5h-95q-11 0 -18 7.5t-7 17.5zM210 63q0 30 21 51t53 21q31 0 51 -21t20 -51q0 -32 -20 -52.5t-51 -20.5q-32 0 -53 20.5t-21 52.5zM293 211
q3 38 14.5 65t26.5 47.5t32 38.5t31 38.5t23.5 47t9.5 64.5q0 30 -12.5 56.5t-34.5 46.5t-53.5 31.5t-68.5 11.5q-67 0 -111 -34.5t-54 -85.5h21q10 48 50 74t94 26q30 0 57 -8.5t47.5 -24.5t32.5 -39.5t12 -53.5q0 -38 -9.5 -64t-23.5 -45.5t-31 -36.5t-32.5 -38
t-26.5 -48.5t-14 -68.5h20zM271 63q0 -5 3.5 -8.5t8.5 -3.5t8.5 3.5t3.5 8.5t-3.5 8.5t-8.5 3.5t-8.5 -3.5t-3.5 -8.5z" />
    <glyph glyph-name="exclam" unicode="!" horiz-adv-x="275" 
d="M185 710q11 0 18 -7t7 -19v-498q0 -10 -7 -17.5t-18 -7.5h-95q-11 0 -18 7.5t-7 17.5v498q0 12 7 19t18 7h95zM65 63q0 30 21 51t53 21q31 0 51 -21t20 -51q0 -32 -20 -52.5t-51 -20.5q-32 0 -53 20.5t-21 52.5zM126 63q0 -5 3.5 -8.5t8.5 -3.5t8.5 3.5t3.5 8.5t-3.5 8.5
t-8.5 3.5t-8.5 -3.5t-3.5 -8.5zM147 211v449h-20v-449h20z" />
    <glyph glyph-name="cent" unicode="&#xa2;" horiz-adv-x="603" 
d="M236 10q0 19 -4 28.5t-12 14.5q-41 22 -74 53.5t-56.5 70.5t-36.5 84t-13 94q0 47 10 92t30.5 83.5t51.5 68.5t73 47q31 13 31 43v46q0 11 7.5 18t18.5 7h94q11 0 18.5 -7t7.5 -18v-40q0 -17 4.5 -25.5t12.5 -11.5q29 -11 55.5 -26.5t48 -35.5t37 -44t22.5 -53
q2 -9 -2 -19t-15 -13l-91 -13q-11 -2 -19.5 3t-13.5 13q-9 13 -16 16t-12.5 0t-8 -9.5t-2.5 -10.5v-226q0 -5 2.5 -11t7.5 -8t12.5 1t16.5 17q5 7 13.5 13t19.5 4l91 -14q11 -4 15 -13t2 -18q-8 -31 -24.5 -55t-39 -42.5t-49.5 -33t-54 -26.5q-7 -3 -10 -11.5t-3 -32.5v-35
q0 -11 -7.5 -18.5t-18.5 -7.5h-94q-11 0 -18.5 7.5t-7.5 18.5v35zM185 355q0 -31 6.5 -59t20.5 -50q6 -9 10.5 -9t7.5 4t4.5 10t1.5 9v200q0 3 -1.5 7.5t-4.5 7t-7.5 2t-9.5 -7.5q-15 -20 -21.5 -48.5t-6.5 -65.5zM472 203q-25 -35 -63 -55.5t-90 -20.5v456q52 0 90 -21
t63 -56l21 3q-29 44 -73 69t-101 25v107h-20v-109q-46 -6 -82.5 -27t-62 -53.5t-39 -75t-13.5 -90.5q0 -49 13.5 -91.5t39 -75t62 -53.5t82.5 -26v-110h20v108q57 0 101 25t73 68zM122 355q0 42 11 80t32.5 69t55 51t78.5 26v-452q-45 5 -78.5 25.5t-55 51t-32.5 69
t-11 80.5z" />
    <glyph glyph-name="dollar" unicode="$" horiz-adv-x="623" 
d="M235 -21q0 17 -3.5 23.5t-8.5 9.5q-38 10 -71 29.5t-58 46.5t-39.5 62t-14.5 77q0 10 7 17.5t18 7.5h95q11 0 17 -7.5t8 -17.5q6 -33 32 -54q9 -5 13 -0.5t5 9.5v96q-1 17 -17 24q-31 7 -59.5 19t-50.5 31.5t-35 48.5t-13 71q0 37 12 67t32.5 53.5t47.5 40.5t56 28
q13 5 20 13.5t7 34.5v26q0 11 7.5 18t18.5 7h94q11 0 18.5 -7t7.5 -18v-23q0 -22 4.5 -31.5t13.5 -14.5q31 -9 60.5 -26t52 -41t36.5 -55.5t14 -70.5q0 -10 -7 -17.5t-18 -7.5h-95q-11 0 -18 7.5t-7 17.5q0 17 -15 29q-8 6 -14 4.5t-7 -10.5v-62q1 -12 17 -17
q35 -9 68 -22.5t59 -35.5t42 -54t16 -77t-16 -81t-43 -63.5t-62.5 -46.5t-73.5 -28q-3 -2 -5 -6.5t-2 -15.5v-12q0 -11 -7.5 -18.5t-18.5 -7.5h-94q-11 0 -18.5 7.5t-7.5 18.5v4zM381 178q1 -8 5.5 -12.5t16.5 2.5q16 11 26 25.5t8 34.5q-2 27 -37 41q-17 4 -19 -7v-84z
M235 496q-3 23 -21 5q-5 -5 -7 -13t-2 -16t8 -14q10 -7 16 -2.5t6 9.5v31zM318 -1v64q37 1 73 14.5t64.5 36t46.5 52t18 62.5q0 39 -18 63.5t-46.5 39.5t-64.5 22.5t-73 13.5v230q26 -1 51.5 -8t47.5 -19.5t37.5 -31t21.5 -41.5h20q-6 25 -22.5 46.5t-40.5 37.5t-53.5 25.5
t-61.5 10.5v93h-20v-94q-35 -2 -67 -14t-56 -31.5t-38 -45t-14 -53.5q0 -32 14.5 -52.5t39 -33.5t56 -20.5t65.5 -13.5v-269q-27 2 -55 10t-52.5 22.5t-42.5 36.5t-24 51h-20q6 -31 24.5 -56t45.5 -43t59 -28.5t65 -12.5v-64h20zM500 228q0 -33 -17.5 -59.5t-44 -45.5
t-58.5 -29t-62 -11v266q34 -6 67 -13.5t58.5 -20t41 -33.5t15.5 -54zM143 472q0 28 13.5 50t35.5 38t49.5 25t56.5 11v-226q-31 5 -59 11.5t-49.5 18t-34 28.5t-12.5 44z" />
    <glyph glyph-name="yen" unicode="&#xa5;" horiz-adv-x="554" 
d="M230 0q-11 0 -18 7.5t-7 17.5v8q0 19 -4.5 24.5t-24.5 5.5h-80q-11 0 -18 7.5t-7 18.5v94q0 11 7 18.5t18 7.5h87q20 1 21 15q-2 9 -8 12t-20 3h-80q-11 0 -18 7.5t-7 18.5v94q0 11 7 18.5t18 7.5h28q20 2 23 10t-3 23l-120 260q-5 11 -1.5 21.5t14.5 10.5h90q16 0 26 -2
t15 -13l95 -201q6 -13 14 -13t11 6l98 208q5 11 15 13t26 2h90q11 0 14.5 -10.5t-1.5 -21.5l-120 -260q-6 -15 -3 -23t23 -10h26q10 0 18 -7.5t8 -18.5v-94q0 -11 -8 -18.5t-18 -7.5h-76q-16 0 -22 -3t-8 -11v-1q2 -9 8 -12t22 -3h76q10 0 18 -7.5t8 -18.5v-94
q0 -11 -8 -18.5t-18 -7.5h-84q-15 -1 -18.5 -7t-3.5 -23v-8q0 -10 -7 -17.5t-18 -7.5h-95zM121 126h146v-76h20v76h145v20h-145v151l2 5h143v20h-134l157 338h-22l-156 -338l-156 338h-22l156 -338h-134v-20h143l3 -5v-151h-146v-20z" />
    <glyph glyph-name="Euro" unicode="&#x20ac;" horiz-adv-x="520" 
d="M20 495q0 11 7.5 18t18.5 7h37q8 1 14.5 5t10.5 14q29 81 85 126t141 45q30 0 60 -6t56 -20q9 -5 13 -15t-1 -20l-29 -80q-5 -9 -15 -13t-18 0q-20 11 -34.5 14.5t-31.5 3.5q-35 -3 -59 -30q-8 -14 2.5 -19t20.5 -5h140q10 0 18 -7t8 -18v-94q0 -11 -8 -18.5t-18 -7.5
h-196q-6 -1 -10 -5t-5 -15q1 -12 5 -15.5t10 -4.5h196q10 0 18 -7.5t8 -18.5v-94q0 -11 -8 -18.5t-18 -7.5h-135q-5 0 -11 -1.5t-10.5 -4.5t-5.5 -7.5t4 -10.5q23 -20 54 -20q17 0 31.5 4t34.5 15q8 4 18 0t15 -14l29 -89q5 -10 1 -20.5t-13 -15.5q-26 -13 -56 -19t-60 -6
q-85 0 -141 45t-85 126q-8 18 -31 18h-31q-11 0 -18.5 7.5t-7.5 18.5v94q0 11 7.5 18.5t18.5 7.5h13q9 0 15 3t7 17q-1 11 -5 15t-11 5h-19q-11 0 -18.5 7.5t-7.5 18.5v94zM70 457v-20h79q-2 -20 -3.5 -40t-1.5 -42q0 -23 1 -43.5t4 -39.5h-79v-20h83q18 -94 66.5 -141.5
t114.5 -47.5q44 0 75 10l-7 18q-30 -8 -68 -8q-65 0 -105.5 44t-55.5 125h241v20h-245q-2 19 -3.5 39.5t-1.5 43.5q0 22 1.5 42t3.5 40h245v20h-242q15 82 56 128.5t106 46.5q40 0 69 -9l5 19q-30 10 -74 10q-67 0 -115.5 -50t-66.5 -145h-82z" />
    <glyph glyph-name="currency" unicode="&#xa4;" horiz-adv-x="625" 
d="M291 41q-6 0 -12.5 -2.5t-8.5 -7.5l-7 -16q-5 -11 -14 -13t-26 -2h-90q-11 0 -15.5 10t-0.5 21l16 44q10 25 -7 46q-31 42 -48.5 100.5t-17.5 133.5q0 56 9 103t29 89q6 14 7.5 26t-3.5 26q0 1 -1 2.5t-4.5 9t-10.5 23t-19 44.5q-5 11 -0.5 21.5t15.5 10.5h91q17 0 26 -2
t14 -13l11 -28q2 -6 8 -6.5t11 0.5q33 7 67 7.5t69 -7.5q6 -2 14 -0.5t11 9.5l9 25q4 11 13.5 13t25.5 2h91q11 0 15.5 -10.5t-0.5 -21.5l-35 -79q-8 -17 -6.5 -29.5t7.5 -23.5q22 -42 31.5 -91t9.5 -100q0 -70 -14 -125.5t-43 -95.5q-13 -18 -18 -32t5 -38l13 -33
q5 -11 0.5 -21t-15.5 -10h-91q-16 0 -25 1.5t-14 10.5l-9 19q-2 5 -10 7.5t-16 2.5h-37zM502 355q0 76 -17 125t-46 78l46 102h-23l-39 -88q-25 19 -53.5 27t-57.5 8t-57.5 -8t-52.5 -26l-39 87h-23l45 -102q-29 -29 -46 -78t-17 -125q0 -100 28.5 -154.5t72.5 -77.5
l-32 -73h23l28 65q33 -12 70 -12q18 0 35.5 2.5t34.5 9.5l29 -65h23l-32 73q21 12 39.5 31t32 47t21 66t7.5 88zM482 355q0 -66 -13 -110.5t-36 -71.5t-54 -38.5t-67 -11.5t-67 11.5t-54 38.5t-36 71.5t-13 110.5t13 110.5t36 71.5t54 38.5t67 11.5t67 -11.5t54 -38.5
t36 -71.5t13 -110.5zM312 524q-21 0 -40.5 -7.5t-34 -26t-23.5 -51t-9 -82.5q0 -51 9 -84t23.5 -52.5t34 -27t40.5 -7.5t40.5 7.5t34.5 27t23.5 52.5t8.5 84q0 50 -8.5 82.5t-23.5 51t-34.5 26t-40.5 7.5z" />
    <glyph glyph-name="franc" unicode="&#x20a3;" horiz-adv-x="594" 
d="M529 710q10 0 17.5 -7.5t7.5 -18.5v-94q0 -11 -7.5 -18.5t-17.5 -7.5h-262q-8 0 -14 -7t-6 -15v-106q0 -9 6 -15.5t14 -6.5h262q10 0 17.5 -7t7.5 -18v-95q0 -11 -7.5 -18t-17.5 -7h-262q-8 0 -14 -6.5t-6 -15.5v1q0 -23 20 -25h76q10 0 17.5 -7.5t7.5 -18.5v-94
q0 -11 -7.5 -18.5t-17.5 -7.5h-76q-20 -5 -20 -25v-27q0 -10 -7 -17.5t-18 -7.5h-95q-11 0 -18 7.5t-7 17.5v27q0 10 -6 16.5t-15 8.5h-35q-12 0 -19 7.5t-7 18.5v94q0 11 7 18.5t19 7.5h35q9 1 15 7.5t6 17.5v436q0 12 7 19t18 7h402zM184 50v90h134v20h-134v171h320v20
h-320v276h320v20h-340v-487h-94v-20h94v-90h20z" />
    <glyph glyph-name="lira" unicode="&#x20a4;" horiz-adv-x="550" 
d="M51 471q0 11 7 18.5t18 7.5h35q11 0 18 12q25 95 84.5 148t150.5 53q30 0 60 -6t56 -20q9 -5 13 -15t-1 -20l-29 -90q-5 -9 -15 -13t-18 0q-19 11 -34 14.5t-32 3.5q-23 0 -42.5 -10.5t-31.5 -33.5q-6 -12 1.5 -17t16.5 -6h160q11 0 18.5 -7.5t7.5 -18.5v-94
q0 -11 -7.5 -18.5t-18.5 -7.5h-196q-8 -1 -10.5 -4t-4.5 -14q4 -12 17 -12h194q11 0 18.5 -7.5t7.5 -18.5v-94q0 -11 -7.5 -18.5t-18.5 -7.5h-190q-10 0 -15 -1.5t-7 -9.5v-3q2 -12 8.5 -14t14.5 -2h190q11 0 18.5 -7t7.5 -18v-95q0 -11 -7.5 -18t-18.5 -7h-413q-12 0 -19 7
t-7 18v95q0 11 7 18t19 7h10q25 0 35 10q4 13 -6 16.5t-19 3.5q-11 0 -18 7.5t-7 18.5v94q0 11 7 18.5t18 7.5h18q13 0 16 13q-1 10 -5 13t-10 4h-19q-11 0 -18 7.5t-7 18.5v94zM101 238h73v-155h-94v-20h365v20h-251v155h251v20h-251v112q0 11 0.5 22t1.5 22h249v20h-247
q4 38 14.5 73t30 61.5t49 42.5t72.5 16q40 0 69 -9l5 19q-30 10 -74 10q-48 0 -81 -18.5t-55 -48.5t-34 -68t-16 -78h-77v-20h75q-1 -11 -1.5 -22t-0.5 -22v-112h-73v-20z" />
    <glyph glyph-name="sterling" unicode="&#xa3;" horiz-adv-x="550" 
d="M51 401q0 11 7 18.5t18 7.5h24q6 1 10 4.5t7 15.5q17 123 79 193t168 70q30 0 60 -6t56 -20q9 -5 13 -15t-1 -20l-29 -90q-5 -9 -15 -13t-18 0q-19 11 -34 14.5t-32 3.5q-36 0 -62 -27t-37 -85q-2 -16 5 -20.5t17 -4.5h181q11 0 18.5 -7.5t7.5 -18.5v-94
q0 -11 -7.5 -18.5t-18.5 -7.5h-195q-8 -1 -11 -5.5t-4 -19.5v-95q1 -9 5.5 -12.5t10.5 -3.5h195q11 0 18.5 -7t7.5 -18v-95q0 -11 -7.5 -18t-18.5 -7h-413q-12 0 -19 7t-7 18v95q0 11 7 18t19 7h10q19 1 28 6t14 18q4 12 4.5 33t-0.5 54q0 15 -4 19.5t-12 5.5h-20
q-11 0 -18 7.5t-7 18.5v94zM101 344h73v-261h-94v-20h365v20h-251v261h250v20h-250v6q1 47 8 93t26 82.5t51.5 59t84.5 22.5q40 0 69 -9l5 19q-30 10 -74 10q-57 0 -94 -26t-58.5 -66.5t-29.5 -89.5t-8 -95v-6h-73v-20z" />
    <glyph glyph-name="colonmonetary" unicode="&#x20a1;" horiz-adv-x="596" 
d="M122 0q-11 0 -15 10t0 21l28 80q4 11 3 19t-6 19q-1 0 -1 1q-34 43 -52.5 95.5t-18.5 109.5t17.5 109.5t51 95t81 71t107.5 36.5q10 2 14.5 10t10.5 19t15.5 12.5t23.5 1.5h61q11 0 15 -10.5t0 -21.5l-3 -9q-2 -8 7 -12l7 -2q13 -4 17 6l11 31q4 11 14 14.5t27 3.5h61
q11 0 15 -10.5t0 -21.5l-29 -82q-3 -8 -0.5 -14t5.5 -11q11 -17 20.5 -39t12.5 -33q2 -9 -2 -19t-15 -13l-70 -10l-83 -235q-2 -5 2 -8t9 1q6 5 10 11t8 13q4 8 13 13.5t20 3.5l91 -14q11 -4 15 -13t2 -18q-8 -32 -27.5 -58.5t-48 -47.5t-63.5 -36.5t-74 -24.5
q-12 -3 -18 -8t-10 -14l-2 -5q-5 -11 -13.5 -14t-26.5 -3h-61q-11 0 -14.5 10t-0.5 21l3 10q3 10 -6 14l-11 4q-8 3 -10.5 -1.5t-5.5 -12.5l-10 -28q-4 -11 -13 -14t-27 -3h-61zM427 497q2 7 1.5 11.5t-6.5 6.5l-9 3q-12 3 -15 -6l-106 -299q-2 -6 -1 -12t6 -8l10 -3
q4 -1 8 0.5t6 5.5zM260 495q-40 -30 -50 -73.5t-4 -89.5q1 -4 3 -4.5t3 2.5l55 157q2 5 -0.5 8t-6.5 0zM185 50l35 99q51 -40 119 -46l-18 -53h21l18 52q69 0 118 29t72 69l-22 3q-23 -32 -65 -55.5t-96 -25.5l142 406q5 -5 9.5 -11t9.5 -11l22 4q-13 20 -33 40l39 110h-21
l-34 -97q-23 17 -53.5 28.5t-67.5 14.5l19 54h-21l-19 -53q-53 0 -96.5 -21t-74.5 -56t-48.5 -80.5t-17.5 -94.5q0 -55 21.5 -105.5t60.5 -86.5l-40 -113h21zM227 169l146 417q35 -2 66 -14t54 -30l-147 -420q-34 2 -64 14.5t-55 32.5zM142 355q0 48 16.5 89.5t45 72.5
t66.5 49.5t82 20.5l-141 -403q-32 32 -50.5 76t-18.5 95z" />
    <glyph glyph-name="florin" unicode="&#x192;" horiz-adv-x="547" 
d="M104 401q0 11 7.5 18.5t18.5 7.5h37q6 0 10.5 2.5t4.5 12.5q0 136 51.5 202t164.5 66q30 0 60 -6t56 -20q8 -5 10.5 -14.5t0.5 -20.5l-18 -90q-2 -10 -13.5 -13t-19.5 0q-40 14 -68 17.5t-45.5 -7t-25.5 -36t-8 -68.5v-5q0 -14 6.5 -17t15.5 -3h112q11 0 18.5 -7.5
t7.5 -18.5v-94q0 -11 -7.5 -18.5t-18.5 -7.5h-119q-6 0 -11 -3.5t-5 -13.5q-1 -64 -6.5 -113.5t-23.5 -83t-53 -50.5t-93 -17q-30 0 -60.5 5.5t-56.5 19.5q-8 5 -10.5 15t-0.5 21l19 89q2 11 13.5 13.5t19.5 0.5q35 -11 57 -13t34 8.5t15 36t1 69.5q-1 16 -15 16h-36
q-11 0 -18.5 7.5t-7.5 18.5v94zM154 344h91v-80q0 -53 -5 -87.5t-16.5 -55t-29.5 -29t-44 -8.5q-17 0 -35 3.5t-35 8.5l-5 -20q16 -5 35.5 -8.5t39.5 -3.5q30 0 51.5 8.5t36 31t21 61.5t6.5 99v80h172v20h-172v82q0 52 8 87t24.5 55.5t41.5 29t59 8.5q17 0 35 -3t35 -8l4 21
q-16 4 -35 7t-39 3q-38 0 -66.5 -9t-47.5 -31.5t-29 -61t-10 -98.5v-82h-91v-20z" />
    <glyph glyph-name="numbersign" unicode="#" horiz-adv-x="676" 
d="M40 516q0 11 7 18t18 7h63q14 0 15 16l8 127q1 12 8 19t18 7h94q11 0 19 -7t7 -19l-7 -119q-1 -14 3.5 -19t12.5 -5h85q10 0 14.5 2.5t5.5 13.5l8 127q2 26 26 26h94q11 0 19 -7t7 -19l-8 -128q-1 -8 4 -11.5t13 -3.5h36q11 0 18.5 -7t7.5 -18v-95q0 -11 -7.5 -18
t-18.5 -7h-41q-8 0 -15 -4t-8 -14l-3 -47q-1 -10 4 -13.5t13 -3.5h50q11 0 18.5 -7t7.5 -18v-95q0 -11 -7.5 -18t-18.5 -7h-54q-8 0 -15 -4t-7 -14l-10 -126q-1 -10 -7.5 -17.5t-17.5 -7.5h-95q-11 0 -18.5 7.5t-6.5 17.5l9 119q1 25 -17 25h-82q-9 0 -15.5 -4.5t-7.5 -15.5
l-10 -124q-1 -10 -7.5 -17.5t-17.5 -7.5h-95q-11 0 -18.5 7.5t-6.5 17.5l9 124q1 11 -4 15.5t-13 4.5h-38q-11 0 -18 7t-7 18v95q0 11 7 18t18 7h49q14 0 15 16l3 35q2 18 -3 24.5t-14 6.5h-50q-11 0 -18 7t-7 18v95zM301 396q-8 0 -15 -4t-8 -15l-3 -46q-1 -10 4 -13.5
t13 -3.5h90q14 0 15 16l3 35q2 17 -3 24t-14 7h-82zM211 660l-11 -182h-110v-20h109l-13 -207h-96v-20h95l-11 -181h21l11 181h247l-11 -181h21l11 181h112v20h-111l13 207h98v20h-97l11 182h-21l-11 -182h-247l11 182h-21zM220 458h247l-13 -207h-247z" />
    <glyph glyph-name="percent" unicode="%" horiz-adv-x="880" 
d="M30 497q0 34 12.5 63.5t34.5 51.5t51.5 34.5t63.5 12.5t63.5 -12.5t51.5 -34.5t34.5 -51.5t12.5 -63.5t-12.5 -63.5t-34.5 -51t-51.5 -34t-63.5 -12.5t-63.5 12.5t-51.5 34t-34.5 51t-12.5 63.5zM176 497q0 -16 16 -16t16 16q0 7 -4.5 12t-11.5 5t-11.5 -5t-4.5 -12z
M113 497q0 38 24.5 59t54.5 21t54.5 -21t24.5 -59t-24.5 -59t-54.5 -21t-54.5 21t-24.5 59zM93 497q0 -19 7 -37t20 -32t31 -22.5t41 -8.5q22 0 40.5 8.5t31.5 22.5t20 32t7 37t-7 37t-20 32t-31.5 22.5t-40.5 8.5q-23 0 -41 -8.5t-31 -22.5t-20 -32t-7 -37zM526 212
q0 34 12.5 63.5t34.5 51.5t51.5 34.5t63.5 12.5t63.5 -12.5t51.5 -34.5t34.5 -51.5t12.5 -63.5t-12.5 -63.5t-34.5 -51t-51.5 -34t-63.5 -12.5t-63.5 12.5t-51.5 34t-34.5 51t-12.5 63.5zM672 212q0 -16 16 -16t16 16q0 7 -4.5 12t-11.5 5t-11.5 -5t-4.5 -12zM609 212
q0 38 24.5 59t54.5 21t54.5 -21t24.5 -59t-24.5 -59t-54.5 -21t-54.5 21t-24.5 59zM589 212q0 -19 7 -37t20 -32t31 -22.5t41 -8.5q22 0 40.5 8.5t31.5 22.5t20 32t7 37t-7 37t-20 32t-31.5 22.5t-40.5 8.5q-23 0 -41 -8.5t-31 -22.5t-20 -32t-7 -37zM266 0q-11 0 -15 10
t0 21l233 661q4 11 14 14.5t27 3.5h91q11 0 15 -10.5t0 -21.5l-234 -661q-4 -11 -13 -14t-27 -3h-91zM344 50l215 610h-22l-215 -610h22z" />
    <glyph glyph-name="perthousand" unicode="&#x2030;" horiz-adv-x="1163" 
d="M849 710q11 0 11.5 -7t-10.5 -19l-637 -659q-9 -10 -23.5 -17.5t-25.5 -7.5h-133q-11 0 -11 7.5t10 17.5l636 659q11 12 25 19t25 7h133zM46 497q0 34 12.5 63.5t34.5 51.5t51.5 34.5t63.5 12.5t63.5 -12.5t51.5 -34.5t34.5 -51.5t12.5 -63.5t-12.5 -63.5t-34.5 -51
t-51.5 -34t-63.5 -12.5t-63.5 12.5t-51.5 34t-34.5 51t-12.5 63.5zM192 497q0 -16 16 -16t16 16q0 7 -4.5 12t-11.5 5t-11.5 -5t-4.5 -12zM129 497q0 38 24.5 59t54.5 21t54.5 -21t24.5 -59t-24.5 -59t-54.5 -21t-54.5 21t-24.5 59zM109 497q0 -19 7 -37t20 -32t31 -22.5
t41 -8.5q22 0 40.5 8.5t31.5 22.5t20 32t7 37t-7 37t-20 32t-31.5 22.5t-40.5 8.5q-23 0 -41 -8.5t-31 -22.5t-20 -32t-7 -37zM477 181q0 34 12.5 63.5t34.5 51.5t51.5 34.5t63.5 12.5t63.5 -12.5t51.5 -34.5t34.5 -51.5t12.5 -63.5t-12.5 -63.5t-34.5 -51t-51.5 -34
t-63.5 -12.5t-63.5 12.5t-51.5 34t-34.5 51t-12.5 63.5zM623 181q0 -16 16 -16t16 16q0 7 -4.5 12t-11.5 5t-11.5 -5t-4.5 -12zM560 181q0 38 24.5 59t54.5 21t54.5 -21t24.5 -59t-24.5 -59t-54.5 -21t-54.5 21t-24.5 59zM540 181q0 -19 7 -37t20 -32t31 -22.5t41 -8.5
q22 0 40.5 8.5t31.5 22.5t20 32t7 37t-7 37t-20 32t-31.5 22.5t-40.5 8.5q-23 0 -41 -8.5t-31 -22.5t-20 -32t-7 -37zM809 211q0 34 12.5 63.5t34.5 51.5t51.5 34.5t63.5 12.5t63.5 -12.5t51.5 -34.5t34.5 -51.5t12.5 -63.5t-12.5 -63.5t-34.5 -51t-51.5 -34t-63.5 -12.5
t-63.5 12.5t-51.5 34t-34.5 51t-12.5 63.5zM955 211q0 -16 16 -16t16 16q0 7 -4.5 12t-11.5 5t-11.5 -5t-4.5 -12zM892 211q0 38 24.5 59t54.5 21t54.5 -21t24.5 -59t-24.5 -59t-54.5 -21t-54.5 21t-24.5 59zM872 211q0 -19 7 -37t20 -32t31 -22.5t41 -8.5q22 0 40.5 8.5
t31.5 22.5t20 32t7 37t-7 37t-20 32t-31.5 22.5t-40.5 8.5q-23 0 -41 -8.5t-31 -22.5t-20 -32t-7 -37zM735 675l-618 -640h28l618 640h-28z" />
    <glyph glyph-name="quotesingle" unicode="'" horiz-adv-x="245" 
d="M180 710q11 0 18 -7t7 -19l-20 -344q0 -10 -7 -18t-18 -8h-75q-11 0 -18 8t-7 18l-20 344q0 12 7 19t18 7h115zM132 364v296h-20v-296h20z" />
    <glyph glyph-name="quotedbl" unicode="&#x22;" horiz-adv-x="450" 
d="M180 710q11 0 18 -7t7 -19l-20 -344q0 -10 -7 -18t-18 -8h-75q-11 0 -18 8t-7 18l-20 344q0 12 7 19t18 7h115zM385 710q11 0 18 -7t7 -19l-20 -344q0 -10 -7 -18t-18 -8h-75q-11 0 -18 8t-7 18l-20 344q0 12 7 19t18 7h115zM132 364v296h-20v-296h20zM337 364v296h-20
v-296h20z" />
    <glyph glyph-name="hyphen" unicode="-" horiz-adv-x="496" 
d="M40 389q0 11 7.5 18t18.5 7h365q10 0 17.5 -7t7.5 -18v-95q0 -11 -7.5 -18t-17.5 -7h-365q-11 0 -18.5 7t-7.5 18v95zM406 331v20h-316v-20h316z" />
    <glyph glyph-name="minus" unicode="&#x2212;" horiz-adv-x="496" 
d="M40 389q0 11 7.5 18t18.5 7h365q10 0 17.5 -7t7.5 -18v-95q0 -11 -7.5 -18t-17.5 -7h-365q-11 0 -18.5 7t-7.5 18v95zM406 331v20h-316v-20h316z" />
    <glyph glyph-name="plus" unicode="+" horiz-adv-x="476" 
d="M191 134q-11 0 -18 7t-7 18v88q0 8 -6 15t-14 7h-90q-11 0 -18.5 7t-7.5 18v95q0 11 7.5 18t18.5 7h90q8 0 14 7.5t6 17.5v85q0 10 7 18t18 8h95q11 0 18 -8t7 -18v-89q0 -8 6.5 -14.5t14.5 -6.5h89q10 0 17.5 -7t7.5 -18v-95q0 -11 -7.5 -18t-17.5 -7h-89
q-8 0 -14.5 -6.5t-6.5 -15.5v-88q0 -11 -7 -18t-18 -7h-95zM248 184v147h148v20h-148v149h-20v-149h-148v-20h148v-147h20z" />
    <glyph glyph-name="divide" unicode="&#xf7;" horiz-adv-x="496" 
d="M40 389q0 11 7.5 18t18.5 7h365q10 0 17.5 -7t7.5 -18v-95q0 -11 -7.5 -18t-17.5 -7h-365q-11 0 -18.5 7t-7.5 18v95zM175 518q0 30 21 51t53 21q31 0 51 -21t20 -51q0 -32 -20 -52.5t-51 -20.5q-32 0 -53 20.5t-21 52.5zM175 167q0 30 21 51t53 21q31 0 51 -21t20 -51
q0 -32 -20 -52.5t-51 -20.5q-32 0 -53 20.5t-21 52.5zM406 331v20h-316v-20h316zM236 518q0 -5 3.5 -8.5t8.5 -3.5t8.5 3.5t3.5 8.5t-3.5 8.5t-8.5 3.5t-8.5 -3.5t-3.5 -8.5zM236 167q0 -5 3.5 -8.5t8.5 -3.5t8.5 3.5t3.5 8.5t-3.5 8.5t-8.5 3.5t-8.5 -3.5t-3.5 -8.5z" />
    <glyph glyph-name="multiply" unicode="&#xd7;" horiz-adv-x="507" 
d="M241 475q6 -8 14 -5t15 12l24 34q8 11 19 18t22 7h116q11 0 14.5 -7t-4.5 -18l-111 -158q-13 -18 -1 -35l113 -159q7 -10 4 -17.5t-14 -7.5h-115q-11 0 -23 7.5t-19 17.5l-30 41q-5 6 -11 7.5t-11 -4.5l-31 -44q-7 -10 -18.5 -17.5t-22.5 -7.5h-116q-11 0 -14 7.5t4 17.5
l112 158q8 11 6 21.5t-11 23.5l-105 149q-8 11 -5 18t14 7h116q11 0 22 -7t19 -18zM372 189l-107 151l106 151h-24l-94 -134l-94 134h-24l106 -151l-106 -151h24l94 134l95 -134h24z" />
    <glyph glyph-name="equal" unicode="=" horiz-adv-x="496" 
d="M40 480q0 11 7.5 18t18.5 7h365q10 0 17.5 -7t7.5 -18v-95q0 -11 -7.5 -18t-17.5 -7h-365q-11 0 -18.5 7t-7.5 18v95zM40 298q0 11 7.5 18t18.5 7h365q10 0 17.5 -7t7.5 -18v-95q0 -11 -7.5 -18t-17.5 -7h-365q-11 0 -18.5 7t-7.5 18v95zM406 240v20h-316v-20h316z
M406 422v20h-316v-20h316z" />
    <glyph glyph-name="asterisk" unicode="*" horiz-adv-x="496" 
d="M319 143q-18 -10 -33 10l-18 24q-10 13 -18.5 14.5t-18.5 -11.5l-20 -27q-7 -10 -16.5 -12.5t-18.5 2.5l-64 38q-18 11 -8 34l13 32q5 11 1.5 18.5t-19.5 9.5l-32 4q-11 2 -19 9t-8 17v75q0 11 8 17t18 7l27 2q20 2 24 11t-2 23l-12 27q-5 10 -2 21t11 16l65 37
q9 5 19 1.5t15 -11.5l23 -32q14 -18 29 2l21 29q6 8 17 12t20 -1l65 -38q9 -5 10.5 -15.5t-2.5 -18.5l-17 -37q-5 -9 0.5 -15.5t19.5 -8.5l34 -4q25 -3 25 -25v-75q0 -10 -7 -16t-18 -8l-26 -3q-38 -4 -28 -25l16 -37q10 -25 -9 -35zM90 351v-20h139l-72 -127l18 -10l73 128
l73 -128l17 10l-73 127h141v20h-141l73 127l-17 10l-73 -128l-73 128l-18 -10l72 -127h-139z" />
    <glyph glyph-name="section" unicode="&#xa7;" horiz-adv-x="603" 
d="M84 419q2 9 2.5 16.5t-4.5 15.5q-7 12 -9.5 27t-2.5 34q0 56 22.5 94t57 61t75.5 33t77 10q39 0 79.5 -7.5t74 -27.5t55 -54t21.5 -88q0 -10 -7 -17.5t-18 -7.5h-120q-11 0 -18 7.5t-7 17.5q0 17 -19.5 25t-48.5 7q-44 -1 -61.5 -13.5t-17.5 -29.5q0 -11 25 -13
t62.5 -3.5t81.5 -6t81.5 -20.5t62.5 -46.5t25 -84.5q0 -23 -5 -42t-10 -36q-2 -8 -1.5 -13t2.5 -13q5 -14 9.5 -30t4.5 -36q0 -56 -21.5 -90.5t-57 -54t-81 -26.5t-93.5 -7q-50 0 -95.5 7.5t-80 27.5t-54.5 54t-20 88q0 10 7 17.5t18 7.5h120q11 0 17.5 -7.5t7.5 -17.5
q2 -20 23 -26t58 -6q52 0 79 6.5t27 16.5q0 24 -25 31t-62.5 8t-81 1.5t-81 12t-62.5 39t-25 82.5q0 22 4.5 41t9.5 36zM145 172h-20q0 -26 13.5 -46.5t37 -34.5t55.5 -21t70 -7q34 0 67.5 6t60.5 19t44 34t17 51q0 37 -14.5 57.5t-38.5 31.5q17 14 35 37t18 54
q0 34 -15 53.5t-40 29.5t-56.5 12.5t-64.5 3t-64 2t-55 8.5q-19 6 -30.5 18.5t-11.5 35.5q0 30 11.5 51t31 34.5t46 20t56.5 6.5q48 0 87.5 -14.5t54.5 -55.5h21q-14 49 -57.5 69.5t-105.5 20.5q-75 0 -120 -36t-45 -96q0 -28 12.5 -44t33.5 -24q-14 -14 -30.5 -39.5
t-16.5 -61.5q0 -31 14 -48.5t37 -25.5t52.5 -9.5t60.5 -1.5t61 -1.5t54 -8.5q29 -11 44 -29t15 -50q0 -23 -14 -39.5t-37 -28t-53.5 -17t-64.5 -5.5q-75 0 -115.5 25.5t-40.5 63.5zM405 272q-25 5 -53.5 5.5t-56.5 1t-54 2t-45.5 8t-31.5 20t-12 38.5q0 17 5 31.5t12.5 26.5
t16 21t15.5 15q24 -6 53.5 -7t59.5 -1.5t58 -3t50 -10t35 -23.5t13 -43q0 -14 -7.5 -27t-17.5 -23.5t-21.5 -18.5t-18.5 -12zM251 378q-9 0 -19.5 -2.5t-14.5 -10.5q-2 -8 -2 -13q0 -8 13 -11t34 -4.5t49 -2t58 -3.5h10.5t12.5 1t10 4.5t4 9.5q-3 13 -17.5 19.5t-35.5 9
t-47.5 2.5t-54.5 1z" />
    <glyph glyph-name="endash" unicode="&#x2013;" horiz-adv-x="598" 
d="M40 389q0 11 7.5 18t18.5 7h466q10 0 17.5 -7t7.5 -18v-95q0 -11 -7.5 -18t-17.5 -7h-466q-11 0 -18.5 7t-7.5 18v95zM507 331v20h-417v-20h417z" />
    <glyph glyph-name="emdash" unicode="&#x2014;" horiz-adv-x="699" 
d="M40 389q0 11 7.5 18t18.5 7h568q10 0 17.5 -7t7.5 -18v-95q0 -11 -7.5 -18t-17.5 -7h-568q-11 0 -18.5 7t-7.5 18v95zM609 331v20h-519v-20h519z" />
    <glyph glyph-name="mu" unicode="&#xb5;" horiz-adv-x="645" 
d="M175 710q11 0 18 -7t7 -19v-340q0 -52 4.5 -89.5t17.5 -62t36 -36t59 -11.5q37 0 60 11.5t36 36t17.5 62t4.5 89.5v340q0 12 7 19t18 7h95q11 0 18 -7t7 -19v-659q0 -10 -7 -17.5t-18 -7.5h-95q-9 0 -16 5.5t-9 13.5q-25 -9 -54 -14t-64 -5q-62 0 -108 15q-9 1 -9 -15
v-76q0 -10 -7 -17.5t-18 -7.5h-95q-11 0 -18 7.5t-7 17.5v760q0 12 7 19t18 7h95zM117 -51h20v231q19 -56 61.5 -86.5t118.5 -30.5q75 0 117.5 30t62.5 85v-128h20l1 610h-20l-1 -371q-3 -48 -13 -86.5t-30.5 -65t-54 -40.5t-82.5 -14q-55 0 -90 17.5t-55 49.5t-27.5 78.5
t-7.5 105.5v326h-20v-711z" />
    <glyph glyph-name="mu" unicode="&#x3bc;" horiz-adv-x="645" 
d="M175 710q11 0 18 -7t7 -19v-340q0 -52 4.5 -89.5t17.5 -62t36 -36t59 -11.5q37 0 60 11.5t36 36t17.5 62t4.5 89.5v340q0 12 7 19t18 7h95q11 0 18 -7t7 -19v-659q0 -10 -7 -17.5t-18 -7.5h-95q-9 0 -16 5.5t-9 13.5q-25 -9 -54 -14t-64 -5q-62 0 -108 15q-9 1 -9 -15
v-76q0 -10 -7 -17.5t-18 -7.5h-95q-11 0 -18 7.5t-7 17.5v760q0 12 7 19t18 7h95zM117 -51h20v231q19 -56 61.5 -86.5t118.5 -30.5q75 0 117.5 30t62.5 85v-128h20l1 610h-20l-1 -371q-3 -48 -13 -86.5t-30.5 -65t-54 -40.5t-82.5 -14q-55 0 -90 17.5t-55 49.5t-27.5 78.5
t-7.5 105.5v326h-20v-711z" />
    <glyph glyph-name="AE" unicode="&#xc6;" horiz-adv-x="927" 
d="M560 440q0 -11 5.5 -18.5t14.5 -7.5h261q11 0 18.5 -7t7.5 -18v-95q0 -11 -7.5 -18t-18.5 -7h-260q-8 0 -14.5 -6.5t-6.5 -15.5v-76q0 -11 5.5 -18.5t14.5 -7.5h261q11 0 18.5 -7t7.5 -18v-95q0 -11 -7.5 -18t-18.5 -7h-401q-11 0 -18 7.5t-7 17.5v98q0 13 -7 16.5
t-15 3.5h-112q-16 0 -29 -10t-20 -22l-49 -86q-5 -10 -17 -17.5t-23 -7.5h-108q-11 0 -13.5 7.5t2.5 17.5l377 659q5 10 15 18t22 8h403q11 0 18.5 -7.5t7.5 -18.5v-94q0 -11 -7.5 -18.5t-18.5 -7.5h-260q-8 0 -14.5 -6.5t-6.5 -15.5v-102zM106 50h23l89 156h259v-141h340
v20h-320v249h320v20h-320v275h320v20h-368zM229 226l231 403h17v-403h-248zM415 386q0 8 -7 14t-12 -2l-48 -85q-5 -10 2.5 -17t23.5 -7h19q8 0 15 3t7 17v77z" />
    <glyph glyph-name="ampersand" unicode="&#x26;" horiz-adv-x="766" 
d="M328 556q-12 8 -27.5 13.5t-28.5 5.5q-36 0 -61.5 -16.5t-25.5 -45.5q0 -32 10 -50.5t28.5 -27.5t46 -10t62.5 3q8 1 14 7t6 14v33q0 11 7 18t18 7h95q11 0 18 -7t7 -18v-33q0 -8 6 -14.5t15 -6.5h130q12 0 19 -7.5t7 -18.5v-94q0 -11 -7 -18.5t-19 -7.5h-129
q-20 -3 -22 -22q0 -38 11 -62.5t27 -38.5t34.5 -19t35.5 -5q16 1 29 5.5t27 12.5q8 4 18 0t15 -13l39 -89q5 -10 1 -20.5t-13 -15.5q-26 -13 -56 -19t-60 -6q-42 0 -81.5 11t-73.5 37q-13 8 -28 -1q-33 -24 -72.5 -35.5t-77.5 -11.5q-36 0 -76.5 11.5t-74.5 36t-57 64
t-24 95.5q0 88 54 147q7 11 -1 23q-26 29 -39.5 66.5t-13.5 79.5q1 56 24 95.5t57 64t74.5 36t76.5 11.5q64 0 117 -25q8 -5 12 -15.5t-1 -20.5l-38 -89q-5 -10 -16 -14.5t-18 0.5zM357 200q-2 14 -3.5 29t-1.5 31q0 9 -6 15.5t-14 6.5q-38 0 -66 -2.5t-46 -11.5t-26.5 -26
t-8.5 -45q0 -32 25 -47t61 -15q15 0 30 3t27.5 10.5t20.5 19t8 29.5v3zM414 457v-92h-95q-22 1 -47.5 3t-39.5 6q-57 16 -83 53.5t-26 85.5q0 30 12 53.5t32.5 39t47.5 24t57 8.5q34 0 64 -11l8 18q-34 13 -72 13t-69 -11.5t-53 -31t-34.5 -46t-12.5 -56.5q0 -24 6.5 -48
t21.5 -45.5t38.5 -38.5t56.5 -26q-33 -9 -56.5 -26t-38.5 -38.5t-21.5 -45.5t-6.5 -48q0 -30 12.5 -56.5t34.5 -46t53 -31t69 -11.5q57 0 98 25t58 65q21 -40 68 -65t104 -25q20 0 39.5 3.5t37.5 9.5l-8 18q-35 -11 -69 -11q-30 0 -59.5 8.5t-53.5 24t-38.5 39t-14.5 53.5
v148h190v20h-190v92h-20zM232 336q14 4 39.5 6t47.5 3h95v-92t0.5 -50t1 -22.5t1.5 -8.5q-10 -49 -50.5 -74.5t-94.5 -25.5q-30 0 -57 8.5t-47.5 24t-32.5 39t-12 53.5q0 48 26 85.5t83 53.5z" />
    <glyph glyph-name="at" unicode="@" horiz-adv-x="911" 
d="M682 237q12 0 20 11.5t12.5 29.5t6.5 38.5t3 37.5q4 63 -14 113.5t-52.5 85t-82 53t-103.5 18.5t-106.5 -18.5t-89 -53t-63 -85t-27.5 -113.5q-3 -67 21.5 -122t68 -91t102 -48.5t121.5 5.5q9 2 19 -2t13 -14l25 -86q4 -11 -2.5 -21t-14.5 -14q-28 -13 -64 -17.5
t-66 -2.5q-83 5 -150.5 38.5t-116 88.5t-75 128.5t-26.5 157.5q0 87 36 162.5t96 132t139 88.5t166 32t160.5 -29.5t126 -83.5t81 -131t24.5 -171q-2 -48 -16.5 -100t-42.5 -95t-68.5 -70.5t-94.5 -27.5q-22 0 -38 3t-29 10t-24 17t-23 24q-13 16 -25 13q-5 -1 -13.5 -2
t-18 -2t-18 -1.5t-14.5 -0.5q-42 0 -77.5 13.5t-61 42t-40 72.5t-12.5 104q1 60 26 105.5t64 71t87 29.5t94 -19q3 -2 5.5 0t5 4.5t5.5 5t6 2.5l85 -13q11 -2 18 -8t6 -17l-14 -221q-2 -24 9.5 -40t30.5 -17zM399 354q-4 -86 52 -86q25 0 41 18.5t19 63.5q2 33 -12 47
t-40 14q-57 0 -60 -57zM583 498l-5 -81q-14 35 -45 55t-74 23q-60 4 -100 -34.5t-43 -106.5q-2 -33 5.5 -63t23.5 -52.5t41 -37t59 -16.5q42 -3 76 19.5t50 60.5q1 -25 6 -46t15 -37t25 -25.5t36 -10.5q33 -2 61 13.5t49 43.5t32.5 67t11.5 84q0 82 -22.5 147.5t-65 111.5
t-104 70t-140.5 24t-145.5 -27t-115.5 -74.5t-78 -112t-33 -139.5q-4 -71 21 -134.5t68.5 -111t100 -75.5t116.5 -28q26 0 49 3t42 8l-6 20q-18 -5 -40 -8t-45 -3q-53 0 -105.5 24.5t-94 68.5t-66 104.5t-20.5 131.5q4 75 33 136.5t76 105t109.5 67.5t133.5 24t129 -21
t98.5 -63t62.5 -104.5t22 -144.5q0 -41 -11.5 -77t-30 -61.5t-43 -39t-49.5 -10.5q-34 5 -48.5 36.5t-14.5 91.5q0 3 1.5 27.5t4 56.5t4.5 64.5t3 52.5zM568 350q-2 -30 -10 -57.5t-23 -47.5t-37.5 -31.5t-52.5 -8.5q-60 5 -86.5 47.5t-22.5 101.5q4 60 37.5 93t85.5 28
q53 -5 83 -35t26 -90z" />
    <glyph glyph-name="bar" unicode="|" horiz-adv-x="275" 
d="M185 811q11 0 18 -7t7 -18v-862q0 -10 -7 -17.5t-18 -7.5h-95q-11 0 -18 7.5t-7 17.5v862q0 11 7 18t18 7h95zM147 -51v812h-20v-812h20z" />
    <glyph glyph-name="asciitilde" unicode="~" horiz-adv-x="623" 
d="M300 234q-32 17 -51 31t-32 13q-6 0 -12 -6t-12 -13.5t-10.5 -15.5t-7.5 -12q-5 -8 -16 -12t-20 2l-85 64q-10 7 -12.5 16.5t2.5 17.5q9 14 24 30.5t34 31t39.5 24.5t40.5 12q43 4 77.5 -9t63.5 -30q30 -18 50 -31.5t33 -12.5q6 0 12 6t12 13.5t10.5 15l7.5 12.5
q5 8 16 12t20 -2l85 -64q10 -7 12.5 -16.5t-2.5 -17.5q-9 -14 -24 -30.5t-34 -31t-40 -24.5t-40 -12q-43 -4 -77 9t-64 30zM418 258q13 0 26 6t25 15.5t23 20.5t20 21l-16 13q-8 -8 -16.5 -17.5t-18.5 -17.5t-21 -13.5t-22 -5.5q-28 0 -54 13t-51.5 28.5t-52 28.5t-56.5 13
q-14 0 -27 -6t-25 -15.5t-22.5 -20.5t-19.5 -21l16 -13q7 8 16 17.5t19 17.5t21 13.5t22 5.5q28 0 54 -13t51.5 -28.5t52 -28.5t56.5 -13z" />
    <glyph glyph-name="quoteright" unicode="&#x2019;" horiz-adv-x="183" 
d="M140 644q10 -1 16.5 -9.5t3.5 -18.5l-52 -207q-3 -11 -11 -16.5t-18 -4.5l-36 5q-11 2 -16 10t-4 18l11 213q1 12 10.5 18t20.5 4zM85 612l-27 -178l19 -3l27 177z" />
    <glyph glyph-name="quotedblright" unicode="&#x201d;" horiz-adv-x="332" 
d="M140 644q10 -1 16.5 -9.5t3.5 -18.5l-52 -207q-3 -11 -11 -16.5t-18 -4.5l-36 5q-11 2 -16 10t-4 18l11 213q1 12 10.5 18t20.5 4zM85 612l-27 -178l19 -3l27 177zM289 644q10 -1 16.5 -9.5t3.5 -18.5l-52 -207q-3 -11 -11 -16.5t-18 -4.5l-36 5q-11 2 -18.5 10t-6.5 18
l16 213q1 12 10.5 18t20.5 4zM234 612l-27 -178l19 -3l27 177z" />
    <glyph glyph-name="daggerdbl" unicode="&#x2021;" horiz-adv-x="378" 
d="M117 684q0 12 7 19t18 7h95q11 0 18 -7t7 -19v-248q0 -8 6 -15t14 -7h31q10 0 17.5 -7t7.5 -18v-95q0 -11 -7.5 -18t-17.5 -7h-30q-8 0 -14.5 -6.5t-6.5 -15.5v-83q1 -8 6.5 -13.5t13.5 -5.5h31q10 0 17.5 -7t7.5 -18v-95q0 -11 -7.5 -18t-17.5 -7h-30q-8 0 -14.5 -6.5
t-6.5 -15.5v-54q0 -10 -7 -17.5t-18 -7.5h-95q-11 0 -18 7.5t-7 17.5v51q0 10 -6 17.5t-15 7.5h-30q-12 0 -19 7t-7 18v95q0 11 7 18t19 7h30q18 0 21 20v79q0 10 -6 17.5t-15 7.5h-30q-12 0 -19 7t-7 18v95q0 11 7 18t19 7h30q9 0 15 6.5t6 17.5v246zM199 -51v113h89v20
h-89v249h89v20h-89v309h-20v-309h-89v-20h89v-249h-89v-20h89v-113h20z" />
    <glyph glyph-name="dagger" unicode="&#x2020;" horiz-adv-x="378" 
d="M117 684q0 12 7 19t18 7h95q11 0 18 -7t7 -19v-248q0 -8 6 -15t14 -7h31q10 0 17.5 -7t7.5 -18v-95q0 -11 -7.5 -18t-17.5 -7h-30q-8 0 -14.5 -6.5t-6.5 -15.5v-323q0 -10 -7 -17.5t-18 -7.5h-95q-11 0 -18 7.5t-7 17.5v320q0 10 -6 17.5t-15 7.5h-30q-12 0 -19 7t-7 18
v95q0 11 7 18t19 7h30q9 0 15 6.5t6 17.5v246zM199 -51v382h89v20h-89v309h-20v-309h-89v-20h89v-382h20z" />
    <glyph glyph-name="quoteleft" unicode="&#x2018;" horiz-adv-x="188" 
d="M118 656q11 2 20.5 -4t10.5 -18l16 -213q1 -10 -6.5 -18t-18.5 -10l-36 -5q-10 -1 -18 4.5t-11 16.5l-52 207q-3 10 3.5 18.5t16.5 9.5zM79 608l27 -177l19 3l-27 178z" />
    <glyph glyph-name="quotedblleft" unicode="&#x201c;" horiz-adv-x="332" 
d="M267 656q11 2 20.5 -4t10.5 -18l11 -213q1 -10 -4 -18t-16 -10l-36 -5q-10 -1 -18 4.5t-11 16.5l-52 207q-3 10 3.5 18.5t16.5 9.5zM228 608l27 -177l19 3l-27 178zM118 656q11 2 20.5 -4t10.5 -18l16 -213q1 -10 -6.5 -18t-18.5 -10l-36 -5q-10 -1 -18 4.5t-11 16.5
l-52 207q-3 10 3.5 18.5t16.5 9.5zM79 608l27 -177l19 3l-27 178z" />
    <glyph glyph-name="underscore" unicode="_" horiz-adv-x="496" 
d="M40 120q0 11 7.5 18t18.5 7h365q10 0 17.5 -7t7.5 -18v-95q0 -11 -7.5 -18t-17.5 -7h-365q-11 0 -18.5 7t-7.5 18v95zM406 62v20h-316v-20h316z" />
    <glyph glyph-name="bullet" unicode="&#x2022;" horiz-adv-x="211" 
d="M30 294q0 32 22 54t54 22t53.5 -22t21.5 -54t-21.5 -53.5t-53.5 -21.5t-54 21.5t-22 53.5zM94 294q0 -5 3.5 -8.5t8.5 -3.5t8.5 3.5t3.5 8.5t-3.5 8.5t-8.5 3.5t-8.5 -3.5t-3.5 -8.5z" />
    <glyph glyph-name="exclamdown" unicode="&#xa1;" horiz-adv-x="275" 
d="M185 0q11 0 18 7q7 6.99902 7 18.998v497.97q0 10 -7 17.499q-7 7.5 -18 7.5h-95q-11 0 -18 -7.5q-7 -7.49902 -7 -17.499v-497.97q0 -11.999 7 -18.998q7 -7 18 -7h95zM65 646.961q0 -29.999 21 -50.9971q21 -20.999 53 -20.999q31 0 51 20.999q20 20.998 20 50.9971
q0 31.998 -20 52.4961q-20 20.499 -51 20.499q-32 0 -53 -20.499q-21 -20.498 -21 -52.4961zM126 646.961q0 4.99902 3.5 8.49902t8.5 3.5t8.5 -3.5t3.5 -8.49902q0 -5 -3.5 -8.5t-8.5 -3.5t-8.5 3.5t-3.5 8.5zM147 498.97v-448.973h-20v448.973h20z" />
    <glyph glyph-name="copyright" unicode="&#xa9;" 
d="M503 496q8 -5 13 -15t1 -20l-30 -83q-4 -11 -16 -12t-20 3q-5 3 -12.5 3.5t-14 -1.5t-11.5 -6t-5 -11t5 -11t11.5 -5.5t14 -1t12.5 2.5q8 4 20 3t16 -12l30 -83q4 -10 -1 -20t-13 -15q-17 -10 -37 -14.5t-42 -4.5q-34 0 -63.5 12.5t-51.5 34t-34.5 51t-12.5 63.5t12.5 63
t34.5 51t51.5 34.5t63.5 12.5q22 0 42 -4t37 -15zM325 354q0 -24 8.5 -42.5t22.5 -31t31.5 -19t36.5 -6.5q11 0 20.5 1.5t19.5 3.5l-8 19q-8 -2 -16 -3t-16 -1q-38 0 -58.5 24.5t-20.5 54.5t20.5 54.5t58.5 24.5q8 0 16 -1t16 -3l8 19q-10 2 -19.5 3.5t-20.5 1.5
q-19 0 -36.5 -6.5t-31.5 -19t-22.5 -31t-8.5 -42.5zM40 354q0 76 28.5 142.5t78 116t116 78t141.5 28.5q76 0 142.5 -28.5t116 -78t78 -116t28.5 -142.5t-28.5 -142t-78 -115.5t-116 -78t-142.5 -28.5q-75 0 -141.5 28.5t-116 78t-78 115.5t-28.5 142zM104 354
q0 -63 23.5 -117.5t64.5 -95.5t95.5 -64.5t117.5 -23.5t117.5 23.5t95.5 64.5t64.5 95.5t23.5 117.5t-23.5 118t-64.5 96t-95.5 64.5t-117.5 23.5t-117.5 -23.5t-95.5 -64.5t-64.5 -96t-23.5 -118zM124 354q0 58 22 109.5t60 90t89 60.5t110 22q58 0 109.5 -22t89.5 -60.5
t60 -90t22 -109.5q0 -59 -22 -110t-60 -89t-89.5 -60t-109.5 -22q-59 0 -110 22t-89 60t-60 89t-22 110zM186 354q0 -47 16.5 -87t46 -69t69 -46t86.5 -17t87 17t69.5 46t46.5 69t17 87q0 46 -17 86.5t-46.5 70t-69.5 46.5t-87 17t-86.5 -17t-69 -46.5t-46 -70t-16.5 -86.5z
" />
    <glyph glyph-name="registered" unicode="&#xae;" 
d="M451 527q42 0 69.5 -17.5t40 -44t8.5 -58.5t-26 -61q-6 -8 -7 -16t4 -21l34 -71q4 -9 -0.5 -19.5t-13.5 -15.5l-79 -19q-11 -3 -20.5 0t-14.5 11l-26 79q-2 5 -4.5 2t-2.5 -8v-62q0 -10 -7 -17.5t-18 -7.5h-95q-11 0 -18 7.5t-7 17.5v295q0 12 7 19t18 7h158zM434 406
q0 11 -5.5 15.5t-12.5 3.5t-12.5 -6.5t-5.5 -14.5v1q0 -9 5.5 -14t12 -5t12 4.5t6.5 15.5zM350 231v95h65q11 0 21.5 1t20.5 4l35 -94l19 4l-36 97q17 9 28 30t11 41q0 24 -8.5 40t-22.5 25.5t-31.5 13t-36.5 3.5h-85v-260h20zM415 471q38 0 58.5 -16t20.5 -46t-20.5 -46.5
t-58.5 -16.5h-65v125h65zM40 354q0 76 28.5 142.5t78 116t116 78t141.5 28.5q76 0 142.5 -28.5t116 -78t78 -116t28.5 -142.5t-28.5 -142t-78 -115.5t-116 -78t-142.5 -28.5q-75 0 -141.5 28.5t-116 78t-78 115.5t-28.5 142zM104 354q0 -63 23.5 -117.5t64.5 -95.5
t95.5 -64.5t117.5 -23.5t117.5 23.5t95.5 64.5t64.5 95.5t23.5 117.5t-23.5 118t-64.5 96t-95.5 64.5t-117.5 23.5t-117.5 -23.5t-95.5 -64.5t-64.5 -96t-23.5 -118zM124 354q0 58 22 109.5t60 90t89 60.5t110 22q58 0 109.5 -22t89.5 -60.5t60 -90t22 -109.5
q0 -59 -22 -110t-60 -89t-89.5 -60t-109.5 -22q-59 0 -110 22t-89 60t-60 89t-22 110zM186 354q0 -47 16.5 -87t46 -69t69 -46t86.5 -17t87 17t69.5 46t46.5 69t17 87q0 46 -17 86.5t-46.5 70t-69.5 46.5t-87 17t-86.5 -17t-69 -46.5t-46 -70t-16.5 -86.5z" />
    <glyph glyph-name="brokenbar" unicode="&#xa6;" horiz-adv-x="275" 
d="M185 294q11 0 18 -7t7 -18v-345q0 -10 -7 -17.5t-18 -7.5h-95q-11 0 -18 7.5t-7 17.5v345q0 11 7 18t18 7h95zM185 811q11 0 18 -7t7 -18v-371q0 -10 -7 -18t-18 -8h-95q-11 0 -18 8t-7 18v371q0 11 7 18t18 7h95zM147 439v322h-20v-322h20zM127 244v-295h20v295h-20z
" />
    <glyph glyph-name="paragraph" unicode="&#xb6;" horiz-adv-x="662" 
d="M345 564q-86 0 -127.5 -29.5t-41.5 -92.5q0 -123 169 -123h34q13 -1 17.5 -8.5t4.5 -16.5v-269q0 -10 -7.5 -17.5t-18.5 -7.5h-94q-11 0 -18.5 7.5t-7.5 17.5v153q0 23 -15 27q-38 11 -75.5 29t-67.5 47.5t-48.5 71.5t-18.5 101q0 72 29 121t78.5 79t116 43t141.5 13h222
q10 0 17.5 -7.5t7.5 -18.5v-94q0 -11 -7.5 -18.5t-17.5 -7.5h-8q-9 0 -16 -6.5t-7 -15.5v-517q0 -10 -7 -17.5t-18 -7.5h-95q-11 0 -18 7.5t-7 17.5v517q0 9 -6.5 15.5t-15.5 6.5h-74zM523 50v577h69v20h-247q-45 0 -89.5 -8.5t-80.5 -31t-58.5 -62.5t-22.5 -103
q0 -55 19.5 -93t51 -62t71.5 -35.5t82 -13.5v-188h20v207q-48 3 -89 14t-71 33t-47 56t-17 82q0 56 19.5 92t51.5 56.5t73.5 28.5t86.5 8h158v-577h20z" />
    <glyph glyph-name="questiondown" unicode="&#xbf;" horiz-adv-x="523" 
d="M312.98 523.968q0 -48.9971 -9.99902 -82.4951t-25.498 -58.4961t-32.998 -44.4971t-32.998 -39.498q-15.499 -19.998 -25.499 -43.4971q-9.99902 -23.498 -9.99902 -57.4961q0 -31.998 24.498 -47.4971q24.499 -15.499 60.4971 -15.499q29.998 0 53.4961 13.499
q23.499 13.499 31.498 48.4971q2 9.99902 8.5 17.499q6.49902 7.49902 17.499 7.49902h94.9941q10.999 0 18.499 -7.49902q7.49902 -7.5 7.49902 -17.499q0 -53.9971 -21.498 -92.9941q-21.499 -38.998 -54.9971 -64.4961q-33.498 -25.499 -74.4951 -37.498
q-40.998 -11.999 -79.9951 -11.999q-35.998 0 -76.9961 11.499q-40.9971 11.499 -75.4951 36.498q-34.498 24.998 -56.9961 64.4961q-22.499 39.4971 -22.499 95.4941q0 44.9971 10 75.4951q9.99902 30.498 25.498 53.9971q15.499 23.498 33.498 42.4971t33.498 40.4971
q15.499 21.499 25.498 47.9971q10 26.499 10 65.4961q0 10 6.99902 17.499q7 7.5 17.999 7.5h94.9941q10.999 0 17.999 -7.5q6.99902 -7.49902 6.99902 -17.499zM312.98 646.961q0 -29.999 -20.998 -50.9971q-20.999 -20.999 -52.9971 -20.999q-30.998 0 -50.9971 20.999
q-19.998 20.998 -19.998 50.9971q0 31.998 19.998 52.4961q19.999 20.499 50.9971 20.499q31.998 0 52.9971 -20.499q20.998 -20.498 20.998 -52.4961zM229.986 498.97q-3 -37.998 -14.499 -64.9961q-11.5 -26.998 -26.499 -47.4971t-31.998 -38.498t-30.998 -38.4971
q-13.999 -20.499 -23.498 -46.9971q-9.5 -26.499 -9.5 -64.4961q0 -29.998 12.499 -56.4971q12.5 -26.498 34.498 -46.4971q21.999 -19.999 53.4971 -31.498t68.4961 -11.499q66.9951 0 110.993 34.498q43.9971 34.4971 53.9961 85.4941h-20.998
q-10 -47.9971 -49.9971 -73.9951q-39.998 -25.998 -93.9941 -25.998q-29.998 0 -56.9971 8.49902q-26.998 8.49902 -47.4971 24.498t-32.498 39.498t-11.999 53.4971q0 37.9971 9.49902 63.9961q9.5 25.998 23.499 45.4971t30.998 36.4971q16.999 16.999 32.498 37.998
t26.498 48.4971q11 27.498 13.999 68.4961h-19.998zM251.984 646.961q0 4.99902 -3.5 8.49902q-3.49902 3.5 -8.49902 3.5t-8.49902 -3.5q-3.5 -3.5 -3.5 -8.49902q0 -5 3.5 -8.5q3.49902 -3.5 8.49902 -3.5t8.49902 3.5q3.5 3.5 3.5 8.5z" />
    <glyph glyph-name="germandbls" unicode="&#xdf;" horiz-adv-x="557" 
d="M55 493q0 61 21.5 104t54.5 70.5t74 40t80 12.5q36 0 77 -11.5t75.5 -36t57 -64t22.5 -95.5q0 -47 -18.5 -81.5t-45.5 -64.5q-12 -13 0 -25q28 -29 46 -64t18 -81q0 -57 -21.5 -96.5t-57.5 -64t-83 -34.5t-98 -9q-9 0 -14 10t-5 21v93q2 10 11.5 15t18.5 5q18 0 36.5 2.5
t33.5 9.5t24.5 20.5t9.5 37.5q0 21 -6.5 35.5t-17.5 23.5t-24.5 12.5t-26.5 3.5h-34q-11 0 -18 7.5t-7 18.5v94q0 11 7 18.5t18 7.5h39q12 0 24.5 3.5t22.5 12.5t16.5 23.5t6.5 35.5q0 32 -25 52t-61 20q-15 0 -30 -5t-27.5 -15t-20.5 -25.5t-8 -36.5v-468q0 -10 -7 -17.5
t-18 -7.5h-95q-11 0 -18 7.5t-7 17.5v468zM117 50h20v443q0 26 10.5 52t30 46.5t46.5 33.5t61 13t61.5 -10.5t47 -28.5t30.5 -41.5t11 -49.5q0 -29 -12 -54.5t-32 -45t-47.5 -31t-58.5 -12.5v-20q34 0 61.5 -11t47 -30.5t30.5 -45.5t11 -56q0 -26 -11 -49t-30.5 -40t-47 -27
t-61.5 -10v-20q34 0 64.5 10t54 29t37.5 46t14 61q0 58 -32 97.5t-80 55.5q22 8 42.5 22.5t36 34t24.5 43.5t9 53q0 34 -14 61.5t-37.5 47t-54 30.5t-64.5 11t-64.5 -13t-53.5 -35.5t-36.5 -52.5t-13.5 -64v-443z" />
    <glyph glyph-name="Thorn" unicode="&#xde;" horiz-adv-x="606" 
d="M180 710q11 0 18 -7t7 -19v-79q0 -11 6 -18t16 -7h24q68 0 125.5 -12.5t99.5 -39.5t66 -70t24 -103q0 -61 -24 -103.5t-66 -69.5t-99.5 -39.5t-125.5 -12.5h-24q-9 0 -15.5 -6.5t-6.5 -16.5v-82q0 -10 -7 -17.5t-18 -7.5h-95q-11 0 -18 7.5t-7 17.5v659q0 12 7 19t18 7
h95zM227 435q-9 0 -15.5 -6.5t-6.5 -16.5v-112q0 -11 6 -18t16 -7h24q56 0 89.5 7t51 18.5t23 25.5t5.5 29q0 14 -5.5 28.5t-23 26t-51 18.5t-89.5 7h-24zM142 50v143h85q53 0 103 5.5t88.5 23t62 49t23.5 84.5q0 52 -23.5 84.5t-62.5 49.5t-89 23t-102 6h-85v142h-20v-610
h20zM142 213v285h85q52 0 99 -5.5t82 -21t55.5 -43.5t20.5 -73t-20.5 -73t-55.5 -43t-82 -20.5t-99 -5.5h-85z" />
    <glyph glyph-name="quotesinglbase" unicode="&#x201a;" horiz-adv-x="190" 
d="M167 115q9 -3 14 -12.5t0 -18.5l-92 -193q-5 -10 -14 -14t-18 -1l-34 12q-11 4 -14 12.5t-1 18.5l53 207q3 11 13 15t21 0zM106 94l-61 -169l18 -7l61 169z" />
    <glyph glyph-name="quotedblbase" unicode="&#x201e;" horiz-adv-x="341" 
d="M139 150q10 -1 16.5 -9.5t3.5 -18.5l-52 -207q-3 -11 -11 -16.5t-18 -4.5l-36 5q-11 2 -16 10t-4 18l11 213q1 12 10.5 18t20.5 4zM84 118l-27 -178l19 -3l27 177zM298 150q10 -1 16.5 -9.5t3.5 -18.5l-52 -207q-3 -11 -11 -16.5t-18 -4.5l-36 5q-11 2 -16 10t-4 18
l11 213q1 12 10.5 18t20.5 4zM243 118l-27 -178l19 -3l27 177z" />
    <glyph glyph-name="ellipsis" unicode="&#x2026;" horiz-adv-x="545" 
d="M25 63q0 30 21 51t53 21q31 0 51 -21t20 -51q0 -32 -20 -52.5t-51 -20.5q-32 0 -53 20.5t-21 52.5zM200 63q0 30 21 51t53 21q31 0 51 -21t20 -51q0 -32 -20 -52.5t-51 -20.5q-32 0 -53 20.5t-21 52.5zM375 63q0 30 21 51t53 21q31 0 51 -21t20 -51q0 -32 -20 -52.5
t-51 -20.5q-32 0 -53 20.5t-21 52.5zM86 63q0 -5 3.5 -8.5t8.5 -3.5t8.5 3.5t3.5 8.5t-3.5 8.5t-8.5 3.5t-8.5 -3.5t-3.5 -8.5zM261 63q0 -5 3.5 -8.5t8.5 -3.5t8.5 3.5t3.5 8.5t-3.5 8.5t-8.5 3.5t-8.5 -3.5t-3.5 -8.5zM436 63q0 -5 3.5 -8.5t8.5 -3.5t8.5 3.5t3.5 8.5
t-3.5 8.5t-8.5 3.5t-8.5 -3.5t-3.5 -8.5z" />
    <glyph glyph-name="guilsinglleft" unicode="&#x2039;" horiz-adv-x="408" 
d="M353 192q9 -8 12 -14.5t3 -17.5v-104q0 -11 -11 -16.5t-19 1.5l-261 219q-20 16 -31 41t-12 52t9.5 53.5t33.5 45.5l261 219q8 7 19 1t11 -17v-103q0 -11 -3 -17.5t-12 -14.5l-162 -140q-30 -26 -6 -46zM318 585l-199 -170q-13 -12 -20 -27.5t-7.5 -32t6.5 -32.5t21 -28
l199 -170v26l-172 147q-34 29 -33 58t33 56l172 147v26z" />
    <glyph glyph-name="OE" unicode="&#x152;" horiz-adv-x="891" 
d="M40 354q0 75 28.5 140t77 113t114 75.5t140.5 27.5h406q10 0 17.5 -7.5t7.5 -18.5v-94q0 -11 -7.5 -18.5t-17.5 -7.5h-261q-8 0 -14.5 -7t-6.5 -15v-106q0 -9 6 -15.5t14 -6.5h262q10 0 17.5 -7t7.5 -18v-95q0 -11 -7.5 -18t-17.5 -7h-261q-8 0 -14.5 -7t-6.5 -15v-80
q0 -10 6.5 -16t14.5 -6h261q10 0 17.5 -7t7.5 -18v-95q0 -11 -7.5 -18t-17.5 -7h-406q-75 0 -140.5 27t-114 74.5t-77 112.5t-28.5 140zM359 561q-38 -7 -69.5 -25.5t-54.5 -45.5t-36 -62t-13 -74q0 -41 13 -75.5t36 -61.5t54.5 -44.5t69.5 -23.5q9 -2 14.5 5.5t5.5 16.5
v369q0 8 -4 15.5t-16 5.5zM781 85h-320v249h320v20h-320v275h320v20h-376q-64 0 -119 -23t-95.5 -62.5t-63.5 -93.5t-23 -116t23 -115t63.5 -91.5t95.5 -60.5t119 -22h376v20zM124 354q0 58 22 108.5t60 87.5t89 58t110 21h36v-544h-36q-59 0 -110 20t-89 56t-60 85t-22 108
z" />
    <glyph glyph-name="guillemotleft" unicode="&#xab;" horiz-adv-x="652" 
d="M353 192q9 -8 12 -14.5t3 -17.5v-104q0 -11 -11 -16.5t-19 1.5l-261 219q-20 16 -31 41t-12 52t9.5 53.5t33.5 45.5l261 219q8 7 19 1t11 -17v-103q0 -11 -3 -17.5t-12 -14.5l-162 -140q-30 -26 -6 -46zM318 585l-199 -170q-13 -12 -20 -27.5t-7.5 -32t6.5 -32.5t21 -28
l199 -170v26l-172 147q-34 29 -33 58t33 56l172 147v26zM597 192q9 -8 12 -14.5t3 -17.5v-104q0 -11 -11 -16.5t-19 1.5l-261 219q-20 16 -31 41t-12 52t9.5 53.5t33.5 45.5l261 219q8 7 19 1t11 -17v-103q0 -11 -3 -17.5t-12 -14.5l-162 -140q-30 -26 -6 -46zM562 585
l-199 -170q-13 -12 -20 -27.5t-7.5 -32t6.5 -32.5t21 -28l199 -170v26l-172 147q-34 29 -33 58t33 56l172 147v26z" />
    <glyph glyph-name="guilsinglright" unicode="&#x203a;" horiz-adv-x="408" 
d="M54.9971 192q-9 -8 -12 -14.5q-2.99902 -6.5 -2.99902 -17.5v-104q0 -11 10.999 -16.5t18.999 1.5l260.983 219q19.999 16 30.998 41q11 25 12 52t-9.5 53.5q-10.499 26.5 -33.498 45.5l-260.983 219q-8 7 -18.999 1t-10.999 -17v-103q0 -11 2.99902 -17.5
q3 -6.5 12 -14.5l161.989 -140q29.999 -26 6 -46zM89.9941 585l198.988 -170q12.999 -12 19.999 -27.5q6.99902 -15.5 7.49902 -32t-6.49902 -32.5q-7 -16 -20.999 -28l-198.988 -170v26l171.99 147q33.998 29 32.998 58t-32.998 56l-171.99 147v26z" />
    <glyph glyph-name="degree" unicode="&#xb0;" horiz-adv-x="384" 
d="M30 497q0 34 12.5 63.5t34.5 51.5t51.5 34.5t63.5 12.5t63.5 -12.5t51.5 -34.5t34.5 -51.5t12.5 -63.5t-12.5 -63.5t-34.5 -51t-51.5 -34t-63.5 -12.5t-63.5 12.5t-51.5 34t-34.5 51t-12.5 63.5zM176 497q0 -16 16 -16t16 16q0 7 -4.5 12t-11.5 5t-11.5 -5t-4.5 -12z
M113 497q0 38 24.5 59t54.5 21t54.5 -21t24.5 -59t-24.5 -59t-54.5 -21t-54.5 21t-24.5 59zM93 497q0 -19 7 -37t20 -32t31 -22.5t41 -8.5q22 0 40.5 8.5t31.5 22.5t20 32t7 37t-7 37t-20 32t-31.5 22.5t-40.5 8.5q-23 0 -41 -8.5t-31 -22.5t-20 -32t-7 -37z" />
    <glyph glyph-name="plusminus" unicode="&#xb1;" horiz-adv-x="496" 
d="M201 215q-11 0 -18 7t-7 18v88q0 8 -6 15t-14 7h-90q-11 0 -18.5 7t-7.5 18v95q0 11 7.5 18t18.5 7h90q8 0 14 7.5t6 17.5v85q0 10 7 18t18 8h95q11 0 18 -8t7 -18v-89q0 -8 6.5 -14.5t14.5 -6.5h89q10 0 17.5 -7t7.5 -18v-95q0 -11 -7.5 -18t-17.5 -7h-89
q-8 0 -14.5 -6.5t-6.5 -15.5v-88q0 -11 -7 -18t-18 -7h-95zM258 265v147h148v20h-148v149h-20v-149h-148v-20h148v-147h20zM40 174q0 11 7.5 18t18.5 7h365q10 0 17.5 -7t7.5 -18v-95q0 -11 -7.5 -18t-17.5 -7h-365q-11 0 -18.5 7t-7.5 18v95zM406 116v20h-316v-20h316z" />
    <glyph glyph-name="guillemotright" unicode="&#xbb;" horiz-adv-x="652" 
d="M54.9971 192q-9 -8 -12 -14.5q-2.99902 -6.5 -2.99902 -17.5v-104q0 -11 10.999 -16.5t18.999 1.5l260.983 219q19.999 16 30.998 41q11 25 12 52t-9.5 53.5q-10.499 26.5 -33.498 45.5l-260.983 219q-8 7 -18.999 1t-10.999 -17v-103q0 -11 2.99902 -17.5
q3 -6.5 12 -14.5l161.989 -140q29.999 -26 6 -46zM89.9941 585l198.988 -170q12.999 -12 19.999 -27.5q6.99902 -15.5 7.49902 -32t-6.49902 -32.5q-7 -16 -20.999 -28l-198.988 -170v26l171.99 147q33.998 29 32.998 58t-32.998 56l-171.99 147v26zM298.981 192
q-8.99902 -8 -11.999 -14.5t-3 -17.5v-104q0 -11 11 -16.5q10.999 -5.5 18.998 1.5l260.984 219q19.999 16 30.998 41t11.999 52t-9.49902 53.5t-33.498 45.5l-260.984 219q-7.99902 7 -18.998 1q-11 -6 -11 -17v-103q0 -11 3 -17.5t11.999 -14.5l161.99 -140
q29.998 -26 6 -46zM333.979 585l198.988 -170q12.999 -12 19.998 -27.5q7 -15.5 7.5 -32t-6.5 -32.5q-6.99902 -16 -20.998 -28l-198.988 -170v26l171.989 147q33.998 29 32.998 58t-32.998 56l-171.989 147v26z" />
    <glyph glyph-name="periodcentered" unicode="&#xb7;" horiz-adv-x="205" 
d="M30 342q0 30 21 51t53 21q31 0 51 -21t20 -51q0 -32 -20 -52.5t-51 -20.5q-32 0 -53 20.5t-21 52.5zM91 342q0 -5 3.5 -8.5t8.5 -3.5t8.5 3.5t3.5 8.5t-3.5 8.5t-8.5 3.5t-8.5 -3.5t-3.5 -8.5z" />
    <glyph glyph-name="lessequal" unicode="&#x2264;" horiz-adv-x="465" 
d="M40 120q0 11 7 18t19 7h333q10 0 18 -7t8 -18v-95q0 -11 -8 -18t-18 -7h-333q-12 0 -19 7t-7 18v95zM375 62v20h-285v-20h285zM241 409q13 8 14 21.5t-14 22.5l-186 99q-10 6 -12.5 13t-2.5 18v104q0 11 10.5 15.5t20.5 -0.5l337 -192q17 -10 17 -26v-107q0 -7 -5 -12.5
t-13 -10.5l-336 -190q-10 -6 -20.5 -1t-10.5 16v103q0 11 2.5 18.5t12.5 13.5zM90 601l265 -151v-36l-265 -150v-23l285 162v59l-285 162v-23z" />
    <glyph glyph-name="greaterequal" unicode="&#x2265;" horiz-adv-x="465" 
d="M40 25q0 -11 7 -18t19 -7h333q10 0 18 7t8 18v95q0 11 -8 18t-18 7h-333q-12 0 -19 -7t-7 -18v-95zM90 62v20h285v-20h-285zM410 314q10 -6 12.5 -13.5t2.5 -18.5v-103q0 -11 -10.5 -16t-20.5 1l-336 190q-8 5 -13 10.5t-5 12.5v107q0 16 17 26l337 192q10 5 20.5 0.5
t10.5 -15.5v-104q0 -11 -2.5 -18t-12.5 -13l-186 -99q-15 -9 -14 -22.5t14 -21.5zM375 624l-285 -162v-59l285 -162v23l-265 150v36l265 151v23z" />
    <glyph glyph-name="approxequal" unicode="&#x2248;" horiz-adv-x="623" 
d="M300 133q-32 17 -51 31t-32 13q-6 0 -12 -6t-12 -13.5t-10.5 -15.5t-7.5 -12q-5 -8 -16 -12t-20 2l-85 64q-10 7 -12.5 16.5t2.5 17.5q9 14 24 30.5t34 31t39.5 24.5t40.5 12q43 4 77.5 -9t63.5 -30q30 -18 50 -31.5t33 -12.5q6 0 12 6t12 13.5t10.5 15l7.5 12.5
q5 8 16 12t20 -2l85 -64q10 -7 12.5 -16.5t-2.5 -17.5q-9 -14 -24 -30.5t-34 -31t-40 -24.5t-40 -12q-43 -4 -77 9t-64 30zM418 157q13 0 26 6t25 15.5t23 20.5t20 21l-16 13q-8 -8 -16.5 -17.5t-18.5 -17.5t-21 -13.5t-22 -5.5q-28 0 -54 13t-51.5 28.5t-52 28.5t-56.5 13
q-14 0 -27 -6t-25 -15.5t-22.5 -20.5t-19.5 -21l16 -13q7 8 16 17.5t19 17.5t21 13.5t22 5.5q28 0 54 -13t51.5 -28.5t52 -28.5t56.5 -13zM300 335q-32 17 -51 31t-32 13q-6 0 -12 -6t-12 -13.5t-10.5 -15.5t-7.5 -12q-5 -8 -16 -12t-20 2l-85 64q-10 7 -12.5 16.5t2.5 17.5
q9 14 24 30.5t34 31t39.5 24.5t40.5 12q43 4 77.5 -9t63.5 -30q30 -18 50 -31.5t33 -12.5q6 0 12 6t12 13.5t10.5 15l7.5 12.5q5 8 16 12t20 -2l85 -64q10 -7 12.5 -16.5t-2.5 -17.5q-9 -14 -24 -30.5t-34 -31t-40 -24.5t-40 -12q-43 -4 -77 9t-64 30zM418 359q13 0 26 6
t25 15.5t23 20.5t20 21l-16 13q-8 -8 -16.5 -17.5t-18.5 -17.5t-21 -13.5t-22 -5.5q-28 0 -54 13t-51.5 28.5t-52 28.5t-56.5 13q-14 0 -27 -6t-25 -15.5t-22.5 -20.5t-19.5 -21l16 -13q7 8 16 17.5t19 17.5t21 13.5t22 5.5q28 0 54 -13t51.5 -28.5t52 -28.5t56.5 -13z" />
    <glyph glyph-name="notequal" unicode="&#x2260;" horiz-adv-x="496" 
d="M40 480q0 11 7.5 18t18.5 7h152q8 0 12 5t8 16l19 54q4 11 13.5 13t25.5 2h91q11 0 15 -10t0 -21l-14 -40q-6 -19 13 -19h30q10 0 17.5 -7t7.5 -18v-95q0 -11 -7.5 -18t-17.5 -7h-87q-14 0 -18 -12l-2 -7q-5 -18 13 -18h94q10 0 17.5 -7t7.5 -18v-95q0 -11 -7.5 -18
t-17.5 -7h-150q-15 0 -19 -12l-21 -61q-7 -17 -41 -17h-90q-11 0 -15 10.5t0 21.5l14 40q6 18 -14 18h-29q-11 0 -18.5 7t-7.5 18v95q0 11 7.5 18t18.5 7h89q11 0 15 10l4 12q2 6 -1 10.5t-9 4.5h-98q-11 0 -18.5 7t-7.5 18v95zM90 422h176l-57 -162h-119v-20h112l-36 -102
h22l35 102h183v20h-176l57 162h119v20h-112l36 103h-20l-37 -103h-183v-20z" />
    <glyph glyph-name="logicalnot" unicode="&#xac;" horiz-adv-x="496" 
d="M431 414q8 0 16.5 -6t8.5 -16v-199q0 -10 -7 -17.5t-18 -7.5h-95q-11 0 -18 7.5t-7 17.5v51q0 10 -5.5 17.5t-13.5 7.5h-226q-11 0 -18.5 7t-7.5 18v95q0 11 7.5 18t18.5 7h365zM393 211v140h-303v-20h283v-120h20z" />
    <glyph glyph-name="figuredash" unicode="&#x2012;" horiz-adv-x="496" 
d="M40 389q0 11 7.5 18t18.5 7h365q10 0 17.5 -7t7.5 -18v-95q0 -11 -7.5 -18t-17.5 -7h-365q-11 0 -18.5 7t-7.5 18v95zM406 331v20h-316v-20h316z" />
    <glyph glyph-name="afii61352" unicode="&#x2116;" horiz-adv-x="983" 
d="M639 83q0 -11 7.5 -18t18.5 -7h253q10 0 17.5 7t7.5 18v95q0 11 -7.5 18t-17.5 7h-253q-11 0 -18.5 -7t-7.5 -18v-95zM639 386q0 34 11 63.5t31 51.5t48 34.5t62 12.5t62 -12.5t48 -34.5t31 -51.5t11 -63.5t-11 -63.5t-31 -51t-48 -34t-62 -12.5t-62 12.5t-48 34t-31 51
t-11 63.5zM775 386q0 -16 16 -16t16 16q0 7 -4.5 12t-11.5 5t-11.5 -5t-4.5 -12zM722 386q0 38 19.5 59t49.5 21t49.5 -21t19.5 -59t-19.5 -59t-49.5 -21t-49.5 21t-19.5 59zM702 386q0 -19 5.5 -37t16.5 -32t27.5 -22.5t39.5 -8.5q22 0 39 8.5t28 22.5t16.5 32t5.5 37
t-5.5 37t-16.5 32t-28 22.5t-39 8.5q-23 0 -39.5 -8.5t-27.5 -22.5t-16.5 -32t-5.5 -37zM689 120v20h204v-20h-204zM565 710q11 0 18 -7t7 -19v-659q0 -10 -7 -17.5t-18 -7.5h-90q-19 0 -27 12l-218 364q-2 3 -6 4.5t-8.5 0t-7.5 -7t-3 -17.5v-331q0 -10 -7 -17.5t-18 -7.5
h-95q-11 0 -18 7.5t-7 17.5v659q0 12 7 19t18 7h95q13 0 24 -15l217 -362q3 -4 7 -6.5t7.5 -1t6.5 7t3 18.5v333q0 12 7 19t18 7h95zM123 660v-610h20v587l354 -587h30v610h-20v-587l-355 587h-29z" />
    <glyph glyph-name="acute" unicode="&#xb4;" horiz-adv-x="287" 
d="M259 506q8 -7 8 -17t-8 -18l-165 -136q-7 -7 -17.5 -7.5t-18.5 7.5l-30 30q-8 8 -7.5 18t7.5 18l136 165q8 8 18.5 8t18.5 -8zM193 514l-127 -127l14 -14l127 127z" />
    <glyph glyph-name="circumflex" unicode="&#x2c6;" horiz-adv-x="336" 
d="M196 562q12 0 21 -17l96 -180q6 -11 -1 -15.5t-18 -4.5h-82q-11 0 -18.5 4.5t-12.5 15.5l-5 10q-7 14 -14 1l-6 -11q-11 -20 -32 -20h-82q-11 0 -18 4.5t-1 15.5l97 180q4 7 8.5 12t10.5 5h57zM244 390l-65 121h-23l-65 -121h23l54 100l54 -100h22z" />
    <glyph glyph-name="breve" unicode="&#x2d8;" horiz-adv-x="364" 
d="M120 532q11 0 18 -7t7 -18q0 -21 11.5 -28.5t24.5 -7.5q14 0 25.5 7.5t11.5 28.5q0 11 7.5 18t18.5 7h74q11 0 18.5 -7t7.5 -18q0 -34 -12.5 -63.5t-34.5 -51t-52 -34t-64 -12.5t-63.5 12.5t-51 34t-34 51t-12.5 63.5q0 11 7 18t18 7h75zM72 487q6 -41 35 -65.5t74 -24.5
t74 24.5t35 65.5h-22q-14 -70 -87 -70t-87 70h-22z" />
    <glyph glyph-name="caron" unicode="&#x2c7;" horiz-adv-x="336" 
d="M181 542q5 11 12.5 15.5t18.5 4.5h82q11 0 18 -4.5t1 -15.5l-96 -180q-9 -17 -21 -17h-57q-6 0 -10.5 5t-8.5 12l-97 180q-6 11 1 15.5t18 4.5h82q21 0 32 -20l6 -11q3 -6 7 -5.5t7 6.5zM222 517l-54 -100l-54 100h-23l65 -121h23l65 121h-22z" />
    <glyph glyph-name="grave" unicode="`" horiz-adv-x="287" 
d="M86 576q8 8 18.5 8t18.5 -8l136 -165q7 -8 7.5 -18t-7.5 -18l-30 -30q-8 -8 -18.5 -7.5t-17.5 7.5l-165 136q-8 8 -8 18t8 17zM80 510l127 -127l14 14l-127 127z" />
    <glyph glyph-name="dieresis" unicode="&#xa8;" horiz-adv-x="311" 
d="M20 433q0 26 18 44t45 18q26 0 44 -18t18 -44t-18 -45t-44 -19q-27 0 -45 19t-18 45zM166 433q0 26 18 44t45 18q26 0 44 -18t18 -44t-18 -45t-44 -19q-27 0 -45 19t-18 45zM71 433q0 -5 3.5 -8.5t8.5 -3.5t8.5 3.5t3.5 8.5t-3.5 8.5t-8.5 3.5t-8.5 -3.5t-3.5 -8.5z
M217 433q0 -5 3.5 -8.5t8.5 -3.5t8.5 3.5t3.5 8.5t-3.5 8.5t-8.5 3.5t-8.5 -3.5t-3.5 -8.5z" />
    <glyph glyph-name="macron" unicode="&#xaf;" horiz-adv-x="322" 
d="M20 475q0 11 7 18.5t18 7.5h232q10 0 17.5 -7.5t7.5 -18.5v-64q0 -11 -7.5 -18.5t-17.5 -7.5h-232q-11 0 -18 7.5t-7 18.5v64zM70 433h182v20h-182v-20z" />
    <glyph glyph-name="hungarumlaut" unicode="&#x2dd;" horiz-adv-x="366" 
d="M180 585q9 -3 14 -12.5t0 -18.5l-92 -193q-5 -10 -14 -14t-18 -1l-34 12q-11 4 -14 12.5t-1 18.5l53 207q3 11 13 15t21 0zM329 577q9 -3 14 -12.5t0 -18.5l-92 -193q-5 -10 -14 -14.5t-19 -0.5l-33 13q-11 4 -14 12.5t-1 18.5l53 207q3 11 13 15t21 0zM119 564l-61 -169
l18 -7l61 169zM269 557l-61 -169l18 -7l61 169z" />
    <glyph glyph-name="ogonek" unicode="&#x2db;" horiz-adv-x="260" 
d="M238 -206q4 -9 0.5 -18t-14.5 -13q-37 -14 -69 -13.5t-58 11.5q-25 11 -41.5 32t-25.5 46.5t-9.5 53.5t6.5 54q10 34 34 69.5t66 70.5q9 8 18.5 2t13.5 -16l24 -62q5 -11 -0.5 -18t-12.5 -15q-19 -20 -26 -41t-5 -37.5t13 -25t28 -2.5q11 4 20.5 0t13.5 -14zM179 -183
q-38 -5 -60 13t-27 50q-6 37 6 66.5t38 58.5l-9 21q-28 -32 -45 -68.5t-9 -83.5q8 -40 37.5 -62t76.5 -14z" />
    <glyph glyph-name="ring" unicode="&#x2da;" horiz-adv-x="340" 
d="M20 482q0 31 12 58t32 47.5t47.5 32t58.5 11.5t58.5 -11.5t47.5 -32t32 -47.5t12 -58q0 -32 -12 -59.5t-32 -47.5t-47.5 -32t-58.5 -12t-58.5 12t-47.5 32t-32 47.5t-12 59.5zM145 482q0 -11 7.5 -18.5t18.5 -7.5q10 0 17 7.5t7 18.5t-7 17.5t-17 6.5q-11 0 -18.5 -6.5
t-7.5 -17.5zM72 482q0 -45 27 -72t71 -27t71 27t27 72q0 44 -27 70.5t-71 26.5t-71 -26.5t-27 -70.5zM92 482q0 36 21 56.5t57 20.5t57 -20.5t21 -56.5q0 -37 -21 -58t-57 -21t-57 21t-21 58z" />
    <glyph glyph-name="tilde" unicode="&#x2dc;" horiz-adv-x="393" 
d="M369 429q-42 -64 -84.5 -88.5t-89.5 8.5q-15 11 -24.5 18t-17.5 7.5t-16 -6.5t-20 -25q-5 -8 -16 -11.5t-19 3.5l-50 37q-8 8 -10.5 17.5t3.5 17.5l16 20q18 25 35 43t35 27t39 7t46 -17l25.5 -17t19 -8t16.5 6t20 25q7 8 17.5 11.5t19.5 -3.5l47 -37q10 -8 11.5 -17.5
t-3.5 -17.5zM306 454q-15 -17 -29.5 -30.5t-27.5 -15.5q-12 -1 -24.5 6t-25.5 15.5t-26.5 15.5t-28.5 6q-17 -1 -37 -18t-37 -37l16 -12q15 18 30.5 32.5t27.5 14.5q11 0 22.5 -7t24 -15.5t27.5 -15t33 -5.5q17 1 35.5 17.5t35.5 35.5z" />
    <glyph glyph-name="dotaccent" unicode="&#x2d9;" horiz-adv-x="165" 
d="M20 433q0 26 18 44t45 18q26 0 44 -18t18 -44t-18 -45t-44 -19q-27 0 -45 19t-18 45zM71 433q0 -5 3.5 -8.5t8.5 -3.5t8.5 3.5t3.5 8.5t-3.5 8.5t-8.5 3.5t-8.5 -3.5t-3.5 -8.5z" />
    <glyph glyph-name="periodcentered" horiz-adv-x="165" 
d="M20 342q0 26 18 44t45 18q26 0 44 -18t18 -44t-18 -45t-44 -19q-27 0 -45 19t-18 45zM71 342q0 -5 3.5 -8.5t8.5 -3.5t8.5 3.5t3.5 8.5t-3.5 8.5t-8.5 3.5t-8.5 -3.5t-3.5 -8.5z" />
    <glyph glyph-name="Aogonek" unicode="&#x104;" horiz-adv-x="619" 
d="M651 -187q4 -9 0.5 -18t-14.5 -13q-37 -14 -69 -13.5t-58 11.5q-25 11 -41.5 32t-25.5 46.5t-9.5 53.5t6.5 54q3 9 5.5 15.5t4 12t2 10.5t-2.5 13l-35 102q-4 11 -10.5 17.5t-17.5 6.5h-158q-9 0 -15.5 -7t-8.5 -13l-36 -106q-5 -14 -17.5 -15.5t-22.5 -1.5h-91
q-10 0 -14.5 10t-0.5 21l233 663q2 6 10 11t16 5h57q8 0 15.5 -4.5t9.5 -10.5l233 -664q4 -11 0 -19.5t-13 -19.5q-19 -20 -26 -40.5t-5 -36t13 -23t28 -1.5q11 4 20.5 0t13.5 -14zM273 308q-2 -7 1 -13t20 -6h37q14 0 15.5 5.5t-0.5 11.5l-23 67q-4 11 -14.5 9t-13.5 -11z
M592 -164q-38 -5 -60 13t-27 50q-6 34 5 63q2 8 7.5 17.5t20.5 31.5l-219 622h-22l-204 -581h21l57 163h274l71 -201q-18 -26 -27.5 -55.5t-2.5 -65.5q8 -40 37.5 -62t76.5 -14zM308 604l130 -369h-260z" />
    <glyph glyph-name="AEacute" unicode="&#x1fc;" horiz-adv-x="927" 
d="M560 440q0 -11 5.5 -18.5t14.5 -7.5h261q11 0 18.5 -7t7.5 -18v-95q0 -11 -7.5 -18t-18.5 -7h-260q-8 0 -14.5 -6.5t-6.5 -15.5v-76q0 -11 5.5 -18.5t14.5 -7.5h261q11 0 18.5 -7t7.5 -18v-95q0 -11 -7.5 -18t-18.5 -7h-401q-11 0 -18 7.5t-7 17.5v98q0 13 -7 16.5
t-15 3.5h-112q-16 0 -29 -10t-20 -22l-49 -86q-5 -10 -17 -17.5t-23 -7.5h-108q-11 0 -13.5 7.5t2.5 17.5l377 659q5 10 15 18t22 8h403q11 0 18.5 -7.5t7.5 -18.5v-94q0 -11 -7.5 -18.5t-18.5 -7.5h-260q-8 0 -14.5 -6.5t-6.5 -15.5v-102zM106 50h23l89 156h259v-141h340
v20h-320v249h320v20h-320v275h320v20h-368zM229 226l231 403h17v-403h-248zM415 386q0 8 -7 14t-12 -2l-48 -85q-5 -10 2.5 -17t23.5 -7h19q8 0 15 3t7 17v77zM629 922q8 -7 8 -17t-8 -18l-165 -136q-7 -7 -17.5 -7.5t-18.5 7.5l-30 30q-8 8 -7.5 18t7.5 18l136 165
q8 8 18.5 8t18.5 -8zM563 930l-127 -127l14 -14l127 127z" />
    <glyph glyph-name="cedilla" unicode="&#xb8;" horiz-adv-x="308" 
d="M158 -31q-3 -20 7 -20q13 0 29 -5t31 -14.5t28.5 -24.5t21.5 -35q30 -74 -13 -140t-152 -104q-24 -8 -32 14l-24 61q-5 11 -1 20t14 13q55 21 83 42.5t16 49.5q-6 14 -21 17.5t-33 1t-36.5 -8.5t-31.5 -11q-11 -4 -18 0.5t-7 14.5l24 211q2 11 10 18t19 6l74 -4
q26 -2 23 -24zM78 -117q52 9 89 0t48 -40q9 -23 2 -43.5t-23.5 -38.5t-40 -33.5t-48.5 -27.5l7 -19q26 12 52 28.5t44.5 37.5t27 46t-0.5 55q-6 18 -18.5 30.5t-30.5 20t-40 10t-45 -0.5l12 115l-20 1z" />
    <glyph glyph-name="Ccedilla" unicode="&#xc7;" horiz-adv-x="706" 
d="M477 -31q-3 -20 7 -20q13 0 29 -5t31 -14.5t28.5 -24.5t21.5 -35q30 -74 -13 -140t-152 -104q-24 -8 -32 14l-24 61q-5 11 -1 20t14 13q55 21 83 42.5t16 49.5q-6 14 -21 17.5t-33 1t-36.5 -8.5t-31.5 -11q-11 -4 -18 0.5t-7 14.5l16 142q1 9 -27 15q-62 13 -114.5 45.5
t-90.5 80t-60 106.5t-22 125q0 76 28.5 142.5t78 116t116 78t141.5 28.5q76 0 140 -26t114 -76q7 -8 7.5 -18t-7.5 -18l-65 -65q-8 -8 -18.5 -8t-18.5 8q-32 26 -69.5 42t-82.5 16q-47 0 -86.5 -17t-69 -46.5t-46 -70t-16.5 -86.5q0 -47 16.5 -87t46 -69.5t69 -46.5
t86.5 -17q45 0 82.5 16t69.5 42q8 8 18.5 8t18.5 -8l65 -65q8 -8 7.5 -18t-7.5 -18q-35 -35 -77 -59t-90 -33q-5 -1 -7.5 -4t-3.5 -6zM124 354q0 58 22 109.5t60 90t89 60.5t110 22q53 0 99 -17.5t83 -49.5l14 14q-40 34 -89.5 53.5t-106.5 19.5q-63 0 -117.5 -23.5
t-95.5 -64.5t-64.5 -96t-23.5 -118q0 -79 36.5 -144.5t97.5 -106.5q36 -24 79.5 -37t97.5 -13l-18 -170q52 9 89 0t48 -40q9 -23 2 -43.5t-23.5 -38.5t-40 -33.5t-48.5 -27.5l7 -19q26 12 52 28.5t44.5 37.5t27 46t-0.5 55q-6 18 -18.5 30.5t-30.5 20t-40 10t-45 -0.5
l15 146q48 5 89.5 23.5t76.5 47.5l-14 14q-38 -30 -79 -47t-86 -19q-60 -2 -114.5 19t-95 59t-64.5 90.5t-24 112.5z" />
    <glyph glyph-name="Dcaron" unicode="&#x10e;" horiz-adv-x="683" 
d="M85 0q-11 0 -18 7.5t-7 17.5v659q0 12 7 19t18 7h203q76 0 141 -27t112.5 -75t74.5 -113t27 -141t-27 -140.5t-74.5 -112t-112.5 -74.5t-141 -27h-203zM123 649v-589h163q80 0 136 26.5t91 68.5t51 94.5t16 104.5q0 48 -16 100.5t-51 95.5t-91 71t-136 28h-163zM286 629
q73 0 125 -25t85 -64.5t48.5 -88.5t15.5 -97t-15.5 -97t-48.5 -88.5t-85 -64t-125 -24.5h-143v549h143zM288 145q48 0 87 16t66 44t41.5 66t14.5 83t-14.5 83t-41.5 66.5t-66 44.5t-87 16h-62q-9 0 -15 -7t-6 -18v-368q0 -12 7 -19t18 -7h58zM272 958q5 11 12.5 15.5
t18.5 4.5h82q11 0 18 -4.5t1 -15.5l-96 -180q-9 -17 -21 -17h-57q-6 0 -10.5 5t-8.5 12l-97 180q-6 11 1 15.5t18 4.5h82q21 0 32 -20l6 -11q3 -6 7 -5.5t7 6.5zM313 933l-54 -100l-54 100h-23l65 -121h23l65 121h-22z" />
    <glyph glyph-name="Dcroat" unicode="&#x110;" horiz-adv-x="744" 
d="M146 0q-11 0 -18 7.5t-7 17.5v228q0 7 -7 11.5t-14 4.5h-55q-11 0 -18 7t-7 18v95q0 11 7 18t18 7h57q6 0 12.5 3.5t6.5 10.5v256q0 12 7 19t18 7h203q76 0 141 -27t112.5 -75t74.5 -113t27 -141t-27 -140.5t-74.5 -112t-112.5 -74.5t-141 -27h-203zM70 329h116v-269h163
q80 0 136 26.5t91 68.5t51 94.5t16 104.5q0 48 -16 100.5t-51 95.5t-91 71t-136 28h-163v-300h-116v-20zM349 629q73 0 125 -25t85 -64.5t48.5 -88.5t15.5 -97t-15.5 -97t-48.5 -88.5t-85 -64t-125 -24.5h-143v249h180v20h-180v280h143zM349 145q48 0 87 16t66 44t41.5 66
t14.5 83t-14.5 83t-41.5 66.5t-66 44.5t-87 16h-62q-9 0 -15 -7t-6 -18v-99q0 -11 6 -18.5t14 -7.5h125q10 0 17.5 -7t7.5 -18v-95q0 -11 -7.5 -18t-17.5 -7h-124q-8 0 -14.5 -7t-6.5 -15v-76q0 -12 7 -19t18 -7h58z" />
    <glyph glyph-name="Eogonek" unicode="&#x118;" horiz-adv-x="572" 
d="M424 -206q4 -9 0.5 -18t-14.5 -13q-37 -14 -69 -13.5t-58 11.5q-30 13 -47 38t-24 55t-3.5 62t14.5 60q4 10 1 17t-15 7h-124q-11 0 -18 7.5t-7 17.5v659q0 12 7 19t18 7h402q10 0 17.5 -7.5t7.5 -18.5v-94q0 -11 -7.5 -18.5t-17.5 -7.5h-262q-9 0 -14.5 -8t-5.5 -17v-99
q0 -11 5.5 -18.5t14.5 -7.5h262q10 0 17.5 -7t7.5 -18v-95q0 -11 -7.5 -18t-17.5 -7h-262q-8 0 -14 -6.5t-6 -15.5v-80q0 -10 6.5 -16t14.5 -6h261q10 0 17.5 -7t7.5 -18v-95q0 -11 -7.5 -18t-17.5 -7h-91q-18 0 -44 -26q-17 -20 -23.5 -40t-3.5 -36t13.5 -24t27.5 -2
q11 4 20.5 0t13.5 -14zM365 -183q-38 -5 -60 13t-27 50q-5 25 0.5 50t17 48.5t27 45t31.5 41.5h108v20h-320v249h320v20h-320v275h320v20h-340v-584h207q-15 -21 -29.5 -43t-25 -45.5t-15.5 -49t0 -53.5q8 -40 37.5 -62t76.5 -14z" />
    <glyph glyph-name="commaaccent" horiz-adv-x="185" 
d="M164 -65q9 -3 14 -12.5t0 -18.5l-92 -193q-5 -10 -14 -14t-18 -1l-34 12q-11 4 -14 12.5t-1 18.5l53 207q3 11 13 15t21 0zM103 -86l-61 -169l18 -7l61 169z" />
    <glyph glyph-name="Hbar" unicode="&#x126;" horiz-adv-x="734" 
d="M211 710q11 0 18 -7t7 -19v-67q0 -9 6.5 -15t15.5 -6h218q10 0 16 7t6 18v63q0 12 7 19t18 7h95q11 0 18 -7t7 -19v-63q0 -11 6.5 -18t15.5 -7h14q10 0 17.5 -7.5t7.5 -18.5v-94q0 -11 -7.5 -18.5t-17.5 -7.5h-10q-11 0 -18.5 -7t-7.5 -18v-400q0 -10 -7 -17.5t-18 -7.5
h-95q-11 0 -18 7.5t-7 17.5v219q0 11 -6 18t-16 7h-215q-11 0 -18 -7t-7 -18v-219q0 -10 -7 -17.5t-18 -7.5h-95q-11 0 -18 7.5t-7 17.5v403q0 9 -6.5 15.5t-15.5 6.5h-14q-11 0 -18 7.5t-7 18.5v94q0 11 7 18.5t18 7.5h14q10 0 16 7t6 18v63q0 12 7 19t18 7h95zM255 450
q-19 0 -19 -12v-8q0 -7 2.5 -11.5t12.5 -4.5h232q9 0 12 4.5t3 11.5v5q0 7 -2.5 11t-12.5 4h-228zM79 513h74v-463h20v282h388v-282h20v463h73v20h-73v127h-20v-127h-388v127h-20v-127h-74v-20zM173 352v161h388v-161h-388z" />
    <glyph glyph-name="Iogonek" unicode="&#x12e;" horiz-adv-x="275" 
d="M234 -188q4 -9 0.5 -18t-14.5 -13q-33 -12 -69 -12.5t-66.5 13t-51 41.5t-22.5 73q-2 38 12 73t37 69q5 8 5 18v628q0 12 7 19t18 7h95q11 0 18 -7t7 -19v-662q0 -7 -5 -12.5t-10 -10.5q-31 -29 -43.5 -52t-12.5 -37t11 -19.5t26 -0.5q11 4 20.5 0t13.5 -14zM147 660h-20
v-609q-43 -51 -55 -88.5t-6 -72.5q7 -40 38 -61t78 -13l-8 19q-38 -5 -61 12t-28 49q-5 34 9.5 68t52.5 80v616z" />
    <glyph glyph-name="Jcircumflex" unicode="&#x134;" horiz-adv-x="551" 
d="M21 160q-2 9 2 19t15 13l92 13q10 2 20 -3t12 -13q7 -22 31.5 -39t58.5 -15q19 1 37 5.5t31.5 22.5t21.5 53.5t8 97.5v370q0 12 7.5 19t18.5 7h94q11 0 18.5 -7t7.5 -19v-420q0 -74 -20.5 -126t-54.5 -85t-78 -48t-91 -15q-38 0 -74.5 9.5t-67.5 30.5t-54.5 53t-34.5 77z
M90 149q21 -47 60 -71.5t102 -24.5q55 0 90 19t55.5 54t28 85t7.5 113v336h-20v-336q0 -59 -6 -105.5t-23.5 -78.5t-49 -49.5t-82.5 -17.5q-57 0 -91 20.5t-52 58.5zM451 978q12 0 21 -17l96 -180q6 -11 -1 -15.5t-18 -4.5h-82q-11 0 -18.5 4.5t-12.5 15.5l-5 10
q-7 14 -14 1l-6 -11q-11 -20 -32 -20h-82q-11 0 -18 4.5t-1 15.5l97 180q4 7 8.5 12t10.5 5h57zM499 806l-65 121h-23l-65 -121h23l54 100l54 -100h22z" />
    <glyph glyph-name="Lslash" unicode="&#x141;" horiz-adv-x="574" 
d="M87 331q15 8 15 27v326q0 12 7 19t18 7h95q11 0 18 -7t7 -19v-220q0 -7 0.5 -14t3 -12t6.5 -6.5t11 2.5l70 40q10 6 20 1t10 -16v-104q0 -11 -2.5 -18.5t-12.5 -13.5l-92 -53q-12 -7 -14 -22v-77q0 -15 5.5 -20.5t14.5 -5.5h262q10 0 17.5 -7t7.5 -18v-95q0 -11 -7.5 -18
t-17.5 -7h-402q-13 0 -19 7.5t-6 17.5v127q-1 10 -6 16.5t-13 1.5l-32 -18q-11 -6 -21 -1t-10 16v104q0 11 2.5 18t12.5 13zM70 230l94 53v-221h340v20h-320v213l134 76v23l-134 -77v343h-20v-354l-94 -53v-23z" />
    <glyph glyph-name="Oslash" unicode="&#xd8;" 
d="M214 28q3 12 -7 19q-75 49 -121 129.5t-46 177.5q0 83 32.5 152.5t88 118.5t128.5 73.5t154 18.5q8 0 12 2t6 6l6 17q4 11 13.5 14.5t26.5 3.5h91q11 0 15.5 -10t-0.5 -21l-17 -48q-2 -8 0 -12.5t7 -8.5q37 -24 68 -57t52.5 -72.5t33.5 -84t12 -92.5q0 -81 -33 -150.5
t-89 -119t-129.5 -75t-154.5 -17.5q-10 -1 -16 -17l-3 -8q-4 -11 -13 -14.5t-27 -3.5h-91q-11 0 -15 10.5t0 21.5zM367 571q-43 -3 -77.5 -24.5t-58 -54.5t-35.5 -74t-10 -82.5t18 -79t49 -63.5q6 -5 13 -1t11 14l119 336q5 17 -4.5 23.5t-24.5 5.5zM443 138q43 2 77 24
t58 55t36 74.5t10.5 82.5t-18.5 78t-50 63q-7 5 -14 0t-11 -17l-114 -324q-5 -17 -0.5 -27.5t26.5 -8.5zM291 -1l24 68q45 -14 90 -14q63 0 117.5 23.5t95.5 64.5t64.5 95.5t23.5 117.5q0 48 -14 91.5t-39.5 80.5t-60.5 64.5t-77 44.5l26 75h-22l-24 -68q-44 14 -90 14
q-63 0 -117.5 -23.5t-95.5 -64.5t-64.5 -96t-23.5 -118q0 -48 14 -91.5t39.5 -80.5t60.5 -65t77 -44l-26 -74h22zM686 354q0 -59 -22 -110t-60 -89t-89.5 -60t-109.5 -22q-44 0 -83 12l187 531q39 -15 71.5 -41.5t56 -60.5t36.5 -74.5t13 -85.5zM124 354q0 58 22 109.5
t60 90t89 60.5t110 22q22 0 43 -3.5t41 -9.5l-187 -531q-39 15 -71.5 41t-56.5 60t-37 75t-13 86z" />
    <glyph glyph-name="Oslashacute" unicode="&#x1fe;" 
d="M520 922q8 -7 8 -17t-8 -18l-165 -136q-7 -7 -17.5 -7.5t-18.5 7.5l-30 30q-8 8 -7.5 18t7.5 18l136 165q8 8 18.5 8t18.5 -8zM454 930l-127 -127l14 -14l127 127zM214 28q3 12 -7 19q-75 49 -121 129.5t-46 177.5q0 83 32.5 152.5t88 118.5t128.5 73.5t154 18.5
q8 0 12 2t6 6l6 17q4 11 13.5 14.5t26.5 3.5h91q11 0 15.5 -10t-0.5 -21l-17 -48q-2 -8 0 -12.5t7 -8.5q37 -24 68 -57t52.5 -72.5t33.5 -84t12 -92.5q0 -81 -33 -150.5t-89 -119t-129.5 -75t-154.5 -17.5q-10 -1 -16 -17l-3 -8q-4 -11 -13 -14.5t-27 -3.5h-91
q-11 0 -15 10.5t0 21.5zM367 571q-43 -3 -77.5 -24.5t-58 -54.5t-35.5 -74t-10 -82.5t18 -79t49 -63.5q6 -5 13 -1t11 14l119 336q5 17 -4.5 23.5t-24.5 5.5zM443 138q43 2 77 24t58 55t36 74.5t10.5 82.5t-18.5 78t-50 63q-7 5 -14 0t-11 -17l-114 -324q-5 -17 -0.5 -27.5
t26.5 -8.5zM291 -1l24 68q45 -14 90 -14q63 0 117.5 23.5t95.5 64.5t64.5 95.5t23.5 117.5q0 48 -14 91.5t-39.5 80.5t-60.5 64.5t-77 44.5l26 75h-22l-24 -68q-44 14 -90 14q-63 0 -117.5 -23.5t-95.5 -64.5t-64.5 -96t-23.5 -118q0 -48 14 -91.5t39.5 -80.5t60.5 -65
t77 -44l-26 -74h22zM686 354q0 -59 -22 -110t-60 -89t-89.5 -60t-109.5 -22q-44 0 -83 12l187 531q39 -15 71.5 -41.5t56 -60.5t36.5 -74.5t13 -85.5zM124 354q0 58 22 109.5t60 90t89 60.5t110 22q22 0 43 -3.5t41 -9.5l-187 -531q-39 15 -71.5 41t-56.5 60t-37 75t-13 86z
" />
    <glyph glyph-name="Racute" unicode="&#x154;" horiz-adv-x="606" 
d="M225 179q-20 -7 -20 -23v-131q0 -10 -7 -17.5t-18 -7.5h-95q-11 0 -18 7.5t-7 17.5v659q0 12 7 19t18 7h166q75 0 134 -13t99 -43t61 -79t21 -121q0 -55 -29 -106.5t-74 -89.5q-16 -13 -20 -23.5t4 -30.5l84 -173q5 -12 3 -21.5t-19 -9.5h-106q-13 0 -19 5t-9 10l-85 163
q-2 5 -11 7t-20 1q-10 -1 -19 -2t-21 -5zM453 50l-106 212q31 11 59 28.5t49.5 41t34 53.5t12.5 67q0 63 -22.5 101.5t-58.5 59.5t-80.5 27.5t-89.5 6.5h-129v-597h20v190q69 0 113.5 4t71.5 12l103 -206h23zM251 627q45 0 86.5 -6.5t73.5 -25t51.5 -53t19.5 -90.5
q0 -33 -11.5 -60t-31 -48.5t-45.5 -37.5t-56 -26q-39 -12 -84 -16t-112 -4v367h109zM227 564q-9 0 -15.5 -6.5t-6.5 -15.5v-198q0 -11 5.5 -18t15.5 -7h25q37 0 68 9.5t53.5 26.5t35 39t12.5 48q0 37 -12.5 61t-35 37.5t-53.5 18.5t-68 5h-24zM407 922q8 -7 8 -17t-8 -18
l-165 -136q-7 -7 -17.5 -7.5t-18.5 7.5l-30 30q-8 8 -7.5 18t7.5 18l136 165q8 8 18.5 8t18.5 -8zM341 930l-127 -127l14 -14l127 127z" />
    <glyph glyph-name="Rcaron" unicode="&#x158;" horiz-adv-x="606" 
d="M225 179q-20 -7 -20 -23v-131q0 -10 -7 -17.5t-18 -7.5h-95q-11 0 -18 7.5t-7 17.5v659q0 12 7 19t18 7h166q75 0 134 -13t99 -43t61 -79t21 -121q0 -55 -29 -106.5t-74 -89.5q-16 -13 -20 -23.5t4 -30.5l84 -173q5 -12 3 -21.5t-19 -9.5h-106q-13 0 -19 5t-9 10l-85 163
q-2 5 -11 7t-20 1q-10 -1 -19 -2t-21 -5zM453 50l-106 212q31 11 59 28.5t49.5 41t34 53.5t12.5 67q0 63 -22.5 101.5t-58.5 59.5t-80.5 27.5t-89.5 6.5h-129v-597h20v190q69 0 113.5 4t71.5 12l103 -206h23zM251 627q45 0 86.5 -6.5t73.5 -25t51.5 -53t19.5 -90.5
q0 -33 -11.5 -60t-31 -48.5t-45.5 -37.5t-56 -26q-39 -12 -84 -16t-112 -4v367h109zM227 564q-9 0 -15.5 -6.5t-6.5 -15.5v-198q0 -11 5.5 -18t15.5 -7h25q37 0 68 9.5t53.5 26.5t35 39t12.5 48q0 37 -12.5 61t-35 37.5t-53.5 18.5t-68 5h-24zM284 958q5 11 12.5 15.5
t18.5 4.5h82q11 0 18 -4.5t1 -15.5l-96 -180q-9 -17 -21 -17h-57q-6 0 -10.5 5t-8.5 12l-97 180q-6 11 1 15.5t18 4.5h82q21 0 32 -20l6 -11q3 -6 7 -5.5t7 6.5zM325 933l-54 -100l-54 100h-23l65 -121h23l65 121h-22z" />
    <glyph glyph-name="Scedilla" unicode="&#x15e;" horiz-adv-x="583" 
d="M352 -21q-3 -20 7 -20q13 0 29 -5t31 -14.5t28.5 -24.5t21.5 -35q30 -74 -13 -140t-152 -104q-24 -8 -32 14l-24 61q-5 11 -1 20t14 13q55 21 83 42.5t16 49.5q-6 14 -21 17.5t-33 1t-36.5 -8.5t-31.5 -11q-11 -4 -18 0.5t-7 14.5l15 133q0 11 -7 15q-39 9 -72 27.5
t-57 46.5t-38 64.5t-14 80.5q0 10 7 17.5t18 7.5h95q11 0 17 -7.5t8 -17.5q8 -43 34.5 -62.5t71.5 -19.5q52 0 79 21.5t27 61.5q0 36 -25 55.5t-62.5 32t-81 24t-81 32t-62.5 55.5t-25 95q0 56 22.5 95.5t57 64.5t75.5 36.5t77 11.5q39 0 79.5 -12t74 -37.5t55 -64.5
t21.5 -93q0 -10 -7 -17.5t-18 -7.5h-95q-11 0 -18 7.5t-7 17.5q0 14 -7.5 26t-19.5 21t-27 14t-30 5q-88 0 -88 -67q0 -24 25 -38.5t62.5 -27.5t81.5 -28t81.5 -40t62.5 -63t25 -97q0 -45 -14.5 -82t-39 -65t-57.5 -46t-70 -26q-7 -1 -9 -12zM104 192q5 -29 21 -54.5t40 -44
t55.5 -30t68.5 -11.5l-17 -159q52 9 89 0t48 -40q9 -23 2 -43.5t-23.5 -38.5t-40 -33.5t-48.5 -27.5l7 -19q26 12 52 28.5t44.5 37.5t27 46t-0.5 55q-6 18 -18.5 30.5t-30.5 20t-40 10t-45 -0.5l15 134q38 3 69 17.5t53.5 37t35 51t12.5 60.5q0 52 -25 83.5t-62.5 50.5
t-81.5 31.5t-81.5 28t-62.5 38t-25 62.5q0 30 12 53.5t33 40t48 25.5t57 9q54 0 94.5 -27t50.5 -75h21q-5 25 -19 47.5t-35.5 39t-50 26t-61.5 9.5q-38 0 -69 -12t-53.5 -32t-35 -47t-12.5 -57q0 -45 25 -71t62.5 -43t81.5 -29.5t81.5 -30t62.5 -45.5t25 -75
q0 -34 -13.5 -61t-36.5 -46t-53.5 -29t-64.5 -10q-30 0 -58.5 8t-51 23.5t-38 38t-20.5 50.5h-20z" />
    <glyph glyph-name="Tbar" unicode="&#x166;" horiz-adv-x="563" 
d="M30 684q0 11 7 18.5t18 7.5h453q10 0 17.5 -7.5t7.5 -18.5v-94q0 -11 -7.5 -18.5t-17.5 -7.5h-133q-9 0 -15 -7t-6 -15v-22q0 -6 3.5 -10.5t14.5 -5.5h95q10 0 18 -7.5t8 -18.5v-94q0 -11 -8 -18.5t-18 -7.5h-91q-17 -2 -19.5 -8.5t-2.5 -16.5v-308q0 -10 -7 -17.5
t-18 -7.5h-95q-11 0 -18 7.5t-7 17.5v308q0 10 -2 16.5t-19 8.5h-92q-11 0 -18 7.5t-7 18.5v94q0 11 7 18.5t18 7.5h92q17 2 19 8.5t2 16.5v10q0 9 -6 17t-14 8h-134q-11 0 -18 7.5t-7 18.5v94zM291 50v373h152v20h-152v184h192v20h-403v-20h191v-184h-150v-20h150v-373h20z
" />
    <glyph glyph-name="Uogonek" unicode="&#x172;" horiz-adv-x="635" 
d="M175 710q11 0 18 -7t7 -19v-350q0 -52 4.5 -89.5t17.5 -62t36 -36t59 -11.5q37 0 60 11.5t36 36t17.5 62t4.5 89.5v350q0 12 7 19t18 7h95q11 0 18 -7t7 -19v-400q0 -118 -41 -188t-130 -95q-27 -8 -39 -24q-13 -17 -16.5 -35t0.5 -32t14.5 -20.5t25.5 -1.5q11 4 20.5 0
t13.5 -14l24 -64q4 -9 0.5 -18t-14.5 -13q-37 -14 -69 -13.5t-58 11.5q-25 11 -41.5 32t-25 46.5t-9.5 53.5t6 54q5 17 -0.5 25.5t-26.5 15.5q-82 26 -120.5 96t-38.5 184v400q0 12 7 19t18 7h95zM137 324v336h-20v-336q0 -63 9 -113t32.5 -85t62.5 -54t99 -19
q-19 -38 -29 -82.5t-4 -80.5q8 -40 37.5 -60t76.5 -12l-8 19q-38 -5 -60 11t-27 48q-2 16 -0.5 36t6.5 41t12.5 42t17.5 39q51 4 85 24.5t54.5 55t28.5 83t8 107.5v336h-20v-336q0 -59 -8 -105.5t-28 -78.5t-55 -49.5t-90 -17.5t-90 17.5t-55 49.5t-27.5 78.5t-7.5 105.5z
" />
    <glyph glyph-name="Eng" unicode="&#x14a;" horiz-adv-x="650" 
d="M565 710q11 0 18 -7t7 -19v-662q0 -39 -10 -75t-30.5 -63.5t-53 -44.5t-78.5 -17q-31 0 -63 5.5t-58 19.5q-8 5 -11 15t0 21l22 69q3 11 14.5 15t19.5 -1q20 -11 39.5 -15t36.5 -4q29 2 33.5 24.5t-12.5 54.5l-209 350q-2 3 -6 4.5t-8.5 0t-7.5 -7t-3 -17.5v-331
q0 -10 -7 -17.5t-18 -7.5h-95q-11 0 -18 7.5t-7 17.5v659q0 12 7 19t18 7h95q13 0 24 -15l217 -362q3 -4 7 -6.5t7.5 -1t6.5 7t3 18.5v333q0 12 7 19t18 7h95zM152 660h-29v-610h20v587l364 -604v-33q0 -105 -89 -105q-14 0 -34 5t-39 11l-6 -20q20 -6 41 -11t38 -5
q60 0 84.5 32.5t24.5 92.5v660h-20v-587z" />
    <glyph glyph-name="afii10023" unicode="&#x401;" horiz-adv-x="572" 
d="M487 710q10 0 17.5 -7.5t7.5 -18.5v-94q0 -11 -7.5 -18.5t-17.5 -7.5h-262q-9 0 -14.5 -8t-5.5 -17v-99q0 -11 5.5 -18.5t14.5 -7.5h262q10 0 17.5 -7t7.5 -18v-95q0 -11 -7.5 -18t-17.5 -7h-262q-8 0 -14 -6.5t-6 -15.5v-80q0 -10 6.5 -16t14.5 -6h261q10 0 17.5 -7
t7.5 -18v-95q0 -11 -7.5 -18t-17.5 -7h-402q-11 0 -18 7.5t-7 17.5v659q0 12 7 19t18 7h402zM462 65v20h-320v249h320v20h-320v275h320v20h-340v-584h340zM150 850q0 26 18 44t45 18q26 0 44 -18t18 -44t-18 -45t-44 -19q-27 0 -45 19t-18 45zM296 850q0 26 18 44t45 18
q26 0 44 -18t18 -44t-18 -45t-44 -19q-27 0 -45 19t-18 45zM201 850q0 -5 3.5 -8.5t8.5 -3.5t8.5 3.5t3.5 8.5t-3.5 8.5t-8.5 3.5t-8.5 -3.5t-3.5 -8.5zM347 850q0 -5 3.5 -8.5t8.5 -3.5t8.5 3.5t3.5 8.5t-3.5 8.5t-8.5 3.5t-8.5 -3.5t-3.5 -8.5z" />
    <glyph glyph-name="afii10057" unicode="&#x408;" horiz-adv-x="551" 
d="M21 160q-2 9 2 19t15 13l92 13q10 2 20 -3t12 -13q7 -22 31.5 -39t58.5 -15q19 1 37 5.5t31.5 22.5t21.5 53.5t8 97.5v370q0 12 7.5 19t18.5 7h94q11 0 18.5 -7t7.5 -19v-420q0 -74 -20.5 -126t-54.5 -85t-78 -48t-91 -15q-38 0 -74.5 9.5t-67.5 30.5t-54.5 53t-34.5 77z
M90 149q21 -47 60 -71.5t102 -24.5q55 0 90 19t55.5 54t28 85t7.5 113v336h-20v-336q0 -59 -6 -105.5t-23.5 -78.5t-49 -49.5t-82.5 -17.5q-57 0 -91 20.5t-52 58.5z" />
    <glyph glyph-name="afii10019" unicode="&#x412;" horiz-adv-x="585" 
d="M85 0q-11 0 -18 7t-7 18v659q0 11 7 18.5t18 7.5h146q77 0 131 -13.5t88 -39.5t49.5 -63t15.5 -85q0 -40 -12.5 -71.5t-32.5 -58.5q-6 -8 -4 -14.5t10 -12.5q69 -56 69 -151q0 -48 -15.5 -85t-49.5 -63t-88 -39.5t-131 -13.5h-176zM226 282q-9 0 -15 -6.5t-6 -15.5v-89
q0 -11 5.5 -18.5t14.5 -7.5h36q75 0 107 18t32 50q0 31 -32 50t-107 19h-35zM226 564q-10 0 -15.5 -7.5t-5.5 -17.5v-90q0 -9 6 -15t15 -6q79 0 111.5 18.5t32.5 49.5q0 32 -32 50t-107 18h-5zM271 63q41 0 79 6.5t67.5 23t47 45.5t17.5 75q0 31 -10.5 56t-29 43.5
t-43.5 30.5t-54 17q48 14 77.5 46t29.5 90q0 46 -17.5 75t-46 46t-66.5 23.5t-78 6.5h-122v-584h149zM261 346q34 0 69.5 -5t64.5 -19.5t48 -40.5t19 -68q0 -46 -19 -72t-48 -39t-64.5 -16t-69.5 -3h-119v263h119zM142 366v261h82q37 -1 74 -4.5t67 -16t48.5 -38.5t18.5 -72
q0 -42 -18 -67.5t-47.5 -39.5t-66.5 -18.5t-75 -4.5h-83z" />
    <glyph glyph-name="afii10022" unicode="&#x415;" horiz-adv-x="572" 
d="M487 710q10 0 17.5 -7.5t7.5 -18.5v-94q0 -11 -7.5 -18.5t-17.5 -7.5h-262q-9 0 -14.5 -8t-5.5 -17v-99q0 -11 5.5 -18.5t14.5 -7.5h262q10 0 17.5 -7t7.5 -18v-95q0 -11 -7.5 -18t-17.5 -7h-262q-8 0 -14 -6.5t-6 -15.5v-80q0 -10 6.5 -16t14.5 -6h261q10 0 17.5 -7
t7.5 -18v-95q0 -11 -7.5 -18t-17.5 -7h-402q-11 0 -18 7.5t-7 17.5v659q0 12 7 19t18 7h402zM462 65v20h-320v249h320v20h-320v275h320v20h-340v-584h340z" />
    <glyph glyph-name="Alpha" unicode="&#x391;" horiz-adv-x="619" 
d="M490 0q-10 0 -22.5 1.5t-17.5 15.5l-36 102q-4 11 -10.5 17.5t-17.5 6.5h-158q-9 0 -15.5 -7t-8.5 -13l-36 -106q-5 -14 -17.5 -15.5t-22.5 -1.5h-91q-10 0 -14.5 10t-0.5 21l233 663q2 6 10 11t16 5h57q8 0 15.5 -4.5t9.5 -10.5l233 -664q4 -10 1 -20.5t-16 -10.5h-91z
M273 308q-2 -7 1 -13t20 -6h37q14 0 15.5 5.5t-0.5 11.5l-23 67q-4 11 -14.5 9t-13.5 -11zM319 633h-22l-204 -581h21l57 163h274l58 -163h21zM308 604l130 -369h-260z" />
    <glyph glyph-name="Beta" unicode="&#x392;" horiz-adv-x="585" 
d="M85 0q-11 0 -18 7t-7 18v659q0 11 7 18.5t18 7.5h146q77 0 131 -13.5t88 -39.5t49.5 -63t15.5 -85q0 -40 -12.5 -71.5t-32.5 -58.5q-6 -8 -4 -14.5t10 -12.5q69 -56 69 -151q0 -48 -15.5 -85t-49.5 -63t-88 -39.5t-131 -13.5h-176zM226 282q-9 0 -15 -6.5t-6 -15.5v-89
q0 -11 5.5 -18.5t14.5 -7.5h36q75 0 107 18t32 50q0 31 -32 50t-107 19h-35zM226 564q-10 0 -15.5 -7.5t-5.5 -17.5v-90q0 -9 6 -15t15 -6q79 0 111.5 18.5t32.5 49.5q0 32 -32 50t-107 18h-5zM271 63q41 0 79 6.5t67.5 23t47 45.5t17.5 75q0 31 -10.5 56t-29 43.5
t-43.5 30.5t-54 17q48 14 77.5 46t29.5 90q0 46 -17.5 75t-46 46t-66.5 23.5t-78 6.5h-122v-584h149zM261 346q34 0 69.5 -5t64.5 -19.5t48 -40.5t19 -68q0 -46 -19 -72t-48 -39t-64.5 -16t-69.5 -3h-119v263h119zM142 366v261h82q37 -1 74 -4.5t67 -16t48.5 -38.5t18.5 -72
q0 -42 -18 -67.5t-47.5 -39.5t-66.5 -18.5t-75 -4.5h-83z" />
    <glyph glyph-name="Epsilon" unicode="&#x395;" horiz-adv-x="572" 
d="M487 710q10 0 17.5 -7.5t7.5 -18.5v-94q0 -11 -7.5 -18.5t-17.5 -7.5h-262q-9 0 -14.5 -8t-5.5 -17v-99q0 -11 5.5 -18.5t14.5 -7.5h262q10 0 17.5 -7t7.5 -18v-95q0 -11 -7.5 -18t-17.5 -7h-262q-8 0 -14 -6.5t-6 -15.5v-80q0 -10 6.5 -16t14.5 -6h261q10 0 17.5 -7
t7.5 -18v-95q0 -11 -7.5 -18t-17.5 -7h-402q-11 0 -18 7.5t-7 17.5v659q0 12 7 19t18 7h402zM462 65v20h-320v249h320v20h-320v275h320v20h-340v-584h340z" />
    <glyph glyph-name="Zeta" unicode="&#x396;" horiz-adv-x="552" 
d="M241 193q-14 -20 -14 -34t25 -14h235q10 0 17.5 -7t7.5 -18v-95q0 -11 -7.5 -18t-17.5 -7h-418q-11 0 -18 7t-7 18v105q0 10 4.5 20t11.5 20l250 347q13 19 13.5 33t-19.5 14h-239q-10 0 -17.5 7.5t-7.5 18.5v94q0 11 7.5 18.5t17.5 7.5h418q11 0 18 -7.5t7 -18.5v-104
q0 -10 -5 -20.5t-11 -19.5zM126 120l319 464v63h-355v-20h335v-37l-319 -463v-64h356v20h-336v37z" />
    <glyph glyph-name="Eta" unicode="&#x397;" horiz-adv-x="672" 
d="M180 710q11 0 18 -7t7 -19v-244q0 -11 6 -18.5t16 -7.5h218q9 0 15.5 7.5t6.5 18.5v244q0 12 7 19t18 7h95q11 0 18 -7t7 -19v-659q0 -10 -7 -17.5t-18 -7.5h-95q-11 0 -18 7.5t-7 17.5v219q0 11 -6 18t-16 7h-215q-11 0 -18 -7t-7 -18v-219q0 -10 -7 -17.5t-18 -7.5h-95
q-11 0 -18 7.5t-7 17.5v659q0 12 7 19t18 7h95zM550 50v610h-20v-309h-388v309h-20v-610h20v281h388v-281h20z" />
    <glyph glyph-name="Kappa" unicode="&#x39a;" horiz-adv-x="676" 
d="M524 0q-11 0 -17 7t-14 18l-187 249q-2 4 -12.5 4t-20.5 -13l-60 -80q-8 -11 -8 -28v-132q0 -10 -7 -17.5t-18 -7.5h-95q-11 0 -18 7.5t-7 17.5v659q0 12 7 19t18 7h95q11 0 18 -7t7 -19v-234q0 -18 10 -21t17 7l195 260q6 8 11.5 11t11.5 3h122q11 0 17 -8t-2 -18
l-201 -268q-4 -7 -2 -15t16 -26l262 -350q7 -10 1 -17.5t-17 -7.5h-122zM548 50h20l-265 353l192 257h-20l-332 -444v444h-20v-610h20v138l150 202z" />
    <glyph glyph-name="Mu" unicode="&#x39c;" horiz-adv-x="845" 
d="M200 25q0 -10 -7 -17.5t-18 -7.5h-95q-11 0 -18 7.5t-7 17.5l50 659q0 12 7 19t18 7h105q17 0 24 -18l146 -406q8 -18 19 -14.5t14 10.5l147 410q3 8 10 13t15 5h104q11 0 18.5 -7t7.5 -19l50 -659q0 -10 -7 -17.5t-18 -7.5h-95q-11 0 -18 7.5t-7 17.5l-22 250
q-1 18 -12 18t-19 -17l-98 -261q-3 -8 -11.5 -11.5t-18.5 -3.5h-84q-10 0 -18 3.5t-11 11.5l-102 267q-6 15 -16.5 10.5t-12.5 -25.5zM415 70l-216 590h-33l-46 -610h20l45 588l216 -588h42l218 592l44 -592h20l-46 610h-33l-217 -590h-14z" />
    <glyph glyph-name="Nu" unicode="&#x39d;" horiz-adv-x="650" 
d="M565 710q11 0 18 -7t7 -19v-659q0 -10 -7 -17.5t-18 -7.5h-90q-19 0 -27 12l-218 364q-2 3 -6 4.5t-8.5 0t-7.5 -7t-3 -17.5v-331q0 -10 -7 -17.5t-18 -7.5h-95q-11 0 -18 7.5t-7 17.5v659q0 12 7 19t18 7h95q13 0 24 -15l217 -362q3 -4 7 -6.5t7.5 -1t6.5 7t3 18.5v333
q0 12 7 19t18 7h95zM123 660v-610h20v587l354 -587h30v610h-20v-587l-355 587h-29z" />
    <glyph glyph-name="Omicron" unicode="&#x39f;" 
d="M40 354q0 76 28.5 142.5t78 116t116 78t141.5 28.5q76 0 142.5 -28.5t116 -78t78 -116t28.5 -142.5t-28.5 -142t-78 -115.5t-116 -78t-142.5 -28.5q-75 0 -141.5 28.5t-116 78t-78 115.5t-28.5 142zM104 354q0 -63 23.5 -117.5t64.5 -95.5t95.5 -64.5t117.5 -23.5
t117.5 23.5t95.5 64.5t64.5 95.5t23.5 117.5t-23.5 118t-64.5 96t-95.5 64.5t-117.5 23.5t-117.5 -23.5t-95.5 -64.5t-64.5 -96t-23.5 -118zM124 354q0 58 22 109.5t60 90t89 60.5t110 22q58 0 109.5 -22t89.5 -60.5t60 -90t22 -109.5q0 -59 -22 -110t-60 -89t-89.5 -60
t-109.5 -22q-59 0 -110 22t-89 60t-60 89t-22 110zM186 354q0 -47 16.5 -87t46 -69t69 -46t86.5 -17t87 17t69.5 46t46.5 69t17 87q0 46 -17 86.5t-46.5 70t-69.5 46.5t-87 17t-86.5 -17t-69 -46.5t-46 -70t-16.5 -86.5z" />
    <glyph glyph-name="Tau" unicode="&#x3a4;" horiz-adv-x="543" 
d="M20 684q0 11 7 18.5t18 7.5h453q10 0 17.5 -7.5t7.5 -18.5v-94q0 -11 -7.5 -18.5t-17.5 -7.5h-133q-9 0 -15 -7t-6 -15v-517q0 -10 -7 -17.5t-18 -7.5h-95q-11 0 -18 7.5t-7 17.5v514q0 9 -6 17t-14 8h-134q-11 0 -18 7.5t-7 18.5v94zM281 50v577h192v20h-403v-20h191
v-577h20zM20 684q0 11 7 18.5t18 7.5h453q10 0 17.5 -7.5t7.5 -18.5v-94q0 -11 -7.5 -18.5t-17.5 -7.5h-133q-9 0 -15 -7t-6 -15v-517q0 -10 -7 -17.5t-18 -7.5h-95q-11 0 -18 7.5t-7 17.5v514q0 9 -6 17t-14 8h-134q-11 0 -18 7.5t-7 18.5v94zM281 50v577h192v20h-403v-20
h191v-577h20z" />
    <glyph glyph-name="Upsilon" unicode="&#x3a5;" horiz-adv-x="554" 
d="M230 0q-11 0 -18 7.5t-7 17.5v248q0 12 -4.5 22t-9.5 22l-167 361q-5 11 -1.5 21.5t14.5 10.5h90q16 0 26 -2t15 -13l95 -201q6 -13 14 -13t11 6l98 208q5 11 15 13t26 2h90q11 0 14.5 -10.5t-1.5 -21.5l-166 -359q-5 -10 -9.5 -22.5t-4.5 -23.5v-248q0 -10 -7 -17.5
t-18 -7.5h-95zM267 50h20v247l168 363h-22l-156 -338l-156 338h-22l168 -363v-247z" />
    <glyph glyph-name="Chi" unicode="&#x3a7;" horiz-adv-x="668" 
d="M321 505q5 -8 11.5 -10.5t11.5 5.5l120 190q9 15 17.5 17.5t19.5 2.5h108q11 0 16.5 -7.5t-1.5 -18.5l-196 -310q-12 -20 -3 -35l199 -314q6 -10 1 -17.5t-16 -7.5h-108q-11 0 -19 2.5t-18 17.5l-119 187q-11 17 -26 -6l-115 -181q-10 -15 -18 -17.5t-19 -2.5h-107
q-11 0 -16.5 7.5t0.5 17.5l197 312q5 9 5.5 17.5t-6.5 19.5l-196 310q-7 11 -1 18.5t17 7.5h107q11 0 19.5 -2.5t17.5 -17.5zM152 50l182 289l183 -289h23l-193 305l193 305h-23l-183 -289l-182 289h-23l192 -305l-192 -305h23z" />
    <glyph glyph-name="Rho" unicode="&#x3a1;" horiz-adv-x="596" 
d="M225 174q-8 0 -14 -7t-6 -16v-126q0 -10 -7 -17.5t-18 -7.5h-95q-11 0 -18 7.5t-7 17.5v659q0 12 7 19t18 7h166q152 0 233.5 -65t81.5 -191q0 -62 -21 -113.5t-61 -88.5t-99 -57.5t-134 -20.5h-26zM227 564q-9 0 -15.5 -6.5t-6.5 -15.5v-198q0 -11 5.5 -18t15.5 -7h25
q169 0 169 123q0 63 -41.5 92.5t-127.5 29.5h-24zM251 647h-129v-597h20v187h109q45 0 89.5 9.5t80.5 33t58.5 63t22.5 99.5q0 63 -22.5 103t-58.5 62.5t-80.5 31t-89.5 8.5zM142 627h109q45 0 86.5 -8t73.5 -28.5t51.5 -56.5t19.5 -92q0 -52 -19.5 -87.5t-51.5 -57
t-73.5 -31t-86.5 -9.5h-109v370z" />
    <glyph glyph-name="afii10030" unicode="&#x41c;" horiz-adv-x="845" 
d="M200 25q0 -10 -7 -17.5t-18 -7.5h-95q-11 0 -18 7.5t-7 17.5l50 659q0 12 7 19t18 7h105q17 0 24 -18l146 -406q8 -18 19 -14.5t14 10.5l147 410q3 8 10 13t15 5h104q11 0 18.5 -7t7.5 -19l50 -659q0 -10 -7 -17.5t-18 -7.5h-95q-11 0 -18 7.5t-7 17.5l-22 250
q-1 18 -12 18t-19 -17l-98 -261q-3 -8 -11.5 -11.5t-18.5 -3.5h-84q-10 0 -18 3.5t-11 11.5l-102 267q-6 15 -16.5 10.5t-12.5 -25.5zM415 70l-216 590h-33l-46 -610h20l45 588l216 -588h42l218 592l44 -592h20l-46 610h-33l-217 -590h-14z" />
    <glyph glyph-name="afii10031" unicode="&#x41d;" horiz-adv-x="672" 
d="M180 710q11 0 18 -7t7 -19v-244q0 -11 6 -18.5t16 -7.5h218q9 0 15.5 7.5t6.5 18.5v244q0 12 7 19t18 7h95q11 0 18 -7t7 -19v-659q0 -10 -7 -17.5t-18 -7.5h-95q-11 0 -18 7.5t-7 17.5v219q0 11 -6 18t-16 7h-215q-11 0 -18 -7t-7 -18v-219q0 -10 -7 -17.5t-18 -7.5h-95
q-11 0 -18 7.5t-7 17.5v659q0 12 7 19t18 7h95zM550 50v610h-20v-309h-388v309h-20v-610h20v281h388v-281h20z" />
    <glyph glyph-name="afii10028" unicode="&#x41a;" horiz-adv-x="676" 
d="M524 0q-11 0 -17 7t-14 18l-187 249q-2 4 -12.5 4t-20.5 -13l-60 -80q-8 -11 -8 -28v-132q0 -10 -7 -17.5t-18 -7.5h-95q-11 0 -18 7.5t-7 17.5v659q0 12 7 19t18 7h95q11 0 18 -7t7 -19v-234q0 -18 10 -21t17 7l195 260q6 8 11.5 11t11.5 3h122q11 0 17 -8t-2 -18
l-201 -268q-4 -7 -2 -15t16 -26l262 -350q7 -10 1 -17.5t-17 -7.5h-122zM548 50h20l-265 353l192 257h-20l-332 -444v444h-20v-610h20v138l150 202z" />
    <glyph glyph-name="afii10034" unicode="&#x420;" horiz-adv-x="596" 
d="M225 174q-8 0 -14 -7t-6 -16v-126q0 -10 -7 -17.5t-18 -7.5h-95q-11 0 -18 7.5t-7 17.5v659q0 12 7 19t18 7h166q152 0 233.5 -65t81.5 -191q0 -62 -21 -113.5t-61 -88.5t-99 -57.5t-134 -20.5h-26zM227 564q-9 0 -15.5 -6.5t-6.5 -15.5v-198q0 -11 5.5 -18t15.5 -7h25
q169 0 169 123q0 63 -41.5 92.5t-127.5 29.5h-24zM251 647h-129v-597h20v187h109q45 0 89.5 9.5t80.5 33t58.5 63t22.5 99.5q0 63 -22.5 103t-58.5 62.5t-80.5 31t-89.5 8.5zM142 627h109q45 0 86.5 -8t73.5 -28.5t51.5 -56.5t19.5 -92q0 -52 -19.5 -87.5t-51.5 -57
t-73.5 -31t-86.5 -9.5h-109v370z" />
    <glyph glyph-name="afii10035" unicode="&#x421;" horiz-adv-x="706" 
d="M40 354q0 76 28.5 142.5t78 116t116 78t141.5 28.5q76 0 140 -26t114 -76q7 -8 7.5 -18t-7.5 -18l-65 -65q-8 -8 -18.5 -8t-18.5 8q-32 26 -69.5 42t-82.5 16q-47 0 -86.5 -17t-69 -46.5t-46 -70t-16.5 -86.5q0 -47 16.5 -87t46 -69.5t69 -46.5t86.5 -17q45 0 82.5 16
t69.5 42q8 8 18.5 8t18.5 -8l65 -65q8 -8 7.5 -18t-7.5 -18q-50 -50 -114 -76t-140 -26q-75 0 -141.5 28.5t-116 78t-78 116t-28.5 142.5zM587 139q-37 -32 -83 -49t-99 -17q-59 0 -110 22t-89 60t-60 89t-22 110q0 58 22 109.5t60 90t89 60.5t110 22q53 0 99 -17.5
t83 -49.5l14 14q-40 34 -89.5 53.5t-106.5 19.5q-63 0 -117.5 -23.5t-95.5 -64.5t-64.5 -96t-23.5 -118t23.5 -117.5t64.5 -95.5t95.5 -64.5t117.5 -23.5q57 0 106.5 19t89.5 53z" />
    <glyph glyph-name="afii10036" unicode="&#x422;" horiz-adv-x="543" 
d="M20 684q0 11 7 18.5t18 7.5h453q10 0 17.5 -7.5t7.5 -18.5v-94q0 -11 -7.5 -18.5t-17.5 -7.5h-133q-9 0 -15 -7t-6 -15v-517q0 -10 -7 -17.5t-18 -7.5h-95q-11 0 -18 7.5t-7 17.5v514q0 9 -6 17t-14 8h-134q-11 0 -18 7.5t-7 18.5v94zM281 50v577h192v20h-403v-20h191
v-577h20z" />
    <glyph glyph-name="afii10054" unicode="&#x405;" horiz-adv-x="583" 
d="M377 513q-2 18 -10 30.5t-19.5 20.5t-25.5 11.5t-29 3.5q-88 0 -88 -67q0 -24 25 -38.5t62.5 -27.5t81.5 -28t81.5 -40t62.5 -63t25 -97q0 -56 -21.5 -98.5t-57 -71.5t-81 -43.5t-93.5 -14.5q-50 0 -95.5 15.5t-80 44.5t-54.5 71t-20 96q0 10 7 17.5t18 7.5h95
q11 0 17 -7.5t8 -17.5q8 -43 34.5 -62.5t71.5 -19.5q52 0 79 21.5t27 61.5q0 36 -25 55.5t-62.5 32t-81 24t-81 32t-62.5 55.5t-25 95q0 56 22.5 95.5t57 64.5t75.5 36.5t77 11.5q39 0 79.5 -12t74 -37.5t55 -64.5t21.5 -93q0 -10 -7 -17.5t-18 -7.5h-95q-11 0 -17.5 7.5
t-7.5 17.5zM104 192q5 -29 21 -54.5t41 -44.5t57 -30t69 -11q41 0 75.5 13.5t59.5 36t39 52.5t14 64q0 52 -25 83.5t-62.5 50.5t-81.5 31.5t-81.5 28t-62.5 38t-25 62.5q0 30 12 53.5t33 40t48 25.5t57 9q54 0 94.5 -27t50.5 -75h21q-5 25 -19 47.5t-35.5 39t-50 26
t-61.5 9.5q-38 0 -69 -12t-53.5 -32t-35 -47t-12.5 -57q0 -45 25 -71t62.5 -43t81.5 -29.5t81.5 -30t62.5 -45.5t25 -75q0 -34 -13.5 -61t-36.5 -46t-53.5 -29t-64.5 -10q-30 0 -58.5 8t-51 23.5t-38 38t-20.5 50.5h-20z" />
    <glyph glyph-name="uni021A" unicode="&#x21a;" horiz-adv-x="543" 
d="M20 684q0 11 7 18.5t18 7.5h453q10 0 17.5 -7.5t7.5 -18.5v-94q0 -11 -7.5 -18.5t-17.5 -7.5h-133q-9 0 -15 -7t-6 -15v-517q0 -10 -7 -17.5t-18 -7.5h-95q-11 0 -18 7.5t-7 17.5v514q0 9 -6 17t-14 8h-134q-11 0 -18 7.5t-7 18.5v94zM281 50v577h192v20h-403v-20h191
v-577h20zM344 -65q9 -3 14 -12.5t0 -18.5l-92 -193q-5 -10 -14 -14t-18 -1l-34 12q-11 4 -14 12.5t-1 18.5l53 207q3 11 13 15t21 0zM283 -86l-61 -169l18 -7l61 169z" />
    <glyph glyph-name="uni037E" unicode="&#x37e;" horiz-adv-x="226" 
d="M40 342q0 30 21 51t53 21q31 0 51 -21t20 -51q0 -32 -20 -52.5t-51 -20.5q-32 0 -53 20.5t-21 52.5zM101 342q0 -5 3.5 -8.5t8.5 -3.5t8.5 3.5t3.5 8.5t-3.5 8.5t-8.5 3.5t-8.5 -3.5t-3.5 -8.5zM175 193q9 -3 14 -12.5t0 -18.5l-92 -193q-5 -10 -14 -14t-18 -1l-34 12
q-11 4 -14 12.5t-1 18.5l53 207q3 11 13 15t21 0zM114 172l-61 -169l18 -7l61 169z" />
    <glyph glyph-name="tonos" unicode="&#x384;" horiz-adv-x="216" 
d="M180 578q9 -3 13 -12t1 -19l-92 -193q-5 -10 -14 -14.5t-18 -0.5l-34 12q-11 3 -14 12t-1 19l53 207q12 23 34 15zM119 556l-61 -169l18 -7l61 169z" />
    <glyph glyph-name="Alphatonos" unicode="&#x386;" horiz-adv-x="638" 
d="M509 0q-10 0 -22.5 1.5t-17.5 15.5l-36 102q-4 11 -10.5 17.5t-17.5 6.5h-158q-9 0 -15.5 -7t-8.5 -13l-36 -106q-5 -14 -17.5 -15.5t-22.5 -1.5h-91q-10 0 -14.5 10t-0.5 21l233 663q2 6 10 11t16 5h57q8 0 15.5 -4.5t9.5 -10.5l233 -664q4 -10 1 -20.5t-16 -10.5h-91z
M292 308q-2 -7 1 -13t20 -6h37q14 0 15.5 5.5t-0.5 11.5l-23 67q-4 11 -14.5 9t-13.5 -11zM338 633h-22l-204 -581h21l57 163h274l58 -163h21zM327 604l130 -369h-260zM190 682q9 -3 13 -12t1 -19l-92 -193q-5 -10 -14 -14.5t-18 -0.5l-34 12q-11 3 -14 12t-1 19l53 207
q12 23 34 15zM129 660l-61 -169l18 -7l61 169z" />
    <glyph glyph-name="Gamma" unicode="&#x393;" horiz-adv-x="532" 
d="M487 710q10 0 17.5 -7.5t7.5 -18.5v-94q0 -11 -7.5 -18.5t-17.5 -7.5h-262q-8 0 -14 -7t-6 -15v-517q0 -10 -7 -17.5t-18 -7.5h-95q-11 0 -18 7.5t-7 17.5v659q0 12 7 19t18 7h402zM462 646h-340v-596h20v576h320v20z" />
    <glyph glyph-name="Delta" unicode="&#x394;" horiz-adv-x="618" 
d="M37 0q-11 0 -15 10t0 21l233 664q3 8 12.5 11.5t19.5 3.5h44q11 0 20 -3.5t12 -11.5l233 -664q4 -11 0 -21t-15 -10h-544zM98 62h423l-201 569h-22zM309 602l183 -520h-366zM323 373q-2 7 -12.5 8.5t-15.5 -11.5l-71 -198q-9 -27 20 -27h126q13 0 20.5 8.5t2.5 22.5z" />
    <glyph glyph-name="Delta" unicode="&#x2206;" horiz-adv-x="618" 
d="M37 0q-11 0 -15 10t0 21l233 664q3 8 12.5 11.5t19.5 3.5h44q11 0 20 -3.5t12 -11.5l233 -664q4 -11 0 -21t-15 -10h-544zM98 62h423l-201 569h-22zM309 602l183 -520h-366zM323 373q-2 7 -12.5 8.5t-15.5 -11.5l-71 -198q-9 -27 20 -27h126q13 0 20.5 8.5t2.5 22.5z" />
    <glyph glyph-name="Epsilontonos" unicode="&#x388;" horiz-adv-x="740" 
d="M655 710q10 0 17.5 -7.5t7.5 -18.5v-94q0 -11 -7.5 -18.5t-17.5 -7.5h-262q-9 0 -14.5 -8t-5.5 -17v-99q0 -11 5.5 -18.5t14.5 -7.5h262q10 0 17.5 -7t7.5 -18v-95q0 -11 -7.5 -18t-17.5 -7h-262q-8 0 -14 -6.5t-6 -15.5v-80q0 -10 6.5 -16t14.5 -6h261q10 0 17.5 -7
t7.5 -18v-95q0 -11 -7.5 -18t-17.5 -7h-402q-11 0 -18 7.5t-7 17.5v659q0 12 7 19t18 7h402zM630 65v20h-320v249h320v20h-320v275h320v20h-340v-584h340zM180 680q9 -3 13 -12t1 -19l-92 -193q-5 -10 -14 -14.5t-18 -0.5l-34 12q-11 3 -14 12t-1 19l53 207q12 23 34 15z
M119 658l-61 -169l18 -7l61 169z" />
    <glyph glyph-name="Etatonos" unicode="&#x389;" horiz-adv-x="839" 
d="M347 710q11 0 18 -7t7 -19v-244q0 -11 6 -18.5t16 -7.5h218q9 0 15.5 7.5t6.5 18.5v244q0 12 7 19t18 7h95q11 0 18 -7t7 -19v-659q0 -10 -7 -17.5t-18 -7.5h-95q-11 0 -18 7.5t-7 17.5v219q0 11 -6 18t-16 7h-215q-11 0 -18 -7t-7 -18v-219q0 -10 -7 -17.5t-18 -7.5h-95
q-11 0 -18 7.5t-7 17.5v659q0 12 7 19t18 7h95zM717 50v610h-20v-309h-388v309h-20v-610h20v281h388v-281h20zM180 680q9 -3 13 -12t1 -19l-92 -193q-5 -10 -14 -14.5t-18 -0.5l-34 12q-11 3 -14 12t-1 19l53 207q12 23 34 15zM119 658l-61 -169l18 -7l61 169z" />
    <glyph glyph-name="Lambda" unicode="&#x39b;" horiz-adv-x="619" 
d="M450 18.999q5 -13.999 17.5 -15.499t22.5 -1.5h91q13 0 16 10.499q3 10.5 -1 20.499l-233 663.959q-2 6 -9.5 10.5t-15.5 4.5h-57q-8 0 -16 -5t-10 -11l-233 -662.959q-4 -10.999 0.5 -20.999q4.5 -9.99902 14.5 -9.99902h91q10 0 22.5 1.5t17.5 15.499l127 353.979
q3 8.99902 13.5 10.999t14.5 -8.99902zM115 51.9971h-21l204 580.964h22l205 -580.964h-21l-195 551.966z" />
    <glyph glyph-name="Xi" unicode="&#x39e;" horiz-adv-x="529" 
d="M90 389q0 11 7.5 18t18.5 7h297q10 0 17.5 -7t7.5 -18v-95q0 -11 -7.5 -18t-17.5 -7h-297q-11 0 -18.5 7t-7.5 18v95zM40 120q0 11 7 18t18 7h399q10 0 17.5 -7t7.5 -18v-95q0 -11 -7.5 -18t-17.5 -7h-399q-11 0 -18 7t-7 18v95zM388 331v20h-248v-20h248zM439 62v20
h-349v-20h349zM40 685q0 11 7 18t18 7h399q10 0 17.5 -7t7.5 -18v-95q0 -11 -7.5 -18t-17.5 -7h-399q-11 0 -18 7t-7 18v95zM439 627v20h-349v-20h349z" />
    <glyph glyph-name="Omicrontonos" unicode="&#x38c;" horiz-adv-x="910" 
d="M141 354q0 76 28.5 142.5t78 116t116 78t141.5 28.5q76 0 142.5 -28.5t116 -78t78 -116t28.5 -142.5t-28.5 -142t-78 -115.5t-116 -78t-142.5 -28.5q-75 0 -141.5 28.5t-116 78t-78 115.5t-28.5 142zM205 354q0 -63 23.5 -117.5t64.5 -95.5t95.5 -64.5t117.5 -23.5
t117.5 23.5t95.5 64.5t64.5 95.5t23.5 117.5t-23.5 118t-64.5 96t-95.5 64.5t-117.5 23.5t-117.5 -23.5t-95.5 -64.5t-64.5 -96t-23.5 -118zM225 354q0 58 22 109.5t60 90t89 60.5t110 22q58 0 109.5 -22t89.5 -60.5t60 -90t22 -109.5q0 -59 -22 -110t-60 -89t-89.5 -60
t-109.5 -22q-59 0 -110 22t-89 60t-60 89t-22 110zM287 354q0 -47 16.5 -87t46 -69t69 -46t86.5 -17t87 17t69.5 46t46.5 69t17 87q0 46 -17 86.5t-46.5 70t-69.5 46.5t-87 17t-86.5 -17t-69 -46.5t-46 -70t-16.5 -86.5zM180 682q9 -3 13 -12t1 -19l-92 -193
q-5 -10 -14 -14.5t-18 -0.5l-34 12q-11 3 -14 12t-1 19l53 207q12 23 34 15zM119 660l-61 -169l18 -7l61 169z" />
    <glyph glyph-name="Pi" unicode="&#x3a0;" horiz-adv-x="623" 
d="M537 710q11 0 18.5 -7t7.5 -19v-659q0 -10 -7.5 -17.5t-18.5 -7.5h-94q-11 0 -18.5 7.5t-7.5 17.5v517q0 8 -6 15t-14 7h-172q-9 0 -14.5 -8t-5.5 -17v-514q0 -10 -7 -17.5t-18 -7.5h-95q-11 0 -18 7.5t-7 17.5v659q0 12 7 19t18 7h452zM499 50v596h-377v-596h20v576h337
v-576h20z" />
    <glyph glyph-name="Upsilondieresis" unicode="&#x3ab;" horiz-adv-x="554" 
d="M230 0q-11 0 -18 7.5t-7 17.5v248q0 12 -4.5 22t-9.5 22l-167 361q-5 11 -1.5 21.5t14.5 10.5h90q16 0 26 -2t15 -13l95 -201q6 -13 14 -13t11 6l98 208q5 11 15 13t26 2h90q11 0 14.5 -10.5t-1.5 -21.5l-166 -359q-5 -10 -9.5 -22.5t-4.5 -23.5v-248q0 -10 -7 -17.5
t-18 -7.5h-95zM267 50h20v247l168 363h-22l-156 -338l-156 338h-22l168 -363v-247zM141 850q0 26 18 44t45 18q26 0 44 -18t18 -44t-18 -45t-44 -19q-27 0 -45 19t-18 45zM287 850q0 26 18 44t45 18q26 0 44 -18t18 -44t-18 -45t-44 -19q-27 0 -45 19t-18 45zM192 850
q0 -5 3.5 -8.5t8.5 -3.5t8.5 3.5t3.5 8.5t-3.5 8.5t-8.5 3.5t-8.5 -3.5t-3.5 -8.5zM338 850q0 -5 3.5 -8.5t8.5 -3.5t8.5 3.5t3.5 8.5t-3.5 8.5t-8.5 3.5t-8.5 -3.5t-3.5 -8.5z" />
    <glyph glyph-name="Sigma" unicode="&#x3a3;" horiz-adv-x="529" 
d="M443 308q0 -18 -16 -31l-138 -112q-10 -9 -4.5 -14.5t13.5 -5.5h165q10 0 17.5 -7.5t7.5 -18.5v-93q0 -11 -7.5 -18.5t-17.5 -7.5h-399q-9 0 -16.5 5t-7.5 13v108q0 11 3.5 17.5t11.5 14.5l226 183q16 13 1 28l-227 183q-8 8 -11.5 14.5t-3.5 17.5v108q0 8 7.5 13t16.5 5
h400q10 0 17.5 -7.5t7.5 -18.5v-93q0 -11 -7.5 -18.5t-17.5 -7.5h-165q-8 0 -13.5 -5.5t4.5 -14.5l137 -112q16 -13 16 -31v-94zM110 82v16l283 229v57l-283 228v15h329v20h-349v-44l283 -229v-37l-283 -229v-46h348v20h-328z" />
    <glyph glyph-name="Upsilontonos" unicode="&#x38e;" horiz-adv-x="735" 
d="M411 0q-11 0 -18 7.5t-7 17.5v248q0 12 -4.5 22t-9.5 22l-167 361q-5 11 -1.5 21.5t14.5 10.5h90q16 0 26 -2t15 -13l95 -201q6 -13 14 -13t11 6l98 208q5 11 15 13t26 2h90q11 0 14.5 -10.5t-1.5 -21.5l-166 -359q-5 -10 -9.5 -22.5t-4.5 -23.5v-248q0 -10 -7 -17.5
t-18 -7.5h-95zM448 50h20v247l168 363h-22l-156 -338l-156 338h-22l168 -363v-247zM180 682q9 -3 13 -12t1 -19l-92 -193q-5 -10 -14 -14.5t-18 -0.5l-34 12q-11 3 -14 12t-1 19l53 207q12 23 34 15zM119 660l-61 -169l18 -7l61 169z" />
    <glyph glyph-name="Phi" unicode="&#x3a6;" horiz-adv-x="769" 
d="M474 610q55 -11 102 -31.5t81 -52t53 -74t19 -97.5q0 -56 -19 -100t-53.5 -76.5t-82 -52.5t-104.5 -29q-13 -5 -13 -16v-56q0 -10 -7.5 -17.5t-18.5 -7.5h-94q-11 0 -18 7.5t-7 17.5v55q0 12 -10 16q-58 8 -106 28.5t-82.5 52.5t-54 76.5t-19.5 101.5q0 56 19.5 100
t54 76t82.5 52t105 28q6 2 8.5 7.5t2.5 10.5v55q0 12 7 19t18 7h94q11 0 18.5 -7t7.5 -19v-55q1 -7 4 -12t13 -7zM185 355q0 -19 5 -38t17.5 -35t33.5 -26.5t53 -11.5q8 -1 13 6t5 15v179q0 8 -5 14.5t-13 5.5q-32 -2 -53 -12.5t-33.5 -26t-17.5 -34t-5 -36.5zM584 355
q0 18 -5 37t-18 34t-34 25.5t-52 12.5q-8 1 -13 -5.5t-5 -14.5v-179q0 -8 4.5 -14t12.5 -6q32 0 53 10.5t34 26.5t18 35.5t5 37.5zM394 50v105h1q63 0 113 10.5t85 34.5t54 62.5t19 93.5t-19 93t-54 62t-85 34.5t-113 10.5h-1v104h-20v-104q-63 0 -113 -10.5t-85 -34.5
t-54 -62t-19 -93t19 -93.5t54 -62.5t85 -34.5t113 -10.5v-105h20zM395 536q58 0 105 -9t79 -30t49.5 -55.5t17.5 -85.5t-17.5 -85.5t-49.5 -56t-79 -30.5t-105 -9h-1v361h1zM374 536v-361q-59 0 -105.5 9t-78.5 30.5t-49.5 56t-17.5 85.5t17.5 85.5t49.5 55.5t78.5 30
t105.5 9z" />
    <glyph glyph-name="Theta" unicode="&#x398;" 
d="M248 294q0 -11 7 -18t18 -7h265q10 0 17.5 7t7.5 18v95q0 11 -7.5 18t-17.5 7h-265q-11 0 -18 -7t-7 -18v-95zM298 331v20h215v-20h-215zM40 354q0 76 28.5 142.5t78 116t116 78t141.5 28.5q76 0 142.5 -28.5t116 -78t78 -116t28.5 -142.5t-28.5 -142t-78 -115.5
t-116 -78t-142.5 -28.5q-75 0 -141.5 28.5t-116 78t-78 115.5t-28.5 142zM104 354q0 -63 23.5 -117.5t64.5 -95.5t95.5 -64.5t117.5 -23.5t117.5 23.5t95.5 64.5t64.5 95.5t23.5 117.5t-23.5 118t-64.5 96t-95.5 64.5t-117.5 23.5t-117.5 -23.5t-95.5 -64.5t-64.5 -96
t-23.5 -118zM124 354q0 58 22 109.5t60 90t89 60.5t110 22q58 0 109.5 -22t89.5 -60.5t60 -90t22 -109.5q0 -59 -22 -110t-60 -89t-89.5 -60t-109.5 -22q-59 0 -110 22t-89 60t-60 89t-22 110zM186 354q0 -47 16.5 -87t46 -69t69 -46t86.5 -17t87 17t69.5 46t46.5 69t17 87
q0 46 -17 86.5t-46.5 70t-69.5 46.5t-87 17t-86.5 -17t-69 -46.5t-46 -70t-16.5 -86.5z" />
    <glyph glyph-name="Iota" unicode="&#x399;" horiz-adv-x="275" 
d="M185 710q11 0 18 -7t7 -19v-659q0 -10 -7 -17.5t-18 -7.5h-95q-11 0 -18 7.5t-7 17.5v659q0 12 7 19t18 7h95zM147 50v610h-20v-610h20z" />
    <glyph glyph-name="Iotatonos" unicode="&#x38a;" horiz-adv-x="437" 
d="M347 710q11 0 18 -7t7 -19v-659q0 -10 -7 -17.5t-18 -7.5h-95q-11 0 -18 7.5t-7 17.5v659q0 12 7 19t18 7h95zM309 50v610h-20v-610h20zM180 680q9 -3 13 -12t1 -19l-92 -193q-5 -10 -14 -14.5t-18 -0.5l-34 12q-11 3 -14 12t-1 19l53 207q12 23 34 15zM119 658l-61 -169
l18 -7l61 169z" />
    <glyph glyph-name="Psi" unicode="&#x3a8;" horiz-adv-x="605" 
d="M350 710q11 0 18 -7t7 -19v-292q0 -9 7 -11.5t16 11.5q13 24 17.5 61.5t4.5 89.5v141q0 12 7 19t18 7h95q11 0 18 -7t7 -19v-191q0 -120 -43 -192t-136 -93q-8 -4 -9.5 -10.5t-1.5 -11.5v-161q0 -10 -7 -17.5t-18 -7.5h-95q-11 0 -18 7.5t-7 17.5v161q0 6 -2.5 12.5
t-11.5 9.5q-91 22 -133.5 93.5t-42.5 191.5v191q0 12 7 19t18 7h95q11 0 18 -7t7 -19v-141q0 -53 4.5 -90.5t17.5 -61.5q10 -12 16.5 -10t6.5 11v292q0 12 7 19t18 7h95zM312 50v211q56 1 93 20.5t58.5 55t30.5 84.5t9 111v128h-20v-128q0 -57 -7.5 -103t-26.5 -78.5
t-52.5 -50.5t-84.5 -19v379h-20v-379q-52 1 -85 19t-52 50.5t-26 78.5t-7 103v128h-20v-128q0 -62 8.5 -111t30.5 -84.5t58.5 -55t92.5 -20.5v-211h20z" />
    <glyph glyph-name="Omega" unicode="&#x3a9;" 
d="M85 0q-11 0 -18.5 7t-7.5 18v95q0 11 7.5 18t18.5 7h3q7 0 8.5 4.5t-1.5 10.5q-23 42 -39 90.5t-16 103.5q0 76 28.5 142.5t78 116t116 78t141.5 28.5q76 0 142.5 -28.5t116 -78t78 -116t28.5 -142.5q0 -54 -16 -102.5t-40 -91.5q-3 -6 -1.5 -10.5t8.5 -4.5h3
q11 0 18.5 -7t7.5 -18v-95q0 -11 -7.5 -18t-18.5 -7h-246q-11 0 -18 7t-7 18v96q0 11 5.5 16t19.5 9q33 9 60 29t46.5 47.5t30 61t10.5 70.5q0 46 -17 86.5t-46.5 70t-69.5 46.5t-87 17t-86.5 -17t-69 -46.5t-46 -70t-16.5 -86.5q0 -37 10 -71t29 -61.5t46 -47t60 -28.5
q26 -6 26 -25v-96q0 -11 -7.5 -18t-18.5 -7h-246zM502 62h197v20h-164q38 18 69.5 45.5t54 63t35 77t12.5 86.5q0 63 -23.5 118t-64.5 96t-95.5 64.5t-117.5 23.5t-117.5 -23.5t-95.5 -64.5t-64.5 -96t-23.5 -118q0 -45 12.5 -86.5t35 -76.5t53.5 -63t69 -46h-165v-20h198
v28q-43 15 -77 42.5t-57.5 62.5t-36 75.5t-12.5 83.5q0 58 22 109.5t60 90t89 60.5t110 22q58 0 109.5 -22t89.5 -60.5t60 -90t22 -109.5q0 -43 -12.5 -83t-36 -75t-57.5 -62.5t-78 -44.5v-27z" />
    <glyph glyph-name="Omega" unicode="&#x2126;" 
d="M85 0q-11 0 -18.5 7t-7.5 18v95q0 11 7.5 18t18.5 7h3q7 0 8.5 4.5t-1.5 10.5q-23 42 -39 90.5t-16 103.5q0 76 28.5 142.5t78 116t116 78t141.5 28.5q76 0 142.5 -28.5t116 -78t78 -116t28.5 -142.5q0 -54 -16 -102.5t-40 -91.5q-3 -6 -1.5 -10.5t8.5 -4.5h3
q11 0 18.5 -7t7.5 -18v-95q0 -11 -7.5 -18t-18.5 -7h-246q-11 0 -18 7t-7 18v96q0 11 5.5 16t19.5 9q33 9 60 29t46.5 47.5t30 61t10.5 70.5q0 46 -17 86.5t-46.5 70t-69.5 46.5t-87 17t-86.5 -17t-69 -46.5t-46 -70t-16.5 -86.5q0 -37 10 -71t29 -61.5t46 -47t60 -28.5
q26 -6 26 -25v-96q0 -11 -7.5 -18t-18.5 -7h-246zM502 62h197v20h-164q38 18 69.5 45.5t54 63t35 77t12.5 86.5q0 63 -23.5 118t-64.5 96t-95.5 64.5t-117.5 23.5t-117.5 -23.5t-95.5 -64.5t-64.5 -96t-23.5 -118q0 -45 12.5 -86.5t35 -76.5t53.5 -63t69 -46h-165v-20h198
v28q-43 15 -77 42.5t-57.5 62.5t-36 75.5t-12.5 83.5q0 58 22 109.5t60 90t89 60.5t110 22q58 0 109.5 -22t89.5 -60.5t60 -90t22 -109.5q0 -43 -12.5 -83t-36 -75t-57.5 -62.5t-78 -44.5v-27z" />
    <glyph glyph-name="Omegatonos" unicode="&#x38f;" horiz-adv-x="906" 
d="M182 0q-11 0 -18.5 7t-7.5 18v95q0 11 7.5 18t18.5 7h3q7 0 8.5 4.5t-1.5 10.5q-23 42 -39 90.5t-16 103.5q0 76 28.5 142.5t78 116t116 78t141.5 28.5q76 0 142.5 -28.5t116 -78t78 -116t28.5 -142.5q0 -54 -16 -102.5t-40 -91.5q-3 -6 -1.5 -10.5t8.5 -4.5h3
q11 0 18.5 -7t7.5 -18v-95q0 -11 -7.5 -18t-18.5 -7h-246q-11 0 -18 7t-7 18v96q0 11 5.5 16t19.5 9q33 9 60 29t46.5 47.5t30 61t10.5 70.5q0 46 -17 86.5t-46.5 70t-69.5 46.5t-87 17t-86.5 -17t-69 -46.5t-46 -70t-16.5 -86.5q0 -37 10 -71t29 -61.5t46 -47t60 -28.5
q26 -6 26 -25v-96q0 -11 -7.5 -18t-18.5 -7h-246zM599 62h197v20h-164q38 18 69.5 45.5t54 63t35 77t12.5 86.5q0 63 -23.5 118t-64.5 96t-95.5 64.5t-117.5 23.5t-117.5 -23.5t-95.5 -64.5t-64.5 -96t-23.5 -118q0 -45 12.5 -86.5t35 -76.5t53.5 -63t69 -46h-165v-20h198
v28q-43 15 -77 42.5t-57.5 62.5t-36 75.5t-12.5 83.5q0 58 22 109.5t60 90t89 60.5t110 22q58 0 109.5 -22t89.5 -60.5t60 -90t22 -109.5q0 -43 -12.5 -83t-36 -75t-57.5 -62.5t-78 -44.5v-27zM180 682q9 -3 13 -12t1 -19l-92 -193q-5 -10 -14 -14.5t-18 -0.5l-34 12
q-11 3 -14 12t-1 19l53 207q12 23 34 15zM119 660l-61 -169l18 -7l61 169z" />
    <glyph glyph-name="product" unicode="&#x220f;" horiz-adv-x="623" 
d="M537 710q11 0 18.5 -7t7.5 -19v-659q0 -10 -7.5 -17.5t-18.5 -7.5h-94q-11 0 -18.5 7.5t-7.5 17.5v517q0 8 -6 15t-14 7h-172q-9 0 -14.5 -8t-5.5 -17v-514q0 -10 -7 -17.5t-18 -7.5h-95q-11 0 -18 7.5t-7 17.5v659q0 12 7 19t18 7h452zM499 50v596h-377v-596h20v576h337
v-576h20z" />
    <glyph glyph-name="summation" unicode="&#x2211;" horiz-adv-x="529" 
d="M443 308q0 -18 -16 -31l-138 -112q-10 -9 -4.5 -14.5t13.5 -5.5h165q10 0 17.5 -7.5t7.5 -18.5v-93q0 -11 -7.5 -18.5t-17.5 -7.5h-399q-9 0 -16.5 5t-7.5 13v108q0 11 3.5 17.5t11.5 14.5l226 183q16 13 1 28l-227 183q-8 8 -11.5 14.5t-3.5 17.5v108q0 8 7.5 13t16.5 5
h400q10 0 17.5 -7.5t7.5 -18.5v-93q0 -11 -7.5 -18.5t-17.5 -7.5h-165q-8 0 -13.5 -5.5t4.5 -14.5l137 -112q16 -13 16 -31v-94zM110 82v16l283 229v57l-283 228v15h329v20h-349v-44l283 -229v-37l-283 -229v-46h348v20h-328z" />
    <glyph glyph-name="uni2215" unicode="&#x2215;" horiz-adv-x="424" 
d="M37 0q-11 0 -15 10t0 21l233 661q4 11 14 14.5t27 3.5h91q11 0 15 -10.5t0 -21.5l-234 -661q-4 -11 -13 -14t-27 -3h-91zM115 50l215 610h-22l-215 -610h22z" />
    <glyph glyph-name="afii10017" unicode="&#x410;" horiz-adv-x="619" 
d="M490 0q-10 0 -22.5 1.5t-17.5 15.5l-36 102q-4 11 -10.5 17.5t-17.5 6.5h-158q-9 0 -15.5 -7t-8.5 -13l-36 -106q-5 -14 -17.5 -15.5t-22.5 -1.5h-91q-10 0 -14.5 10t-0.5 21l233 663q2 6 10 11t16 5h57q8 0 15.5 -4.5t9.5 -10.5l233 -664q4 -10 1 -20.5t-16 -10.5h-91z
M273 308q-2 -7 1 -13t20 -6h37q14 0 15.5 5.5t-0.5 11.5l-23 67q-4 11 -14.5 9t-13.5 -11zM319 633h-22l-204 -581h21l57 163h274l58 -163h21zM308 604l130 -369h-260z" />
    <glyph glyph-name="afii10018" unicode="&#x411;" horiz-adv-x="606" 
d="M251 470q72 0 130 -14t99 -43t63.5 -73t22.5 -105q0 -121 -96 -178t-269 -57h-116q-11 0 -18 7t-7 18v659q0 11 7 18.5t18 7.5h402q10 0 17.5 -7.5t7.5 -18.5v-94q0 -11 -7.5 -18.5t-17.5 -7.5h-261q-8 0 -14.5 -6.5t-6.5 -15.5v-46q0 -11 6 -18.5t16 -7.5h24zM251 145
q90 0 129.5 23t39.5 67q0 45 -39.5 67.5t-129.5 22.5h-25q-9 0 -15 -6.5t-6 -15.5v-136q0 -10 6 -16t15 -6h25zM205 63q60 0 114.5 8.5t95 28.5t64.5 53t24 82t-22.5 82t-58.5 53t-81 29t-90 9h-109v219h320v20h-340v-584h83zM142 83v305h109q45 0 87 -8.5t74.5 -27
t51.5 -47.5t19 -70t-21 -70t-58 -47t-88 -26.5t-111 -8.5h-63z" />
    <glyph glyph-name="Eth" unicode="&#xd0;" horiz-adv-x="744" 
d="M146 0q-11 0 -18 7.5t-7 17.5v228q0 7 -7 11.5t-14 4.5h-55q-11 0 -18 7t-7 18v95q0 11 7 18t18 7h57q6 0 12.5 3.5t6.5 10.5v256q0 12 7 19t18 7h203q76 0 141 -27t112.5 -75t74.5 -113t27 -141t-27 -140.5t-74.5 -112t-112.5 -74.5t-141 -27h-203zM70 329h116v-269h163
q80 0 136 26.5t91 68.5t51 94.5t16 104.5q0 48 -16 100.5t-51 95.5t-91 71t-136 28h-163v-300h-116v-20zM349 629q73 0 125 -25t85 -64.5t48.5 -88.5t15.5 -97t-15.5 -97t-48.5 -88.5t-85 -64t-125 -24.5h-143v249h180v20h-180v280h143zM349 145q48 0 87 16t66 44t41.5 66
t14.5 83t-14.5 83t-41.5 66.5t-66 44.5t-87 16h-62q-9 0 -15 -7t-6 -18v-99q0 -11 6 -18.5t14 -7.5h125q10 0 17.5 -7t7.5 -18v-95q0 -11 -7.5 -18t-17.5 -7h-124q-8 0 -14.5 -7t-6.5 -15v-76q0 -12 7 -19t18 -7h58z" />
    <glyph glyph-name="afii10020" unicode="&#x413;" horiz-adv-x="532" 
d="M487 710q10 0 17.5 -7.5t7.5 -18.5v-94q0 -11 -7.5 -18.5t-17.5 -7.5h-262q-8 0 -14 -7t-6 -15v-517q0 -10 -7 -17.5t-18 -7.5h-95q-11 0 -18 7.5t-7 17.5v659q0 12 7 19t18 7h402zM462 646h-340v-596h20v576h320v20z" />
    <glyph glyph-name="afii10025" unicode="&#x417;" horiz-adv-x="543" 
d="M40 513q0 54 21.5 93t55 64.5t74.5 37.5t80 12q36 0 77 -11.5t75.5 -36t57 -64t22.5 -95.5q0 -46 -18 -80.5t-46 -64.5q-13 -15 1 -28q29 -28 46 -63t17 -80q0 -56 -22.5 -95.5t-57 -64t-75.5 -36t-77 -11.5q-39 0 -80 12t-74.5 37.5t-55 64.5t-21.5 93q0 10 7.5 17.5
t18.5 7.5h94q11 0 18.5 -7.5t7.5 -17.5q0 -22 13 -36.5t32 -21t41 -6t41 8t31.5 21.5t12.5 34q0 18 -6 33.5t-20 27t-38 18t-60 6.5h-34q-12 0 -19 7.5t-7 18.5v94q0 11 7 18.5t19 7.5h31q66 0 96.5 24.5t30.5 60.5q0 21 -12.5 35t-31.5 20.5t-41.5 6.5t-41.5 -7.5
t-31.5 -21t-12.5 -33.5q0 -10 -7.5 -17.5t-18.5 -7.5h-94q-11 0 -18.5 7.5t-7.5 17.5zM223 345q22 -1 42.5 -3t34.5 -6q57 -16 88.5 -53.5t31.5 -85.5q0 -30 -12 -53.5t-32.5 -39t-47.5 -24t-57 -8.5q-54 0 -94.5 25.5t-50.5 74.5h-20q4 -26 18 -47.5t35.5 -38t50 -25.5
t61.5 -9q37 0 68.5 11.5t53.5 31t34.5 46t12.5 56.5q0 24 -8.5 48t-25 45.5t-42 38.5t-58.5 26q33 9 58.5 26t42 38.5t25 45.5t8.5 48q0 30 -12.5 56.5t-34.5 46t-53.5 31t-68.5 11.5q-67 0 -111 -34.5t-54 -85.5h20q10 48 50.5 74t94.5 26q30 0 57 -8.5t47.5 -24t32.5 -39
t12 -53.5q0 -48 -31.5 -85.5t-88.5 -53.5q-14 -4 -34.5 -6t-42.5 -3v-20z" />
    <glyph glyph-name="afii10026" unicode="&#x418;" horiz-adv-x="650" 
d="M84.9951 710q-11 0 -17.999 -7q-7 -7 -7 -19v-659q0 -10 7 -17.5q6.99902 -7.5 17.999 -7.5h89.9941q18.999 0 26.998 12l217.987 364q2 3 5.99902 4.5q4 1.5 8.5 0t7.49902 -7q3 -5.5 3 -17.5v-331q0 -10 7 -17.5q6.99902 -7.5 17.999 -7.5h94.9941q10.999 0 17.999 7.5
q6.99902 7.5 6.99902 17.5v659q0 12 -6.99902 19q-7 7 -17.999 7h-94.9941q-13 0 -23.999 -15l-216.986 -362q-3 -4 -7 -6.5t-7.49902 -1q-3.5 1.5 -6.5 7t-3 18.5v333q0 12 -6.99902 19q-7 7 -17.999 7h-94.9941zM526.968 660v-610h-19.999v587l-353.979 -587h-29.998v610
h19.999v-587l354.979 587h28.998z" />
    <glyph glyph-name="afii10027" unicode="&#x419;" horiz-adv-x="650" 
d="M84.9951 710q-11 0 -17.999 -7q-7 -7 -7 -19v-659q0 -10 7 -17.5q6.99902 -7.5 17.999 -7.5h89.9941q18.999 0 26.998 12l217.987 364q2 3 5.99902 4.5q4 1.5 8.5 0t7.49902 -7q3 -5.5 3 -17.5v-331q0 -10 7 -17.5q6.99902 -7.5 17.999 -7.5h94.9941q10.999 0 17.999 7.5
q6.99902 7.5 6.99902 17.5v659q0 12 -6.99902 19q-7 7 -17.999 7h-94.9941q-13 0 -23.999 -15l-216.986 -362q-3 -4 -7 -6.5t-7.49902 -1q-3.5 1.5 -6.5 7t-3 18.5v333q0 12 -6.99902 19q-7 7 -17.999 7h-94.9941zM526.968 660v-610h-19.999v587l-353.979 -587h-29.998v610
h19.999v-587l354.979 587h28.998zM271 948q11 0 18 -7t7 -18q0 -21 11.5 -28.5t24.5 -7.5q14 0 25.5 7.5t11.5 28.5q0 11 7.5 18t18.5 7h74q11 0 18.5 -7t7.5 -18q0 -34 -12.5 -63.5t-34.5 -51t-52 -34t-64 -12.5t-63.5 12.5t-51 34t-34 51t-12.5 63.5q0 11 7 18t18 7h75z
M223 903q6 -41 35 -65.5t74 -24.5t74 24.5t35 65.5h-22q-14 -70 -87 -70t-87 70h-22z" />
    <glyph glyph-name="afii10029" unicode="&#x41b;" horiz-adv-x="614" 
d="M20 120q0 11 7 18t18 7q23 0 35 14.5t16.5 46t4.5 80.5v119v279q0 12 7.5 19t18.5 7h401q11 0 18.5 -7t7.5 -19v-659q0 -10 -7.5 -17.5t-18.5 -7.5h-94q-11 0 -18.5 7.5t-7.5 17.5v514q0 9 -6 17t-14 8h-121q-8 0 -14 -7t-6 -15v-201q0 -75 -0.5 -137.5t-17.5 -107.5
t-59 -70.5t-125 -25.5q-11 0 -18 7t-7 18v95zM491 50v597h-327v-359q0 -60 -5.5 -99.5t-17.5 -63t-31 -33t-45 -9.5v-20q30 0 52 9.5t37 34.5t22.5 68.5t7.5 110.5v341h287v-577h20z" />
    <glyph glyph-name="afii10032" unicode="&#x41e;" 
d="M40 354q0 76 28.5 142.5t78 116t116 78t141.5 28.5q76 0 142.5 -28.5t116 -78t78 -116t28.5 -142.5t-28.5 -142t-78 -115.5t-116 -78t-142.5 -28.5q-75 0 -141.5 28.5t-116 78t-78 115.5t-28.5 142zM104 354q0 -63 23.5 -117.5t64.5 -95.5t95.5 -64.5t117.5 -23.5
t117.5 23.5t95.5 64.5t64.5 95.5t23.5 117.5t-23.5 118t-64.5 96t-95.5 64.5t-117.5 23.5t-117.5 -23.5t-95.5 -64.5t-64.5 -96t-23.5 -118zM124 354q0 58 22 109.5t60 90t89 60.5t110 22q58 0 109.5 -22t89.5 -60.5t60 -90t22 -109.5q0 -59 -22 -110t-60 -89t-89.5 -60
t-109.5 -22q-59 0 -110 22t-89 60t-60 89t-22 110zM186 354q0 -47 16.5 -87t46 -69t69 -46t86.5 -17t87 17t69.5 46t46.5 69t17 87q0 46 -17 86.5t-46.5 70t-69.5 46.5t-87 17t-86.5 -17t-69 -46.5t-46 -70t-16.5 -86.5z" />
    <glyph glyph-name="afii10033" unicode="&#x41f;" horiz-adv-x="623" 
d="M537 710q11 0 18.5 -7t7.5 -19v-659q0 -10 -7.5 -17.5t-18.5 -7.5h-94q-11 0 -18.5 7.5t-7.5 17.5v517q0 8 -6 15t-14 7h-172q-9 0 -14.5 -8t-5.5 -17v-514q0 -10 -7 -17.5t-18 -7.5h-95q-11 0 -18 7.5t-7 17.5v659q0 12 7 19t18 7h452zM499 50v596h-377v-596h20v576h337
v-576h20z" />
    <glyph glyph-name="afii10037" unicode="&#x423;" horiz-adv-x="538" 
d="M120 0q-11 0 -18 7t-7 18v95q0 11 7 18t18 7l35 1q21 4 30 25l16 44q5 11 6.5 24.5t-6.5 30.5l-178 408q-5 11 -0.5 21.5t15.5 10.5h91q17 0 26 -3.5t14 -14.5l99 -224q4 -9 12.5 -5.5t10.5 8.5l79 221q4 11 13.5 14.5t26.5 3.5h91q11 0 15 -10.5t0 -21.5l-209 -592
q-14 -42 -45 -64t-92 -22h-50zM96 660l181 -415q-14 -38 -24.5 -68.5t-22 -51.5t-26 -32t-35.5 -11h-24v-20h34q38 0 62 44t47 113l157 441h-22l-136 -387l-169 387h-22z" />
    <glyph glyph-name="afii10050" unicode="&#x490;" horiz-adv-x="532" 
d="M346 710q9 0 15 7.5t6 17.5v51q0 11 7 18t18 7h95q11 0 18 -7t7 -18v-196q0 -11 -7.5 -18.5t-17.5 -7.5h-262q-8 0 -14 -7t-6 -15v-517q0 -10 -7 -17.5t-18 -7.5h-95q-11 0 -18 7.5t-7 17.5v659q0 12 7 19t18 7h261zM449 627v134h-20v-114h-307v-597h20v577h307z" />
    <glyph glyph-name="afii10021" unicode="&#x414;" horiz-adv-x="644" 
d="M541 710q9 0 16 -7t7 -16v-516q0 -10 5.5 -18t14.5 -8q14 0 22 -6t8 -16v-199q0 -10 -7 -17.5t-18 -7.5h-95q-11 0 -18 7.5t-7 17.5v51q0 9 -6 17t-14 8h-253q-8 0 -14 -6.5t-6 -14.5v-55q0 -10 -7.5 -17.5t-18.5 -7.5h-94q-11 0 -18.5 7.5t-7.5 17.5v196q0 11 7.5 18
t18.5 7h20q35 0 53 30.5t25.5 80.5t7.5 115.5v134.5v178q0 12 7 19t18 7h354zM551 -51v133h-50v565h-276v-359q0 -56 -9 -93.5t-24.5 -61.5t-36 -35.5t-43.5 -14.5l-20 -1v-133h20v113h419v-113h20zM481 82h-309q32 20 52 68t21 136v341h236v-545zM398 145q9 0 14.5 8
t5.5 18v371q0 8 -6 15t-14 7h-70q-8 0 -14.5 -7t-6.5 -15v-50q0 -42 0.5 -86t0 -86t-4.5 -81t-13 -72q-5 -12 3.5 -17t16.5 -5h88z" />
    <glyph glyph-name="afii10024" unicode="&#x416;" horiz-adv-x="1009" 
d="M904 710q11 0 16.5 -8t-1.5 -18l-174 -259q-4 -6 -5 -13.5t4 -15.5l242 -371q6 -10 0.5 -17.5t-16.5 -7.5h-118q-15 0 -22 7t-14 18l-156 245q-2 3 -9 3.5t-15 -10.5l-45 -66q-14 -22 -14 -50v-122q0 -10 -7 -17.5t-18 -7.5h-95q-11 0 -18 7.5t-7 17.5v122q0 28 -14 50
l-44 65q-8 12 -15.5 11.5t-9.5 -3.5l-156 -245q-7 -11 -14 -18t-22 -7h-118q-11 0 -16.5 7.5t0.5 17.5l242 371q5 8 4 15.5t-5 13.5l-174 259q-7 10 -1.5 18t16.5 8h122q11 0 17.5 -7t14.5 -19l154 -238q5 -7 12 -1.5t7 16.5v223q0 12 7 19t18 7h95q11 0 18 -7t7 -19v-222
q0 -12 7.5 -16.5t13.5 4.5l152 234q8 12 14.5 19t17.5 7h122zM494 50h20v136l139 206l217 -342h25l-230 360l168 250h-24l-295 -438v438h-20v-438l-294 438h-24l167 -250l-229 -360h25l217 342l138 -206v-136z" />
    <glyph glyph-name="afii10051" unicode="&#x402;" horiz-adv-x="759" 
d="M20 684q0 11 7 18.5t18 7.5h453q10 0 17.5 -7.5t7.5 -18.5v-94q0 -11 -7.5 -18.5t-17.5 -7.5h-158q-9 0 -15 -7t-6 -15v-46q0 -9 5.5 -17.5t15.5 -8.5h64q76 0 136 -11t102 -38t64.5 -72.5t22.5 -113.5t-22.5 -113t-64.5 -72t-102 -38.5t-136 -11.5q-11 0 -18 7t-7 18v95
q0 11 7 18t18 7q52 0 87 4.5t55.5 15t29 27.5t8.5 43t-8.5 43t-29 27.5t-55.5 15t-87 4.5h-64q-8 0 -14.5 -7t-6.5 -15v-278q0 -10 -7 -17.5t-18 -7.5h-95q-11 0 -18 7.5t-7 17.5v514q0 9 -6 17t-14 8h-109q-11 0 -18 7.5t-7 18.5v94zM429 64q50 2 93.5 10.5t75.5 28
t50.5 51.5t18.5 81q0 56 -22.5 90t-58.5 52.5t-81 24.5t-90 6h-159v219h217v20h-403v-20h166v-577h20v338h159q45 0 87 -5.5t74.5 -22t51.5 -46.5t19 -79q0 -42 -16 -70t-44.5 -45.5t-69 -25.5t-88.5 -10v-20z" />
    <glyph glyph-name="afii10052" unicode="&#x403;" horiz-adv-x="532" 
d="M487 710q10 0 17.5 -7.5t7.5 -18.5v-94q0 -11 -7.5 -18.5t-17.5 -7.5h-262q-8 0 -14 -7t-6 -15v-517q0 -10 -7 -17.5t-18 -7.5h-95q-11 0 -18 7.5t-7 17.5v659q0 12 7 19t18 7h402zM462 646h-340v-596h20v576h320v20zM386 922q8 -7 8 -17t-8 -18l-165 -136
q-7 -7 -17.5 -7.5t-18.5 7.5l-30 30q-8 8 -7.5 18t7.5 18l136 165q8 8 18.5 8t18.5 -8zM320 930l-127 -127l14 -14l127 127z" />
    <glyph glyph-name="afii10053" unicode="&#x404;" horiz-adv-x="663" 
d="M512 193q8 8 18.5 8t18.5 -8l65 -64q8 -8 7.5 -18.5t-7.5 -17.5q-43 -47 -102 -75t-137 -28q-76 0 -137.5 28.5t-105.5 78t-68 115.5t-24 142t24 142.5t68 116t105.5 78t137.5 28.5q75 0 135.5 -27t104.5 -77q7 -7 7.5 -17t-7.5 -18l-65 -66q-8 -8 -19 -7.5t-19 8.5
q-23 28 -57.5 43.5t-79.5 15.5q-72 0 -117 -38.5t-62 -101.5q-1 -12 6 -16t18 -4h235q10 0 18 -7t8 -18v-95q0 -11 -8 -18t-18 -7h-232q-7 0 -13.5 -5t-4.5 -17q20 -51 63 -81.5t107 -30.5q45 0 79.5 15t57.5 43zM559 584q-33 34 -78.5 53.5t-105.5 19.5q-68 0 -118.5 -25.5
t-84 -68t-50.5 -97t-17 -112.5t17 -112.5t50.5 -96.5t84 -67t118.5 -25q59 0 105 19t79 52l-15 15q-31 -31 -73 -48.5t-96 -17.5q-59 0 -104 21t-76 57t-48.5 82.5t-20.5 97.5h305v20h-306v3q0 54 16 105t47.5 90.5t78 63.5t108.5 24q54 0 96.5 -17.5t73.5 -49.5z" />
    <glyph glyph-name="afii10055" unicode="&#x406;" horiz-adv-x="275" 
d="M185 710q11 0 18 -7t7 -19v-659q0 -10 -7 -17.5t-18 -7.5h-95q-11 0 -18 7.5t-7 17.5v659q0 12 7 19t18 7h95zM147 50v610h-20v-610h20z" />
    <glyph glyph-name="afii10058" unicode="&#x409;" horiz-adv-x="882" 
d="M30 120q0 11 7 18t18 7q24 0 35.5 14.5t16 46t4.5 80.5v119v279q0 12 7.5 19t18.5 7h330q11 0 18 -7.5t7 -18.5v-188q0 -11 6 -18.5t16 -7.5h24q76 0 134.5 -11t98.5 -38t60.5 -72.5t20.5 -113.5t-20.5 -113t-60.5 -72t-98.5 -38.5t-134.5 -11.5h-166q-11 0 -18 7t-7 18
v518q0 8 -6 15t-14 7h-50q-8 0 -14 -7t-6 -15v-202q0 -74 0.5 -136t-11.5 -107t-42.5 -71t-93.5 -27h-55q-11 0 -18 7t-7 18v95zM409 62h82q60 0 114.5 7t95 26.5t64.5 52.5t24 86q0 52 -22.5 86t-58.5 53t-81 26.5t-90 7.5h-108v240h-255v-359q0 -60 -5.5 -99.5t-17.5 -63
t-31 -33t-45 -9.5v-20q30 0 52 9.5t37 34.5t22.5 68.5t7.5 110.5v341h215v-565zM429 82v305h108q45 0 87 -7t74.5 -24.5t51.5 -47t19 -74.5t-21 -74.5t-58 -46.5t-88 -24t-111 -7h-62zM513 145h25q37 0 68 4.5t53.5 15t35 27.5t12.5 43t-12.5 43t-35 27.5t-53.5 15t-68 4.5
h-25q-9 0 -15 -6.5t-6 -15.5v-136q0 -10 6 -16t15 -6z" />
    <glyph glyph-name="afii10059" unicode="&#x40a;" horiz-adv-x="831" 
d="M486 470q76 0 134.5 -11t98.5 -38t61 -72.5t21 -113.5t-21 -113t-61 -72t-98.5 -38.5t-134.5 -11.5h-145q-11 0 -18.5 7t-7.5 18v278q0 8 -6 15t-14 7h-70q-8 0 -14 -7t-6 -15v-278q0 -10 -7 -17.5t-18 -7.5h-95q-11 0 -18 7.5t-7 17.5v659q0 12 7 19t18 7h95q11 0 18 -7
t7 -19v-188q0 -9 5 -17.5t15 -8.5h70q9 0 14.5 8.5t5.5 17.5v188q0 11 7.5 18.5t18.5 7.5h93q11 0 18.5 -7.5t7.5 -18.5v-188q0 -11 6.5 -18.5t19.5 -7.5zM122 50h20v337h235v-325h63q60 0 114.5 6t95 24t64.5 52t24 90t-22.5 90t-58.5 52.5t-81 24.5t-90 6h-89v253h-20
v-253h-235v253h-20v-610zM397 82v305h89q45 0 87 -5.5t74.5 -22t51.5 -46.5t19 -79t-21 -78.5t-58 -46t-88 -22t-111 -5.5h-43zM481 145h5q90 0 129.5 19.5t39.5 70.5q0 52 -39.5 71t-129.5 19h-5q-9 0 -15 -6.5t-6 -15.5v-136q0 -10 6 -16t15 -6z" />
    <glyph glyph-name="afii10060" unicode="&#x40b;" horiz-adv-x="719" 
d="M20 684q0 11 7 18.5t18 7.5h453q10 0 17.5 -7.5t7.5 -18.5v-94q0 -11 -7.5 -18.5t-17.5 -7.5h-133q-9 0 -15 -7t-6 -15v-50q0 -9 6.5 -15.5t16.5 -6.5h23q66 0 119.5 -12.5t91 -40.5t58 -73t20.5 -109v-210q0 -10 -7 -17.5t-18 -7.5h-95q-11 0 -18 7.5t-7 17.5v160
q0 41 -9.5 68t-27.5 43t-45 22.5t-62 6.5h-24q-10 0 -16 -6.5t-6 -15.5v-278q0 -10 -7 -17.5t-18 -7.5h-95q-11 0 -18 7.5t-7 17.5v514q0 9 -6 17t-14 8h-134q-11 0 -18 7.5t-7 18.5v94zM261 50h20v338h80q56 0 100 -8t74 -30t46 -61.5t16 -103.5v-135h20v135
q0 67 -16 110.5t-48 68.5t-80 34.5t-112 9.5h-80v219h192v20h-403v-20h191v-577z" />
    <glyph glyph-name="afii10061" unicode="&#x40c;" horiz-adv-x="676" 
d="M524 0q-11 0 -17 7t-14 18l-187 249q-2 4 -12.5 4t-20.5 -13l-60 -80q-8 -11 -8 -28v-132q0 -10 -7 -17.5t-18 -7.5h-95q-11 0 -18 7.5t-7 17.5v659q0 12 7 19t18 7h95q11 0 18 -7t7 -19v-234q0 -18 10 -21t17 7l195 260q6 8 11.5 11t11.5 3h122q11 0 17 -8t-2 -18
l-201 -268q-4 -7 -2 -15t16 -26l262 -350q7 -10 1 -17.5t-17 -7.5h-122zM548 50h20l-265 353l192 257h-20l-332 -444v444h-20v-610h20v138l150 202zM435 922q8 -7 8 -17t-8 -18l-165 -136q-7 -7 -17.5 -7.5t-18.5 7.5l-30 30q-8 8 -7.5 18t7.5 18l136 165q8 8 18.5 8
t18.5 -8zM369 930l-127 -127l14 -14l127 127z" />
    <glyph glyph-name="afii10062" unicode="&#x40e;" horiz-adv-x="538" 
d="M120 0q-11 0 -18 7t-7 18v95q0 11 7 18t18 7l35 1q21 4 30 25l16 44q5 11 6.5 24.5t-6.5 30.5l-178 408q-5 11 -0.5 21.5t15.5 10.5h91q17 0 26 -3.5t14 -14.5l99 -224q4 -9 12.5 -5.5t10.5 8.5l79 221q4 11 13.5 14.5t26.5 3.5h91q11 0 15 -10.5t0 -21.5l-209 -592
q-14 -42 -45 -64t-92 -22h-50zM96 660l181 -415q-14 -38 -24.5 -68.5t-22 -51.5t-26 -32t-35.5 -11h-24v-20h34q38 0 62 44t47 113l157 441h-22l-136 -387l-169 387h-22zM217 948q11 0 18 -7t7 -18q0 -21 11.5 -28.5t24.5 -7.5q14 0 25.5 7.5t11.5 28.5q0 11 7.5 18t18.5 7
h74q11 0 18.5 -7t7.5 -18q0 -34 -12.5 -63.5t-34.5 -51t-52 -34t-64 -12.5t-63.5 12.5t-51 34t-34 51t-12.5 63.5q0 11 7 18t18 7h75zM169 903q6 -41 35 -65.5t74 -24.5t74 24.5t35 65.5h-22q-14 -70 -87 -70t-87 70h-22z" />
    <glyph glyph-name="afii10038" unicode="&#x424;" horiz-adv-x="769" 
d="M474 610q55 -11 102 -31.5t81 -52t53 -74t19 -97.5q0 -56 -19 -100t-53.5 -76.5t-82 -52.5t-104.5 -29q-13 -5 -13 -16v-56q0 -10 -7.5 -17.5t-18.5 -7.5h-94q-11 0 -18 7.5t-7 17.5v55q0 12 -10 16q-58 8 -106 28.5t-82.5 52.5t-54 76.5t-19.5 101.5q0 56 19.5 100
t54 76t82.5 52t105 28q6 2 8.5 7.5t2.5 10.5v55q0 12 7 19t18 7h94q11 0 18.5 -7t7.5 -19v-55q1 -7 4 -12t13 -7zM185 355q0 -19 5 -38t17.5 -35t33.5 -26.5t53 -11.5q8 -1 13 6t5 15v179q0 8 -5 14.5t-13 5.5q-32 -2 -53 -12.5t-33.5 -26t-17.5 -34t-5 -36.5zM584 355
q0 18 -5 37t-18 34t-34 25.5t-52 12.5q-8 1 -13 -5.5t-5 -14.5v-179q0 -8 4.5 -14t12.5 -6q32 0 53 10.5t34 26.5t18 35.5t5 37.5zM394 50v105h1q63 0 113 10.5t85 34.5t54 62.5t19 93.5t-19 93t-54 62t-85 34.5t-113 10.5h-1v104h-20v-104q-63 0 -113 -10.5t-85 -34.5
t-54 -62t-19 -93t19 -93.5t54 -62.5t85 -34.5t113 -10.5v-105h20zM395 536q58 0 105 -9t79 -30t49.5 -55.5t17.5 -85.5t-17.5 -85.5t-49.5 -56t-79 -30.5t-105 -9h-1v361h1zM374 536v-361q-59 0 -105.5 9t-78.5 30.5t-49.5 56t-17.5 85.5t17.5 85.5t49.5 55.5t78.5 30
t105.5 9z" />
    <glyph glyph-name="afii10039" unicode="&#x425;" horiz-adv-x="668" 
d="M321 505q5 -8 11.5 -10.5t11.5 5.5l120 190q9 15 17.5 17.5t19.5 2.5h108q11 0 16.5 -7.5t-1.5 -18.5l-196 -310q-12 -20 -3 -35l199 -314q6 -10 1 -17.5t-16 -7.5h-108q-11 0 -19 2.5t-18 17.5l-119 187q-11 17 -26 -6l-115 -181q-10 -15 -18 -17.5t-19 -2.5h-107
q-11 0 -16.5 7.5t0.5 17.5l197 312q5 9 5.5 17.5t-6.5 19.5l-196 310q-7 11 -1 18.5t17 7.5h107q11 0 19.5 -2.5t17.5 -17.5zM152 50l182 289l183 -289h23l-193 305l193 305h-23l-183 -289l-182 289h-23l192 -305l-192 -305h23z" />
    <glyph glyph-name="afii10040" unicode="&#x426;" horiz-adv-x="738" 
d="M588 -101q-11 0 -18 7t-7 18v54q0 8 -6.5 15t-14.5 7h-457q-11 0 -18 7t-7 19v659q0 10 7 17.5t18 7.5h95q11 0 18 -7.5t7 -17.5v-514q0 -9 5.5 -17t14.5 -8h173q8 0 14 7t6 15v517q0 10 7.5 17.5t18.5 7.5h93q11 0 18.5 -7.5t7.5 -17.5v-514q0 -10 6 -18t14 -8h100
q11 0 18 -7.5t7 -17.5v-196q0 -11 -7 -18t-18 -7h-95zM645 -51v133h-145v578h-20v-578h-338v578h-20v-598h503v-113h20z" />
    <glyph glyph-name="afii10041" unicode="&#x427;" horiz-adv-x="555" 
d="M185 525q0 -41 4.5 -68t17.5 -43t36.5 -22.5t60.5 -6.5h24q10 0 16 6.5t6 15.5v277q0 11 7 18.5t18 7.5h95q11 0 18 -7.5t7 -18.5v-659q0 -11 -7 -18t-18 -7h-95q-11 0 -18 7t-7 18v192q0 9 -6.5 15.5t-16.5 6.5h-23q-57 0 -105.5 11.5t-83.5 38.5t-55 72.5t-20 113.5
v209q0 11 7 18.5t18 7.5h95q11 0 18 -7.5t7 -18.5v-159zM432 50v610h-20v-338h-84q-56 0 -95.5 9t-64 32.5t-35.5 62.5t-11 99v135h-20v-135q0 -64 11.5 -106.5t38 -68.5t69.5 -37t107 -11h84v-252h20z" />
    <glyph glyph-name="afii10042" unicode="&#x428;" horiz-adv-x="704" 
d="M85 0q-11 0 -18 7t-7 18v659q0 11 7 18.5t18 7.5h95q11 0 18 -7.5t7 -18.5v-513q0 -10 5.5 -18t14.5 -8h34q8 0 14 7.5t6 18.5v513q0 11 7 18.5t18 7.5h95q11 0 18 -7.5t7 -18.5v-513q0 -11 6 -18.5t15 -7.5h33q8 0 14 7t6 15v517q0 11 7.5 18.5t18.5 7.5h94
q11 0 18.5 -7.5t7.5 -18.5v-659q0 -11 -7.5 -18t-18.5 -7h-533zM581 62v598h-20v-578h-200v578h-20v-578h-199v578h-20v-598h459z" />
    <glyph glyph-name="afii10043" unicode="&#x429;" horiz-adv-x="819" 
d="M259 145q8 0 14 7.5t6 18.5v513q0 11 7 18.5t18 7.5h95q11 0 18 -7.5t7 -18.5v-513q0 -11 6 -18.5t15 -7.5h33q8 0 14 7t6 15v517q0 11 7.5 18.5t18.5 7.5h94q11 0 18.5 -7.5t7.5 -18.5v-517q0 -8 6 -15t14 -7h100q11 0 18 -7.5t7 -17.5v-196q0 -11 -7 -18t-18 -7h-95
q-11 0 -18 7t-7 18v51q0 9 -6 17t-15 8h-538q-11 0 -18 7t-7 18v659q0 11 7 18.5t18 7.5h95q11 0 18 -7.5t7 -18.5v-513q0 -10 5.5 -18t14.5 -8h34zM726 -51v133h-145v578h-20v-578h-200v578h-20v-578h-199v578h-20v-598h584v-113h20z" />
    <glyph glyph-name="afii10044" unicode="&#x42a;" horiz-adv-x="759" 
d="M364 470q76 0 142.5 -11t116 -38t78 -72.5t28.5 -113.5t-28.5 -113t-78 -72t-116 -38.5t-142.5 -11.5h-166q-11 0 -18 7t-7 18v517q0 9 -6.5 15.5t-14.5 6.5h-107q-10 0 -17.5 7.5t-7.5 18.5v94q0 11 7.5 18.5t17.5 7.5h248q11 0 18 -7.5t7 -18.5v-188q0 -11 6 -18.5
t17 -7.5h23zM70 627h165v-564h133q60 0 114.5 8.5t95 28.5t64.5 53t24 82t-22.5 82t-58.5 53t-81 29t-90 9h-159v239h-185v-20zM255 83v305h159q45 0 87 -8.5t74.5 -27t51.5 -47.5t19 -70t-21 -70t-58 -47t-88 -26.5t-111 -8.5h-113zM340 145h24q112 0 166 19.5t54 70.5
q0 52 -54 71t-166 19h-24q-10 0 -16 -6.5t-6 -15.5v-136q0 -22 22 -22z" />
    <glyph glyph-name="afii10045" unicode="&#x42b;" horiz-adv-x="812" 
d="M251 470q64 0 121.5 -14t100.5 -43t68 -73t25 -105q0 -60 -25 -104.5t-68 -73.5t-100.5 -43t-121.5 -14h-166q-11 0 -18 7t-7 18v659q0 11 7.5 18.5t17.5 7.5h95q11 0 18 -7.5t7 -18.5v-188q0 -11 6 -18.5t17 -7.5h23zM251 145q37 0 68.5 4.5t54 15t35 27.5t12.5 43
t-12.5 43t-35 27.5t-54 15t-68.5 4.5h-24q-10 0 -16 -6.5t-6 -15.5v-136q0 -22 22 -22h24zM205 62q60 0 114.5 8.5t95 28.5t64.5 53t24 82t-22.5 82t-58.5 53t-81 29t-90 9h-109v253h-20v-598h83zM142 82v305h109q45 0 87 -8.5t74.5 -27t51.5 -47.5t19 -70t-21 -70t-58 -47
t-88 -26.5t-111 -8.5h-63zM727 710q11 0 18 -7t7 -19v-659q0 -10 -7 -17.5t-18 -7.5h-95q-11 0 -18 7.5t-7 17.5v659q0 12 7 19t18 7h95zM689 50v610h-20v-610h20z" />
    <glyph glyph-name="afii10046" unicode="&#x42c;" horiz-adv-x="596" 
d="M251 470q64 0 121.5 -14t100.5 -43t68 -73t25 -105q0 -60 -25 -104.5t-68 -73.5t-100.5 -43t-121.5 -14h-166q-11 0 -18 7t-7 18v659q0 11 7.5 18.5t17.5 7.5h95q11 0 18 -7.5t7 -18.5v-188q0 -11 6 -18.5t17 -7.5h23zM251 145q37 0 68.5 4.5t54 15t35 27.5t12.5 43
t-12.5 43t-35 27.5t-54 15t-68.5 4.5h-24q-10 0 -16 -6.5t-6 -15.5v-136q0 -22 22 -22h24zM205 62q60 0 114.5 8.5t95 28.5t64.5 53t24 82t-22.5 82t-58.5 53t-81 29t-90 9h-109v253h-20v-598h83zM142 82v305h109q45 0 87 -8.5t74.5 -27t51.5 -47.5t19 -70t-21 -70t-58 -47
t-88 -26.5t-111 -8.5h-63z" />
    <glyph glyph-name="afii10047" unicode="&#x42d;" horiz-adv-x="663" 
d="M151 193q23 -28 57.5 -43t79.5 -15q64 0 107 30.5t63 81.5q2 12 -4.5 17t-13.5 5h-232q-10 0 -18 7t-8 18v95q0 11 8 18t18 7h235q11 0 18 4t6 16q-17 63 -62 101.5t-117 38.5q-45 0 -79.5 -15.5t-57.5 -43.5q-8 -8 -19 -8.5t-19 7.5l-65 66q-8 8 -7.5 18t7.5 17
q44 50 104.5 77t135.5 27q76 0 137.5 -28.5t105.5 -78t68 -116t24 -142.5t-24 -142t-68 -115.5t-105.5 -78t-137.5 -28.5q-78 0 -137 28t-102 75q-7 7 -7.5 17.5t7.5 18.5l65 64q8 8 18.5 8t18.5 -8zM104 584l14 -14q31 32 73.5 49.5t96.5 17.5q62 0 108.5 -24t78 -63.5
t47.5 -90.5t16 -105v-3h-306v-20h305q-3 -51 -20.5 -97.5t-48.5 -82.5t-76.5 -57t-103.5 -21q-54 0 -96 17.5t-73 48.5l-15 -15q33 -33 79 -52t105 -19q67 0 118 25t84.5 67t50.5 96.5t17 112.5t-17 112.5t-50.5 97t-84.5 68t-118 25.5q-60 0 -105.5 -19.5t-78.5 -53.5z" />
    <glyph glyph-name="afii10048" unicode="&#x42e;" horiz-adv-x="801" 
d="M248 414q11 2 11 15q7 61 25 114t48.5 92t74 61.5t100.5 22.5q66 0 114 -29.5t79 -79.5t46 -116.5t15 -139.5q0 -74 -15 -140t-46 -115.5t-79 -79t-114 -29.5q-54 0 -95.5 19.5t-71.5 54.5t-49 82t-28 103q-1 8 -4 14t-10 6h-28q-14 -3 -16 -22v-222q0 -10 -7 -17.5
t-18 -7.5h-95q-11 0 -18 7.5t-7 17.5v659q0 12 7 19t18 7h95q11 0 18 -7t7 -19v-248q1 -9 4 -15t11 -7h28zM122 50h20v281h174q5 -140 54 -209t137 -69q91 0 141 75t50 226t-50 226.5t-141 75.5t-141 -75.5t-50 -226.5v-3h-174v309h-20v-610zM507 73q-83 0 -127 72.5
t-44 208.5t44 209t127 73t127 -73t44 -209t-44 -208.5t-127 -72.5zM400 354q0 -117 29.5 -168t77.5 -51t78 51t30 168q0 116 -30 168t-78 52t-77.5 -52t-29.5 -168z" />
    <glyph glyph-name="afii10049" unicode="&#x42f;" horiz-adv-x="606" 
d="M360.978 179q19.999 -7 19.999 -23v-131q0 -10 7 -17.5q6.99902 -7.5 17.999 -7.5h94.9941q10.999 0 17.999 7.5q6.99902 7.5 6.99902 17.5v659q0 12 -6.99902 19q-7 7 -17.999 7h-165.99q-74.9951 0 -133.992 -13q-58.9961 -13 -98.9932 -43q-39.998 -30 -60.9971 -79
q-20.998 -49 -20.998 -121q0 -55 28.998 -106.5t73.9951 -89.5q15.999 -13 19.999 -23.5t-4 -30.5l-83.9941 -173q-5 -12 -3 -21.5t18.999 -9.5h105.993q12.999 0 18.999 5q5.99902 5 8.99902 10l84.9951 163q2 5 10.999 7q9 2 19.999 1q9.99902 -1 18.999 -2
q8.99902 -1 20.998 -5zM132.992 50l105.993 212q-30.998 11 -58.9961 28.5q-27.999 17.5 -49.4971 41q-21.499 23.5 -33.998 53.5t-12.499 67q0 63 22.498 101.5q22.499 38.5 58.4971 59.5q35.9971 21 80.4951 27.5q44.4971 6.5 89.4941 6.5h128.992v-597h-19.999v190
q-68.9951 0 -113.493 4q-44.4971 4 -71.4951 12l-102.994 -206h-22.998zM334.979 627q-44.9971 0 -86.4951 -6.5q-41.4971 -6.5 -73.4951 -25t-51.4971 -53q-19.498 -34.5 -19.498 -90.5q0 -33 11.499 -60t30.998 -48.5t45.4971 -37.5t55.9961 -26q38.998 -12 83.9951 -16
t111.993 -4v367h-108.993zM358.979 564q8.99902 0 15.499 -6.5q6.49902 -6.5 6.49902 -15.5v-198q0 -11 -5.49902 -18q-5.5 -7 -15.499 -7h-24.999q-36.998 0 -67.9961 9.5t-53.4961 26.5q-22.499 17 -34.998 39t-12.499 48q0 37 12.499 61t34.998 37.5
q22.498 13.5 53.4961 18.5t67.9961 5h23.999z" />
    <glyph glyph-name="Iotadieresis" unicode="&#x3aa;" horiz-adv-x="275" 
d="M185 710q11 0 18 -7t7 -19v-659q0 -10 -7 -17.5t-18 -7.5h-95q-11 0 -18 7.5t-7 17.5v659q0 12 7 19t18 7h95zM147 50v610h-20v-610h20zM2 850q0 26 18 44t45 18q26 0 44 -18t18 -44t-18 -45t-44 -19q-27 0 -45 19t-18 45zM148 850q0 26 18 44t45 18q26 0 44 -18t18 -44
t-18 -45t-44 -19q-27 0 -45 19t-18 45zM53 850q0 -5 3.5 -8.5t8.5 -3.5t8.5 3.5t3.5 8.5t-3.5 8.5t-8.5 3.5t-8.5 -3.5t-3.5 -8.5zM199 850q0 -5 3.5 -8.5t8.5 -3.5t8.5 3.5t3.5 8.5t-3.5 8.5t-8.5 3.5t-8.5 -3.5t-3.5 -8.5z" />
    <glyph glyph-name="afii10056" unicode="&#x407;" horiz-adv-x="275" 
d="M185 710q11 0 18 -7t7 -19v-659q0 -10 -7 -17.5t-18 -7.5h-95q-11 0 -18 7.5t-7 17.5v659q0 12 7 19t18 7h95zM147 50v610h-20v-610h20zM2 850q0 26 18 44t45 18q26 0 44 -18t18 -44t-18 -45t-44 -19q-27 0 -45 19t-18 45zM148 850q0 26 18 44t45 18q26 0 44 -18t18 -44
t-18 -45t-44 -19q-27 0 -45 19t-18 45zM53 850q0 -5 3.5 -8.5t8.5 -3.5t8.5 3.5t3.5 8.5t-3.5 8.5t-8.5 3.5t-8.5 -3.5t-3.5 -8.5zM199 850q0 -5 3.5 -8.5t8.5 -3.5t8.5 3.5t3.5 8.5t-3.5 8.5t-8.5 3.5t-8.5 -3.5t-3.5 -8.5z" />
    <glyph glyph-name="a" unicode="a" horiz-adv-x="619" 
d="M490 0q-10 0 -22.5 1.5t-17.5 15.5l-36 102q-4 11 -10.5 17.5t-17.5 6.5h-158q-9 0 -15.5 -7t-8.5 -13l-36 -106q-5 -14 -17.5 -15.5t-22.5 -1.5h-91q-10 0 -14.5 10t-0.5 21l233 663q2 6 10 11t16 5h57q8 0 15.5 -4.5t9.5 -10.5l233 -664q4 -10 1 -20.5t-16 -10.5h-91z
M273 308q-2 -7 1 -13t20 -6h37q14 0 15.5 5.5t-0.5 11.5l-23 67q-4 11 -14.5 9t-13.5 -11zM319 633h-22l-204 -581h21l57 163h274l58 -163h21zM308 604l130 -369h-260z" />
    <glyph glyph-name="aogonek" unicode="&#x105;" horiz-adv-x="619" 
d="M651 -187q4 -9 0.5 -18t-14.5 -13q-37 -14 -69 -13.5t-58 11.5q-25 11 -41.5 32t-25.5 46.5t-9.5 53.5t6.5 54q3 9 5.5 15.5t4 12t2 10.5t-2.5 13l-35 102q-4 11 -10.5 17.5t-17.5 6.5h-158q-9 0 -15.5 -7t-8.5 -13l-36 -106q-5 -14 -17.5 -15.5t-22.5 -1.5h-91
q-10 0 -14.5 10t-0.5 21l233 663q2 6 10 11t16 5h57q8 0 15.5 -4.5t9.5 -10.5l233 -664q4 -11 0 -19.5t-13 -19.5q-19 -20 -26 -40.5t-5 -36t13 -23t28 -1.5q11 4 20.5 0t13.5 -14zM273 308q-2 -7 1 -13t20 -6h37q14 0 15.5 5.5t-0.5 11.5l-23 67q-4 11 -14.5 9t-13.5 -11z
M592 -164q-38 -5 -60 13t-27 50q-6 34 5 63q2 8 7.5 17.5t20.5 31.5l-219 622h-22l-204 -581h21l57 163h274l71 -201q-18 -26 -27.5 -55.5t-2.5 -65.5q8 -40 37.5 -62t76.5 -14zM308 604l130 -369h-260z" />
    <glyph glyph-name="atilde" unicode="&#xe3;" horiz-adv-x="927" 
d="M560 440q0 -11 5.5 -18.5t14.5 -7.5h261q11 0 18.5 -7t7.5 -18v-95q0 -11 -7.5 -18t-18.5 -7h-260q-8 0 -14.5 -6.5t-6.5 -15.5v-76q0 -11 5.5 -18.5t14.5 -7.5h261q11 0 18.5 -7t7.5 -18v-95q0 -11 -7.5 -18t-18.5 -7h-401q-11 0 -18 7.5t-7 17.5v98q0 13 -7 16.5
t-15 3.5h-112q-16 0 -29 -10t-20 -22l-49 -86q-5 -10 -17 -17.5t-23 -7.5h-108q-11 0 -13.5 7.5t2.5 17.5l377 659q5 10 15 18t22 8h403q11 0 18.5 -7.5t7.5 -18.5v-94q0 -11 -7.5 -18.5t-18.5 -7.5h-260q-8 0 -14.5 -6.5t-6.5 -15.5v-102zM106 50h23l89 156h259v-141h340
v20h-320v249h320v20h-320v275h320v20h-368zM229 226l231 403h17v-403h-248zM415 386q0 8 -7 14t-12 -2l-48 -85q-5 -10 2.5 -17t23.5 -7h19q8 0 15 3t7 17v77z" />
    <glyph glyph-name="ae" unicode="&#xe6;" horiz-adv-x="927" 
d="M560 440q0 -11 5.5 -18.5t14.5 -7.5h261q11 0 18.5 -7t7.5 -18v-95q0 -11 -7.5 -18t-18.5 -7h-260q-8 0 -14.5 -6.5t-6.5 -15.5v-76q0 -11 5.5 -18.5t14.5 -7.5h261q11 0 18.5 -7t7.5 -18v-95q0 -11 -7.5 -18t-18.5 -7h-401q-11 0 -18 7.5t-7 17.5v98q0 13 -7 16.5
t-15 3.5h-112q-16 0 -29 -10t-20 -22l-49 -86q-5 -10 -17 -17.5t-23 -7.5h-108q-11 0 -13.5 7.5t2.5 17.5l377 659q5 10 15 18t22 8h403q11 0 18.5 -7.5t7.5 -18.5v-94q0 -11 -7.5 -18.5t-18.5 -7.5h-260q-8 0 -14.5 -6.5t-6.5 -15.5v-102zM106 50h23l89 156h259v-141h340
v20h-320v249h320v20h-320v275h320v20h-368zM229 226l231 403h17v-403h-248zM415 386q0 8 -7 14t-12 -2l-48 -85q-5 -10 2.5 -17t23.5 -7h19q8 0 15 3t7 17v77z" />
    <glyph glyph-name="aeacute" unicode="&#x1fd;" horiz-adv-x="927" 
d="M563 440q0 -11 5.5 -18.5t14.5 -7.5h261q11 0 18.5 -7t7.5 -18v-95q0 -11 -7.5 -18t-18.5 -7h-260q-8 0 -14.5 -6.5t-6.5 -15.5v-76q0 -11 5.5 -18.5t14.5 -7.5h261q11 0 18.5 -7t7.5 -18v-95q0 -11 -7.5 -18t-18.5 -7h-401q-11 0 -18 7.5t-7 17.5v98q0 13 -7 16.5
t-15 3.5h-112q-16 0 -29 -10t-20 -22l-49 -86q-5 -10 -17 -17.5t-23 -7.5h-108q-11 0 -13.5 7.5t2.5 17.5l377 659q5 10 15 18t22 8h403q11 0 18.5 -7.5t7.5 -18.5v-94q0 -11 -7.5 -18.5t-18.5 -7.5h-260q-8 0 -14.5 -6.5t-6.5 -15.5v-102zM109 50h23l89 156h259v-141h340
v20h-320v249h320v20h-320v275h320v20h-368zM232 226l231 403h17v-403h-248zM418 386q0 8 -7 14t-12 -2l-48 -85q-5 -10 2.5 -17t23.5 -7h19q8 0 15 3t7 17v77zM632 922q8 -7 8 -17t-8 -18l-165 -136q-7 -7 -17.5 -7.5t-18.5 7.5l-30 30q-8 8 -7.5 18t7.5 18l136 165
q8 8 18.5 8t18.5 -8zM566 930l-127 -127l14 -14l127 127z" />
    <glyph glyph-name="b" unicode="b" horiz-adv-x="585" 
d="M85 0q-11 0 -18 7t-7 18v659q0 11 7 18.5t18 7.5h146q77 0 131 -13.5t88 -39.5t49.5 -63t15.5 -85q0 -40 -12.5 -71.5t-32.5 -58.5q-6 -8 -4 -14.5t10 -12.5q69 -56 69 -151q0 -48 -15.5 -85t-49.5 -63t-88 -39.5t-131 -13.5h-176zM226 282q-9 0 -15 -6.5t-6 -15.5v-89
q0 -11 5.5 -18.5t14.5 -7.5h36q75 0 107 18t32 50q0 31 -32 50t-107 19h-35zM226 564q-10 0 -15.5 -7.5t-5.5 -17.5v-90q0 -9 6 -15t15 -6q79 0 111.5 18.5t32.5 49.5q0 32 -32 50t-107 18h-5zM271 63q41 0 79 6.5t67.5 23t47 45.5t17.5 75q0 31 -10.5 56t-29 43.5
t-43.5 30.5t-54 17q48 14 77.5 46t29.5 90q0 46 -17.5 75t-46 46t-66.5 23.5t-78 6.5h-122v-584h149zM261 346q34 0 69.5 -5t64.5 -19.5t48 -40.5t19 -68q0 -46 -19 -72t-48 -39t-64.5 -16t-69.5 -3h-119v263h119zM142 366v261h82q37 -1 74 -4.5t67 -16t48.5 -38.5t18.5 -72
q0 -42 -18 -67.5t-47.5 -39.5t-66.5 -18.5t-75 -4.5h-83z" />
    <glyph glyph-name="c" unicode="c" horiz-adv-x="706" 
d="M40 354q0 76 28.5 142.5t78 116t116 78t141.5 28.5q76 0 140 -26t114 -76q7 -8 7.5 -18t-7.5 -18l-65 -65q-8 -8 -18.5 -8t-18.5 8q-32 26 -69.5 42t-82.5 16q-47 0 -86.5 -17t-69 -46.5t-46 -70t-16.5 -86.5q0 -47 16.5 -87t46 -69.5t69 -46.5t86.5 -17q45 0 82.5 16
t69.5 42q8 8 18.5 8t18.5 -8l65 -65q8 -8 7.5 -18t-7.5 -18q-50 -50 -114 -76t-140 -26q-75 0 -141.5 28.5t-116 78t-78 116t-28.5 142.5zM587 139q-37 -32 -83 -49t-99 -17q-59 0 -110 22t-89 60t-60 89t-22 110q0 58 22 109.5t60 90t89 60.5t110 22q53 0 99 -17.5
t83 -49.5l14 14q-40 34 -89.5 53.5t-106.5 19.5q-63 0 -117.5 -23.5t-95.5 -64.5t-64.5 -96t-23.5 -118t23.5 -117.5t64.5 -95.5t95.5 -64.5t117.5 -23.5q57 0 106.5 19t89.5 53z" />
    <glyph glyph-name="cacute" unicode="&#x107;" horiz-adv-x="706" 
d="M40 354q0 76 28.5 142.5t78 116t116 78t141.5 28.5q76 0 140 -26t114 -76q7 -8 7.5 -18t-7.5 -18l-65 -65q-8 -8 -18.5 -8t-18.5 8q-32 26 -69.5 42t-82.5 16q-47 0 -86.5 -17t-69 -46.5t-46 -70t-16.5 -86.5q0 -47 16.5 -87t46 -69.5t69 -46.5t86.5 -17q45 0 82.5 16
t69.5 42q8 8 18.5 8t18.5 -8l65 -65q8 -8 7.5 -18t-7.5 -18q-50 -50 -114 -76t-140 -26q-75 0 -141.5 28.5t-116 78t-78 116t-28.5 142.5zM587 139q-37 -32 -83 -49t-99 -17q-59 0 -110 22t-89 60t-60 89t-22 110q0 58 22 109.5t60 90t89 60.5t110 22q53 0 99 -17.5
t83 -49.5l14 14q-40 34 -89.5 53.5t-106.5 19.5q-63 0 -117.5 -23.5t-95.5 -64.5t-64.5 -96t-23.5 -118t23.5 -117.5t64.5 -95.5t95.5 -64.5t117.5 -23.5q57 0 106.5 19t89.5 53zM518 923q8 -7 8 -17t-8 -18l-165 -136q-7 -7 -17.5 -7.5t-18.5 7.5l-30 30q-8 8 -7.5 18
t7.5 18l136 165q8 8 18.5 8t18.5 -8zM452 931l-127 -127l14 -14l127 127z" />
    <glyph glyph-name="ccedilla" unicode="&#xe7;" horiz-adv-x="706" 
d="M477 -31q-3 -20 7 -20q13 0 29 -5t31 -14.5t28.5 -24.5t21.5 -35q30 -74 -13 -140t-152 -104q-24 -8 -32 14l-24 61q-5 11 -1 20t14 13q55 21 83 42.5t16 49.5q-6 14 -21 17.5t-33 1t-36.5 -8.5t-31.5 -11q-11 -4 -18 0.5t-7 14.5l16 142q1 9 -27 15q-62 13 -114.5 45.5
t-90.5 80t-60 106.5t-22 125q0 76 28.5 142.5t78 116t116 78t141.5 28.5q76 0 140 -26t114 -76q7 -8 7.5 -18t-7.5 -18l-65 -65q-8 -8 -18.5 -8t-18.5 8q-32 26 -69.5 42t-82.5 16q-47 0 -86.5 -17t-69 -46.5t-46 -70t-16.5 -86.5q0 -47 16.5 -87t46 -69.5t69 -46.5
t86.5 -17q45 0 82.5 16t69.5 42q8 8 18.5 8t18.5 -8l65 -65q8 -8 7.5 -18t-7.5 -18q-35 -35 -77 -59t-90 -33q-5 -1 -7.5 -4t-3.5 -6zM124 354q0 58 22 109.5t60 90t89 60.5t110 22q53 0 99 -17.5t83 -49.5l14 14q-40 34 -89.5 53.5t-106.5 19.5q-63 0 -117.5 -23.5
t-95.5 -64.5t-64.5 -96t-23.5 -118q0 -79 36.5 -144.5t97.5 -106.5q36 -24 79.5 -37t97.5 -13l-18 -170q52 9 89 0t48 -40q9 -23 2 -43.5t-23.5 -38.5t-40 -33.5t-48.5 -27.5l7 -19q26 12 52 28.5t44.5 37.5t27 46t-0.5 55q-6 18 -18.5 30.5t-30.5 20t-40 10t-45 -0.5
l15 146q48 5 89.5 23.5t76.5 47.5l-14 14q-38 -30 -79 -47t-86 -19q-60 -2 -114.5 19t-95 59t-64.5 90.5t-24 112.5z" />
    <glyph glyph-name="d" unicode="d" horiz-adv-x="683" 
d="M85 0q-11 0 -18 7.5t-7 17.5v659q0 12 7 19t18 7h203q76 0 141 -27t112.5 -75t74.5 -113t27 -141t-27 -140.5t-74.5 -112t-112.5 -74.5t-141 -27h-203zM123 649v-589h163q80 0 136 26.5t91 68.5t51 94.5t16 104.5q0 48 -16 100.5t-51 95.5t-91 71t-136 28h-163zM286 629
q73 0 125 -25t85 -64.5t48.5 -88.5t15.5 -97t-15.5 -97t-48.5 -88.5t-85 -64t-125 -24.5h-143v549h143zM288 145q48 0 87 16t66 44t41.5 66t14.5 83t-14.5 83t-41.5 66.5t-66 44.5t-87 16h-62q-9 0 -15 -7t-6 -18v-368q0 -12 7 -19t18 -7h58z" />
    <glyph glyph-name="dcaron" unicode="&#x10f;" horiz-adv-x="683" 
d="M272 958q5 11 12.5 15.5t18.5 4.5h82q11 0 18 -4.5t1 -15.5l-96 -180q-9 -17 -21 -17h-57q-6 0 -10.5 5t-8.5 12l-97 180q-6 11 1 15.5t18 4.5h82q21 0 32 -20l6 -11q3 -6 7 -5.5t7 6.5zM313 933l-54 -100l-54 100h-23l65 -121h23l65 121h-22zM85 0q-11 0 -18 7.5
t-7 17.5v659q0 12 7 19t18 7h203q76 0 141 -27t112.5 -75t74.5 -113t27 -141t-27 -140.5t-74.5 -112t-112.5 -74.5t-141 -27h-203zM123 649v-589h163q80 0 136 26.5t91 68.5t51 94.5t16 104.5q0 48 -16 100.5t-51 95.5t-91 71t-136 28h-163zM286 629q73 0 125 -25t85 -64.5
t48.5 -88.5t15.5 -97t-15.5 -97t-48.5 -88.5t-85 -64t-125 -24.5h-143v549h143zM288 145q48 0 87 16t66 44t41.5 66t14.5 83t-14.5 83t-41.5 66.5t-66 44.5t-87 16h-62q-9 0 -15 -7t-6 -18v-368q0 -12 7 -19t18 -7h58z" />
    <glyph glyph-name="dcroat" unicode="&#x111;" horiz-adv-x="744" 
d="M146 0q-11 0 -18 7.5t-7 17.5v228q0 7 -7 11.5t-14 4.5h-55q-11 0 -18 7t-7 18v95q0 11 7 18t18 7h57q6 0 12.5 3.5t6.5 10.5v256q0 12 7 19t18 7h203q76 0 141 -27t112.5 -75t74.5 -113t27 -141t-27 -140.5t-74.5 -112t-112.5 -74.5t-141 -27h-203zM70 329h116v-269h163
q80 0 136 26.5t91 68.5t51 94.5t16 104.5q0 48 -16 100.5t-51 95.5t-91 71t-136 28h-163v-300h-116v-20zM349 629q73 0 125 -25t85 -64.5t48.5 -88.5t15.5 -97t-15.5 -97t-48.5 -88.5t-85 -64t-125 -24.5h-143v249h180v20h-180v280h143zM349 145q48 0 87 16t66 44t41.5 66
t14.5 83t-14.5 83t-41.5 66.5t-66 44.5t-87 16h-62q-9 0 -15 -7t-6 -18v-99q0 -11 6 -18.5t14 -7.5h125q10 0 17.5 -7t7.5 -18v-95q0 -11 -7.5 -18t-17.5 -7h-124q-8 0 -14.5 -7t-6.5 -15v-76q0 -12 7 -19t18 -7h58z" />
    <glyph glyph-name="e" unicode="e" horiz-adv-x="572" 
d="M487 710q10 0 17.5 -7.5t7.5 -18.5v-94q0 -11 -7.5 -18.5t-17.5 -7.5h-262q-9 0 -14.5 -8t-5.5 -17v-99q0 -11 5.5 -18.5t14.5 -7.5h262q10 0 17.5 -7t7.5 -18v-95q0 -11 -7.5 -18t-17.5 -7h-262q-8 0 -14 -6.5t-6 -15.5v-80q0 -10 6.5 -16t14.5 -6h261q10 0 17.5 -7
t7.5 -18v-95q0 -11 -7.5 -18t-17.5 -7h-402q-11 0 -18 7.5t-7 17.5v659q0 12 7 19t18 7h402zM462 65v20h-320v249h320v20h-320v275h320v20h-340v-584h340z" />
    <glyph glyph-name="f" unicode="f" horiz-adv-x="552" 
d="M487 710q10 0 17.5 -7.5t7.5 -18.5v-94q0 -11 -7.5 -18.5t-17.5 -7.5h-262q-8 0 -14 -7t-6 -15v-106q0 -9 6 -15.5t14 -6.5h262q10 0 17.5 -7t7.5 -18v-95q0 -11 -7.5 -18t-17.5 -7h-262q-8 0 -14 -6.5t-6 -15.5v-222q0 -10 -7 -17.5t-18 -7.5h-95q-11 0 -18 7.5t-7 17.5
v659q0 12 7 19t18 7h402zM142 65v269h320v20h-320v275h320v20h-340v-584h20z" />
    <glyph glyph-name="g" unicode="g" horiz-adv-x="681" 
d="M612 55q-45 -31 -97.5 -48t-110.5 -17q-75 0 -141.5 28.5t-116 78t-78 115.5t-28.5 142t28.5 142.5t78 116t116 78t141.5 28.5q47 0 91 -12t83 -33q8 -5 11 -15t-2 -19l-46 -81q-6 -8 -16 -10.5t-21 2.5q-22 11 -47.5 17t-52.5 6q-47 0 -86.5 -17t-69 -46.5t-46 -70
t-16.5 -86.5q0 -47 16.5 -87t46 -69t69 -46t86.5 -17q13 0 25 1t23 4h1q14 6 18.5 15t4.5 28v36q0 11 -6 18t-16 7h-68q-11 0 -18 7t-7 18v95q0 11 7 18t18 7h210q10 0 17.5 -7t7.5 -18v-290q0 -13 -9 -19zM411 327v-20h127v-202q-59 -32 -133 -32q-59 0 -110 22t-89 60
t-60 89t-22 110q0 58 22 109.5t60 90t89 60.5t110 22q64 0 119 -26l9 17q-29 14 -61 21.5t-67 7.5q-63 0 -117.5 -23.5t-95.5 -64.5t-64.5 -96t-23.5 -118t23.5 -117.5t64.5 -95.5t95.5 -64.5t117.5 -23.5q36 0 73 8.5t80 32.5v233h-147z" />
    <glyph glyph-name="h" unicode="h" horiz-adv-x="672" 
d="M180 710q11 0 18 -7t7 -19v-244q0 -11 6 -18.5t16 -7.5h218q9 0 15.5 7.5t6.5 18.5v244q0 12 7 19t18 7h95q11 0 18 -7t7 -19v-659q0 -10 -7 -17.5t-18 -7.5h-95q-11 0 -18 7.5t-7 17.5v219q0 11 -6 18t-16 7h-215q-11 0 -18 -7t-7 -18v-219q0 -10 -7 -17.5t-18 -7.5h-95
q-11 0 -18 7.5t-7 17.5v659q0 12 7 19t18 7h95zM550 50v610h-20v-309h-388v309h-20v-610h20v281h388v-281h20z" />
    <glyph glyph-name="i" unicode="i" horiz-adv-x="275" 
d="M185 710q11 0 18 -7t7 -19v-659q0 -10 -7 -17.5t-18 -7.5h-95q-11 0 -18 7.5t-7 17.5v659q0 12 7 19t18 7h95zM147 50v610h-20v-610h20z" />
    <glyph glyph-name="j" unicode="j" horiz-adv-x="551" 
d="M21 160q-2 9 2 19t15 13l92 13q10 2 20 -3t12 -13q7 -22 31.5 -39t58.5 -15q19 1 37 5.5t31.5 22.5t21.5 53.5t8 97.5v370q0 12 7.5 19t18.5 7h94q11 0 18.5 -7t7.5 -19v-420q0 -74 -20.5 -126t-54.5 -85t-78 -48t-91 -15q-38 0 -74.5 9.5t-67.5 30.5t-54.5 53t-34.5 77z
M90 149q21 -47 60 -71.5t102 -24.5q55 0 90 19t55.5 54t28 85t7.5 113v336h-20v-336q0 -59 -6 -105.5t-23.5 -78.5t-49 -49.5t-82.5 -17.5q-57 0 -91 20.5t-52 58.5z" />
    <glyph glyph-name="k" unicode="k" horiz-adv-x="676" 
d="M524 0q-11 0 -17 7t-14 18l-187 249q-2 4 -12.5 4t-20.5 -13l-60 -80q-8 -11 -8 -28v-132q0 -10 -7 -17.5t-18 -7.5h-95q-11 0 -18 7.5t-7 17.5v659q0 12 7 19t18 7h95q11 0 18 -7t7 -19v-234q0 -18 10 -21t17 7l195 260q6 8 11.5 11t11.5 3h122q11 0 17 -8t-2 -18
l-201 -268q-4 -7 -2 -15t16 -26l262 -350q7 -10 1 -17.5t-17 -7.5h-122zM548 50h20l-265 353l192 257h-20l-332 -444v444h-20v-610h20v138l150 202z" />
    <glyph glyph-name="l" unicode="l" horiz-adv-x="532" 
d="M180 710q11 0 18 -7t7 -19v-513q0 -15 5.5 -20.5t14.5 -5.5h262q10 0 17.5 -7t7.5 -18v-95q0 -11 -7.5 -18t-17.5 -7h-402q-13 0 -19 7.5t-6 17.5v659q0 12 7 19t18 7h95zM462 62v20h-320v578h-20v-598h340z" />
    <glyph glyph-name="m" unicode="m" horiz-adv-x="845" 
d="M200 25q0 -10 -7 -17.5t-18 -7.5h-95q-11 0 -18 7.5t-7 17.5l50 659q0 12 7 19t18 7h105q17 0 24 -18l146 -406q8 -18 19 -14.5t14 10.5l147 410q3 8 10 13t15 5h104q11 0 18.5 -7t7.5 -19l50 -659q0 -10 -7 -17.5t-18 -7.5h-95q-11 0 -18 7.5t-7 17.5l-22 250
q-1 18 -12 18t-19 -17l-98 -261q-3 -8 -11.5 -11.5t-18.5 -3.5h-84q-10 0 -18 3.5t-11 11.5l-102 267q-6 15 -16.5 10.5t-12.5 -25.5zM415 70l-216 590h-33l-46 -610h20l45 588l216 -588h42l218 592l44 -592h20l-46 610h-33l-217 -590h-14z" />
    <glyph glyph-name="n" unicode="n" horiz-adv-x="650" 
d="M565 710q11 0 18 -7t7 -19v-659q0 -10 -7 -17.5t-18 -7.5h-90q-19 0 -27 12l-218 364q-2 3 -6 4.5t-8.5 0t-7.5 -7t-3 -17.5v-331q0 -10 -7 -17.5t-18 -7.5h-95q-11 0 -18 7.5t-7 17.5v659q0 12 7 19t18 7h95q13 0 24 -15l217 -362q3 -4 7 -6.5t7.5 -1t6.5 7t3 18.5v333
q0 12 7 19t18 7h95zM123 660v-610h20v587l354 -587h30v610h-20v-587l-355 587h-29z" />
    <glyph glyph-name="o" unicode="o" 
d="M40 354q0 76 28.5 142.5t78 116t116 78t141.5 28.5q76 0 142.5 -28.5t116 -78t78 -116t28.5 -142.5t-28.5 -142t-78 -115.5t-116 -78t-142.5 -28.5q-75 0 -141.5 28.5t-116 78t-78 115.5t-28.5 142zM104 354q0 -63 23.5 -117.5t64.5 -95.5t95.5 -64.5t117.5 -23.5
t117.5 23.5t95.5 64.5t64.5 95.5t23.5 117.5t-23.5 118t-64.5 96t-95.5 64.5t-117.5 23.5t-117.5 -23.5t-95.5 -64.5t-64.5 -96t-23.5 -118zM124 354q0 58 22 109.5t60 90t89 60.5t110 22q58 0 109.5 -22t89.5 -60.5t60 -90t22 -109.5q0 -59 -22 -110t-60 -89t-89.5 -60
t-109.5 -22q-59 0 -110 22t-89 60t-60 89t-22 110zM186 354q0 -47 16.5 -87t46 -69t69 -46t86.5 -17t87 17t69.5 46t46.5 69t17 87q0 46 -17 86.5t-46.5 70t-69.5 46.5t-87 17t-86.5 -17t-69 -46.5t-46 -70t-16.5 -86.5z" />
    <glyph glyph-name="oe" unicode="&#x153;" horiz-adv-x="891" 
d="M40 354q0 75 28.5 140t77 113t114 75.5t140.5 27.5h406q10 0 17.5 -7.5t7.5 -18.5v-94q0 -11 -7.5 -18.5t-17.5 -7.5h-261q-8 0 -14.5 -7t-6.5 -15v-106q0 -9 6 -15.5t14 -6.5h262q10 0 17.5 -7t7.5 -18v-95q0 -11 -7.5 -18t-17.5 -7h-261q-8 0 -14.5 -7t-6.5 -15v-80
q0 -10 6.5 -16t14.5 -6h261q10 0 17.5 -7t7.5 -18v-95q0 -11 -7.5 -18t-17.5 -7h-406q-75 0 -140.5 27t-114 74.5t-77 112.5t-28.5 140zM359 561q-38 -7 -69.5 -25.5t-54.5 -45.5t-36 -62t-13 -74q0 -41 13 -75.5t36 -61.5t54.5 -44.5t69.5 -23.5q9 -2 14.5 5.5t5.5 16.5
v369q0 8 -4 15.5t-16 5.5zM781 85h-320v249h320v20h-320v275h320v20h-376q-64 0 -119 -23t-95.5 -62.5t-63.5 -93.5t-23 -116t23 -115t63.5 -91.5t95.5 -60.5t119 -22h376v20zM124 354q0 58 22 108.5t60 87.5t89 58t110 21h36v-544h-36q-59 0 -110 20t-89 56t-60 85t-22 108
z" />
    <glyph glyph-name="p" unicode="p" horiz-adv-x="596" 
d="M225 174q-8 0 -14 -7t-6 -16v-126q0 -10 -7 -17.5t-18 -7.5h-95q-11 0 -18 7.5t-7 17.5v659q0 12 7 19t18 7h166q152 0 233.5 -65t81.5 -191q0 -62 -21 -113.5t-61 -88.5t-99 -57.5t-134 -20.5h-26zM227 564q-9 0 -15.5 -6.5t-6.5 -15.5v-198q0 -11 5.5 -18t15.5 -7h25
q169 0 169 123q0 63 -41.5 92.5t-127.5 29.5h-24zM251 647h-129v-597h20v187h109q45 0 89.5 9.5t80.5 33t58.5 63t22.5 99.5q0 63 -22.5 103t-58.5 62.5t-80.5 31t-89.5 8.5zM142 627h109q45 0 86.5 -8t73.5 -28.5t51.5 -56.5t19.5 -92q0 -52 -19.5 -87.5t-51.5 -57
t-73.5 -31t-86.5 -9.5h-109v370z" />
    <glyph glyph-name="q" unicode="q" 
d="M40 354q0 76 28.5 142.5t78 116t116 78t141.5 28.5q76 0 142.5 -28.5t116 -78t78 -116t28.5 -142.5q0 -48 -12.5 -92t-32.5 -84q-5 -12 8 -25l44 -44q7 -7 7.5 -17t-7.5 -18l-66 -67q-8 -8 -19 -7.5t-18 7.5l-39 39q-8 8 -16 7.5t-16 -5.5q-44 -26 -93.5 -42t-104.5 -16
q-75 0 -141.5 28.5t-116 78t-78 115.5t-28.5 142zM186 354q0 -47 16.5 -87t46 -69t69 -46t86.5 -17q42 0 77 13q37 14 20 31l-113 113q-8 8 -8 18.5t8 18.5l67 66q17 17 35 0l101 -101q8 -8 15.5 -7t11.5 14q6 25 6 53q0 46 -17 86.5t-46.5 70t-69.5 46.5t-87 17t-86.5 -17
t-69 -46.5t-46 -70t-16.5 -86.5zM104 354q0 -63 23.5 -117.5t64.5 -95.5t95.5 -64.5t117.5 -23.5q65 0 120.5 24.5t97.5 67.5l82 -82l14 14l-83 83q33 39 51.5 88.5t18.5 105.5q0 63 -23.5 118t-64.5 96t-95.5 64.5t-117.5 23.5t-117.5 -23.5t-95.5 -64.5t-64.5 -96
t-23.5 -118zM444 324l165 -165q-38 -40 -90.5 -63t-113.5 -23q-59 0 -110 22t-89 60t-60 89t-22 110q0 58 22 109.5t60 90t89 60.5t110 22q58 0 109.5 -22t89.5 -60.5t60 -90t22 -109.5q0 -52 -17 -97.5t-47 -82.5l-164 164z" />
    <glyph glyph-name="r" unicode="r" horiz-adv-x="606" 
d="M225 179q-20 -7 -20 -23v-131q0 -10 -7 -17.5t-18 -7.5h-95q-11 0 -18 7.5t-7 17.5v659q0 12 7 19t18 7h166q75 0 134 -13t99 -43t61 -79t21 -121q0 -55 -29 -106.5t-74 -89.5q-16 -13 -20 -23.5t4 -30.5l84 -173q5 -12 3 -21.5t-19 -9.5h-106q-13 0 -19 5t-9 10l-85 163
q-2 5 -11 7t-20 1q-10 -1 -19 -2t-21 -5zM453 50l-106 212q31 11 59 28.5t49.5 41t34 53.5t12.5 67q0 63 -22.5 101.5t-58.5 59.5t-80.5 27.5t-89.5 6.5h-129v-597h20v190q69 0 113.5 4t71.5 12l103 -206h23zM251 627q45 0 86.5 -6.5t73.5 -25t51.5 -53t19.5 -90.5
q0 -33 -11.5 -60t-31 -48.5t-45.5 -37.5t-56 -26q-39 -12 -84 -16t-112 -4v367h109zM227 564q-9 0 -15.5 -6.5t-6.5 -15.5v-198q0 -11 5.5 -18t15.5 -7h25q37 0 68 9.5t53.5 26.5t35 39t12.5 48q0 37 -12.5 61t-35 37.5t-53.5 18.5t-68 5h-24z" />
    <glyph glyph-name="s" unicode="s" horiz-adv-x="583" 
d="M377 513q-2 18 -10 30.5t-19.5 20.5t-25.5 11.5t-29 3.5q-88 0 -88 -67q0 -24 25 -38.5t62.5 -27.5t81.5 -28t81.5 -40t62.5 -63t25 -97q0 -56 -21.5 -98.5t-57 -71.5t-81 -43.5t-93.5 -14.5q-50 0 -95.5 15.5t-80 44.5t-54.5 71t-20 96q0 10 7 17.5t18 7.5h95
q11 0 17 -7.5t8 -17.5q8 -43 34.5 -62.5t71.5 -19.5q52 0 79 21.5t27 61.5q0 36 -25 55.5t-62.5 32t-81 24t-81 32t-62.5 55.5t-25 95q0 56 22.5 95.5t57 64.5t75.5 36.5t77 11.5q39 0 79.5 -12t74 -37.5t55 -64.5t21.5 -93q0 -10 -7 -17.5t-18 -7.5h-95q-11 0 -17.5 7.5
t-7.5 17.5zM104 192q5 -29 21 -54.5t41 -44.5t57 -30t69 -11q41 0 75.5 13.5t59.5 36t39 52.5t14 64q0 52 -25 83.5t-62.5 50.5t-81.5 31.5t-81.5 28t-62.5 38t-25 62.5q0 30 12 53.5t33 40t48 25.5t57 9q54 0 94.5 -27t50.5 -75h21q-5 25 -19 47.5t-35.5 39t-50 26
t-61.5 9.5q-38 0 -69 -12t-53.5 -32t-35 -47t-12.5 -57q0 -45 25 -71t62.5 -43t81.5 -29.5t81.5 -30t62.5 -45.5t25 -75q0 -34 -13.5 -61t-36.5 -46t-53.5 -29t-64.5 -10q-30 0 -58.5 8t-51 23.5t-38 38t-20.5 50.5h-20z" />
    <glyph glyph-name="t" unicode="t" horiz-adv-x="543" 
d="M20 684q0 11 7 18.5t18 7.5h453q10 0 17.5 -7.5t7.5 -18.5v-94q0 -11 -7.5 -18.5t-17.5 -7.5h-133q-9 0 -15 -7t-6 -15v-517q0 -10 -7 -17.5t-18 -7.5h-95q-11 0 -18 7.5t-7 17.5v514q0 9 -6 17t-14 8h-134q-11 0 -18 7.5t-7 18.5v94zM281 50v577h192v20h-403v-20h191
v-577h20z" />
    <glyph glyph-name="u" unicode="u" horiz-adv-x="635" 
d="M175 710q11 0 18 -7t7 -19v-350q0 -52 4.5 -89.5t17.5 -62t36 -36t59 -11.5q37 0 60 11.5t36 36t17.5 62t4.5 89.5v350q0 12 7 19t18 7h95q11 0 18 -7t7 -19v-400q0 -145 -63 -219.5t-200 -74.5q-136 0 -199 75t-63 219v400q0 12 7 19t18 7h95zM137 324v336h-20v-336
q0 -63 9 -113t32 -85t61.5 -54t97.5 -19t97.5 19t61.5 54t32.5 85t9.5 113v336h-20v-336q0 -59 -8 -105.5t-28 -78.5t-55 -49.5t-90 -17.5t-90 17.5t-55 49.5t-27.5 78.5t-7.5 105.5z" />
    <glyph glyph-name="tbar" unicode="&#x167;" horiz-adv-x="563" 
d="M30 684q0 11 7 18.5t18 7.5h453q10 0 17.5 -7.5t7.5 -18.5v-94q0 -11 -7.5 -18.5t-17.5 -7.5h-133q-9 0 -15 -7t-6 -15v-22q0 -6 3.5 -10.5t14.5 -5.5h95q10 0 18 -7.5t8 -18.5v-94q0 -11 -8 -18.5t-18 -7.5h-91q-17 -2 -19.5 -8.5t-2.5 -16.5v-308q0 -10 -7 -17.5
t-18 -7.5h-95q-11 0 -18 7.5t-7 17.5v308q0 10 -2 16.5t-19 8.5h-92q-11 0 -18 7.5t-7 18.5v94q0 11 7 18.5t18 7.5h92q17 2 19 8.5t2 16.5v10q0 9 -6 17t-14 8h-134q-11 0 -18 7.5t-7 18.5v94zM291 50v373h152v20h-152v184h192v20h-403v-20h191v-184h-150v-20h150v-373h20z
" />
    <glyph glyph-name="uogonek" unicode="&#x173;" horiz-adv-x="635" 
d="M175 710q11 0 18 -7t7 -19v-350q0 -52 4.5 -89.5t17.5 -62t36 -36t59 -11.5q37 0 60 11.5t36 36t17.5 62t4.5 89.5v350q0 12 7 19t18 7h95q11 0 18 -7t7 -19v-400q0 -118 -41 -188t-130 -95q-27 -8 -39 -24q-13 -17 -16.5 -35t0.5 -32t14.5 -20.5t25.5 -1.5q11 4 20.5 0
t13.5 -14l24 -64q4 -9 0.5 -18t-14.5 -13q-37 -14 -69 -13.5t-58 11.5q-25 11 -41.5 32t-25 46.5t-9.5 53.5t6 54q5 17 -0.5 25.5t-26.5 15.5q-82 26 -120.5 96t-38.5 184v400q0 12 7 19t18 7h95zM137 324v336h-20v-336q0 -63 9 -113t32.5 -85t62.5 -54t99 -19
q-19 -38 -29 -82.5t-4 -80.5q8 -40 37.5 -60t76.5 -12l-8 19q-38 -5 -60 11t-27 48q-2 16 -0.5 36t6.5 41t12.5 42t17.5 39q51 4 85 24.5t54.5 55t28.5 83t8 107.5v336h-20v-336q0 -59 -8 -105.5t-28 -78.5t-55 -49.5t-90 -17.5t-90 17.5t-55 49.5t-27.5 78.5t-7.5 105.5z
" />
    <glyph glyph-name="v" unicode="v" horiz-adv-x="619" 
d="M450 693q5 14 17.5 15.5t22.5 1.5h91q13 0 16 -10.5t-1 -20.5l-233 -664q-2 -6 -9.5 -10.5t-15.5 -4.5h-57q-8 0 -16 5t-10 11l-233 663q-4 11 0.5 21t14.5 10h91q10 0 22.5 -1.5t17.5 -15.5l127 -354q3 -9 13.5 -11t14.5 9zM115 660h-21l204 -581h22l205 581h-21
l-195 -552z" />
    <glyph glyph-name="w" unicode="w" horiz-adv-x="902" 
d="M22 678q-3 11 2 21.5t16 10.5h102q13 0 18 -5t7 -10l99 -362q5 -20 15.5 -21t15.5 15l99 364q2 10 10 14.5t18 4.5h53q11 0 19 -5t10 -13l97 -361q3 -10 7.5 -14t9 -4t8.5 4t6 10l101 368q2 7 9 11t16 4h102q11 0 16 -10.5t2 -21.5l-180 -660q-2 -9 -11 -13.5t-18 -4.5
h-105q-9 0 -16 4t-10 15l-79 290q-2 8 -9.5 8.5t-10.5 -10.5l-79 -289q-2 -8 -10 -13t-18 -5h-104q-9 0 -17 5t-10 13zM810 660h-20l-163 -590h-15l-150 547l-22 -1l-150 -546h-15l-164 590h-20l169 -610h45l146 530l145 -530h45z" />
    <glyph glyph-name="x" unicode="x" horiz-adv-x="668" 
d="M321 505q5 -8 11.5 -10.5t11.5 5.5l120 190q9 15 17.5 17.5t19.5 2.5h108q11 0 16.5 -7.5t-1.5 -18.5l-196 -310q-12 -20 -3 -35l199 -314q6 -10 1 -17.5t-16 -7.5h-108q-11 0 -19 2.5t-18 17.5l-119 187q-11 17 -26 -6l-115 -181q-10 -15 -18 -17.5t-19 -2.5h-107
q-11 0 -16.5 7.5t0.5 17.5l197 312q5 9 5.5 17.5t-6.5 19.5l-196 310q-7 11 -1 18.5t17 7.5h107q11 0 19.5 -2.5t17.5 -17.5zM152 50l182 289l183 -289h23l-193 305l193 305h-23l-183 -289l-182 289h-23l192 -305l-192 -305h23z" />
    <glyph glyph-name="y" unicode="y" horiz-adv-x="554" 
d="M230 0q-11 0 -18 7.5t-7 17.5v248q0 12 -4.5 22t-9.5 22l-167 361q-5 11 -1.5 21.5t14.5 10.5h90q16 0 26 -2t15 -13l95 -201q6 -13 14 -13t11 6l98 208q5 11 15 13t26 2h90q11 0 14.5 -10.5t-1.5 -21.5l-166 -359q-5 -10 -9.5 -22.5t-4.5 -23.5v-248q0 -10 -7 -17.5
t-18 -7.5h-95zM267 50h20v247l168 363h-22l-156 -338l-156 338h-22l168 -363v-247z" />
    <glyph glyph-name="z" unicode="z" horiz-adv-x="552" 
d="M241 193q-14 -20 -14 -34t25 -14h235q10 0 17.5 -7t7.5 -18v-95q0 -11 -7.5 -18t-17.5 -7h-418q-11 0 -18 7t-7 18v105q0 10 4.5 20t11.5 20l250 347q13 19 13.5 33t-19.5 14h-239q-10 0 -17.5 7.5t-7.5 18.5v94q0 11 7.5 18.5t17.5 7.5h418q11 0 18 -7.5t7 -18.5v-104
q0 -10 -5 -20.5t-11 -19.5zM126 120l319 464v63h-355v-20h335v-37l-319 -463v-64h356v20h-336v37z" />
    <glyph glyph-name="hbar" unicode="&#x127;" horiz-adv-x="734" 
d="M211 710q11 0 18 -7t7 -19v-67q0 -9 6.5 -15t15.5 -6h218q10 0 16 7t6 18v63q0 12 7 19t18 7h95q11 0 18 -7t7 -19v-63q0 -11 6.5 -18t15.5 -7h14q10 0 17.5 -7.5t7.5 -18.5v-94q0 -11 -7.5 -18.5t-17.5 -7.5h-10q-11 0 -18.5 -7t-7.5 -18v-400q0 -10 -7 -17.5t-18 -7.5
h-95q-11 0 -18 7.5t-7 17.5v219q0 11 -6 18t-16 7h-215q-11 0 -18 -7t-7 -18v-219q0 -10 -7 -17.5t-18 -7.5h-95q-11 0 -18 7.5t-7 17.5v403q0 9 -6.5 15.5t-15.5 6.5h-14q-11 0 -18 7.5t-7 18.5v94q0 11 7 18.5t18 7.5h14q10 0 16 7t6 18v63q0 12 7 19t18 7h95zM255 450
q-19 0 -19 -12v-8q0 -7 2.5 -11.5t12.5 -4.5h232q9 0 12 4.5t3 11.5v5q0 7 -2.5 11t-12.5 4h-228zM79 513h74v-463h20v282h388v-282h20v463h73v20h-73v127h-20v-127h-388v127h-20v-127h-74v-20zM173 352v161h388v-161h-388z" />
    <glyph glyph-name="oslash" unicode="&#xf8;" 
d="M214 28q3 12 -7 19q-75 49 -121 129.5t-46 177.5q0 83 32.5 152.5t88 118.5t128.5 73.5t154 18.5q8 0 12 2t6 6l6 17q4 11 13.5 14.5t26.5 3.5h91q11 0 15.5 -10t-0.5 -21l-17 -48q-2 -8 0 -12.5t7 -8.5q37 -24 68 -57t52.5 -72.5t33.5 -84t12 -92.5q0 -81 -33 -150.5
t-89 -119t-129.5 -75t-154.5 -17.5q-10 -1 -16 -17l-3 -8q-4 -11 -13 -14.5t-27 -3.5h-91q-11 0 -15 10.5t0 21.5zM367 571q-43 -3 -77.5 -24.5t-58 -54.5t-35.5 -74t-10 -82.5t18 -79t49 -63.5q6 -5 13 -1t11 14l119 336q5 17 -4.5 23.5t-24.5 5.5zM443 138q43 2 77 24
t58 55t36 74.5t10.5 82.5t-18.5 78t-50 63q-7 5 -14 0t-11 -17l-114 -324q-5 -17 -0.5 -27.5t26.5 -8.5zM291 -1l24 68q45 -14 90 -14q63 0 117.5 23.5t95.5 64.5t64.5 95.5t23.5 117.5q0 48 -14 91.5t-39.5 80.5t-60.5 64.5t-77 44.5l26 75h-22l-24 -68q-44 14 -90 14
q-63 0 -117.5 -23.5t-95.5 -64.5t-64.5 -96t-23.5 -118q0 -48 14 -91.5t39.5 -80.5t60.5 -65t77 -44l-26 -74h22zM686 354q0 -59 -22 -110t-60 -89t-89.5 -60t-109.5 -22q-44 0 -83 12l187 531q39 -15 71.5 -41.5t56 -60.5t36.5 -74.5t13 -85.5zM124 354q0 58 22 109.5
t60 90t89 60.5t110 22q22 0 43 -3.5t41 -9.5l-187 -531q-39 15 -71.5 41t-56.5 60t-37 75t-13 86z" />
    <glyph glyph-name="scedilla" unicode="&#x15f;" horiz-adv-x="583" 
d="M352 -21q-3 -20 7 -20q13 0 29 -5t31 -14.5t28.5 -24.5t21.5 -35q30 -74 -13 -140t-152 -104q-24 -8 -32 14l-24 61q-5 11 -1 20t14 13q55 21 83 42.5t16 49.5q-6 14 -21 17.5t-33 1t-36.5 -8.5t-31.5 -11q-11 -4 -18 0.5t-7 14.5l15 133q0 11 -7 15q-39 9 -72 27.5
t-57 46.5t-38 64.5t-14 80.5q0 10 7 17.5t18 7.5h95q11 0 17 -7.5t8 -17.5q8 -43 34.5 -62.5t71.5 -19.5q52 0 79 21.5t27 61.5q0 36 -25 55.5t-62.5 32t-81 24t-81 32t-62.5 55.5t-25 95q0 56 22.5 95.5t57 64.5t75.5 36.5t77 11.5q39 0 79.5 -12t74 -37.5t55 -64.5
t21.5 -93q0 -10 -7 -17.5t-18 -7.5h-95q-11 0 -18 7.5t-7 17.5q0 14 -7.5 26t-19.5 21t-27 14t-30 5q-88 0 -88 -67q0 -24 25 -38.5t62.5 -27.5t81.5 -28t81.5 -40t62.5 -63t25 -97q0 -45 -14.5 -82t-39 -65t-57.5 -46t-70 -26q-7 -1 -9 -12zM104 192q5 -29 21 -54.5t40 -44
t55.5 -30t68.5 -11.5l-17 -159q52 9 89 0t48 -40q9 -23 2 -43.5t-23.5 -38.5t-40 -33.5t-48.5 -27.5l7 -19q26 12 52 28.5t44.5 37.5t27 46t-0.5 55q-6 18 -18.5 30.5t-30.5 20t-40 10t-45 -0.5l15 134q38 3 69 17.5t53.5 37t35 51t12.5 60.5q0 52 -25 83.5t-62.5 50.5
t-81.5 31.5t-81.5 28t-62.5 38t-25 62.5q0 30 12 53.5t33 40t48 25.5t57 9q54 0 94.5 -27t50.5 -75h21q-5 25 -19 47.5t-35.5 39t-50 26t-61.5 9.5q-38 0 -69 -12t-53.5 -32t-35 -47t-12.5 -57q0 -45 25 -71t62.5 -43t81.5 -29.5t81.5 -30t62.5 -45.5t25 -75
q0 -34 -13.5 -61t-36.5 -46t-53.5 -29t-64.5 -10q-30 0 -58.5 8t-51 23.5t-38 38t-20.5 50.5h-20z" />
    <glyph glyph-name="eth" unicode="&#xf0;" horiz-adv-x="744" 
d="M146 0q-11 0 -18 7.5t-7 17.5v228q0 7 -7 11.5t-14 4.5h-55q-11 0 -18 7t-7 18v95q0 11 7 18t18 7h57q6 0 12.5 3.5t6.5 10.5v256q0 12 7 19t18 7h203q76 0 141 -27t112.5 -75t74.5 -113t27 -141t-27 -140.5t-74.5 -112t-112.5 -74.5t-141 -27h-203zM70 329h116v-269h163
q80 0 136 26.5t91 68.5t51 94.5t16 104.5q0 48 -16 100.5t-51 95.5t-91 71t-136 28h-163v-300h-116v-20zM349 629q73 0 125 -25t85 -64.5t48.5 -88.5t15.5 -97t-15.5 -97t-48.5 -88.5t-85 -64t-125 -24.5h-143v249h180v20h-180v280h143zM349 145q48 0 87 16t66 44t41.5 66
t14.5 83t-14.5 83t-41.5 66.5t-66 44.5t-87 16h-62q-9 0 -15 -7t-6 -18v-99q0 -11 6 -18.5t14 -7.5h125q10 0 17.5 -7t7.5 -18v-95q0 -11 -7.5 -18t-17.5 -7h-124q-8 0 -14.5 -7t-6.5 -15v-76q0 -12 7 -19t18 -7h58z" />
    <glyph glyph-name="eng" unicode="&#x14b;" horiz-adv-x="650" 
d="M565 710q11 0 18 -7t7 -19v-662q0 -39 -10 -75t-30.5 -63.5t-53 -44.5t-78.5 -17q-31 0 -63 5.5t-58 19.5q-8 5 -11 15t0 21l22 69q3 11 14.5 15t19.5 -1q20 -11 39.5 -15t36.5 -4q29 2 33.5 24.5t-12.5 54.5l-209 350q-2 3 -6 4.5t-8.5 0t-7.5 -7t-3 -17.5v-331
q0 -10 -7 -17.5t-18 -7.5h-95q-11 0 -18 7.5t-7 17.5v659q0 12 7 19t18 7h95q13 0 24 -15l217 -362q3 -4 7 -6.5t7.5 -1t6.5 7t3 18.5v333q0 12 7 19t18 7h95zM152 660h-29v-610h20v587l364 -604v-33q0 -105 -89 -105q-14 0 -34 5t-39 11l-6 -20q20 -6 41 -11t38 -5
q60 0 84.5 32.5t24.5 92.5v660h-20v-587z" />
    <glyph glyph-name="thorn" unicode="&#xfe;" horiz-adv-x="606" 
d="M180 710q11 0 18 -7t7 -19v-79q0 -11 6 -18t16 -7h24q68 0 125.5 -12.5t99.5 -39.5t66 -70t24 -103q0 -61 -24 -103.5t-66 -69.5t-99.5 -39.5t-125.5 -12.5h-24q-9 0 -15.5 -6.5t-6.5 -16.5v-82q0 -10 -7 -17.5t-18 -7.5h-95q-11 0 -18 7.5t-7 17.5v659q0 12 7 19t18 7
h95zM227 435q-9 0 -15.5 -6.5t-6.5 -16.5v-112q0 -11 6 -18t16 -7h24q56 0 89.5 7t51 18.5t23 25.5t5.5 29q0 14 -5.5 28.5t-23 26t-51 18.5t-89.5 7h-24zM142 50v143h85q53 0 103 5.5t88.5 23t62 49t23.5 84.5q0 52 -23.5 84.5t-62.5 49.5t-89 23t-102 6h-85v142h-20v-610
h20zM142 213v285h85q52 0 99 -5.5t82 -21t55.5 -43.5t20.5 -73t-20.5 -73t-55.5 -43t-82 -20.5t-99 -5.5h-85z" />
    <glyph glyph-name="dotlessi" unicode="&#x131;" horiz-adv-x="225" 
d="M185 710q11 0 18 -7t7 -19v-659q0 -10 -7 -17.5t-18 -7.5h-95q-11 0 -18 7.5t-7 17.5v659q0 12 7 19t18 7h95zM147 50v610h-20v-610h20z" />
    <glyph glyph-name="kgreenlandic" unicode="&#x138;" horiz-adv-x="676" 
d="M524 0q-11 0 -17 7t-14 18l-187 249q-2 4 -12.5 4t-20.5 -13l-60 -80q-8 -11 -8 -28v-132q0 -10 -7 -17.5t-18 -7.5h-95q-11 0 -18 7.5t-7 17.5v659q0 12 7 19t18 7h95q11 0 18 -7t7 -19v-234q0 -18 10 -21t17 7l195 260q6 8 11.5 11t11.5 3h122q11 0 17 -8t-2 -18
l-201 -268q-4 -7 -2 -15t16 -26l262 -350q7 -10 1 -17.5t-17 -7.5h-122zM548 50h20l-265 353l192 257h-20l-332 -444v444h-20v-610h20v138l150 202z" />
    <glyph glyph-name="napostrophe" unicode="&#x149;" horiz-adv-x="766" 
d="M681 710q11 0 18 -7t7 -19v-659q0 -10 -7 -17.5t-18 -7.5h-90q-19 0 -27 12l-218 364q-2 3 -6 4.5t-8.5 0t-7.5 -7t-3 -17.5v-331q0 -10 -7 -17.5t-18 -7.5h-95q-11 0 -18 7.5t-7 17.5v659q0 12 7 19t18 7h95q13 0 24 -15l217 -362q3 -4 7 -6.5t7.5 -1t6.5 7t3 18.5v333
q0 12 7 19t18 7h95zM239 660v-610h20v587l354 -587h30v610h-20v-587l-355 587h-29zM150 666q9 -3 14 -12.5t0 -18.5l-92 -193q-5 -10 -14 -14t-18 -1l-34 12q-11 4 -14 12.5t-1 18.5l53 207q3 11 13 15t21 0zM89 645l-61 -169l18 -7l61 169z" />
    <glyph glyph-name="racute" unicode="&#x155;" horiz-adv-x="606" 
d="M225 179q-20 -7 -20 -23v-131q0 -10 -7 -17.5t-18 -7.5h-95q-11 0 -18 7.5t-7 17.5v659q0 12 7 19t18 7h166q75 0 134 -13t99 -43t61 -79t21 -121q0 -55 -29 -106.5t-74 -89.5q-16 -13 -20 -23.5t4 -30.5l84 -173q5 -12 3 -21.5t-19 -9.5h-106q-13 0 -19 5t-9 10l-85 163
q-2 5 -11 7t-20 1q-10 -1 -19 -2t-21 -5zM453 50l-106 212q31 11 59 28.5t49.5 41t34 53.5t12.5 67q0 63 -22.5 101.5t-58.5 59.5t-80.5 27.5t-89.5 6.5h-129v-597h20v190q69 0 113.5 4t71.5 12l103 -206h23zM251 627q45 0 86.5 -6.5t73.5 -25t51.5 -53t19.5 -90.5
q0 -33 -11.5 -60t-31 -48.5t-45.5 -37.5t-56 -26q-39 -12 -84 -16t-112 -4v367h109zM227 564q-9 0 -15.5 -6.5t-6.5 -15.5v-198q0 -11 5.5 -18t15.5 -7h25q37 0 68 9.5t53.5 26.5t35 39t12.5 48q0 37 -12.5 61t-35 37.5t-53.5 18.5t-68 5h-24zM407 922q8 -7 8 -17t-8 -18
l-165 -136q-7 -7 -17.5 -7.5t-18.5 7.5l-30 30q-8 8 -7.5 18t7.5 18l136 165q8 8 18.5 8t18.5 -8zM341 930l-127 -127l14 -14l127 127z" />
    <glyph glyph-name="rcaron" unicode="&#x159;" horiz-adv-x="606" 
d="M225 179q-20 -7 -20 -23v-131q0 -10 -7 -17.5t-18 -7.5h-95q-11 0 -18 7.5t-7 17.5v659q0 12 7 19t18 7h166q75 0 134 -13t99 -43t61 -79t21 -121q0 -55 -29 -106.5t-74 -89.5q-16 -13 -20 -23.5t4 -30.5l84 -173q5 -12 3 -21.5t-19 -9.5h-106q-13 0 -19 5t-9 10l-85 163
q-2 5 -11 7t-20 1q-10 -1 -19 -2t-21 -5zM453 50l-106 212q31 11 59 28.5t49.5 41t34 53.5t12.5 67q0 63 -22.5 101.5t-58.5 59.5t-80.5 27.5t-89.5 6.5h-129v-597h20v190q69 0 113.5 4t71.5 12l103 -206h23zM251 627q45 0 86.5 -6.5t73.5 -25t51.5 -53t19.5 -90.5
q0 -33 -11.5 -60t-31 -48.5t-45.5 -37.5t-56 -26q-39 -12 -84 -16t-112 -4v367h109zM227 564q-9 0 -15.5 -6.5t-6.5 -15.5v-198q0 -11 5.5 -18t15.5 -7h25q37 0 68 9.5t53.5 26.5t35 39t12.5 48q0 37 -12.5 61t-35 37.5t-53.5 18.5t-68 5h-24zM284 958q5 11 12.5 15.5
t18.5 4.5h82q11 0 18 -4.5t1 -15.5l-96 -180q-9 -17 -21 -17h-57q-6 0 -10.5 5t-8.5 12l-97 180q-6 11 1 15.5t18 4.5h82q21 0 32 -20l6 -11q3 -6 7 -5.5t7 6.5zM325 933l-54 -100l-54 100h-23l65 -121h23l65 121h-22z" />
    <glyph glyph-name="rcommaaccent" unicode="&#x157;" horiz-adv-x="606" 
d="M225 179q-20 -7 -20 -23v-131q0 -10 -7 -17.5t-18 -7.5h-95q-11 0 -18 7.5t-7 17.5v659q0 12 7 19t18 7h166q75 0 134 -13t99 -43t61 -79t21 -121q0 -55 -29 -106.5t-74 -89.5q-16 -13 -20 -23.5t4 -30.5l84 -173q5 -12 3 -21.5t-19 -9.5h-106q-13 0 -19 5t-9 10l-85 163
q-2 5 -11 7t-20 1q-10 -1 -19 -2t-21 -5zM453 50l-106 212q31 11 59 28.5t49.5 41t34 53.5t12.5 67q0 63 -22.5 101.5t-58.5 59.5t-80.5 27.5t-89.5 6.5h-129v-597h20v190q69 0 113.5 4t71.5 12l103 -206h23zM251 627q45 0 86.5 -6.5t73.5 -25t51.5 -53t19.5 -90.5
q0 -33 -11.5 -60t-31 -48.5t-45.5 -37.5t-56 -26q-39 -12 -84 -16t-112 -4v367h109zM227 564q-9 0 -15.5 -6.5t-6.5 -15.5v-198q0 -11 5.5 -18t15.5 -7h25q37 0 68 9.5t53.5 26.5t35 39t12.5 48q0 37 -12.5 61t-35 37.5t-53.5 18.5t-68 5h-24zM374 -65q9 -3 14 -12.5
t0 -18.5l-92 -193q-5 -10 -14 -14t-18 -1l-34 12q-11 4 -14 12.5t-1 18.5l53 207q3 11 13 15t21 0zM313 -86l-61 -169l18 -7l61 169z" />
    <glyph glyph-name="scaron" unicode="&#x161;" horiz-adv-x="583" 
d="M377 513q-2 18 -10 30.5t-19.5 20.5t-25.5 11.5t-29 3.5q-88 0 -88 -67q0 -24 25 -38.5t62.5 -27.5t81.5 -28t81.5 -40t62.5 -63t25 -97q0 -56 -21.5 -98.5t-57 -71.5t-81 -43.5t-93.5 -14.5q-50 0 -95.5 15.5t-80 44.5t-54.5 71t-20 96q0 10 7 17.5t18 7.5h95
q11 0 17 -7.5t8 -17.5q8 -43 34.5 -62.5t71.5 -19.5q52 0 79 21.5t27 61.5q0 36 -25 55.5t-62.5 32t-81 24t-81 32t-62.5 55.5t-25 95q0 56 22.5 95.5t57 64.5t75.5 36.5t77 11.5q39 0 79.5 -12t74 -37.5t55 -64.5t21.5 -93q0 -10 -7 -17.5t-18 -7.5h-95q-11 0 -17.5 7.5
t-7.5 17.5zM104 192q5 -29 21 -54.5t41 -44.5t57 -30t69 -11q41 0 75.5 13.5t59.5 36t39 52.5t14 64q0 52 -25 83.5t-62.5 50.5t-81.5 31.5t-81.5 28t-62.5 38t-25 62.5q0 30 12 53.5t33 40t48 25.5t57 9q54 0 94.5 -27t50.5 -75h21q-5 25 -19 47.5t-35.5 39t-50 26
t-61.5 9.5q-38 0 -69 -12t-53.5 -32t-35 -47t-12.5 -57q0 -45 25 -71t62.5 -43t81.5 -29.5t81.5 -30t62.5 -45.5t25 -75q0 -34 -13.5 -61t-36.5 -46t-53.5 -29t-64.5 -10q-30 0 -58.5 8t-51 23.5t-38 38t-20.5 50.5h-20zM304 959q5 11 12.5 15.5t18.5 4.5h82q11 0 18 -4.5
t1 -15.5l-96 -180q-9 -17 -21 -17h-57q-6 0 -10.5 5t-8.5 12l-97 180q-6 11 1 15.5t18 4.5h82q21 0 32 -20l6 -11q3 -6 7 -5.5t7 6.5zM345 934l-54 -100l-54 100h-23l65 -121h23l65 121h-22z" />
    <glyph glyph-name="scircumflex" unicode="&#x15d;" horiz-adv-x="583" 
d="M377 513q-2 18 -10 30.5t-19.5 20.5t-25.5 11.5t-29 3.5q-88 0 -88 -67q0 -24 25 -38.5t62.5 -27.5t81.5 -28t81.5 -40t62.5 -63t25 -97q0 -56 -21.5 -98.5t-57 -71.5t-81 -43.5t-93.5 -14.5q-50 0 -95.5 15.5t-80 44.5t-54.5 71t-20 96q0 10 7 17.5t18 7.5h95
q11 0 17 -7.5t8 -17.5q8 -43 34.5 -62.5t71.5 -19.5q52 0 79 21.5t27 61.5q0 36 -25 55.5t-62.5 32t-81 24t-81 32t-62.5 55.5t-25 95q0 56 22.5 95.5t57 64.5t75.5 36.5t77 11.5q39 0 79.5 -12t74 -37.5t55 -64.5t21.5 -93q0 -10 -7 -17.5t-18 -7.5h-95q-11 0 -17.5 7.5
t-7.5 17.5zM104 192q5 -29 21 -54.5t41 -44.5t57 -30t69 -11q41 0 75.5 13.5t59.5 36t39 52.5t14 64q0 52 -25 83.5t-62.5 50.5t-81.5 31.5t-81.5 28t-62.5 38t-25 62.5q0 30 12 53.5t33 40t48 25.5t57 9q54 0 94.5 -27t50.5 -75h21q-5 25 -19 47.5t-35.5 39t-50 26
t-61.5 9.5q-38 0 -69 -12t-53.5 -32t-35 -47t-12.5 -57q0 -45 25 -71t62.5 -43t81.5 -29.5t81.5 -30t62.5 -45.5t25 -75q0 -34 -13.5 -61t-36.5 -46t-53.5 -29t-64.5 -10q-30 0 -58.5 8t-51 23.5t-38 38t-20.5 50.5h-20zM319 979q12 0 21 -17l96 -180q6 -11 -1 -15.5
t-18 -4.5h-82q-11 0 -18.5 4.5t-12.5 15.5l-5 10q-7 14 -14 1l-6 -11q-11 -20 -32 -20h-82q-11 0 -18 4.5t-1 15.5l97 180q4 7 8.5 12t10.5 5h57zM367 807l-65 121h-23l-65 -121h23l54 100l54 -100h22z" />
    <glyph glyph-name="scommaaccent" unicode="&#x219;" horiz-adv-x="583" 
d="M377 513q-2 18 -10 30.5t-19.5 20.5t-25.5 11.5t-29 3.5q-88 0 -88 -67q0 -24 25 -38.5t62.5 -27.5t81.5 -28t81.5 -40t62.5 -63t25 -97q0 -56 -21.5 -98.5t-57 -71.5t-81 -43.5t-93.5 -14.5q-50 0 -95.5 15.5t-80 44.5t-54.5 71t-20 96q0 10 7 17.5t18 7.5h95
q11 0 17 -7.5t8 -17.5q8 -43 34.5 -62.5t71.5 -19.5q52 0 79 21.5t27 61.5q0 36 -25 55.5t-62.5 32t-81 24t-81 32t-62.5 55.5t-25 95q0 56 22.5 95.5t57 64.5t75.5 36.5t77 11.5q39 0 79.5 -12t74 -37.5t55 -64.5t21.5 -93q0 -10 -7 -17.5t-18 -7.5h-95q-11 0 -17.5 7.5
t-7.5 17.5zM104 192q5 -29 21 -54.5t41 -44.5t57 -30t69 -11q41 0 75.5 13.5t59.5 36t39 52.5t14 64q0 52 -25 83.5t-62.5 50.5t-81.5 31.5t-81.5 28t-62.5 38t-25 62.5q0 30 12 53.5t33 40t48 25.5t57 9q54 0 94.5 -27t50.5 -75h21q-5 25 -19 47.5t-35.5 39t-50 26
t-61.5 9.5q-38 0 -69 -12t-53.5 -32t-35 -47t-12.5 -57q0 -45 25 -71t62.5 -43t81.5 -29.5t81.5 -30t62.5 -45.5t25 -75q0 -34 -13.5 -61t-36.5 -46t-53.5 -29t-64.5 -10q-30 0 -58.5 8t-51 23.5t-38 38t-20.5 50.5h-20zM363 -65q9 -3 14 -12.5t0 -18.5l-92 -193
q-5 -10 -14 -14t-18 -1l-34 12q-11 4 -14 12.5t-1 18.5l53 207q3 11 13 15t21 0zM302 -86l-61 -169l18 -7l61 169z" />
    <glyph glyph-name="tcaron" unicode="&#x165;" horiz-adv-x="543" 
d="M20 684q0 11 7 18.5t18 7.5h453q10 0 17.5 -7.5t7.5 -18.5v-94q0 -11 -7.5 -18.5t-17.5 -7.5h-133q-9 0 -15 -7t-6 -15v-517q0 -10 -7 -17.5t-18 -7.5h-95q-11 0 -18 7.5t-7 17.5v514q0 9 -6 17t-14 8h-134q-11 0 -18 7.5t-7 18.5v94zM281 50v577h192v20h-403v-20h191
v-577h20zM284 959q5 11 12.5 15.5t18.5 4.5h82q11 0 18 -4.5t1 -15.5l-96 -180q-9 -17 -21 -17h-57q-6 0 -10.5 5t-8.5 12l-97 180q-6 11 1 15.5t18 4.5h82q21 0 32 -20l6 -11q3 -6 7 -5.5t7 6.5zM325 934l-54 -100l-54 100h-23l65 -121h23l65 121h-22z" />
    <glyph glyph-name="uacute" unicode="&#xfa;" horiz-adv-x="635" 
d="M175 710q11 0 18 -7t7 -19v-350q0 -52 4.5 -89.5t17.5 -62t36 -36t59 -11.5q37 0 60 11.5t36 36t17.5 62t4.5 89.5v350q0 12 7 19t18 7h95q11 0 18 -7t7 -19v-400q0 -145 -63 -219.5t-200 -74.5q-136 0 -199 75t-63 219v400q0 12 7 19t18 7h95zM137 324v336h-20v-336
q0 -63 9 -113t32 -85t61.5 -54t97.5 -19t97.5 19t61.5 54t32.5 85t9.5 113v336h-20v-336q0 -59 -8 -105.5t-28 -78.5t-55 -49.5t-90 -17.5t-90 17.5t-55 49.5t-27.5 78.5t-7.5 105.5zM433 923q8 -7 8 -17t-8 -18l-165 -136q-7 -7 -17.5 -7.5t-18.5 7.5l-30 30q-8 8 -7.5 18
t7.5 18l136 165q8 8 18.5 8t18.5 -8zM367 931l-127 -127l14 -14l127 127z" />
    <glyph glyph-name="ubreve" unicode="&#x16d;" horiz-adv-x="635" 
d="M175 710q11 0 18 -7t7 -19v-350q0 -52 4.5 -89.5t17.5 -62t36 -36t59 -11.5q37 0 60 11.5t36 36t17.5 62t4.5 89.5v350q0 12 7 19t18 7h95q11 0 18 -7t7 -19v-400q0 -145 -63 -219.5t-200 -74.5q-136 0 -199 75t-63 219v400q0 12 7 19t18 7h95zM137 324v336h-20v-336
q0 -63 9 -113t32 -85t61.5 -54t97.5 -19t97.5 19t61.5 54t32.5 85t9.5 113v336h-20v-336q0 -59 -8 -105.5t-28 -78.5t-55 -49.5t-90 -17.5t-90 17.5t-55 49.5t-27.5 78.5t-7.5 105.5zM255 949q11 0 18 -7t7 -18q0 -21 11.5 -28.5t24.5 -7.5q14 0 25.5 7.5t11.5 28.5
q0 11 7.5 18t18.5 7h74q11 0 18.5 -7t7.5 -18q0 -34 -12.5 -63.5t-34.5 -51t-52 -34t-64 -12.5t-63.5 12.5t-51 34t-34 51t-12.5 63.5q0 11 7 18t18 7h75zM207 904q6 -41 35 -65.5t74 -24.5t74 24.5t35 65.5h-22q-14 -70 -87 -70t-87 70h-22z" />
    <glyph glyph-name="ucircumflex" unicode="&#xfb;" horiz-adv-x="635" 
d="M175 710q11 0 18 -7t7 -19v-350q0 -52 4.5 -89.5t17.5 -62t36 -36t59 -11.5q37 0 60 11.5t36 36t17.5 62t4.5 89.5v350q0 12 7 19t18 7h95q11 0 18 -7t7 -19v-400q0 -145 -63 -219.5t-200 -74.5q-136 0 -199 75t-63 219v400q0 12 7 19t18 7h95zM137 324v336h-20v-336
q0 -63 9 -113t32 -85t61.5 -54t97.5 -19t97.5 19t61.5 54t32.5 85t9.5 113v336h-20v-336q0 -59 -8 -105.5t-28 -78.5t-55 -49.5t-90 -17.5t-90 17.5t-55 49.5t-27.5 78.5t-7.5 105.5zM345 979q12 0 21 -17l96 -180q6 -11 -1 -15.5t-18 -4.5h-82q-11 0 -18.5 4.5t-12.5 15.5
l-5 10q-7 14 -14 1l-6 -11q-11 -20 -32 -20h-82q-11 0 -18 4.5t-1 15.5l97 180q4 7 8.5 12t10.5 5h57zM393 807l-65 121h-23l-65 -121h23l54 100l54 -100h22z" />
    <glyph glyph-name="udieresis" unicode="&#xfc;" horiz-adv-x="635" 
d="M175 710q11 0 18 -7t7 -19v-350q0 -52 4.5 -89.5t17.5 -62t36 -36t59 -11.5q37 0 60 11.5t36 36t17.5 62t4.5 89.5v350q0 12 7 19t18 7h95q11 0 18 -7t7 -19v-400q0 -145 -63 -219.5t-200 -74.5q-136 0 -199 75t-63 219v400q0 12 7 19t18 7h95zM137 324v336h-20v-336
q0 -63 9 -113t32 -85t61.5 -54t97.5 -19t97.5 19t61.5 54t32.5 85t9.5 113v336h-20v-336q0 -59 -8 -105.5t-28 -78.5t-55 -49.5t-90 -17.5t-90 17.5t-55 49.5t-27.5 78.5t-7.5 105.5zM182 850q0 26 18 44t45 18q26 0 44 -18t18 -44t-18 -45t-44 -19q-27 0 -45 19t-18 45z
M328 850q0 26 18 44t45 18q26 0 44 -18t18 -44t-18 -45t-44 -19q-27 0 -45 19t-18 45zM233 850q0 -5 3.5 -8.5t8.5 -3.5t8.5 3.5t3.5 8.5t-3.5 8.5t-8.5 3.5t-8.5 -3.5t-3.5 -8.5zM379 850q0 -5 3.5 -8.5t8.5 -3.5t8.5 3.5t3.5 8.5t-3.5 8.5t-8.5 3.5t-8.5 -3.5t-3.5 -8.5z
" />
    <glyph glyph-name="uhungarumlaut" unicode="&#x171;" horiz-adv-x="635" 
d="M175 710q11 0 18 -7t7 -19v-350q0 -52 4.5 -89.5t17.5 -62t36 -36t59 -11.5q37 0 60 11.5t36 36t17.5 62t4.5 89.5v350q0 12 7 19t18 7h95q11 0 18 -7t7 -19v-400q0 -145 -63 -219.5t-200 -74.5q-136 0 -199 75t-63 219v400q0 12 7 19t18 7h95zM137 324v336h-20v-336
q0 -63 9 -113t32 -85t61.5 -54t97.5 -19t97.5 19t61.5 54t32.5 85t9.5 113v336h-20v-336q0 -59 -8 -105.5t-28 -78.5t-55 -49.5t-90 -17.5t-90 17.5t-55 49.5t-27.5 78.5t-7.5 105.5zM344 1002q9 -3 14 -12.5t0 -18.5l-92 -193q-5 -10 -14 -14t-18 -1l-34 12q-11 4 -14 12.5
t-1 18.5l53 207q3 11 13 15t21 0zM493 994q9 -3 14 -12.5t0 -18.5l-92 -193q-5 -10 -14 -14.5t-19 -0.5l-33 13q-11 4 -14 12.5t-1 18.5l53 207q3 11 13 15t21 0zM283 981l-61 -169l18 -7l61 169zM433 974l-61 -169l18 -7l61 169z" />
    <glyph glyph-name="ugrave" unicode="&#xf9;" horiz-adv-x="635" 
d="M175 710q11 0 18 -7t7 -19v-350q0 -52 4.5 -89.5t17.5 -62t36 -36t59 -11.5q37 0 60 11.5t36 36t17.5 62t4.5 89.5v350q0 12 7 19t18 7h95q11 0 18 -7t7 -19v-400q0 -145 -63 -219.5t-200 -74.5q-136 0 -199 75t-63 219v400q0 12 7 19t18 7h95zM137 324v336h-20v-336
q0 -63 9 -113t32 -85t61.5 -54t97.5 -19t97.5 19t61.5 54t32.5 85t9.5 113v336h-20v-336q0 -59 -8 -105.5t-28 -78.5t-55 -49.5t-90 -17.5t-90 17.5t-55 49.5t-27.5 78.5t-7.5 105.5zM260 993q8 8 18.5 8t18.5 -8l136 -165q7 -8 7.5 -18t-7.5 -18l-30 -30q-8 -8 -18.5 -7.5
t-17.5 7.5l-165 136q-8 8 -8 18t8 17zM254 927l127 -127l14 14l-127 127z" />
    <glyph glyph-name="umacron" unicode="&#x16b;" horiz-adv-x="635" 
d="M175 710q11 0 18 -7t7 -19v-350q0 -52 4.5 -89.5t17.5 -62t36 -36t59 -11.5q37 0 60 11.5t36 36t17.5 62t4.5 89.5v350q0 12 7 19t18 7h95q11 0 18 -7t7 -19v-400q0 -145 -63 -219.5t-200 -74.5q-136 0 -199 75t-63 219v400q0 12 7 19t18 7h95zM137 324v336h-20v-336
q0 -63 9 -113t32 -85t61.5 -54t97.5 -19t97.5 19t61.5 54t32.5 85t9.5 113v336h-20v-336q0 -59 -8 -105.5t-28 -78.5t-55 -49.5t-90 -17.5t-90 17.5t-55 49.5t-27.5 78.5t-7.5 105.5zM176 892q0 11 7 18.5t18 7.5h232q10 0 17.5 -7.5t7.5 -18.5v-64q0 -11 -7.5 -18.5
t-17.5 -7.5h-232q-11 0 -18 7.5t-7 18.5v64zM226 850h182v20h-182v-20z" />
    <glyph glyph-name="uring" unicode="&#x16f;" horiz-adv-x="635" 
d="M175 710q11 0 18 -7t7 -19v-350q0 -52 4.5 -89.5t17.5 -62t36 -36t59 -11.5q37 0 60 11.5t36 36t17.5 62t4.5 89.5v350q0 12 7 19t18 7h95q11 0 18 -7t7 -19v-400q0 -145 -63 -219.5t-200 -74.5q-136 0 -199 75t-63 219v400q0 12 7 19t18 7h95zM137 324v336h-20v-336
q0 -63 9 -113t32 -85t61.5 -54t97.5 -19t97.5 19t61.5 54t32.5 85t9.5 113v336h-20v-336q0 -59 -8 -105.5t-28 -78.5t-55 -49.5t-90 -17.5t-90 17.5t-55 49.5t-27.5 78.5t-7.5 105.5zM167 899q0 31 12 58t32 47.5t47.5 32t58.5 11.5t58.5 -11.5t47.5 -32t32 -47.5t12 -58
q0 -32 -12 -59.5t-32 -47.5t-47.5 -32t-58.5 -12t-58.5 12t-47.5 32t-32 47.5t-12 59.5zM292 899q0 -11 7.5 -18.5t18.5 -7.5q10 0 17 7.5t7 18.5t-7 17.5t-17 6.5q-11 0 -18.5 -6.5t-7.5 -17.5zM219 899q0 -45 27 -72t71 -27t71 27t27 72q0 44 -27 70.5t-71 26.5t-71 -26.5
t-27 -70.5zM239 899q0 36 21 56.5t57 20.5t57 -20.5t21 -56.5q0 -37 -21 -58t-57 -21t-57 21t-21 58z" />
    <glyph glyph-name="utilde" unicode="&#x169;" horiz-adv-x="635" 
d="M175 710q11 0 18 -7t7 -19v-350q0 -52 4.5 -89.5t17.5 -62t36 -36t59 -11.5q37 0 60 11.5t36 36t17.5 62t4.5 89.5v350q0 12 7 19t18 7h95q11 0 18 -7t7 -19v-400q0 -145 -63 -219.5t-200 -74.5q-136 0 -199 75t-63 219v400q0 12 7 19t18 7h95zM137 324v336h-20v-336
q0 -63 9 -113t32 -85t61.5 -54t97.5 -19t97.5 19t61.5 54t32.5 85t9.5 113v336h-20v-336q0 -59 -8 -105.5t-28 -78.5t-55 -49.5t-90 -17.5t-90 17.5t-55 49.5t-27.5 78.5t-7.5 105.5zM490 846q-42 -64 -84.5 -88.5t-89.5 8.5q-15 11 -24.5 18t-17.5 7.5t-16 -6.5t-20 -25
q-5 -8 -16 -11.5t-19 3.5l-50 37q-8 8 -10.5 17.5t3.5 17.5l16 20q18 25 35 43t35 27t39 7t46 -17l25.5 -17t19 -8t16.5 6t20 25q7 8 17.5 11.5t19.5 -3.5l47 -37q10 -8 11.5 -17.5t-3.5 -17.5zM427 871q-15 -17 -29.5 -30.5t-27.5 -15.5q-12 -1 -24.5 6t-25.5 15.5
t-26.5 15.5t-28.5 6q-17 -1 -37 -18t-37 -37l16 -12q15 18 30.5 32.5t27.5 14.5q11 0 22.5 -7t24 -15.5t27.5 -15t33 -5.5q17 1 35.5 17.5t35.5 35.5z" />
    <glyph glyph-name="zacute" unicode="&#x17a;" horiz-adv-x="552" 
d="M241 193q-14 -20 -14 -34t25 -14h235q10 0 17.5 -7t7.5 -18v-95q0 -11 -7.5 -18t-17.5 -7h-418q-11 0 -18 7t-7 18v105q0 10 4.5 20t11.5 20l250 347q13 19 13.5 33t-19.5 14h-239q-10 0 -17.5 7.5t-7.5 18.5v94q0 11 7.5 18.5t17.5 7.5h418q11 0 18 -7.5t7 -18.5v-104
q0 -10 -5 -20.5t-11 -19.5zM126 120l319 464v63h-355v-20h335v-37l-319 -463v-64h356v20h-336v37zM391 923q8 -7 8 -17t-8 -18l-165 -136q-7 -7 -17.5 -7.5t-18.5 7.5l-30 30q-8 8 -7.5 18t7.5 18l136 165q8 8 18.5 8t18.5 -8zM325 931l-127 -127l14 -14l127 127z" />
    <glyph glyph-name="zcaron" unicode="&#x17e;" horiz-adv-x="552" 
d="M241 193q-14 -20 -14 -34t25 -14h235q10 0 17.5 -7t7.5 -18v-95q0 -11 -7.5 -18t-17.5 -7h-418q-11 0 -18 7t-7 18v105q0 10 4.5 20t11.5 20l250 347q13 19 13.5 33t-19.5 14h-239q-10 0 -17.5 7.5t-7.5 18.5v94q0 11 7.5 18.5t17.5 7.5h418q11 0 18 -7.5t7 -18.5v-104
q0 -10 -5 -20.5t-11 -19.5zM126 120l319 464v63h-355v-20h335v-37l-319 -463v-64h356v20h-336v37zM289 959q5 11 12.5 15.5t18.5 4.5h82q11 0 18 -4.5t1 -15.5l-96 -180q-9 -17 -21 -17h-57q-6 0 -10.5 5t-8.5 12l-97 180q-6 11 1 15.5t18 4.5h82q21 0 32 -20l6 -11
q3 -6 7 -5.5t7 6.5zM330 934l-54 -100l-54 100h-23l65 -121h23l65 121h-22z" />
    <glyph glyph-name="zdotaccent" unicode="&#x17c;" horiz-adv-x="552" 
d="M241 193q-14 -20 -14 -34t25 -14h235q10 0 17.5 -7t7.5 -18v-95q0 -11 -7.5 -18t-17.5 -7h-418q-11 0 -18 7t-7 18v105q0 10 4.5 20t11.5 20l250 347q13 19 13.5 33t-19.5 14h-239q-10 0 -17.5 7.5t-7.5 18.5v94q0 11 7.5 18.5t17.5 7.5h418q11 0 18 -7.5t7 -18.5v-104
q0 -10 -5 -20.5t-11 -19.5zM126 120l319 464v63h-355v-20h335v-37l-319 -463v-64h356v20h-336v37zM213 850q0 26 18 44t45 18q26 0 44 -18t18 -44t-18 -45t-44 -19q-27 0 -45 19t-18 45zM264 850q0 -5 3.5 -8.5t8.5 -3.5t8.5 3.5t3.5 8.5t-3.5 8.5t-8.5 3.5t-8.5 -3.5
t-3.5 -8.5z" />
    <glyph glyph-name="alpha" unicode="&#x3b1;" horiz-adv-x="619" 
d="M490 0q-10 0 -22.5 1.5t-17.5 15.5l-36 102q-4 11 -10.5 17.5t-17.5 6.5h-158q-9 0 -15.5 -7t-8.5 -13l-36 -106q-5 -14 -17.5 -15.5t-22.5 -1.5h-91q-10 0 -14.5 10t-0.5 21l233 663q2 6 10 11t16 5h57q8 0 15.5 -4.5t9.5 -10.5l233 -664q4 -10 1 -20.5t-16 -10.5h-91z
M273 308q-2 -7 1 -13t20 -6h37q14 0 15.5 5.5t-0.5 11.5l-23 67q-4 11 -14.5 9t-13.5 -11zM319 633h-22l-204 -581h21l57 163h274l58 -163h21zM308 604l130 -369h-260z" />
    <glyph glyph-name="alphatonos" unicode="&#x3ac;" horiz-adv-x="639" 
d="M509 0q-10 0 -22.5 1.5t-17.5 15.5l-36 102q-4 11 -10.5 17.5t-17.5 6.5h-158q-9 0 -15.5 -7t-8.5 -13l-36 -106q-5 -14 -17.5 -15.5t-22.5 -1.5h-91q-10 0 -14.5 10t-0.5 21l233 663q2 6 10 11t16 5h57q8 0 15.5 -4.5t9.5 -10.5l233 -664q4 -10 1 -20.5t-16 -10.5h-91z
M292 308q-2 -7 1 -13t20 -6h37q14 0 15.5 5.5t-0.5 11.5l-23 67q-4 11 -14.5 9t-13.5 -11zM338 633h-22l-204 -581h21l57 163h274l58 -163h21zM327 604l130 -369h-260zM190 682q9 -3 13 -12t1 -19l-92 -193q-5 -10 -14 -14.5t-18 -0.5l-34 12q-11 3 -14 12t-1 19l53 207
q12 23 34 15zM129 660l-61 -169l18 -7l61 169z" />
    <glyph glyph-name="beta" unicode="&#x3b2;" horiz-adv-x="585" 
d="M85 0q-11 0 -18 7t-7 18v659q0 11 7 18.5t18 7.5h146q77 0 131 -13.5t88 -39.5t49.5 -63t15.5 -85q0 -40 -12.5 -71.5t-32.5 -58.5q-6 -8 -4 -14.5t10 -12.5q69 -56 69 -151q0 -48 -15.5 -85t-49.5 -63t-88 -39.5t-131 -13.5h-176zM226 282q-9 0 -15 -6.5t-6 -15.5v-89
q0 -11 5.5 -18.5t14.5 -7.5h36q75 0 107 18t32 50q0 31 -32 50t-107 19h-35zM226 564q-10 0 -15.5 -7.5t-5.5 -17.5v-90q0 -9 6 -15t15 -6q79 0 111.5 18.5t32.5 49.5q0 32 -32 50t-107 18h-5zM271 63q41 0 79 6.5t67.5 23t47 45.5t17.5 75q0 31 -10.5 56t-29 43.5
t-43.5 30.5t-54 17q48 14 77.5 46t29.5 90q0 46 -17.5 75t-46 46t-66.5 23.5t-78 6.5h-122v-584h149zM261 346q34 0 69.5 -5t64.5 -19.5t48 -40.5t19 -68q0 -46 -19 -72t-48 -39t-64.5 -16t-69.5 -3h-119v263h119zM142 366v261h82q37 -1 74 -4.5t67 -16t48.5 -38.5t18.5 -72
q0 -42 -18 -67.5t-47.5 -39.5t-66.5 -18.5t-75 -4.5h-83z" />
    <glyph glyph-name="gamma" unicode="&#x3b3;" horiz-adv-x="532" 
d="M487 710q10 0 17.5 -7.5t7.5 -18.5v-94q0 -11 -7.5 -18.5t-17.5 -7.5h-262q-8 0 -14 -7t-6 -15v-517q0 -10 -7 -17.5t-18 -7.5h-95q-11 0 -18 7.5t-7 17.5v659q0 12 7 19t18 7h402zM142 50v577h320v20h-340v-597h20z" />
    <glyph glyph-name="delta" unicode="&#x3b4;" horiz-adv-x="618" 
d="M37 0q-11 0 -15 10t0 21l233 664q3 8 12.5 11.5t19.5 3.5h44q11 0 20 -3.5t12 -11.5l233 -664q4 -11 0 -21t-15 -10h-544zM98 62h423l-201 569h-22zM309 602l183 -520h-366zM323 373q-2 7 -12.5 8.5t-15.5 -11.5l-71 -198q-9 -27 20 -27h126q13 0 20.5 8.5t2.5 22.5z" />
    <glyph glyph-name="epsilon" unicode="&#x3b5;" horiz-adv-x="572" 
d="M487 710q10 0 17.5 -7.5t7.5 -18.5v-94q0 -11 -7.5 -18.5t-17.5 -7.5h-262q-9 0 -14.5 -8t-5.5 -17v-99q0 -11 5.5 -18.5t14.5 -7.5h262q10 0 17.5 -7t7.5 -18v-95q0 -11 -7.5 -18t-17.5 -7h-262q-8 0 -14 -6.5t-6 -15.5v-80q0 -10 6.5 -16t14.5 -6h261q10 0 17.5 -7
t7.5 -18v-95q0 -11 -7.5 -18t-17.5 -7h-402q-11 0 -18 7.5t-7 17.5v659q0 12 7 19t18 7h402zM462 65v20h-320v249h320v20h-320v275h320v20h-340v-584h340z" />
    <glyph glyph-name="epsilontonos" unicode="&#x3ad;" horiz-adv-x="740" 
d="M655 710q10 0 17.5 -7.5t7.5 -18.5v-94q0 -11 -7.5 -18.5t-17.5 -7.5h-262q-9 0 -14.5 -8t-5.5 -17v-99q0 -11 5.5 -18.5t14.5 -7.5h262q10 0 17.5 -7t7.5 -18v-95q0 -11 -7.5 -18t-17.5 -7h-262q-8 0 -14 -6.5t-6 -15.5v-80q0 -10 6.5 -16t14.5 -6h261q10 0 17.5 -7
t7.5 -18v-95q0 -11 -7.5 -18t-17.5 -7h-402q-11 0 -18 7.5t-7 17.5v659q0 12 7 19t18 7h402zM630 65v20h-320v249h320v20h-320v275h320v20h-340v-584h340zM180 680q9 -3 13 -12t1 -19l-92 -193q-5 -10 -14 -14.5t-18 -0.5l-34 12q-11 3 -14 12t-1 19l53 207q12 23 34 15z
M119 658l-61 -169l18 -7l61 169z" />
    </font>
</defs>
</svg>
