<?xml version="1.0" encoding="utf-8"?>
<!-- Generator: Adobe Illustrator 21.0.0, SVG Export Plug-In . SVG Version: 6.00 Build 0)  -->
<svg version="1.1" id="Layer_1" xmlns="http://www.w3.org/2000/svg" xmlns:xlink="http://www.w3.org/1999/xlink" x="0px" y="0px"
	 viewBox="0 0 100 100" style="enable-background:new 0 0 100 100;" xml:space="preserve">
<style type="text/css">
	.st0{fill:#C40D41;}
</style>
<g>
	<path class="st0" d="M48.8,46.5c2.7-3.4,4.4-8.1,3.9-13.7c-0.5-6.4-3.7-10.5-8.5-13.1c-5-2.7-11.5-2.7-19.2-2.7H3.9
		c-1,0-1.8,0.8-1.8,1.9v62.3c0,1,0.8,1.8,1.8,1.8h22.6c4.1,0,7.9,0,11.3-0.5c4.8-0.8,8.7-2.5,11.5-5.2c0.7-0.6,9.6-8.4,5.7-21.7
		C55,55.6,53.6,50.6,48.8,46.5z M20.5,30.2L20.5,30.2h11.3v0c4.1,0,6.6,3.2,6.6,6.6c0,3.4-2.2,6.6-6.6,6.6v0l-11.3,0
		c-1,0-1.9-0.8-1.9-1.8l0-9.6C18.6,31,19.5,30.2,20.5,30.2z M31.8,69.8c0,0-11.4,0-11.4,0c-1,0-1.8-0.8-1.8-1.9l0-9.5
		c0-0.9,0.8-1.8,1.8-1.8c0,0,11.3,0,11.4,0c4.3,0,6.6,3,6.6,6.5C38.4,66.6,36.1,69.8,31.8,69.8z"/>
	<path class="st0" d="M97.9,69.8H74.7l0-51.1c-0.1-1-0.9-1.7-1.8-1.7H60c-1,0-1.8,0.8-1.8,1.7l0,62.5c0.1,1,0.9,1.7,1.8,1.7h36.1
		c0.9,0,1.7-0.7,1.8-1.7c0-0.1,0-0.3,0-0.4l0,0v0C97.9,80.5,97.9,69.8,97.9,69.8z"/>
</g>
</svg>
