<?xml version="1.0" encoding="utf-8"?>
<!-- Generator: Adobe Illustrator 21.0.0, SVG Export Plug-In . SVG Version: 6.00 Build 0)  -->
<svg version="1.1" id="Capa_1" xmlns="http://www.w3.org/2000/svg" xmlns:xlink="http://www.w3.org/1999/xlink" x="0px" y="0px"
	 viewBox="0 0 15 15" style="enable-background:new 0 0 15 15;" xml:space="preserve" width="15px" height="15px">
<style type="text/css">
	.st0{fill:#59C36A;}
	.st1{fill:#00A66C;}
	.st2{fill:#FFDA2D;}
	.st3{fill:#4086F4;}
	.st4{fill:#4175DF;}
	.st5{fill:#FF641A;}
	.st6{fill:#F03800;}
</style>
<g>
	<path class="st0" d="M12.3,13.2C11,14.3,9.3,15,7.5,15c-2.7,0-5.1-1.5-6.4-3.7l0.5-2.2l2.2-0.4c0.5,1.6,2,2.8,3.8,2.8
		c0.9,0,1.7-0.3,2.3-0.8l2.1,0.3L12.3,13.2z"/>
	<path class="st1" d="M12.3,13.2L11.9,11l-2.1-0.3c-0.7,0.5-1.5,0.8-2.3,0.8V15C9.3,15,11,14.3,12.3,13.2z"/>
	<g id="Connected_Home_1_">
		<g>
			<g>
				<g>
					<path class="st2" d="M3.5,7.5c0,0.4,0.1,0.8,0.2,1.2l-2.6,2.6C0.4,10.2,0,8.9,0,7.5c0-1.4,0.4-2.7,1.1-3.8l2.1,0.4l0.5,2.3
						C3.6,6.7,3.5,7.1,3.5,7.5L3.5,7.5z"/>
				</g>
			</g>
		</g>
	</g>
	<path class="st3" d="M15,7.5c0,2.3-1.1,4.3-2.7,5.7l-2.5-2.5c0.5-0.4,0.9-0.9,1.2-1.4H7.5c-0.2,0-0.4-0.2-0.4-0.4V6.2
		c0-0.2,0.2-0.4,0.4-0.4h6.9c0.2,0,0.4,0.1,0.4,0.4C15,6.6,15,7,15,7.5L15,7.5z"/>
	<path class="st4" d="M11,9.3c-0.3,0.6-0.7,1.1-1.2,1.4l2.5,2.5c1.6-1.4,2.7-3.4,2.7-5.7c0-0.5,0-0.9-0.1-1.4c0-0.2-0.2-0.4-0.4-0.4
		H7.5v3.5H11z"/>
	<path class="st5" d="M12.4,2.1c0,0.1,0,0.2-0.1,0.3l-1.9,1.9c-0.1,0.2-0.4,0.2-0.6,0C9.2,3.8,8.4,3.5,7.5,3.5
		c-1.8,0-3.3,1.2-3.8,2.8L1.1,3.7C2.4,1.5,4.8,0,7.5,0c1.7,0,3.5,0.6,4.8,1.8C12.4,1.8,12.4,2,12.4,2.1L12.4,2.1z"/>
	<path class="st6" d="M9.9,4.3c0.2,0.1,0.4,0.1,0.6,0l1.9-1.9c0.1-0.1,0.1-0.2,0.1-0.3c0-0.1-0.1-0.2-0.2-0.3C11,0.6,9.2,0,7.5,0
		v3.5C8.4,3.5,9.2,3.8,9.9,4.3z"/>
</g>
</svg>
