<?xml version="1.0" encoding="utf-8"?>
<!-- Generator: Adobe Illustrator 21.0.0, SVG Export Plug-In . SVG Version: 6.00 Build 0)  -->
<svg version="1.1" id="Layer_1" xmlns="http://www.w3.org/2000/svg" xmlns:xlink="http://www.w3.org/1999/xlink" x="0px" y="0px"
	 viewBox="0 0 100 100" style="enable-background:new 0 0 100 100;" xml:space="preserve">
<style type="text/css">
	.st0{fill:url(#SVGID_1_);}
</style>
<g>
	<linearGradient id="SVGID_1_" gradientUnits="userSpaceOnUse" x1="80.965" y1="81.4272" x2="11.8186" y2="11.2487">
		<stop  offset="0" style="stop-color:#FEC053"/>
		<stop  offset="0.3273" style="stop-color:#F2203E"/>
		<stop  offset="0.6485" style="stop-color:#B729A8"/>
		<stop  offset="1" style="stop-color:#5342D6"/>
	</linearGradient>
	<path class="st0" d="M96.8,30.5C96.9,34.4,97,40.9,97,50s-0.1,15.6-0.3,19.6c-0.2,4-0.8,7.4-1.8,10.4c-1.3,3.5-3.2,6.5-5.8,9.1
		c-2.6,2.6-5.6,4.5-9.1,5.8c-2.9,1-6.4,1.6-10.4,1.8C65.6,96.9,59.1,97,50,97s-15.6-0.1-19.6-0.3c-4-0.2-7.4-0.9-10.4-2
		c-3.5-1.1-6.5-3-9.1-5.6c-2.6-2.6-4.5-5.6-5.8-9.1c-1-2.9-1.6-6.4-1.8-10.4C3.1,65.6,3,59.1,3,50s0.1-15.6,0.3-19.6
		c0.2-4,0.8-7.4,1.8-10.4c1.3-3.5,3.2-6.5,5.8-9.1c2.6-2.6,5.6-4.5,9.1-5.8c2.9-1,6.4-1.6,10.4-1.8S40.9,3,50,3s15.6,0.1,19.6,0.3
		S77.1,4.1,80,5.1c3.5,1.3,6.5,3.2,9.1,5.8c2.6,2.6,4.5,5.6,5.8,9.1C95.9,22.9,96.5,26.4,96.8,30.5z M86.7,77.7
		c0.8-2.4,1.4-6.2,1.7-11.3c0.1-3.1,0.2-7.4,0.2-13v-6.7c0-5.7-0.1-10.1-0.2-13c-0.3-5.3-0.8-9.1-1.7-11.3c-1.7-4.3-4.7-7.3-9-9
		c-2.2-0.8-6-1.4-11.3-1.7c-3.1-0.1-7.4-0.2-13-0.2h-6.7c-5.6,0-9.9,0.1-13,0.2c-5.2,0.3-9,0.8-11.3,1.7c-4.3,1.7-7.3,4.7-9,9
		c-0.8,2.2-1.4,6-1.7,11.3c-0.1,3.1-0.2,7.4-0.2,13v6.7c0,5.6,0.1,9.9,0.2,13c0.3,5.2,0.8,9,1.7,11.3c1.8,4.3,4.8,7.3,9,9
		c2.4,0.8,6.2,1.4,11.3,1.7c3.1,0.1,7.4,0.2,13,0.2h6.7c5.7,0,10.1-0.1,13-0.2c5.3-0.3,9.1-0.8,11.3-1.7C82,84.9,85,81.9,86.7,77.7z
		 M50,25.9c4.3,0,8.4,1.1,12.1,3.3c3.7,2.2,6.6,5.1,8.8,8.8c2.2,3.7,3.3,7.7,3.3,12.1s-1.1,8.4-3.3,12.1c-2.2,3.7-5.1,6.6-8.8,8.8
		c-3.7,2.2-7.7,3.3-12.1,3.3s-8.4-1.1-12.1-3.3c-3.7-2.2-6.6-5.1-8.8-8.8c-2.2-3.7-3.3-7.7-3.3-12.1s1.1-8.4,3.3-12.1
		c2.2-3.7,5.1-6.6,8.8-8.8C41.6,27,45.7,25.9,50,25.9z M50,65.7c4.3,0,8-1.5,11.1-4.6c3.1-3.1,4.6-6.8,4.6-11.1s-1.5-8-4.6-11.1
		c-3.1-3.1-6.8-4.6-11.1-4.6s-8,1.5-11.1,4.6s-4.6,6.8-4.6,11.1s1.5,8,4.6,11.1C42,64.2,45.7,65.7,50,65.7z M80.8,24.8
		c0-1.5-0.6-2.9-1.7-4s-2.4-1.7-4-1.7c-1.5,0-2.9,0.6-4,1.7c-1.1,1.1-1.7,2.4-1.7,4s0.6,2.9,1.7,4c1.1,1.1,2.4,1.7,4,1.7
		c1.5,0,2.8-0.6,3.9-1.7C80.1,27.7,80.7,26.4,80.8,24.8z"/>
</g>
</svg>
