<?xml version="1.0" encoding="utf-8"?>
<!-- Generator: Adobe Illustrator 21.0.0, SVG Export Plug-In . SVG Version: 6.00 Build 0)  -->
<svg version="1.1" id="Layer_1" xmlns="http://www.w3.org/2000/svg" xmlns:xlink="http://www.w3.org/1999/xlink" x="0px" y="0px"
	 viewBox="0 0 730.1 317.7" style="enable-background:new 0 0 730.1 317.7;" xml:space="preserve">
<style type="text/css">
	.st0{fill:#606060;}
	.st1{fill:#9E6500;}
	.st2{fill:#FFCC56;}
	.st3{fill:#49A242;}
	.st4{fill:#49A94A;}
	.st5{font-family:'Poppins-Light';}
	.st6{font-size:13.9125px;}
</style>
<g id="Layer_2">
</g>
<path class="st0" d="M617.4,196.8c43.4-19.4,76.2-22.3,96.3-24.4c7.4-0.8,13.2-1.3,16.4-2.5H0c3.7,1.3,9,1.7,16.9,2.5
	c19.6,2.1,52.4,5.1,95.8,24.4c30.2,13.9,54,32.4,77.2,51c45.5,35.4,89.4,69.9,175.1,69.9l0,0c85.7,0,129.6-34.5,175.1-69.9
	C563.4,229.3,587.2,210.7,617.4,196.8z"/>
<g>
	<g>
		<g>
			<path class="st1" d="M387.5,113.8L387.5,113.8c0,0.1,0.1,0.2,0.2,0.3c0-0.1,0-0.1,0-0.1C387.6,114,387.6,113.9,387.5,113.8z"/>
			<path class="st1" d="M391.4,119L391.4,119c-0.1,0-0.2,0-0.3,0.1l0,0h0.1C391.3,119.1,391.4,119.1,391.4,119z"/>
			<path class="st1" d="M390.3,120.5C390.3,120.5,390.3,120.6,390.3,120.5c0.2,0,0.3-0.1,0.5-0.1c-0.1,0-0.2,0-0.3,0
				C390.4,120.5,390.4,120.5,390.3,120.5z"/>
			<path class="st1" d="M387.1,113.8c0-0.1-0.1-0.1-0.1-0.2C387,113.7,387,113.7,387.1,113.8C387,113.8,387.1,113.8,387.1,113.8z"/>
			<path class="st1" d="M348.4,64.2c0.2,0,0.3-0.1,0.5-0.1c0,0,0-0.1,0.1-0.1c0,0,0,0-0.1,0c-0.3,0.1-0.7,0.1-1,0.2
				c0.1,0,0.2,0.1,0.3,0.1C348.3,64.3,348.3,64.3,348.4,64.2z"/>
			<path class="st1" d="M351,65.3C351.1,65.3,351.1,65.3,351,65.3c0.1,0,0.1,0,0.1,0S351.1,65.3,351,65.3z"/>
			<path class="st1" d="M387,113.4c0,0.1-0.1,0.1-0.1,0.2l0,0C387,113.5,387.1,113.5,387,113.4C387.1,113.4,387.1,113.4,387,113.4z"
				/>
			<path class="st1" d="M450.6,70.4c1.8-1.6,1.7-4.8,1-7.4c1.2-1.3,1.2-3.8,0.8-5.5c-0.4-1.6-1-3.2-1.9-4.7c0.3-1.4-0.7-3.3-1.3-4.4
				c-0.7-1.2-1.8-2.5-3.2-3.2c0-0.1-0.1-0.1-0.1-0.2l-0.1-0.1c-0.1-2.2-1.4-4.3-3-5.8c-1-1-3.2-2.6-4.9-2.7c-1.4-1.9-3.7-3.5-6-3.8
				c-0.2,0-0.4-0.1-0.6-0.1c-0.2,0.1-0.4,0.2-0.6,0.2c-0.9-0.9-2.1-1.5-3.4-1.9c-0.5-0.2-1.2-0.4-1.8-0.5c-0.2-0.2-0.5-0.3-0.8-0.5
				c-0.2,0.1-0.4,0.1-0.7,0.1c-0.1,0-0.2,0.1-0.4,0.1c-0.3,0-0.6,0.1-0.9,0.1c-0.1,0-0.1,0.1-0.2,0.1l0,0c0.1,0,0.1,0,0.2,0.1
				c-0.1,0-0.2,0.1-0.3,0.1c-0.1,0-0.1,0.1-0.2,0.2c-1-1.3-2.4-1.3-4-1.1c-1.6,0.2-3-0.4-4.5-0.5c-1.6-0.1-3.2-0.1-4.8-0.2
				c-2.7-0.1-8-1.2-10.4,0.8c-0.3,0-0.5,0.1-0.7,0.2c-0.9-1-2.3-1.4-3.4-0.7c-0.7-0.5-1.5-0.7-2.4-0.7c-0.6,0-1.1,0.2-1.6,0.4
				c-0.3,0.1-0.9-0.3-1.2-0.3c-0.9,0-1.8,0.3-2.5,0.8c-0.1,0-0.1,0-0.1,0c-0.1,0.1-0.2,0.2-0.2,0.4c-0.2,0.2-0.3,0.4-0.4,0.7
				c-0.2,0.3-0.5,0.4-0.9,0.3c-0.3-0.1-0.6-0.2-0.9-0.3c0.1-0.1,0.2-0.4,0-0.5c-1.4-1.2-2.4-1.5-4.3-1.1c-1.3,0.2-2.7-0.6-4.1-0.4
				c-2,0.2-3.7,0.7-5.2,1.8c-0.9-0.4-2.1-0.4-3.1-0.3c-1.2,0.1-2.5,1.1-2.2,2.3c-0.1,0-0.2,0.1-0.3,0.1c0-0.3-0.1-0.7-0.5-0.8
				c-1.4-0.4-3.4-0.7-4.6,0.3c-0.2-0.2-0.5-0.3-0.8-0.5c-0.7-0.5-1.5-0.7-2.5-0.6c-0.3,0-0.5,0.1-0.8,0.2c-0.1,0-0.2,0-0.3,0
				l-0.1,0.1c-0.6,0.3-1.2,0.7-1.6,1.2c-0.1,0.1-0.2,0.3-0.2,0.4l0,0c-0.1,0.1-0.1,0.1-0.2,0.2l0,0c-0.1,0-0.1,0.1-0.2,0.1
				c-0.2,0-0.5,0-0.6-0.1c0.4-0.2,0.4-0.8,0-1c-1-0.4-1.8-0.6-2.9-0.6c-0.2,0-0.5,0.1-0.8,0.2c-0.5,0-1.1,0-1.6,0.1
				c-2-0.6-4.2,0.2-6.2-0.5c-0.4-0.1-0.8,0-1.1,0.2c-0.4-0.5-0.9-0.8-1.5-1h-0.1c0.4-0.2,0.6-0.8,0.2-1.3c-1-0.8-2.3-1.6-3.6-1.3
				c-0.1,0-0.2,0-0.3,0.1c0-0.2-0.1-0.3-0.3-0.4c-0.6-0.3-1.1-0.6-1.8-0.8c-0.6-0.1-1.2-0.1-1.8,0c-0.5,0.1-0.8,0.5-0.8,0.9
				c-0.2-0.1-0.5-0.1-0.7-0.2c0.2-0.2,0.2-0.5,0-0.8c-0.7-0.8-1.7-1-2.6-0.6c-0.2,0.1-0.4,0.1-0.5,0.2l0,0c-0.6-0.9-1.2-1.6-2.3-1.9
				c-0.8-0.2-1.4-0.1-2.3,0c0,0-0.6-0.6-0.8-0.6c-0.7-0.2-1.7-0.3-2.5-0.3c-1.2-1.6-4.1-2.9-5.4-3.3c-0.2-0.1-0.4-0.1-0.7,0
				c1.9-2,3.6-4.2,5.6-6c0.4-0.3,0.4-0.8,0.1-1.2c-0.3,0-0.6,0.1-0.9,0.1c-2.3-0.5-4.6-0.9-6.8-1.8c-1.2-0.5-2.5-1.1-3.9-1.1
				c0-1.6-1.4-2.3-2.8-2.4c-0.4-2.5-3.4-4.5-5.8-3.7c-0.2-0.6-0.7-1.1-1.4-1.4c-0.1-0.1-0.1-0.1-0.2-0.2c-0.4-0.4-1.1-0.8-1.8-0.6
				c-0.1,0-0.2,0.1-0.2,0.1l0,0c-0.2,0-0.3,0-0.5,0c-0.2-0.2-0.4-0.3-0.6-0.3c-0.5-0.9-2.1-1.2-3-1.2c-0.6,0-1.3,0.2-1.5,0.8
				c0,0.1,0,0.1-0.1,0.2c-0.7-0.3-1.5-0.4-2.1-0.1c-1.6-1.1-4.8-1.3-4.9,0.7c-0.1,0-0.1,0-0.2,0.1h-0.1c-0.6-0.2-1.3-0.3-1.8,0
				s-0.9,0.7-1,1.3c-0.5-0.6-1.3-0.8-2.1-0.6c-0.6,0.2-1.4,0.8-1.6,1.5c-0.9-0.7-2.2-0.2-2.8,0.8c-0.4,0.7-1.5,0.3-2,1.1
				c-0.3,0.5-0.4,1-0.4,1.5c-0.8,0.3-1.5,1-1.6,1.9s0.1,1.7,0.6,2.3c0.1,0,0.2,0.1,0.2,0.1c0.1,0,0.1,0.1,0.2,0.1c0,0.2,0,0.4,0,0.7
				c-2-0.6-3.8-0.6-5.9,0c-2,0.6-3.9,0.9-5.9,1c-0.4-0.1-0.7-0.1-1,0c-0.3,0-0.5,0-0.8,0c-0.5,0-0.9,0.3-0.9,0.8c0,0.1,0,0.2,0,0.3
				v0.1c0.3,0.7,0.7,1.3,1.1,2c0,0.7,0.4,1.3,1.2,1.8c0.3,0.3,0.5,0.6,0.7,0.8c2.7,2.9,7.3,4.3,11.2,3.1c0,0,0.1,0,0.2,0
				c0,0.2-0.1,0.3-0.1,0.5c-0.1,0.2-0.2,0.4-0.2,0.6c-0.5,0.9-1,1.7-1.6,2.5c0,0,0,0.1-0.1,0.1c-0.4,0.7-0.7,1.4-0.8,2.2
				c0,0.3,0,0.6,0,0.9c0.1,1.6,0.9,3.1,1.6,4.7l0,0c-0.1,0.3-0.1,0.5-0.2,0.8c-0.1,0.2-0.2,0.4-0.2,0.5v0.1
				c-0.1,0.2-0.2,0.5-0.3,0.6c-0.4,1-0.7,2.4,0.1,3.2c0.1,0.1,0.2,0.2,0.3,0.2c0.6,0.9,1.2,1.3,1.2,2.6c0,0.6,0.2,1.3,0.6,1.7
				c0.2,0.2,0.3,0.3,0.5,0.5c0.6,0,1,0.3,1.2,0.7c0,0,0.1,0,0.1,0.1c-0.2,0.4-0.3,0.9-0.4,1.4c-0.7,0.9-0.9,2.2-0.6,3.3
				c0.1,0.5,0.4,0.9,0.8,1.2c-0.4,0.8-0.5,1.8-0.2,2.6c-0.8,0.9-1.1,2-1,3.2c-0.1,0.2-0.2,0.3-0.3,0.5v0.1c-0.8,0.7-1.1,1.8-1,2.8
				c0.2,1,0.9,1.9,1.8,2.4c-0.1,0.8,0.2,1.6,0.7,2.2c0.2,0.2,0.4,0.4,0.6,0.5c-0.1,0.6-0.1,1.2,0.1,1.9c0.2,0.6,0.6,1.1,1.1,1.4
				c-1.3,1.6-1.5,4.4,0.6,5.5c1.3,0.7-0.3,2.4,0.9,3.3c0.5,0.4,0.9,0.8,1.4,1.2c-0.3,0.6-0.5,1.3-0.6,1.9c0,1.2,0.7,2.3,1.7,2.7
				c0,0.4,0.2,0.8,0.4,1.1c-0.1,1,0.1,2.1,0.9,2.8c0.4,0.4,0.8,0.5,1.2,0.4c0.5,0.2,1.1-0.1,1.4-0.4c0.1,0.2,0.1,0.4,0.2,0.7
				c0,0,0,0,0,0.1c-0.5,2,1.3,2.8,3.1,3c-0.1,0.4-0.3,0.9-0.3,1.4c-0.1,1.6,1,3,1.9,4.2c0.4,0.5,1,0.7,1.5,0.6c0,0.1,0,0.2-0.1,0.3
				c0,0.4,0,0.8,0,1.1c0,0.2,0,0.3,0,0.5c0.2,0.2,0.3,0.6,0.1,0.9c-0.1,0.1-0.1,0.2-0.1,0.3c0,0.3,0,0.6,0,1
				c0.6,1.1,1.3,2.1,2.1,3.1c0.1,0,0.2,0.1,0.3,0.1c0.8,0.2,1.6-0.5,2.3,0.3c0.6,0.7,0.6,1.5,0.3,2.4v0.1c0,0.1,0,0.2,0,0.3
				c0.1,0.1,0.3,0.3,0.4,0.4s0.2,0.2,0.3,0.3c0.9,0.3,2.3,0.2,2.8,0.2c0.1-0.1,0.3-0.2,0.4-0.2c0.2-0.1,0.3-0.1,0.5-0.1s0.3,0,0.5,0
				h0.1c0.1,0,0.2,0.1,0.3,0.1c0,0,0.1,0,0.1,0.1c0.1,0.1,0.2,0.1,0.2,0.2l0.1,0.1c0.1,0.1,0.2,0.2,0.2,0.3c0.1,0.1,0.2,0.3,0.2,0.4
				s0.1,0.1,0.1,0.2s0.1,0.2,0.1,0.2c0,0.1,0.1,0.2,0.1,0.3c0.1,0.3,0.1,0.7,0.2,1c0.1,0.1,0.2,0.2,0.4,0.3c0,0.2,0.1,0.3,0.1,0.5
				c0,0.1-0.1,0.4-0.2,0.6c0.4,0.5,0.7,1,1,1.5c0.1,0.1,0.1,0.2,0.2,0.3c0.3,0.2,0.5,0.5,0.8,0.7c0.1,0.1,0.2,0.1,0.3,0.3
				c0.1,0.1,0.3,0.2,0.4,0.3c0.9,0.5,1.8,0.9,2.7,1.3c0.1,0.1,0.1,0.3,0.1,0.4c0,0.6,0,1.1-0.1,1.7c0.1,0.1,0.2,0.1,0.3,0.2
				c0.7,0.5,1.4,1,2.1,1.4c0.4,0,0.8,0.1,1.2,0.1c0.6,0,1.1,0.2,1.6,0.5c0.1,0.1,0.3,0.2,0.4,0.3l0,0c0.1,0.1,0.1,0.1,0.2,0.2l0,0
				c0.2,0.5,0.3,1,0.4,1.5c-0.2,0.7-0.4,1.3-0.4,2s0.2,1.4,0.6,2.1c0.2-0.1,0.4,0,0.5,0.1c1.3,2.1,1.4,2,1.2,4.4c0,0.1,0,0.3,0,0.4
				l0,0c0,0.2,0,0.3-0.1,0.5c0,0.6,0,1.2,0,1.8c0,0.3,0.1,0.7,0.2,1l0,0c-0.1,0.2-0.2,0.4-0.2,0.6c0,1-0.1,2-0.2,3
				c-0.2,1.2-0.1,2.6-1.2,3.3c-0.5,0.3-1,0.6-1.6,0.9c-0.1,0.1-0.1,0.1-0.2,0.2c-0.7,0.7-1.1,1.4-1.6,2.3c-0.5,1.1-1,2.3-1.5,3.5
				h24.6l0,0c-0.4,0-0.8,0-1.1-0.1c-0.1,0-0.2,0-0.4,0l0,0l-0.1-0.1c-0.5,0-1,0-1.5-0.1c-0.3,0-0.6,0-0.8,0c0-0.2,0-0.5-0.1-0.7l0,0
				c0-0.2,0-0.4,0-0.6c0.2-0.1,0.4,0,0.5,0.2l0,0c-0.2-0.2-0.3-0.5-0.1-0.8c0.2-0.4,0.4-0.8,0.7-1.3c0.2-0.4,0.4-0.8,0.6-1.2
				c0.6-1.2,1.4-2.4,2.4-3.1c1-1.3,1.9-2.3,2.5-3.9c0.6-1.7,0.6-3.8,0.7-5.6c0.1-1.5,0-3-0.1-4.4c0-0.1,0-0.1-0.1-0.2
				c-0.4-1.2-1-2.2-1.3-3.5c-0.3-1.6-0.2-3.3-0.1-5c-0.1-0.9-0.2-1.8-0.3-2.7c0,0-0.1,0-0.1-0.1c-0.1-0.3-0.2-0.6-0.2-0.9
				c-0.1-0.3-0.1-0.5-0.2-0.8c0,0,0,0,0-0.1s-0.1-0.2-0.1-0.3l0,0l0,0l0,0c0-0.1,0.1-0.2,0.2-0.2c-0.1-0.1-0.1-0.3-0.2-0.5
				c-0.3-0.8-0.8-1.5-1.6-2.2l-0.1-0.1c-0.2,0-0.3,0-0.5,0.1c-0.2,0-0.4,0.2-0.7,0.1H328c-0.2,0-0.3-0.2-0.3-0.4c0-0.1,0-0.1,0-0.2
				c-0.1,0-0.1-0.1-0.2-0.1c-0.2-0.2-0.3-0.4-0.5-0.6c-0.1,0.1-0.3-0.1-0.2-0.3c-0.1-0.1-0.2-0.3-0.4-0.4c-0.1-0.1-0.1-0.1-0.2-0.2
				l0,0c-0.5,0.2-0.8-0.3-0.6-0.7c-0.3,0.1-0.6,0.2-0.8,0.2c-0.3,0-0.7-0.4-0.4-0.7c0.1-0.1,0.2-0.2,0.4-0.3
				c-0.1-0.1-0.2-0.1-0.3-0.2c-0.3,0.3-0.7,0.4-1.1,0.4c-0.1,0-0.2,0-0.2,0c-0.3-0.1-0.6-0.4-0.6-0.8c0-0.1,0-0.2-0.1-0.4
				c-0.1-0.1-0.1-0.3-0.1-0.4c-0.1-0.3-0.1-0.7-0.1-1c0-0.1-0.1-0.1-0.1-0.2c0,0,0,0-0.1,0.1l0,0c0,0,0,0.1-0.1,0.1
				c-0.3,0.4-0.9-0.2-0.6-0.6c0,0,0,0,0.1-0.1c-0.1,0-0.2,0-0.2,0c-0.1,0-0.1-0.1-0.2-0.1c-0.5,0.3-1.2-0.2-1-0.9
				c0.1-0.2,0.1-0.5,0.2-0.7s0.1-0.4,0.2-0.7c0-0.2,0.1-0.4,0.1-0.6c-0.2-0.2-0.4-0.5-0.6-0.6c-0.1,0.2-0.2,0.4-0.4,0.6
				c-0.2,0.2-0.4,0.4-0.6,0.5c-0.1,0.1-0.2,0.1-0.4,0.1c0.1,0,0.1,0,0,0c-0.2,0-0.4,0-0.5-0.1l0,0c-0.2-0.1-0.3-0.3-0.2-0.5
				c0-0.1,0-0.3,0.1-0.3c0,0,0,0,0.1-0.1c0,0.1,0,0,0.1-0.1s0.2-0.2,0.2-0.2l0,0c-0.3,0.1-0.6-0.1-0.5-0.4c0-0.2,0.1-0.4,0.1-0.5
				s-0.1-0.1-0.2-0.2c-0.5,0.2-1.1,0.2-1.4-0.2c-0.1-0.1,0-0.2,0.1-0.3c0.3-0.1,0.6-0.1,0.8-0.1c-0.1-0.1-0.2-0.2-0.3-0.3
				c-0.8,0.1-1.5-0.1-2.1-0.6c-0.1-0.1,0-0.3,0.2-0.3c0.5,0,1,0.2,1.4,0.2c0-0.1,0-0.3,0.1-0.4c-0.2,0.1-0.4,0-0.5,0
				s-0.2-0.2-0.1-0.3c0.1-0.1,0.1-0.2,0.2-0.3l0,0c0.1-0.5,0.3-1,0.6-1.4c0.2-0.3,0.3-0.6,0.5-0.8c-0.1-0.2-0.1-0.4-0.1-0.6
				s0.1-0.5,0.1-0.7s0-0.4,0.1-0.7l0,0c-0.5,0.5-1.2,1-1.9,0.8c-0.1,0-0.1-0.2,0-0.3c0.1-0.1,0.1-0.1,0.2-0.1
				c-0.1-0.1-0.1-0.2-0.1-0.3c-0.1-0.9,0-1.2,0.2-2.2c0.3-1.4,0-2.8-0.5-4.1c-0.8-2.2-2.9-3.9-4.3-5.7c-0.7-0.9-1.4-1.8-2-2.7
				c-0.1-0.1-0.2-0.3-0.3-0.5c-1.3-2-2.3-4.2-2.7-6.5c-0.4,0-0.8-0.2-0.9-0.6c-0.1-1.6-0.4-3.1-0.9-4.6c-0.3-0.7-0.8-1.2-1.2-1.8
				c-0.2-0.3-0.2-0.6-0.2-0.8c-0.1-0.1-0.1-0.1-0.2-0.2c0,0-0.1,0-0.2,0.1l0,0c-0.4,0.5-1,0.3-1.3-0.1c0,0-0.1,0-0.1-0.1
				c-0.4-0.4-0.6-1-0.9-1.6l0,0c-0.1,0.5-0.4,0.9-0.8,0.8c-0.2,0-0.3-0.3-0.4-0.6c-0.1,0-0.1,0-0.2,0c-0.1-0.1-0.2-0.1-0.3-0.2
				c0,0.2,0,0.5,0,0.8l0,0c0,0.1,0,0.2,0,0.3l0,0c0,0.1-0.1,0.2-0.1,0.3c0.1,0.1,0.1,0.2,0.2,0.4c0,0.1-0.1,0.2-0.1,0.1l0,0
				c0.2,0.8,0.3,1.6,0.3,2.4c0,0.2-0.3,0.2-0.4,0.1c-0.2-0.3-0.3-0.7-0.3-1.1c0,0.1,0,0.3-0.1,0.4c0,0.1-0.1,0.1-0.1,0l0,0
				c0.1,0.9,0,1.8-0.4,2.7c-0.4,1-1.4,2.4-2.6,2.7c-0.3,0.2-0.6,0.4-0.9,0.4c-0.1,0.3-0.3,0.6-0.6,0.8c-0.2,0.2-0.5,0-0.4-0.2
				c0.1-0.4,0.1-0.8,0.2-1.2c-0.7-0.9-0.4-2.1-0.5-3.2c-0.1-1-0.4-1.9-0.7-2.7c-0.1-0.3-0.2-0.5-0.3-0.8v-0.1
				c-0.4-0.3-0.7-0.7-0.9-1.2c-2.4,0.4-6.5,1-6.4-1.8c-1-0.4-1.5-1.2-1.6-2.3V58c-0.2-0.6-0.3-1.5,0-2.2c-0.2-1.1,0.4-2.3,1.1-3.4
				c1-2.9,2.6-5.6,4.8-7.8c-1.6-0.4-3.1-1-4.3-2c-1.3-0.8-2.8-1.9-3.1-3.3c-0.1-0.1-0.2-0.3-0.3-0.4c-0.2-0.3,0.2-0.8,0.5-0.8
				c0.1,0,0.2,0,0.2,0s0,0,0.1,0c1.8,0.2,3.4-0.4,5.2-0.6c1.8-0.3,3.5,0.4,5.3,0.2l0,0c0.1-0.1,0.3-0.2,0.5-0.3c0-0.1,0-0.1,0-0.2
				c0-0.1,0.1-0.3,0.3-0.3c0.1,0,0.2,0,0.2,0l0,0c0,0,0-0.1-0.1-0.1c-0.2-0.3,0.1-0.6,0.4-0.6c0.2,0,0.4,0.1,0.6,0.1
				c0-0.3,0.3-0.6,0.6-0.5c0.1,0,0.2,0.1,0.3,0.1c0.2-0.1,0.3-0.3,0.5-0.4l0,0c2.5-2.7,5.1-5.2,7.5-8c0.1-0.1,0.2-0.3,0.2-0.5v-0.1
				c0.1-0.5-0.1-1-0.6-1.2c0-0.1-0.1-0.2-0.1-0.2c0.1-0.4,0.4-0.7,0.8-0.9c0,0,0.1,0,0.1-0.1l0,0c1.5-0.7,2.9,0,3.6,1.4
				c0.4,0.8,0.3,1.7,0.3,2.6c0,0.3,0,0.6-0.1,1c1.2-0.4,2.5-0.7,3.7-0.9c2.9-0.4,6.1-0.5,8.9,0.3c1.4,0.4,3.6,1.4,4.4,2.9
				c0,0,0,0,0.1,0c0.3,0.1,0.3,0.5,0.1,0.6c0,0.1-0.1,0.3-0.3,0.3c0,0.1,0,0.1-0.1,0.2c0,0-0.1,0-0.1,0.1c-0.1,0-0.2,0-0.2,0
				c-5.6-2.5-11.8,0.6-16,4.5l0,0c-0.2,0.3-0.2,0.8,0.3,0.9c0.8,0.2,1.4,0.6,2.1,1l0,0c0,0.2-0.1,0.4-0.2,0.4l0,0l0,0
				c0.2,0.1,0.2,0.3,0,0.3l0,0c0.3,0.2,0.7,0.5,1,0.7c0.2,0.2,0.4,0.5,0.6,0.7c0.3,0.4,0.6,0.9,0.6,1.4c0.5,0.6,0.8,1.3,1.2,1.9
				c0.5,0.8,1,1.7,1.3,2.6l0,0c0.1,0.1,0.1,0.3,0.1,0.4c0,0.1-0.1,0.2-0.2,0.3l0,0c0.1,0.1,0.2,0.3,0.4,0.4c0.2,0.2,0.4,0.3,0.6,0.4
				c0.3,0.2,0.8,0.5,0.5,0.9l0,0c0.1,0,0.1,0.1,0.2,0.1c0.5,0.3,1,0.7,1.2,1.3v0.1c0,0,0,0,0,0.1c0,0,0,0,0,0.1
				c1,0.9,1.6,2.2,2.3,3.4c0.3,0.3,0.5,0.7,0.8,1c0,0.1,0.1,0.1,0.1,0.2c0.1,0.2,0.2,0.4,0.3,0.6c0.4,0.4,0.7,0.8,1.2,1.1
				c0.1,0,0.2,0,0.2,0.1c0.1,0.1,0.2,0.3,0.3,0.4c0.4,0.3,0.8,0.5,1.2,0.8c0.4,0.2,0.7,0.4,1,0.7c1.2,0,2.7,1,3.9,1.2
				c1.6,0.3,3.1,0.3,4.5,1c2,0,4,0.1,6,0.2c0.3,0,0.5-0.1,0.8-0.1c0.1,0,0.2,0.1,0.3,0.1c1.6,0,3.2-0.3,4.9,0.1
				c1.6,0.3,2.9,0.4,4.3,1.3c0.1,0.1,0.2,0.2,0.1,0.3c0,0.1,0,0.2,0,0.2c0.3-0.2,0.6-0.2,1-0.2c0.2-0.1,0.5-0.2,0.7-0.2
				s0.3,0.2,0.2,0.3c0,0,0,0,0,0.1c0.2,0.1,0.4,0.2,0.6,0.3c0.2,0.1,0.1,0.3,0,0.5c3.3-0.1,6.6-0.7,9.9-0.7c0.8-0.1,1.6-0.1,2.4-0.1
				c0.2,0,0.4-0.1,0.6-0.1c0-0.1,0.2-0.3,0.3-0.4c0.7-0.3,2-0.5,2.7,0c0.1,0,0.2-0.1,0.3-0.1c0.3-0.1,0.5,0.1,0.4,0.3
				c0.2,0,0.3,0,0.5-0.1c1-0.3,2.2-0.2,3.3-0.3c1.3-0.2,2.4-0.7,3.7-0.6c0.1,0,0.1,0.1,0.1,0.2c-0.1,0.1-0.1,0.1-0.2,0.2
				c0.1,0,0.2,0,0.3-0.1c0.2-0.1,0.4-0.1,0.5-0.2c0-0.2,0.1-0.4,0.2-0.5c0.3-0.3,0.8-0.4,1.3-0.6c0.4-0.1,0.9-0.3,1.4-0.3
				s0.7,0.3,0.8,0.6c0.3-0.1,0.5-0.2,0.8-0.4s0.6,0,0.8,0.2c2.1-0.5,4.7-0.1,6.8,0.2c2.7,0.4,5.4,1.2,7.9,2.2
				c1.4,0.6,2.7,1.4,4.3,1.6c1.5,0.2,3.4-0.8,4.7-1.6c2.3-1.4,4-3.7,4.9-6.1c0.1-0.3,0.5-0.3,0.7-0.2c0.3-0.2,0.7-0.1,0.8,0.2
				c0.1,0.2,0.2,0.5,0.4,0.8c0.2,0,0.3,0.1,0.4,0.3c0.4-0.3,0.9-0.1,1.1,0.4c0.2,0.9,0.4,1.8,0.5,2.7l0,0c0.1,0,0.2,0,0.2,0.1
				c0.1,0.3,0,0.6-0.1,0.9v0.1c0.5,0.1,1,0.3,1.3,0.7c0.6,0.1,1.1,0.2,1.7,0.4c0.3,0.1,0.5,0.2,0.6,0.4c0.1,0,0.1,0,0.2,0.1
				c0.1,0,0.1,0.2,0,0.2l0,0c0.1,0.3,0,0.7-0.1,1v0.1l0,0c-0.2,0.3-0.6,0.6-1.1,0.6c-0.1,0-0.2,0-0.3,0l0,0c0.5,0.3,1,0.7,1.5,1.1
				c0.3,0.2,0.1,0.6-0.3,0.5c-0.2-0.1-0.4-0.1-0.7-0.2c0,0.1,0,0.2,0.1,0.2c0.7,0.8,1.2,1.8,1.6,2.8c0.1,0.3-0.1,0.6-0.4,0.6
				s-0.4-0.1-0.6-0.3c-0.1-0.2-0.3-0.3-0.5-0.5c0,0.2,0,0.4,0,0.6c0,0.1,0,0.2,0,0.3c0.2,0.5,0.3,0.8,0,1.3
				c-0.1,0.1-0.2,0.1-0.3,0.1c-0.2,0.3-0.3,0.6-0.5,0.9c-0.2,0.2-0.4,0.3-0.6,0.3c0,0.1,0,0.1,0,0.2c-0.1,0.4-0.3,0.6-0.6,0.7h-0.1
				c-0.2,0.1-0.4-0.1-0.6-0.2c0,0,0-0.1-0.1-0.1c-0.2-0.2-0.2-0.5-0.1-0.7c-0.1-0.3-0.1-0.6-0.1-0.9c-0.2,0.2-0.4,0.4-0.7,0.6
				c0,0.1,0,0.2,0,0.3c-0.1,0.4-0.3,0.7-0.5,1s-0.4,0.5-0.6,0.8c-0.1,0.1-0.2,0.3-0.4,0.4c0,0-0.1,0.1-0.2,0
				c-0.2,0.1-0.4,0.2-0.5,0.3c-0.2,0.1-0.3,0.1-0.5,0.1c0,0.1,0,0.1,0,0.2c0.1,0.2,0.2,0.4,0.3,0.6c0.5,1.1,1.2,2.7,0.5,3.8
				c-0.1,0.2-0.5,0.2-0.6,0c-0.2-0.3-0.3-0.6-0.4-0.9l0,0c0.1,0.7,0.3,1.4,0.4,2.1c0,0.1,0,0.2,0,0.2l0,0c0,0.1,0,0.1,0,0.1
				c-0.1,0.4-0.5,0.5-0.8,0.5c0,1-0.1,2.1-0.1,3.1c0,0.5-0.4,0.7-0.8,0.7c0,0.1,0,0.2,0,0.3c0.6,1.6,0.5,3.4,1.2,5
				c0.4,1.1,0.6,2,0.2,2.9c0.2,1.2,0,2.5-0.6,3.5c-0.2,0.3-0.5,0.1-0.5-0.2V99c0,0.1-0.1,0.3-0.1,0.4c-0.1,0.2-0.3,0.1-0.4,0
				c-0.1-0.4-0.1-0.7-0.1-1.1c0,0.1-0.1,0.1-0.1,0.2c0.1,1.3-0.1,2.5-0.6,4c-0.2,0.4-0.5,0.6-0.9,0.5c-0.3,0.6-0.6,1.3-0.9,1.9
				c-0.1,0.6-0.3,1.1-0.5,1.5c-0.4,1.3-0.8,2.8-1.4,3.9c0.6,1.5,0.4,3.5,1,5.1c0.3,0.9,1.1,1.8,1.5,2.8c0.6-0.3,1.3-0.7,2-0.8
				c0.1,0,0.1,0,0.2,0.1c0.4,0.1,0.9,0.2,1.3,0.1c0.3,0.1,0.5,0.4,0.7,0.7c0.5,0.7,0.6,1.4,0.4,2.1c0.6,0.2,1.3,0.3,2,0.3
				c0.1,0,0.1,0,0.2,0c0.2,0.6-0.5,4-0.5,4.7c0,1,0,1.9,0.3,2.9c0.5,1.8,2,2,3.2,2.9c0.1,0,0,0.3-0.2,0.8l0,0
				c-0.5,1.2-1.1,2.6-0.9,3.6c0,0.2,0.1,0.4,0.2,0.7c-0.2,0.3-0.3,0.5-0.4,0.8c-0.5,1.9-1.4,5.1,0.1,6.6c0,0.2-0.1,0.5-0.2,0.7
				c0,0.1,0,0.1,0,0.2c-0.2,0.6-1.1,0.9-1.6,1c-0.2,0-0.4,0.1-0.5,0.1c0,0.1-0.1,0.1-0.1,0.2c-1.7-0.3-2.8,1.5-3.6,2.8
				c-0.1,0.2-0.2,0.3-0.3,0.5h24c0.1-0.2,0.2-0.4,0.3-0.7c0.3-2,0.7-4.2,1.3-6.1c0.4-1.3,0.9-2.5,0.9-3.9c0-1.7-0.8-3.3-0.6-5
				c0.2-1.3,0.7-2.3,1.1-3.4c0.6-0.3,0.9-0.6,1.7-0.3c0.5,0.2,1,0.6,1.6,0.6c1.2,0,2.1-0.4,2.7-1.5c0.4-0.8,0.4-1.8,0.8-2.6
				c0.4-0.7,1.2-1.1,1.7-1.6c0.8-0.7,0.8-1.3,0.7-2c0.1-0.6,0.1-1.3-0.1-2c0.1-0.3,0.1-0.6,0.2-1c2.7-1.5,3-5.9,1.2-8.2
				c0-0.1-0.1-0.1-0.2-0.2c0.5-1.8-0.7-4.4-1.6-6.4c0.4-1.8-0.3-4.2-0.8-5.8c-0.2-0.5-0.4-1.1-0.5-1.6c0.2-0.9,0.1-1.8-0.2-2.6
				c0-0.1,0-0.1,0-0.2s0.1-0.1,0.1-0.2c0-0.2,0.1-0.3,0.1-0.5c0.1-0.3,0.3-0.6,0.4-0.8c0.7-1.6,0.9-3.1,0.6-4.7
				c0.8-0.6,1.5-1.6,2-2.4c0.1,0,0.2-0.1,0.2-0.1c5.9-4.8,3-3.3,3.1-9.1c0-0.2,0.1-0.3,0.1-0.5c0.2-0.2,0.3-0.4,0.4-0.6
				c0.1-0.1,0.2-0.2,0.2-0.4c0.3-0.7,0.4-1.7,0.2-2.6c0-0.4-0.1-0.9-0.1-1.3l0,0C450.5,70.8,450.5,70.6,450.6,70.4z M269.4,24.8
				c-0.4,0.8-0.7,1.5-1,2.2c-0.1,0.1-0.2,0.2-0.3,0.3c0-0.1,0-0.1,0-0.2C268.4,26.4,268.9,25.5,269.4,24.8L269.4,24.8z M416.7,138.9
				c0-0.4,0-0.7,0.1-1.1c0.1,0.5,0.2,0.9,0.3,1.4C416.9,139.2,416.7,139.2,416.7,138.9z"/>
			<path class="st1" d="M378.2,110C378.2,110,378.2,110.1,378.2,110c0,0.1-0.1,0.2-0.1,0.3c0.1-0.1,0.2-0.2,0.3-0.3v-0.1
				C378.3,109.9,378.3,110,378.2,110z"/>
			<path class="st1" d="M363,112.4c0.2,0,0.4-0.1,0.6-0.1c-0.2,0-0.4-0.1-0.6-0.1C363.1,112.3,363.1,112.3,363,112.4z"/>
			<path class="st1" d="M377.9,122.2c0.9-1,0.8-2.6,1.4-3.9c-0.5-0.2-0.9-0.5-1.4-0.8c-1.1-0.4-2.1-1.1-2.9-2
				c-0.1-0.1-0.2-0.3-0.3-0.4c-0.1-0.1-0.1-0.2-0.2-0.2c-0.1-0.2-0.2-0.3-0.3-0.5v-0.1l0,0c-0.2-0.2-0.4-0.4-0.6-0.6
				c-0.5-0.3-1-0.4-1.6-0.4c-0.2,0.1-0.4,0.1-0.6,0.3c-0.5,0.3-0.9,0.9-1.5,0.9c-0.1,0-0.2-0.1-0.3-0.2c0-0.1,0-0.1-0.1-0.2
				c-0.3-0.1-0.4-0.6,0-0.8c0.1-0.1,0.2-0.1,0.3-0.2c0-0.1,0.1-0.1,0.2-0.2c-0.3,0.2-0.7,0.3-1,0.4c-0.2,0.1-0.3,0.2-0.5,0.3
				c-0.7,0.4-1.6,0.6-2.2,0.1c-0.4-0.1-0.8-0.3-1.1-0.5c-1.2,0.5-2.5,0.7-3.8,0.8c-0.7,0.1-1.2-0.9-0.8-1.4c-4.1,0-8.2-1.4-11.6-3.7
				c0,0.1-0.1,0.1-0.1,0.2c0,0.6-0.2,1.3-0.3,1.9c0.6,1.3,1.4,3.2,0.7,4.5c-0.2,0.3-0.5,0.3-0.7,0s-0.3-0.6-0.4-0.9
				c0,0,0-0.1-0.1-0.1v0.1c0,0.2,0,0.3-0.1,0.5c0.3,0.4,0.4,0.8,0.5,1.2c0.1,0.5,0.4,1.3-0.1,1.7c-0.1,0.1-0.2,0.1-0.3,0
				c-0.4-0.3-0.3-0.9-0.4-1.3c0-0.1,0-0.2,0-0.2c0,0.1,0,0.1,0,0.2c0,0,0,0.1,0.1,0.2c0.1,0.2,0.1,0.5,0,0.8l0,0
				c0,0.7-0.1,1.3-0.5,2c0,0.2,0,0.5,0,0.7c0.9,0,1.7-0.2,2.6-0.5c0.4,0.5,0.8,0.9,1.4,1.2c0.3,0,0.5,0.1,0.8,0.1
				c1.4,0.2,2.5-0.8,3.9-0.9c0.2,0,0.2,0.2,0.2,0.4c0,0.2,0,0.3,0,0.5c1.2,0.6,2.6,0.7,4,0.7v0.1c0.1-0.1,0.2-0.3,0.2-0.4
				c0.1-0.2,0.4-0.6,0.7-0.6c0.4,0,0.2,0.6,0.1,0.8c-0.2,0.6,0,0.9,0.5,1.2c0.3,0.2,0.6,0.4,0.8,0.7c1-0.3,1.9-0.5,2.9-0.7
				c0.4-0.4,0.8-0.8,1.3-1.2l0.1-0.1c0.2-0.3,0.6-0.7,0.7-0.3c0.8-0.2,1.6,0.1,1.9,1c1-0.3,2.1-0.4,3.1-0.6c0.1,0,0.1,0,0.2,0.1
				c0.3,0.8,0.7,1.7,0.8,2.6c1,0.1,2,0.1,3.1-0.1C376.8,123.5,377.4,122.9,377.9,122.2z"/>
			<path class="st1" d="M292.5,37.6L292.5,37.6L292.5,37.6c-0.1,0.1-0.1,0.1-0.1,0.1C292.4,37.7,292.4,37.6,292.5,37.6z"/>
			<path class="st1" d="M285.2,41.5c-0.3-0.2-0.6-0.3-0.9-0.5c0.1,0.1,0.2,0.1,0.3,0.2C284.8,41.3,285,41.4,285.2,41.5z"/>
			<path class="st1" d="M292.9,36.9c0-0.1,0.1-0.1,0.1-0.2c-0.1,0-0.3,0-0.4,0C292.8,36.7,292.9,36.8,292.9,36.9z"/>
			<path class="st1" d="M285.4,50.4c0.2-0.4,0.4-0.8,0.7-1.2C285.8,49.6,285.5,50,285.4,50.4c-0.1,0.1-0.2,0.2-0.2,0.3
				C285.1,50.5,285.2,50.4,285.4,50.4z"/>
			<path class="st1" d="M293.4,36.6C293.4,36.6,293.4,36.5,293.4,36.6c0-0.1,0-0.1-0.1-0.1v0.1C293.3,36.6,293.3,36.6,293.4,36.6z"
				/>
			<path class="st1" d="M282.1,38.8C282,38.8,282,38.8,282.1,38.8C282,38.9,282,38.9,282.1,38.8C282,38.9,282.1,38.9,282.1,38.8z"/>
			<path class="st1" d="M328.9,109.5L328.9,109.5L328.9,109.5L328.9,109.5z"/>
			<path class="st1" d="M416.9,70.3c0.1,0.1,0.1,0.1,0.2,0.2c-0.1-0.1-0.1-0.2-0.2-0.3V70.3z"/>
			<path class="st1" d="M410.6,60.5L410.6,60.5C410.6,60.6,410.6,60.6,410.6,60.5L410.6,60.5z"/>
			<path class="st1" d="M409,96.6L409,96.6c-0.1,0.1-0.1,0.2-0.2,0.3c0.1,0.2,0.1,0.4,0.1,0.7C409,97.2,409,96.9,409,96.6z"/>
			<path class="st1" d="M318,94.6c0.1,0,0.2,0,0.3,0l0.1-0.1v-0.1c-0.1,0-0.2-0.1-0.2-0.1C318.1,94.3,318.1,94.5,318,94.6z"/>
			<path class="st1" d="M305.2,25.2C305.2,25.1,305.2,25.1,305.2,25.2C305.2,25.1,305.2,25.1,305.2,25.2L305.2,25.2z"/>
			<path class="st1" d="M297.1,63.8c0-0.1,0-0.2-0.1-0.4v0.1C297,63.6,297,63.7,297.1,63.8z"/>
		</g>
	</g>
</g>
<g>
	<g>
		<g>
			<path class="st2" d="M482.6,246.1c4.7-1.1,9.5-2.1,14.3-3c-32,23.7-75.7,38.9-124.2,40.3c4.2-2,8.4-3.9,12.6-5.7
				c15.7-6.8,31.6-12.9,47.9-18.1C449.4,254.3,465.9,249.8,482.6,246.1z"/>
		</g>
		<g>
			<path class="st2" d="M498.8,203.3c12.2-1.3,24.5-2.2,36.7-2.4c-6.9,11.8-16.1,22.8-27,32.7c-9.2,1.3-18.4,2.9-27.6,4.8
				c-17,3.5-33.8,8-50.3,13.3c-25.6,8.5-50.7,18.9-74.5,31.8c-22-0.8-43-4.4-62.4-10.3c3.8-2.3,7.6-4.6,11.4-6.8
				c14.9-8.4,30.2-16.1,45.9-22.8c15.7-6.8,31.6-12.9,47.9-18.1c16.2-5.3,32.7-9.8,49.4-13.5C465,208.1,481.9,205.3,498.8,203.3z"/>
		</g>
		<path class="st3" d="M274.4,230.5c-10.2,6.3-20.2,13.2-29.6,20.6c-29.9-18.8-51.6-44.4-60.7-73.5c7.6,2.6,15,5.3,22.4,8.3
			c15.9,6.3,31.5,13.2,46.7,21c10.7,5.4,21.3,11.2,31.6,17.5C281.3,226.3,277.9,228.3,274.4,230.5z"/>
		<path class="st3" d="M257.1,199.3c-24.2-12.2-49.3-22.5-75.2-30.2c-0.7-3-1.2-6.1-1.6-9.2h60.8c2.8,1,5.7,2.1,8.4,3.3
			c15.9,6.3,31.5,13.2,46.7,21c11.1,5.7,22,11.7,32.7,18.2c-12.2,5.2-24.2,11-35.9,17.4C281.3,212.4,269.3,205.6,257.1,199.3z"/>
		<path class="st3" d="M300,176.7c-12.1-6.1-24.5-11.7-37-16.8h54.1c6.4,2.9,12.7,6,19,9.2c11.1,5.6,22,11.7,32.6,18.1
			c-10.3,3.4-20.5,7.2-30.6,11.2C325.7,190.6,313,183.4,300,176.7z"/>
		<g>
			<path class="st2" d="M522.6,170.8c8.3,0.2,16.5,0.8,24.7,1.8c-2.1,8.1-5.1,15.9-9.1,23.4c-13.3-0.6-26.7-0.4-40,0.7
				c-17.3,1.2-34.5,3.9-51.5,7.3c-17,3.5-33.8,8-50.3,13.3c-32.9,10.9-64.9,25-94.5,43.3c-5.2,3.2-10.3,6.6-15.3,10.1
				c-13.2-4.6-25.6-10.2-37-16.9c9.1-6.4,18.6-12.2,28.3-17.8c14.9-8.4,30.2-16.1,45.9-22.8c15.7-6.8,31.6-12.9,47.9-18.1
				c16.2-5.3,32.7-9.8,49.4-13.5c16.7-3.8,33.5-6.6,50.5-8.6C488.4,171.2,505.5,170.3,522.6,170.8z"/>
		</g>
		<path class="st3" d="M387.8,159.9c9.2,4.7,18.1,9.7,27,14.9c-12,2.6-24,5.7-35.8,9.2c-12.7-8.1-25.8-15.5-39.1-22.5
			c-1.2-0.6-2.3-1.2-3.5-1.7h51.4V159.9z"/>
		<path class="st3" d="M549.8,159.9c-0.4,3.5-1.1,7-1.9,10.4c-8.3-1.7-16.7-2.8-25.1-3.6c-17.3-1.5-34.7-1.5-52-0.1
			c-15.8,1.1-45.5,5.8-44.8,5.5c-6.8-4.2-13.6-8.3-20.6-12.2L549.8,159.9L549.8,159.9z"/>
	</g>
</g>
<path class="st4" d="M288.8,125.2c0,0,0.1-1.5-1.8-4.3c-1.8,0.2-2.7-0.3-7.6,1.8c2.3-3.2,4.4-7.5,3.1-11.6c-2.3-0.3-4.3-1-7.8,1.3
	c-0.6-2.4-2.5-4.4-7.2-5.6c-2.3,2-5.1,4.4-5.1,11.6c-1.6-0.5-3.4,0.8-5.2,1.7c0.1-1.5-1.4-2.5-2.8-4.5c-1.3-0.5-2-1.1-8.6-1.1
	c3.2-0.5,6.5-3.1,8.2-6.6c-1.1-1.5-1.6-4.7-7.3-5.1c3.1-2.6,4.3-7.5,3.4-11.4c-3-1-5.8-2.2-10,0.4c0.2-2.8-0.7-6.5-3.3-8.8
	c-3.4,0.4-7.3,1.7-9.2,6.5c-1-2.7-3.4-4.5-8-4.3c-1.4,3-2.9,9.7-0.2,15.8c-2.1-0.8-5.2,0-7.7,1.4c-0.3,2.4-0.6,5.5,2.6,8.3
	c-1,0.6-1.1,2-1.1,2s0.3,1.9,0.8,4.4c-2-1.8-4.6-3-7.8-3.6c-0.5,0.7-2.5,2.4-2.2,6.6c-1.9-0.3-2.9-0.2-5.6,0.7c-0.6,2-0.5,5,2.6,8.6
	c-0.6,0.6-0.8,1.5-1,3.8c-0.9-1.2-3.9-1.5-3.9-1.5s-1,0.9-1.7,2.8c-0.4-2.6-4-7-7.3-8c-1.8,2.6-3.7,8.5,0.1,12.9
	c-1-0.2-3.8,0-6.1,0.7c0,2.6,0.8,7,4.3,8.2c23.9-5.1,79-9.3,100.4-6.6C286.7,132.4,288.8,125.2,288.8,125.2z M204.8,125.1
	c3-2.1,7.1-0.2,6.1,3.9C206.9,128.7,205.1,126.4,204.8,125.1z M221.4,125.3c-5.8-1.7-3.4-5.2-3.4-6.3
	C222.1,119.1,223.5,123.4,221.4,125.3z M224.3,112.3c-3.9-0.5-6-2.4-6.7-5.5C221.4,104.9,226,106.4,224.3,112.3z M227.5,100.1
	c-3.1-1.6-6.1-3.4-5-7.5C226.8,92,229.9,95.6,227.5,100.1z M232.3,110.8c-1-4,1.5-6.8,4.3-6.5C238,107.4,236.5,110.5,232.3,110.8z
	 M262,130.2c0.1-3.3,1.3-5.1,5.9-5C268.1,126.7,267.5,131,262,130.2z M268.4,121c-2.7-3.5-1.8-7.3-0.2-8.7
	C272.3,114.8,272.4,118.4,268.4,121z"/>
<rect x="187.2" y="138.4" class="st4" width="98.5" height="9.4"/>
<g>
	<g>
		<g>
			<path class="st3" d="M493.4,47.8h-17.6V9.5h16.8c8.5,0,13.3,4.2,13.3,9.9c0,4.7-3,7.6-7,8.8c4.6,0.8,7.9,4.8,7.9,9.3
				C506.8,43.5,501.9,47.8,493.4,47.8z M491.5,15.7H484v9.6h7.5c3.9,0,6.1-1.6,6.1-4.8C497.6,17.5,495.3,15.7,491.5,15.7z
				 M492.1,31.2H484v10.3h8.2c4,0,6.3-1.8,6.3-5C498.5,33.2,496,31.2,492.1,31.2z"/>
			<g>
				<path class="st2" d="M543.9,47.8h-8.2V44c-2,2.6-5.6,4.2-9.6,4.2c-7.5,0-13-4.6-13-13V24.9h8.2v9.2c0,4.9,2.9,7.5,7.2,7.5
					c4.4,0,7.2-2.6,7.2-7.5v-9.2h8.2L543.9,47.8L543.9,47.8z"/>
			</g>
			<path class="st3" d="M552,7.2h8.2v23.1L571,17.4h10.6l-14.3,15.3l14.4,15.1h-10.6l-11-13v13H552V7.2z"/>
			<path class="st3" d="M585.2,12.5c0-2.5,2.1-4.5,5-4.5s5,2,5,4.5s-2.2,4.5-5,4.5C587.3,17,585.2,15,585.2,12.5z M586.1,20.6h8.2
				v27.2h-8.2V20.6z"/>
			<path class="st3" d="M603.6,23.7h-3.9v-6.3h3.9V9.9h8.2v7.5h7.2v6.3h-7.2v14.7c0,2,0.9,2.9,3.4,2.9h3.8v6.5h-5
				c-6.2,0-10.3-2.5-10.3-9.4V23.7H603.6z"/>
			<path class="st3" d="M493.9,100.7h-17.6V62.4h16.8c8.5,0,13.3,4.2,13.3,9.9c0,4.7-3,7.6-7,8.8c4.6,0.8,7.9,4.8,7.9,9.3
				C507.3,96.4,502.4,100.7,493.9,100.7z M492,68.6h-7.5v9.6h7.5c3.9,0,6.1-1.6,6.1-4.8C498.1,70.3,495.8,68.6,492,68.6z
				 M492.6,84.1h-8.1v10.3h8.2c4,0,6.3-1.8,6.3-5C499.1,86.1,496.5,84.1,492.6,84.1z"/>
			<path class="st3" d="M513,66.5c0-2.5,2.1-4.5,5-4.5s5,2,5,4.5s-2.2,4.5-5,4.5C515.1,71,513,69,513,66.5z M513.9,74.6h8.2v26.1
				h-8.2V74.6z"/>
			<path class="st3" d="M542.8,69.8c5.2,0,8.8,2.3,10.7,4.8v-4.3h8.2v30.4h-8.2v-4.4c-1.9,2.6-5.6,4.9-10.7,4.9
				c-8.2,0-14.7-6.3-14.7-15.8S534.6,69.8,542.8,69.8z M544.9,76.5c-4.4,0-8.5,3.1-8.5,8.8s4.1,9.1,8.5,9.1c4.5,0,8.6-3.2,8.6-8.9
				S549.4,76.5,544.9,76.5z"/>
			<path class="st3" d="M569.7,60.1h8.2v23.1l10.9-12.9h10.6l-14.3,15.3l14.4,15.1h-10.6l-11-13v13h-8.2L569.7,60.1L569.7,60.1z"/>
			<g>
				<path class="st2" d="M513.2,17.9c0-2.5,2.1-4.5,5-4.5s5,2,5,4.5s-2.2,4.5-5,4.5C515.3,22.4,513.2,20.4,513.2,17.9z"/>
			</g>
			<g>
				<path class="st2" d="M534.7,17.9c0-2.5,2.1-4.5,5-4.5s5,2,5,4.5s-2.2,4.5-5,4.5C536.8,22.4,534.7,20.4,534.7,17.9z"/>
			</g>
		</g>
	</g>
	<text transform="matrix(1 0 0 1 475.5836 122.2745)" class="st1 st5 st6">Peternakan</text>
	<text transform="matrix(1 0 0 1 475.5836 141.5745)" class="st1 st5 st6">Kambing &amp; Domba</text>
</g>
</svg>
