<?xml version="1.0" encoding="utf-8"?>
<!-- Generator: Adobe Illustrator 21.0.0, SVG Export Plug-In . SVG Version: 6.00 Build 0)  -->
<svg version="1.1" id="Layer_1" xmlns="http://www.w3.org/2000/svg" xmlns:xlink="http://www.w3.org/1999/xlink" x="0px" y="0px" width="64px" height="60px"
	 viewBox="0 0 64 60" style="enable-background:new 0 0 64 60;" xml:space="preserve">
<style type="text/css">
	.st0{opacity:0.73;fill:url(#SVGID_1_);enable-background:new    ;}
	.st1{fill:#49A242;}
	.st2{fill:#FFCC56;}
</style>
<radialGradient id="SVGID_1_" cx="-242.7389" cy="2319.595" r="13.2107" fx="-252.2879" fy="2319.373" gradientTransform="matrix(1.1856 -0.1701 9.260459e-02 0.6455 115.1373 -1488.1862)" gradientUnits="userSpaceOnUse">
	<stop  offset="9.999999e-08" style="stop-color:#4D4D4D"/>
	<stop  offset="1" style="stop-color:#FFFFFF;stop-opacity:0"/>
</radialGradient>
<path class="st0" d="M63.3,47.4c0.7,4.8-8.3,10.1-20,11.7c-11.7,1.7-21.8-0.8-22.4-5.6c-0.7-4.8,8.3-10.1,20-11.7
	S62.7,42.6,63.3,47.4z"/>
<path class="st1" d="M31.4,0.4h-0.2c-12,0-21.8,9.8-21.8,22v0.2c0,10.7,7.5,19.5,17.7,21.5l4.3,9.5l4.3-9.5
	c10.1-2,17.7-10.9,17.7-21.5v-0.2C53.4,10.2,43.6,0.4,31.4,0.4z"/>
<g>
	<g>
		<path class="st2" d="M41.6,33.8H36v-2.6c-1.4,1.8-3.8,2.8-6.5,2.8c-5.1,0-8.8-3.1-8.8-8.8v-7h5.6v6.2c0,3.3,2,5.1,4.9,5.1
			c3,0,4.9-1.8,4.9-5.1v-6.2h5.6L41.6,33.8L41.6,33.8z"/>
	</g>
	<g>
		<path class="st2" d="M20.8,13.6c0-1.7,1.4-3,3.4-3s3.4,1.4,3.4,3s-1.5,3-3.4,3C22.2,16.6,20.8,15.3,20.8,13.6z"/>
	</g>
	<g>
		<path class="st2" d="M35.3,13.6c0-1.7,1.4-3,3.4-3c2,0,3.4,1.4,3.4,3s-1.5,3-3.4,3C36.7,16.6,35.3,15.3,35.3,13.6z"/>
	</g>
</g>
</svg>
