<?xml version="1.0" encoding="utf-8"?>
<!-- Generator: Adobe Illustrator 21.0.0, SVG Export Plug-In . SVG Version: 6.00 Build 0)  -->
<svg version="1.1" id="Capa_1" xmlns="http://www.w3.org/2000/svg" xmlns:xlink="http://www.w3.org/1999/xlink" x="0px" y="0px"
	 viewBox="0 0 320 220" style="enable-background:new 0 0 320 220;" xml:space="preserve">
<style type="text/css">
	.st0{fill:#279220;}
</style>
<g>
	<path class="st0" d="M118.2,92.9c19.6,12.8,28.1,33.3,28.1,55.4c0,40.9-29.8,69.9-70.8,69.9c-37.5,0-69.9-24.7-69.9-69.9
		c0-21.3,7.7-39.2,18.8-56.3L86.7,1.7h69.9L118.2,92.9z M276,92.9c19.6,12.8,28.1,33.3,28.1,55.4c0,40.9-29.8,69.9-70.8,69.9
		c-37.5,0-69.9-24.7-69.9-69.9c0-21.3,7.7-39.2,18.8-56.3l62.2-90.4h69.9L276,92.9z"/>
</g>
</svg>
