<?xml version="1.0" encoding="utf-8"?>
<!-- Generator: Adobe Illustrator 21.0.0, SVG Export Plug-In . SVG Version: 6.00 Build 0)  -->
<svg version="1.1" id="Layer_1" xmlns="http://www.w3.org/2000/svg" xmlns:xlink="http://www.w3.org/1999/xlink" x="0px" y="0px"
	 viewBox="0 0 100 100" style="enable-background:new 0 0 100 100;" xml:space="preserve">
<style type="text/css">
	.st0{fill:#FF5722;}
</style>
<path class="st0" d="M90.2,28.4H69.4C67,7.6,57,0.6,49.1,1c-9,0.4-18,10-18.4,27.4H9.8c-1.6,0-2.9,1.3-2.9,2.9L10.8,90
	c0,1.6,4.3,9,11.1,9h56.5c9.9-1.5,11.1-9.8,11.1-11.4l3.5-56.2C93.1,29.7,91.8,28.4,90.2,28.4z M49.3,5.9
	c5.8-0.3,13.1,5.5,15.2,22.5H35.5C35.9,14.2,42.8,6.2,49.3,5.9z M55.2,86.6c-6.7,1.3-15.4-1-20.1-6c-2.1-2.3,1.3-5.7,3.4-3.4
	c3.2,3.4,8.8,5,13.4,4.9c5.9-0.1,11.1-5.5,7.8-11.5c-4.6-8.3-16-6-21.9-12.5c-4.7-5.2-2.5-13.5,3.1-17.2c5.8-3.8,15.8-3.7,20.6,1.8
	c2.1,2.3-1.4,5.8-3.4,3.4c-3.9-4.4-13-3.8-16.4,0.7c-4.9,6.5,2.5,10,7.6,11.6c7.1,2.2,15,6.1,16.3,14.2
	C66.6,79.3,61.5,85.4,55.2,86.6z"/>
</svg>
