<?xml version="1.0" encoding="utf-8"?>
<!-- Generator: Adobe Illustrator 21.0.0, SVG Export Plug-In . SVG Version: 6.00 Build 0)  -->
<svg version="1.1" id="Layer_1" xmlns="http://www.w3.org/2000/svg" xmlns:xlink="http://www.w3.org/1999/xlink" x="0px" y="0px"
	 viewBox="0 0 100 100" style="enable-background:new 0 0 100 100;" xml:space="preserve">
<style type="text/css">
	.st0{fill:#4F9D4D;}
	.st1{fill:#6FBF69;}
	.st2{fill:#3BB44A;}
	.st3{opacity:0.62;}
	.st4{opacity:0.25;fill:#F5EA14;}
	.st5{fill:#D8DF25;}
	.st6{fill:#FFFFFF;}
	.st7{fill:#E5E5E4;}
	.st8{fill:#333333;}
	.st9{fill:#FFF6AE;}
	.st10{fill:#F5B561;}
</style>
<g>
	<g>
		<path class="st0" d="M93.2,19.2v54.5c0,13.1-10.2,24.1-23.3,24.1H6.2V19.2c0,0,36.3-2.4,43.5,5.8C56.9,16.8,93.2,19.2,93.2,19.2z"
			/>
	</g>
	<path class="st1" d="M7.5,20.4L7.3,96.2l42.9,0.2l-0.5-70.1C41.8,17.1,7.5,20.4,7.5,20.4z"/>
	<path class="st2" d="M92.2,20.3L92,74.9c0,12.3-10.2,21.5-22.6,21.5l-19.2-0.1l-0.6-70.3C56.5,18.3,92.2,20.3,92.2,20.3z"/>
	<g class="st3">
		<path class="st4" d="M50,67.2l0.1,29.2l-33.2-0.1v-1.2C16.9,79.8,31.8,67.3,50,67.2z"/>
	</g>
	<path class="st4" d="M69,96.4H50.1l0-29.1c0.2-0.1-0.1-0.1,0.4-0.1c16.5-0.1,30.8,10.9,33.3,24.1C83.8,91.3,76.4,97.4,69,96.4z"/>
	<path class="st5" d="M50.2,67.2c0,0-0.1,0-0.1,0v0H50.2z"/>
	<g>
		<path class="st6" d="M43.1,64.2c-0.8,0.7-1.6,1.4-2.5,2C41.2,65.6,42,64.9,43.1,64.2z"/>
		<path class="st6" d="M47.4,50.9c0,9.5-7.8,17.3-17.3,17.3c-9.5,0-17.3-7.8-17.3-17.3c0-9.5,7.8-17.3,17.3-17.3
			C39.7,33.6,47.4,41.3,47.4,50.9z"/>
		<path d="M40.4,67.9c1.6-1,3.1-2.2,4.3-3.5C42.4,65.6,40.9,67.3,40.4,67.9z M40.6,66.2c0.9-0.6,1.7-1.3,2.5-2
			C42,64.9,41.2,65.6,40.6,66.2z"/>
	</g>
	<g>
		<path class="st6" d="M87.3,51.2c0,9.5-7.8,17.3-17.3,17.3c-9.5,0-17.3-7.8-17.3-17.3c0-9.5,7.8-17.3,17.3-17.3
			C79.6,33.9,87.3,41.6,87.3,51.2z"/>
	</g>
	<path class="st7" d="M87,52.2c0,9-7.3,16.3-16.3,16.3c-9,0-17.9-7-17.9-16c0-1.6,0.2-3,0.6-4.4c0.8,8.2,9.6,16.1,17.9,14.2
		c6.5-1.6,11.9-4.8,15.6-13.2C87,50.2,87,50.3,87,52.2z"/>
	<path class="st7" d="M47.1,52.2c0,9-7.1,15.7-16.1,16c-9.9,0.3-17.9-7-17.9-16c0-1.6,0.2-3,0.6-4.4c0.8,8.2,9.4,14.2,17.9,14.2
		c7.4,0,13.5-5.1,15.5-11.9C47.1,50.6,47.1,51.6,47.1,52.2z"/>
	<path class="st8" d="M43.7,51.3c0,6.4-5.2,11.5-11.5,11.5s-11.5-5.2-11.5-11.5c0-1.7,0.4-3.3,1-4.8c1,1.5,2.8,2.5,4.7,2.5
		c3.2,0,5.8-2.6,5.8-5.8c0-1.3-0.4-2.5-1.1-3.4c0.4,0,0.8-0.1,1.1-0.1C38.5,39.7,43.7,44.9,43.7,51.3z"/>
	<path class="st8" d="M78.7,50.9c0,6.4-5.2,11.5-11.5,11.5s-11.5-5.2-11.5-11.5c0-1.7,0.4-3.3,1-4.8c1,1.5,2.8,2.5,4.7,2.5
		c3.2,0,5.8-2.6,5.8-5.8c0-1.3-0.4-2.5-1.1-3.4c0.4,0,0.8-0.1,1.1-0.1C73.5,39.4,78.7,44.6,78.7,50.9z"/>
	<path class="st8" d="M93.6,17.8c-0.1,0-9.3-0.6-19.2-0.2c-1.3,0.1-2.6,0.1-3.8,0.2c-0.4-1.6-1.3-4.7-3.4-7.9c-2.7-4.1-7.2-9-17.3-9
		c-9,0-13.9,4.9-16.5,9c-2,3.2-2.9,6.3-3.2,7.9c-1.5-0.1-3-0.2-4.6-0.3c-9.9-0.4-19.1,0.2-19.2,0.2l-1.2,0.1V99h65
		c13.6,0,24.6-11.4,24.6-25.4V17.9L93.6,17.8z M49.9,4.9c12.1,0,15.8,9.8,16.8,13.3c-8.1,0.9-13.9,2.5-16.9,5
		c-3.3-2.5-8.4-4.1-15.7-4.9C34.9,14.8,38.3,4.9,49.9,4.9z M92.2,73.6c0,12.6-9.9,22.8-22,22.8H7.8V20.3c10.7-0.6,32.1-1.5,41.2,5.5
		l0.7,0.5l1.2-0.9c8.2-6.2,30.5-5.7,41.2-5.1V73.6z"/>
	<g>
		<path class="st8" d="M70,31.3c-11,0-19.9,8.9-19.9,19.9c0,4.3,1.4,8.3,3.7,11.6c-1.6-0.6-3.2-0.8-4.7-0.7c-1.1,0.1-2.1,0.3-3,0.6
			c2.5-3.3,3.9-7.4,3.9-11.8c0-11-8.9-19.9-19.9-19.9c-11,0-19.9,8.9-19.9,19.9s8.9,19.9,19.9,19.9c3.3,0,6.4-0.8,9.1-2.2l10.9,12.2
			l10.8-11.9c2.7,1.4,5.9,2.2,9.2,2.2c11,0,19.9-8.9,19.9-19.9S81,31.3,70,31.3z M30.1,68.2c-9.5,0-17.3-7.8-17.3-17.3
			c0-9.5,7.8-17.3,17.3-17.3c9.5,0,17.3,7.8,17.3,17.3C47.4,60.4,39.7,68.2,30.1,68.2z M50.1,77.8l-8.7-9.7c1.1-1.2,3.9-3.8,7.8-4.1
			c3.2-0.2,6.4,1.1,9.6,4.2L50.1,77.8z M70,68.5c-9.5,0-17.3-7.8-17.3-17.3c0-9.5,7.8-17.3,17.3-17.3c9.5,0,17.3,7.8,17.3,17.3
			C87.3,60.7,79.6,68.5,70,68.5z"/>
		<path class="st9" d="M58.8,68.2l-8.7,9.6l-8.7-9.7c1.1-1.2,3.9-3.8,7.8-4.1C52.4,63.8,55.6,65.2,58.8,68.2z"/>
	</g>
	<path class="st10" d="M58.8,68.2l-8.7,9.6l0-13.8C52.6,63.7,57,66,58.8,68.2z"/>
</g>
</svg>
